<svg viewBox="0 0 88 82" fill="none" xmlns="http://www.w3.org/2000/svg" xmlns:xlink="http://www.w3.org/1999/xlink" x="0" y="0"><g id="Groupe 8840_2">
<path id="Rectangle 2058_2" d="M0.0004,7.9999c0,-4.42 3.581,-8 8,-8h72c4.42,0 8,3.58 8,8v66c0,4.42 -3.58,8 -8,8h-72c-4.419,0 -8,-3.58 -8,-8z" fill="white"/>
<path id="dior-svgrepo-com" d="M23.9904,51.9899h1.54c5.72,0 7.26,-0.53 9.28,-3.21c2.01,-2.68 2.25,-6.53 2.25,-7.83c0,-1.3 -0.34,-4.56 -2.36,-7.31c-2.02,-2.76 -5.38,-3.48 -8.33,-3.48h-2.4c-0.57,0 -0.6,0.25 -0.6,0.65v20.67c0,0.45 0.17,0.51 0.62,0.51zM14.6584,52.4699c0,-0.2 0.272,-0.24 0.522,-0.25c2.917,-0.08 3.462,-0.18 3.794,-0.53c0.183,-0.19 0.45,-0.34 0.45,-1.69v-18.6c0,-1.67 -2.03,-1.4 -3.461,-1.55c-0.503,-0.05 -0.545,-0.12 -0.545,-0.27c0,-0.14 0.096,-0.21 0.359,-0.22h11.753c12.91,0 13.57,9.44 13.57,11.96c0,5.41 -3.57,11.36 -11.05,11.36h-15.016c-0.183,0 -0.376,-0.02 -0.376,-0.21zM53.3804,47.5699c0.31,2.79 1.97,4.96 4.03,4.59c2.06,-0.36 3.09,-2.33 2.84,-5.48c-0.25,-3.21 -1.84,-4.81 -3.97,-4.62c-2.21,0.2 -3.21,2.72 -2.9,5.51zM55.4204,41.5699c2.66,-0.49 6.43,0.09 7.29,4.25c0.86,4.15 -2,6.37 -4.48,6.91c-2.43,0.52 -6.55,0.15 -7.29,-4.32c-0.63,-3.12 1.37,-6.17 4.48,-6.84zM45.8904,37.8199c0.85,0 1.54,-0.68 1.54,-1.53c0,-0.85 -0.69,-1.54 -1.54,-1.54c-0.85,0 -1.53,0.69 -1.53,1.54c0,0.85 0.68,1.53 1.53,1.53zM42.7104,43.7699c-0.08,-0.17 0.08,-0.27 0.54,-0.39c0.52,-0.14 1.66,-0.49 2.56,-1c0.91,-0.51 1.06,-0.56 1.25,-0.5c0.19,0.07 0.17,0.4 0.17,0.67v8.6c0,0.48 0.07,0.68 0.29,0.88c0.22,0.2 0.76,0.32 1.47,0.32c0.32,0 0.42,0.04 0.42,0.17c0,0.14 -0.1,0.14 -0.23,0.14h-6.23c-0.19,0 -0.24,-0.08 -0.24,-0.16c0,-0.1 0.09,-0.17 0.38,-0.17c0.24,0 1.37,0.09 1.63,-0.5c0.1,-0.22 0.15,-0.54 0.15,-0.83v-6.81c0,-0.52 -0.41,-0.75 -0.87,-0.64c-0.54,0.12 -1.17,0.43 -1.29,0.22zM64.6704,43.7699c-0.01,-0.12 -0.01,-0.21 0.54,-0.39c0.56,-0.17 1.91,-0.63 2.73,-1.08c0.81,-0.46 0.95,-0.52 1.14,-0.39c0.2,0.12 0.14,0.43 0.14,0.65v2.23c0.3,-0.5 1.29,-2.13 2.07,-2.62c0.61,-0.38 0.83,-0.41 1.21,-0.42c0.46,-0.01 1.54,0.27 1.59,1.42c0.03,0.89 -0.62,1.24 -1.04,1.19c-0.34,-0.05 -0.58,-0.36 -0.78,-0.67c-0.2,-0.31 -0.52,-0.5 -0.83,-0.39c-0.32,0.11 -2.11,1.27 -2.21,2.92c-0.07,1.21 0,4.99 0,4.99c0,0.57 0.22,0.79 0.47,0.95c0.26,0.15 1.2,0.16 1.46,0.2c0.27,0.04 0.26,0.1 0.26,0.18c0,0.08 0,0.12 -0.24,0.12h-6.28c-0.2,0 -0.28,-0.04 -0.28,-0.16c0,-0.16 0.26,-0.13 0.46,-0.16c0.2,-0.03 1.27,0.06 1.57,-0.47c0.22,-0.35 0.2,-0.92 0.2,-0.92l-0.03,-6.64c0,-0.53 -0.16,-0.61 -0.31,-0.7c-0.15,-0.08 -0.4,-0.13 -0.92,0.05c-0.49,0.16 -0.82,0.31 -0.92,0.11z" fill="currentColor"/>
</g></svg>