<svg viewBox="0 0 89 82" fill="none" xmlns="http://www.w3.org/2000/svg" xmlns:xlink="http://www.w3.org/1999/xlink" x="0" y="0"><g id="Groupe 8840_4">
<path id="Rectangle 2058_4" d="M-0.0004,7.9999c0,-4.42 3.582,-8 8,-8h73c4.419,0 8,3.58 8,8v66c0,4.42 -3.581,8 -8,8h-73c-4.418,0 -8,-3.58 -8,-8z" fill="white"/>
<path id="chanel-svgrepo-com_2" d="M30.6676,20.2499c-4.16,0.83 -7.982,2.87 -10.982,5.87l5.076,5.08c1.995,-2 4.538,-3.36 7.306,-3.91c2.089,-0.42 4.235,-0.36 6.282,0.16c-0.515,0.61 -0.997,1.25 -1.444,1.92c-2.357,3.53 -3.615,7.67 -3.615,11.92c0,4.24 1.258,8.39 3.615,11.91c0.447,0.67 0.929,1.31 1.444,1.92c-2.047,0.52 -4.193,0.58 -6.282,0.16c-2.768,-0.55 -5.311,-1.91 -7.306,-3.9l-5.076,5.07c3,3 6.822,5.05 10.982,5.87c4.161,0.83 8.473,0.41 12.393,-1.22c0.591,-0.24 1.171,-0.51 1.735,-0.81c0.565,0.3 1.144,0.57 1.736,0.81c3.919,1.63 8.232,2.05 12.392,1.22c4.161,-0.82 7.983,-2.87 10.982,-5.87l-5.075,-5.07c-1.996,1.99 -4.539,3.35 -7.307,3.9c-2.088,0.42 -4.234,0.36 -6.282,-0.16c0.515,-0.61 0.998,-1.25 1.444,-1.92c2.357,-3.52 3.615,-7.67 3.615,-11.91c0,-4.25 -1.258,-8.39 -3.615,-11.92c-0.446,-0.67 -0.929,-1.31 -1.444,-1.92c2.048,-0.52 4.194,-0.58 6.282,-0.16c2.768,0.55 5.311,1.91 7.307,3.91l5.075,-5.08c-2.999,-3 -6.821,-5.04 -10.982,-5.87c-4.16,-0.83 -8.473,-0.4 -12.392,1.22c-0.592,0.25 -1.171,0.52 -1.736,0.81c-0.564,-0.29 -1.144,-0.56 -1.735,-0.81c-3.92,-1.62 -8.232,-2.05 -12.393,-1.22zM44.7956,31.0499c-0.716,0.7 -1.361,1.47 -1.922,2.31c-1.568,2.35 -2.405,5.1 -2.405,7.93c0,2.82 0.837,5.58 2.405,7.93c0.561,0.83 1.206,1.61 1.922,2.3c0.717,-0.69 1.362,-1.47 1.922,-2.3c1.568,-2.35 2.405,-5.11 2.405,-7.93c0,-2.83 -0.837,-5.58 -2.405,-7.93c-0.56,-0.84 -1.205,-1.61 -1.922,-2.31z" fill="currentColor"/>
</g></svg>