<svg viewBox="0 0 128.9155 40.2335" fill="none" xmlns="http://www.w3.org/2000/svg" xmlns:xlink="http://www.w3.org/1999/xlink" x="0" y="0"><path id="airbnb_2" d="M67.9422,10.1103c0,1.45 -1.168,2.62 -2.618,2.62c-1.45,0 -2.617,-1.17 -2.617,-2.62c0,-1.45 1.127,-2.62 2.617,-2.62c1.491,0.04 2.618,1.21 2.618,2.62zM57.1492,15.3903v0.64c0,0 -1.248,-1.61 -3.906,-1.61c-4.39,0 -7.814,3.34 -7.814,7.97c0,4.59 3.384,7.98 7.814,7.98c2.698,0 3.906,-1.66 3.906,-1.66v0.69c0,0.32 0.242,0.56 0.564,0.56h3.262v-15.14h-3.262c-0.322,0 -0.564,0.28 -0.564,0.57zM57.1492,25.0903c-0.604,0.89 -1.812,1.65 -3.262,1.65c-2.577,0 -4.551,-1.61 -4.551,-4.35c0,-2.74 1.974,-4.35 4.551,-4.35c1.41,0 2.699,0.81 3.262,1.65zM63.3912,14.8203h3.866v15.14h-3.866zM121.1432,14.4203c-2.658,0 -3.907,1.61 -3.907,1.61v-8.5h-3.866v22.43h3.263c0.322,0 0.563,-0.28 0.563,-0.56v-0.68c0,0 1.249,1.65 3.906,1.65c4.39,0 7.813,-3.39 7.813,-7.98c0,-4.59 -3.423,-7.97 -7.772,-7.97zM120.4992,26.7003c-1.491,0 -2.658,-0.76 -3.263,-1.65v-5.4c0.605,-0.8 1.893,-1.65 3.263,-1.65c2.577,0 4.55,1.61 4.55,4.35c0,2.74 -1.973,4.35 -4.55,4.35zM111.3572,20.9803v9.02h-3.867v-8.57c0,-2.5 -0.805,-3.51 -2.979,-3.51c-1.167,0 -2.376,0.61 -3.142,1.49v10.55h-3.865v-15.14h3.059c0.323,0 0.564,0.28 0.564,0.57v0.64c1.128,-1.17 2.618,-1.61 4.108,-1.61c1.692,0 3.101,0.48 4.229,1.45c1.369,1.13 1.893,2.58 1.893,5.11zM88.1192,14.4203c-2.658,0 -3.907,1.61 -3.907,1.61v-8.5h-3.865v22.43h3.261c0.322,0 0.564,-0.28 0.564,-0.56v-0.68c0,0 1.249,1.65 3.906,1.65c4.391,0 7.814,-3.39 7.814,-7.98c0.04,-4.59 -3.383,-7.97 -7.773,-7.97zM87.4742,26.7003c-1.49,0 -2.657,-0.76 -3.262,-1.65v-5.4c0.605,-0.8 1.893,-1.65 3.262,-1.65c2.578,0 4.551,1.61 4.551,4.35c0,2.74 -1.973,4.35 -4.551,4.35zM77.0042,14.4203c1.167,0 1.771,0.2 1.771,0.2v3.58c0,0 -3.221,-1.08 -5.235,1.21v10.59h-3.866v-15.18h3.262c0.322,0 0.563,0.28 0.563,0.56v0.65c0.726,-0.85 2.297,-1.61 3.505,-1.61zM36.8522,28.5903c-0.201,-0.48 -0.403,-1 -0.604,-1.45c-0.323,-0.72 -0.645,-1.41 -0.926,-2.05l-0.04,-0.04c-2.78,-6.04 -5.759,-12.16 -8.901,-18.2l-0.121,-0.24c-0.33,-0.63 -0.652,-1.26 -0.966,-1.9c-0.403,-0.72 -0.805,-1.49 -1.45,-2.21c-1.288,-1.61 -3.141,-2.5 -5.114,-2.5c-2.014,0 -3.826,0.89 -5.155,2.42c-0.604,0.72 -1.047,1.49 -1.45,2.21c-0.314,0.64 -0.636,1.27 -0.966,1.89l-0.121,0.25c-3.101,6.04 -6.121,12.16 -8.9,18.2l-0.041,0.08c-0.281,0.64 -0.604,1.33 -0.926,2.05c-0.201,0.45 -0.403,0.93 -0.604,1.45c-0.524,1.49 -0.685,2.9 -0.483,4.35c0.443,3.02 2.456,5.56 5.236,6.69c1.047,0.44 2.134,0.64 3.262,0.64c0.322,0 0.724,-0.04 1.047,-0.08c1.329,-0.16 2.698,-0.6 4.028,-1.37c1.651,-0.92 3.221,-2.25 4.993,-4.18c1.772,1.93 3.383,3.26 4.994,4.18c1.33,0.77 2.698,1.21 4.027,1.37c0.322,0.04 0.726,0.08 1.048,0.08c1.128,0 2.255,-0.2 3.261,-0.64c2.82,-1.13 4.793,-3.71 5.236,-6.69c0.32,-1.41 0.159,-2.82 -0.364,-4.31zM18.6892,30.6903c-2.175,-2.74 -3.584,-5.32 -4.067,-7.49c-0.201,-0.93 -0.242,-1.73 -0.121,-2.46c0.08,-0.64 0.322,-1.21 0.645,-1.69c0.765,-1.09 2.053,-1.77 3.544,-1.77c1.49,0 2.819,0.64 3.544,1.77c0.322,0.48 0.564,1.05 0.645,1.69c0.12,0.73 0.08,1.57 -0.121,2.46c-0.485,2.13 -1.895,4.71 -4.069,7.49zM34.7572,32.5803c-0.281,2.1 -1.691,3.91 -3.664,4.71c-0.966,0.41 -2.014,0.53 -3.061,0.41c-1.006,-0.13 -2.014,-0.45 -3.06,-1.05c-1.45,-0.81 -2.9,-2.05 -4.591,-3.91c2.657,-3.26 4.268,-6.24 4.873,-8.9c0.282,-1.25 0.322,-2.37 0.201,-3.42c-0.161,-1.01 -0.524,-1.93 -1.087,-2.74c-1.25,-1.81 -3.344,-2.86 -5.679,-2.86c-2.335,0 -4.43,1.09 -5.678,2.86c-0.564,0.81 -0.927,1.73 -1.088,2.74c-0.161,1.05 -0.121,2.21 0.202,3.42c0.603,2.66 2.255,5.68 4.872,8.94c-1.651,1.86 -3.141,3.1 -4.591,3.91c-1.048,0.6 -2.054,0.93 -3.06,1.05c-1.087,0.12 -2.135,-0.04 -3.061,-0.41c-1.973,-0.8 -3.383,-2.61 -3.665,-4.71c-0.12,-1.01 -0.04,-2.01 0.363,-3.14c0.12,-0.4 0.322,-0.8 0.523,-1.29c0.282,-0.64 0.604,-1.33 0.926,-2.01l0.041,-0.08c2.779,-6 5.759,-12.12 8.86,-18.08l0.12,-0.25c0.323,-0.6 0.645,-1.24 0.967,-1.85c0.322,-0.64 0.685,-1.25 1.128,-1.77c0.846,-0.97 1.973,-1.49 3.222,-1.49c1.249,0 2.376,0.52 3.222,1.49c0.443,0.52 0.805,1.13 1.127,1.77c0.323,0.61 0.645,1.25 0.967,1.85l0.121,0.25c3.054,5.98 5.994,12.02 8.82,18.12v0.04c0.322,0.64 0.604,1.37 0.926,2.01c0.201,0.49 0.403,0.89 0.524,1.29c0.321,1.05 0.442,2.05 0.28,3.1z" fill="currentColor"/></svg>