<svg viewBox="0 0 111.9317 33.677" fill="none" xmlns="http://www.w3.org/2000/svg" xmlns:xlink="http://www.w3.org/1999/xlink" x="0" y="0"><g id="logo-amazon_2">
<path id="Tracé 10175_2" d="M23.8169,8.0397v10.83c0,0.36 -0.29,0.66 -0.66,0.66h-3.42c-0.36,0 -0.66,-0.3 -0.66,-0.66v-17.62c0,-0.36 0.3,-0.66 0.66,-0.66h3.17c0.36,0 0.66,0.3 0.66,0.66v2.48c0,0 1.13,-3.54 4.49,-3.54c0,0 3.31,-0.4 4.66,3.29c0,0 1.13,-3.29 4.56,-3.29c0,0 5.1,-0.3 5.1,4.98l0.04,2.9v10.83c0,0.37 -0.3,0.66 -0.66,0.66h-3.42c-0.36,0 -0.66,-0.29 -0.66,-0.66l-0.03,-11.81c0.1,-2.68 -2.07,-2.48 -2.07,-2.48c-2.72,0.05 -2.46,3.46 -2.46,3.46v10.83c0,0.37 -0.3,0.66 -0.66,0.66h-3.42c-0.37,0 -0.66,-0.29 -0.66,-0.66v-11.54c0,0 0.2,-2.78 -2.23,-2.78c0,0 -2.41,-0.31 -2.33,3.46zM111.9269,7.9997v10.83c0,0.37 -0.29,0.66 -0.66,0.66l-3.55,0.07c-0.37,0 -0.66,-0.29 -0.66,-0.66v-11.54c0,0 0.2,-2.78 -2.24,-2.78c0,0 -2.32,-0.11 -2.32,4.24v10.04c0,0.37 -0.29,0.67 -0.66,0.67h-3.42c-0.36,0 -0.66,-0.3 -0.66,-0.67v-17.61c0,-0.36 0.3,-0.66 0.66,-0.66h3.16c0.37,0 0.67,0.3 0.67,0.66v2.48c0,0 1.13,-3.54 4.48,-3.54c0,0 3.6,-0.54 4.81,3.22c0,0 0.39,0.77 0.39,4.59zM87.2469,0.1197c-4.37,0 -7.91,3.69 -7.91,9.89c0,5.46 2.73,9.88 7.91,9.88c4.89,0 7.92,-4.42 7.92,-9.88c0,-6.09 -3.54,-9.89 -7.92,-9.89zM90.0069,10.2297c0,2.33 -0.29,3.57 -0.29,3.57c-0.41,2.47 -2.21,2.47 -2.47,2.46c-0.28,0.01 -2.09,-0.02 -2.46,-2.46c0,0 -0.3,-1.24 -0.3,-3.57v-0.39c0,-2.34 0.3,-3.58 0.3,-3.58c0.37,-2.44 2.18,-2.47 2.46,-2.46c0.26,-0.01 2.06,-0.01 2.47,2.46c0,0 0.29,1.24 0.29,3.58zM77.3569,3.7097v-2.53c0,-0.36 -0.3,-0.66 -0.67,-0.66h-11.3c-0.36,0 -0.66,0.3 -0.66,0.66v2.51c0,0.36 0.3,0.66 0.66,0.66h5.9l-6.98,10.12c0,0 -0.27,0.41 -0.26,0.86v3.08c0,0 -0.05,1.06 1.15,0.44c0,0 2.12,-1.28 5.69,-1.28c0,0 3.52,-0.04 5.87,1.4c0,0 0.97,0.44 0.97,-0.54v-2.67c0,0 0.09,-0.71 -0.84,-1.16c0,0 -2.7,-1.48 -6.24,-1.24zM16.4369,16.3797l-1.07,-1.63c-0.34,-0.61 -0.31,-1.29 -0.31,-1.29v-7.51c0.14,-6.5 -7.05,-5.94 -7.05,-5.94c-6.4,0 -7.35,4.98 -7.35,4.98c-0.26,1 0.51,1.03 0.51,1.03l3.13,0.31c0,0 0.53,0.13 0.72,-0.51c0,0 0.42,-2.17 2.72,-2.17c2.5,0 2.48,2.15 2.48,2.15v1.8c-5,0.17 -7.32,1.56 -7.32,1.56c-3.09,1.75 -2.89,5.22 -2.89,5.22c0,5.67 5.39,5.43 5.39,5.43c3.46,0 5.5,-2.53 5.5,-2.53c0.61,1.07 1.73,2.09 1.73,2.09c0.56,0.61 1.14,0.1 1.14,0.1l2.53,-2.17c0.56,-0.41 0.14,-0.92 0.14,-0.92zM7.0869,16.3097c-1.63,0 -2.23,-1.62 -1.96,-3.2c0.27,-1.59 1.67,-2.84 5.09,-2.8v0.97c0.12,4.21 -1.78,5.03 -3.13,5.03zM61.8669,16.3797l-1.07,-1.63c-0.34,-0.61 -0.32,-1.29 -0.32,-1.29v-7.51c0.15,-6.5 -7.05,-5.94 -7.05,-5.94c-6.4,0 -7.34,4.98 -7.34,4.98c-0.27,1 0.5,1.03 0.5,1.03l3.13,0.31c0,0 0.53,0.13 0.73,-0.51c0,0 0.41,-2.17 2.71,-2.17c2.51,0 2.48,2.15 2.48,2.15v1.8c-5,0.17 -7.32,1.56 -7.32,1.56c-3.09,1.75 -2.89,5.22 -2.89,5.22c0,5.67 5.4,5.43 5.4,5.43c3.45,0 5.49,-2.53 5.49,-2.53c0.61,1.07 1.73,2.09 1.73,2.09c0.56,0.61 1.14,0.1 1.14,0.1l2.53,-2.17c0.56,-0.41 0.15,-0.92 0.15,-0.92zM52.5069,16.3097c-1.62,0 -2.23,-1.62 -1.96,-3.2c0.27,-1.59 1.68,-2.84 5.09,-2.8v0.97c0.12,4.21 -1.78,5.03 -3.13,5.03z" fill="black"/>
<g id="Groupe 8306_2">
<path id="Tracé 10176_2" d="M70.4669,30.5997c0,0 -0.28,0.5 0.07,0.61c0,0 0.4,0.15 0.89,-0.31c0,0 3.61,-3.15 3.7,-8.89c0,0 0.02,-0.72 -0.26,-0.91c0,0 -1.13,-1 -5.2,-0.7c0,0 -3.54,0.24 -5.48,1.96c0,0 -0.17,0.15 -0.17,0.35c0,0 -0.04,0.42 1.02,0.24c0,0 3.54,-0.51 5.65,-0.24c0,0 1.09,0.13 1.39,0.5c0,0 0.5,0.41 0.24,1.78c0,0 -0.72,3.48 -1.85,5.61z" fill="#F3971B"/>
<path id="Tracé 10177_2" d="M69.7569,25.0897c0,0 0.53,0.69 -0.32,1.28c0,0 -9.13,7.3 -24.45,7.3c0,0 -15.77,0.77 -28.94,-11.19c0,0 -0.46,-0.4 -0.17,-0.78c0,0 0.26,-0.35 0.92,0.03c0,0 12.39,7.72 28.65,7.72c0,0 11.31,0.44 22.91,-4.53c0,0 0.92,-0.47 1.4,0.17z" fill="#F3971B"/>
</g>
</g></svg>