<svg viewBox="0 0 46.2033 54.3602" fill="none" xmlns="http://www.w3.org/2000/svg" xmlns:xlink="http://www.w3.org/1999/xlink" x="0" y="0"><path id="apple-[#173]" d="M31.4495,8.6611c1.98,-2.3 3.32,-5.5 2.95,-8.7c-2.86,0.1 -6.31,1.9 -8.36,4.2c-1.84,2 -3.44,5.2 -3.01,8.4c3.19,0.2 6.44,-1.6 8.42,-3.9zM38.5895,28.8611c0.08,8.2 7.53,11 7.61,11c-0.06,0.2 -1.19,3.9 -3.92,7.8c-2.37,3.2 -4.82,6.6 -8.69,6.6c-3.8,0.1 -5.02,-2.1 -9.36,-2.1c-4.35,0 -5.7,2.1 -9.3,2.2c-3.73,0.1 -6.58,-3.6 -8.96,-6.9c-4.87,-6.7 -8.6,-19.1 -3.6,-27.4c2.49,-4.1 6.93,-6.7 11.75,-6.8c3.66,-0.1 7.12,2.4 9.36,2.4c2.24,0 6.45,-2.9 10.87,-2.5c1.84,0 7.04,0.7 10.37,5.4c-0.27,0.1 -6.19,3.4 -6.13,10.3z" fill="currentColor"/></svg>