<svg viewBox="0 0 114.7911 23.672" fill="none" xmlns="http://www.w3.org/2000/svg" xmlns:xlink="http://www.w3.org/1999/xlink" x="0" y="0"><g id="asus_logo">
<path id="Tracé 10166" d="M105.9867,9.459l-20.727,-1.22c0,3.18 2.086,5.3 5.634,5.59l14.749,1.14c1.139,0.09 1.849,0.37 1.849,1.32c0,0.94 -0.806,1.23 -2.473,1.23h-20.092v6.15h20.533c6.472,0 9.331,-2.25 9.331,-7.43c0,-4.65 -2.558,-6.39 -8.804,-6.78z" fill="currentColor"/>
<path id="Tracé 10167" d="M78.2617,14.809c0,2.18 -1.097,2.84 -4.87,2.84h-5.214c-3.107,0 -4.44,-0.9 -4.44,-2.84v-7.62l-6.622,-0.47v8.65h-0.14c-0.376,-2.5 -1.333,-5.44 -7.611,-5.87l-20.737,-1.36c0,3.16 2.279,5.06 5.827,5.44l14.427,1.47c1.128,0.09 1.999,0.43 1.999,1.38c0,1.04 -0.86,1.13 -2.193,1.13h-20.296v-9.46l-6.633,-0.42v15.97h26.972c6.009,0 7.944,-3.12 8.235,-5.72h0.139c0.753,4.11 4.344,5.72 10.45,5.72h6.729c7.128,0 10.503,-2.17 10.503,-7.29v-8.12l-6.525,-0.38z" fill="currentColor"/>
<path id="Tracé 10168" d="M-0.0003,23.659h8.041l10.084,-16.28l-7.192,-0.7z" fill="currentColor"/>
<path id="Tracé 10169" d="M91.8927,-0.001c-4.687,0 -6.773,2.94 -7.095,5.73v-5.73h-6.536v6.06h35.863v-6.06z" fill="currentColor"/>
<path id="Rectangle 1961" d="M57.1157,-0.001h6.622v6.06h-6.622z" fill="currentColor"/>
<path id="Tracé 10170" d="M55.9337,-0.001h-20.211c-4.687,0 -6.762,2.94 -7.235,5.73v-5.73h-11.223c-1.537,0 -2.311,0.47 -3.074,1.57l-3.075,4.49h44.807z" fill="currentColor"/>
</g></svg>