<svg viewBox="0 0 273 94" fill="none" xmlns="http://www.w3.org/2000/svg" xmlns:xlink="http://www.w3.org/1999/xlink" x="0" y="0"><g id="Group 4">
<path id="Rectangle 1971" d="M-0.0005,21c0,-11.6 9.4,-21 21,-21h231c11.6,0 21,9.4 21,21v52c0,11.6 -9.4,21 -21,21h-231c-11.6,0 -21,-9.4 -21,-21z" fill="#FFFBFB"/>
<path id="Tracé 10206" d="M209.5995,56.08c0,-0.21 -0.1,-0.43 -0.29,-0.54c-0.19,-0.11 -0.4,-0.12 -0.61,-0.12h-1.1v2.52h0.31v-1.16h0.56l0.73,1.16h0.36l-0.76,-1.16c0.45,-0.02 0.8,-0.2 0.8,-0.7zM208.3795,56.53h-0.47v-0.89h0.72c0.31,0 0.65,0.05 0.65,0.44c0.01,0.51 -0.55,0.45 -0.9,0.45zM195.1995,43.88l4.62,-4.93c0.26,-0.36 0.4,-0.62 0.4,-0.83c0,-0.37 -0.31,-0.51 -1.29,-0.51h-1.17v-3.11h12.61v3.11h-1.65c-1.92,0 -2.27,0.29 -4.94,3.65l-7.31,7.89v4.82c0,1.23 0.62,1.66 2.4,1.66h2.76v3.01h-17.66v-3.01h2.76c1.77,0 2.4,-0.43 2.4,-1.66v-4.82l-8.61,-9.52c-1.42,-1.66 -1.22,-2.02 -5.18,-2.02v-3.11h15.97v3.11h-1.13c-1.16,0 -1.65,0.22 -1.65,0.65c0,0.36 0.35,0.65 0.58,0.94l4.35,4.75c0.52,0.53 1.15,0.6 1.74,-0.07zM88.0095,34.49h3.86v8.69h-3.56c-0.32,-1.74 -1.4,-2.41 -2.4,-3.32c-1.78,-1.64 -5.66,-3.01 -8.91,-3.01c-4.2,0 -7.75,1.3 -7.75,3.22c0,5.32 24.04,1.08 24.04,11.15c0,5.24 -5.15,8.18 -14.4,8.18c-3.2,0 -8.04,-1 -10.9,-2.52c-0.9,-0.51 -1.28,0.49 -1.45,1.76h-3.95v-8.98h3.58c0.78,2.28 1.87,2.75 2.87,3.66c1.73,1.59 5.86,2.75 9.64,2.71c5.7,-0.06 7.67,-1.3 7.67,-3.11c0,-1.81 -1.94,-2.25 -8.19,-3.22l-5.31,-0.87c-5.99,-0.91 -10.35,-2.25 -10.35,-7.02c0,-4.96 5.52,-8.08 14.24,-8.08c3.67,0 6.75,0.5 9.7,2.16c0.82,0.54 1.58,0.6 1.57,-1.4zM163.2195,49.04l0.07,-9.66c0,-1.26 -0.65,-1.7 -2.54,-1.7h-2.21v-3h14.08v3h-1.84c-1.88,0 -2.54,0.44 -2.54,1.7v19.44l-5.51,-0.04l-17.84,-16.9v12.27c0,1.23 0.66,1.7 2.54,1.7h2.45v2.97h-14.62v-2.97h2.42c1.89,0 2.54,-0.47 2.54,-1.7v-14.77c0,-1.26 -0.65,-1.7 -2.54,-1.7h-2.42v-3h12.64zM116.0695,33.55c-11.22,0 -18.24,4.96 -18.24,12.92c0,7.82 6.92,12.74 17.9,12.74c11.65,0 18.43,-4.85 18.43,-13.13c0,-7.46 -7.31,-12.53 -18.09,-12.53zM115.8095,56.07c-6.2,0 -9.77,-3.59 -9.77,-9.78c0,-6.04 3.72,-9.62 10.09,-9.62c6.1,0 9.67,3.65 9.67,9.88c0,6.08 -3.62,9.52 -9.99,9.52z" fill="black"/>
</g></svg>