<svg viewBox="0 0 1799.446 72.0755" fill="none" xmlns="http://www.w3.org/2000/svg" xmlns:xlink="http://www.w3.org/1999/xlink" x="0" y="0"><g id="Groupe 8923" opacity="0.28">
<path id="adidas-svgrepo-com_4" d="M34.857,57.8332c0,-1.9 1.51,-3.4 3.393,-3.4c1.881,0 3.388,1.5 3.388,3.4c0.003,0.9 -0.353,1.8 -0.989,2.4c-0.636,0.6 -1.499,1 -2.399,1c-0.9,0 -1.764,-0.4 -2.401,-1c-0.638,-0.6 -0.994,-1.5 -0.992,-2.4zM48.652,57.8332c0,-1.9 1.51,-3.4 3.391,-3.4c1.881,0 3.39,1.5 3.39,3.4c0,1.9 -1.509,3.4 -3.387,3.4c-0.9,0 -1.765,-0.4 -2.402,-1c-0.637,-0.6 -0.994,-1.5 -0.992,-2.4zM16.675,57.8332c0,-1.9 1.51,-3.4 3.39,-3.4c1.881,0 3.388,1.5 3.388,3.4c0,1.9 -1.507,3.4 -3.388,3.4c-0.899,0 -1.763,-0.4 -2.399,-1c-0.637,-0.6 -0.993,-1.5 -0.991,-2.4zM2.879,57.8332c0,-1.9 1.51,-3.4 3.391,-3.4c1.881,0 3.39,1.5 3.39,3.4c0.004,0.9 -0.353,1.8 -0.989,2.4c-0.637,0.6 -1.501,1 -2.401,1c-0.899,0 -1.762,-0.4 -2.398,-1c-0.636,-0.6 -0.992,-1.5 -0.99,-2.4zM30.771,51.8332h-2.949v11.9h2.949zM9.637,63.7332h2.95v-11.9h-2.95v1c-1.028,-0.8 -2.252,-1.1 -3.504,-1.1c-3.394,0 -6.133,2.7 -6.133,6.1c0,3.4 2.739,6.1 6.133,6.1c1.299,0 2.505,-0.4 3.504,-1.1zM55.41,63.7332h2.95v-11.9h-2.95v1c-1.028,-0.8 -2.252,-1.1 -3.504,-1.1c-3.394,0 -6.133,2.7 -6.133,6.1c-0.005,1.6 0.639,3.2 1.79,4.3c1.152,1.2 2.715,1.8 4.343,1.8c1.299,0 2.505,-0.4 3.504,-1.1zM59.452,59.8332c0.093,2.4 2.137,4.1 5.548,4.1c2.789,0 5.087,-1.2 5.087,-3.9c0,-1.8 -1.045,-2.9 -3.46,-3.4l-1.881,-0.4c-1.209,-0.2 -2.044,-0.4 -2.044,-1.1c0,-0.8 0.812,-1.2 1.834,-1.2c1.489,0 2.091,0.8 2.138,1.6h2.973c-0.164,-2.3 -2.021,-3.8 -5.018,-3.8c-3.086,0 -4.923,1.7 -4.923,3.9c0,2.7 2.184,3.1 4.065,3.5l1.556,0.2c1.116,0.2 1.604,0.6 1.604,1.2c0,0.6 -0.558,1.2 -1.884,1.2c-1.927,0 -2.552,-1 -2.576,-1.9h-3.019zM23.433,47.8332v5c-1.029,-0.8 -2.252,-1.1 -3.505,-1.1c-3.393,0 -6.132,2.7 -6.132,6.1c0,3.4 2.739,6.1 6.132,6.1c1.297,0 2.506,-0.4 3.505,-1.1v0.9h2.949v-15.9zM41.614,47.8332v5c-1.028,-0.8 -2.251,-1.1 -3.504,-1.1c-3.39,0 -6.133,2.7 -6.133,6.1c-0.005,1.6 0.639,3.2 1.791,4.3c1.151,1.2 2.714,1.8 4.342,1.8c1.3,0 2.506,-0.4 3.504,-1.1v0.9h2.95v-15.9zM7.663,44.3332l1.997,3.5h13.773l-5.458,-9.5l-10.309,6zM30.771,50.7332v-2.9h10.843l-11.564,-20.1l-10.335,6l8.107,14.1v2.9zM46.007,47.8332h13.792l-17.834,-30.9l-10.312,5.9z" fill="#1A1A1A"/>
<g id="ASUS_logo_3">
<g id="asus_logo_3">
<path id="Tracé 5369" d="M298.105,41.6332l-28.442,-1.7c0,4.4 2.862,7.3 7.73,7.7l20.24,1.6c1.564,0.1 2.538,0.5 2.538,1.8c0,1.3 -1.107,1.7 -3.393,1.7h-27.572v8.4h28.176c8.881,0 12.805,-3.1 12.805,-10.2c0,-6.4 -3.511,-8.8 -12.082,-9.3z" fill="#1A1A1A"/>
<path id="Tracé 5370" d="M260.06,48.9332c0,3 -1.505,3.9 -6.683,3.9h-7.155c-4.263,0 -6.093,-1.2 -6.093,-3.9v-10.4l-9.087,-0.7v11.9h-0.192c-0.516,-3.4 -1.829,-7.5 -10.444,-8l-28.457,-1.9c0,4.3 3.128,6.9 7.996,7.4l19.797,2.1c1.549,0.1 2.744,0.6 2.744,1.9c0,1.4 -1.18,1.5 -3.009,1.5h-27.852v-13l-9.102,-0.6v22h37.013c8.246,0 10.901,-4.3 11.3,-7.9h0.191c1.033,5.7 5.96,7.9 14.339,7.9h9.235c9.781,0 14.413,-3 14.413,-10v-11.2l-8.954,-0.5z" fill="#1A1A1A"/>
<path id="Tracé 5371" d="M152.664,61.1332h11.035l13.837,-22.4l-9.869,-0.9z" fill="#1A1A1A"/>
<path id="Tracé 5372" d="M278.765,28.6332c-6.432,0 -9.294,4 -9.736,7.9v-7.9h-8.969v8.3h49.212v-8.3z" fill="#1A1A1A"/>
<path id="Rectangle 1482" d="M231.042,28.6332h9.087v8.3h-9.087z" fill="#1A1A1A"/>
<path id="Tracé 5373" d="M229.419,28.6332h-27.733c-6.432,0 -9.28,4 -9.929,7.9v-7.9h-15.401c-2.109,0 -3.172,0.7 -4.219,2.2l-4.219,6.1h61.487z" fill="#1A1A1A"/>
</g>
</g>
<g id="puma-logo_3">
<path id="Tracé 5383" d="M485.897,0.2332c-0.401,0 -0.785,1.5 -1.559,2.3c-0.566,0.5 -1.273,0.5 -1.648,1.2c-0.142,0.2 -0.096,0.7 -0.258,1.1c-0.315,0.8 -1.428,0.9 -1.428,1.8c-0.004,1 0.928,1.2 1.734,1.9c0.63,0.6 0.691,1 1.453,1.2c0.651,0.2 1.619,-0.5 2.491,-0.2c0.716,0.2 1.401,0.4 1.563,1.1c0.142,0.7 -0.01,1.7 -0.878,1.6c-0.292,0 -1.561,-0.5 -3.12,-0.3c-1.88,0.2 -4.026,0.8 -4.236,2.9c-0.116,1.2 1.334,2.6 2.733,2.3c0.968,-0.2 0.51,-1.3 1.038,-1.9c0.69,-0.7 4.605,2.5 8.245,2.5c1.532,0 2.672,-0.4 3.804,-1.6c0.105,-0.1 0.234,-0.3 0.398,-0.3c0.154,0 0.423,0.2 0.512,0.2c2.931,2.4 5.147,7.1 15.92,7.2c1.515,0 3.241,0.7 4.65,2c1.257,1.2 1.992,3 2.706,4.8c1.078,2.8 3.011,5.4 5.94,8.4c0.16,0.2 2.571,2.1 2.764,2.2c0.031,0 0.208,0.4 0.146,0.7c-0.071,1.8 -0.331,7 3.542,7.2c0.947,0 0.698,-0.6 0.698,-1.1c-0.001,-0.9 -0.167,-1.8 0.31,-2.7c0.653,-1.3 -1.383,-1.9 -1.324,-4.6c0.043,-2.1 -1.682,-1.7 -2.558,-3.3c-0.504,-0.9 -0.953,-1.4 -0.92,-2.5c0.196,-6.2 -1.328,-10.3 -2.088,-11.3c-0.593,-0.8 -1.084,-1.1 -0.541,-1.5c3.232,-2.1 3.965,-4.1 3.965,-4.1c1.719,-4 3.264,-7.7 5.395,-9.3c0.429,-0.4 1.53,-1.2 2.206,-1.5c1.988,-1 3.035,-1.5 3.613,-2.1c0.914,-0.9 1.636,-2.7 0.76,-3.9c-1.09,-1.3 -2.974,-0.2 -3.805,0.2c-5.942,3.6 -6.818,9.8 -8.876,13.4c-1.641,2.8 -4.311,4.9 -6.698,5.1c-1.79,0.1 -3.718,-0.2 -5.639,-1.1c-4.672,-2 -7.228,-4.7 -7.83,-5.1c-1.255,-1 -10.998,-10.6 -18.892,-11c0,0 -0.979,-1.9 -1.226,-2c-0.577,0 -1.168,1.2 -1.592,1.4c-0.398,0.1 -1.068,-1.4 -1.47,-1.3zM451.147,57.3332c-0.743,-0.1 -1.374,-0.7 -1.374,-1.4l0.002,-24.6h-8.115v27.1c0,1.3 1.078,2.4 2.4,2.4h14.184c1.332,0 2.396,-1.1 2.396,-2.4v-27.1h-8.107l-0.008,24.6c0,0.7 -0.631,1.3 -1.378,1.4zM478.317,31.3332h-12.282c-1.453,0 -2.637,1.1 -2.637,2.6v26.9h8.123v-24.7c0.005,-0.7 0.617,-1.3 1.372,-1.3c0.758,0 1.367,0.6 1.384,1.3v24.7h8.09v-24.7c0.009,-0.7 0.617,-1.3 1.374,-1.3c0.751,0 1.37,0.6 1.376,1.3v24.7h8.123v-26.9c0,-1.5 -1.186,-2.6 -2.639,-2.6zM430.8,36.2332c0.006,-0.8 -0.664,-1.4 -1.374,-1.4h-1.378v14.9h1.378c0.716,0 1.38,-0.5 1.374,-1.4zM436.246,53.4332h-8.198v7.4h-8.111v-29.5h16.361c1.464,0 2.607,1.1 2.607,2.6v16.8c0,1.5 -1.187,2.7 -2.659,2.7zM521.074,54.2332c-1.63,0 -2.999,1.4 -2.999,3.1c0,1.7 1.369,3.1 3.051,3.1c1.669,0 3.02,-1.4 3.02,-3.1c0,-1.7 -1.351,-3.1 -3.02,-3.1zM524.727,57.3332c0,2 -1.609,3.6 -3.601,3.6c-2.014,0 -3.63,-1.6 -3.63,-3.6c0,-2 1.616,-3.6 3.57,-3.6c2.052,0 3.661,1.6 3.661,3.6z" fill="#1A1A1A"/>
<path id="Tracé 5384" d="M520.751,57.1332c0.563,0 0.86,-0.2 0.86,-0.6c0,-0.4 -0.287,-0.6 -0.835,-0.6h-0.162v1.2zM522.827,59.4332h-0.968l-1.245,-1.6v1.6h-0.791v-4.2h0.831c1.13,0 1.731,0.4 1.731,1.3c0,0.5 -0.354,1 -0.849,1.1l-0.058,0.1zM506.858,49.7332v-13.6c-0.02,-0.7 -0.626,-1.3 -1.382,-1.3c-0.749,0 -1.369,0.6 -1.375,1.3v13.6zM506.858,60.8332v-7.4h-2.757v7.4h-8.107v-26.9c0,-1.5 1.184,-2.6 2.637,-2.6h13.697c1.457,0 2.641,1.1 2.641,2.6v26.9z" fill="#1A1A1A"/>
</g>
<path id="Tracé 5387" d="M809.357,58.1332c0,-0.3 -0.11,-0.5 -0.33,-0.7c-0.221,-0.1 -0.469,-0.1 -0.718,-0.1h-1.284v2.9h0.36v-1.3h0.663l0.841,1.3h0.428l-0.89,-1.3c0.525,0 0.93,-0.3 0.93,-0.8zM807.937,58.6332h-0.553v-1.1h0.841c0.366,0 0.767,0.1 0.767,0.6c0.001,0.6 -0.642,0.5 -1.055,0.5zM792.555,43.8332l5.389,-5.7c0.312,-0.5 0.468,-0.7 0.468,-1c0,-0.4 -0.364,-0.6 -1.506,-0.6h-1.36v-3.6h14.717v3.6h-1.933c-2.234,0 -2.649,0.3 -5.765,4.3l-8.525,9.2v5.6c0,1.4 0.726,1.9 2.804,1.9h3.218v3.5h-20.613v-3.5h3.218c2.076,0 2.804,-0.5 2.804,-1.9v-5.6l-10.041,-11.1c-1.659,-2 -1.43,-2.4 -6.05,-2.4v-3.6h18.642v3.6h-1.327c-1.351,0 -1.923,0.3 -1.923,0.8c0,0.4 0.415,0.7 0.675,1.1l5.08,5.5c0.604,0.6 1.34,0.7 2.028,-0.1zM667.477,32.9332h4.497v10.1h-4.153c-0.368,-2 -1.636,-2.8 -2.792,-3.9c-2.086,-1.9 -6.605,-3.5 -10.404,-3.5c-4.905,0 -9.044,1.5 -9.044,3.8c0,6.2 28.049,1.2 28.049,13c0,6.1 -6.008,9.5 -16.798,9.5c-3.735,0 -9.388,-1.1 -12.723,-2.9c-1.045,-0.6 -1.489,0.6 -1.685,2h-4.61v-10.4h4.17c0.92,2.6 2.187,3.2 3.353,4.2c2.022,1.9 6.836,3.2 11.251,3.2c6.656,-0.1 8.945,-1.5 8.945,-3.6c0,-2.1 -2.264,-2.6 -9.558,-3.8l-6.193,-1c-6.989,-1.1 -12.077,-2.6 -12.077,-8.2c0,-5.8 6.437,-9.4 16.614,-9.4c4.289,0 7.878,0.6 11.322,2.5c0.954,0.6 1.848,0.7 1.836,-1.6zM755.237,49.8332l0.089,-11.2c0,-1.5 -0.769,-2 -2.967,-2h-2.581v-3.5h16.425v3.5h-2.141c-2.199,0 -2.968,0.5 -2.968,2v22.7l-6.428,-0.1l-20.82,-19.7v14.3c0,1.4 0.769,2 2.966,2h2.858v3.5h-17.058v-3.5h2.826c2.198,0 2.967,-0.6 2.967,-2v-17.2c0,-1.5 -0.769,-2 -2.967,-2h-2.826v-3.5h14.748zM700.218,31.8332c-13.09,0 -21.285,5.8 -21.285,15.1c0,9.1 8.081,14.8 20.886,14.8c13.6,0 21.512,-5.6 21.512,-15.3c0.001,-8.7 -8.537,-14.6 -21.113,-14.6zM699.92,58.0332c-7.245,0 -11.41,-4.1 -11.41,-11.4c0,-7 4.346,-11.2 11.773,-11.2c7.124,0 11.289,4.3 11.289,11.5c0,7.1 -4.226,11.1 -11.652,11.1z" fill="black"/>
<path id="airbnb_4" d="M991.52,35.5332c0,1.7 -1.41,3.1 -3.18,3.1c-1.76,0 -3.18,-1.4 -3.18,-3.1c0,-1.8 1.37,-3.2 3.18,-3.2c1.81,0 3.18,1.4 3.18,3.2zM978.41,41.9332v0.7c0,0 -1.51,-1.9 -4.74,-1.9c-5.33,0 -9.49,4 -9.49,9.7c0,5.5 4.11,9.7 9.49,9.7c3.28,0 4.74,-2 4.74,-2v0.8c0,0.4 0.3,0.7 0.69,0.7h3.96v-18.4h-3.96c-0.39,0 -0.69,0.3 -0.69,0.7zM978.41,53.6332c-0.73,1.1 -2.2,2.1 -3.96,2.1c-3.13,0 -5.53,-2 -5.53,-5.3c0,-3.4 2.4,-5.3 5.53,-5.3c1.71,0 3.28,1 3.96,2zM986,41.2332h4.69v18.4h-4.69zM1056.14,40.7332c-3.23,0 -4.74,1.9 -4.74,1.9v-10.3h-4.7v27.3h3.96c0.4,0 0.69,-0.4 0.69,-0.7v-0.8c0,0 1.52,2 4.74,2c5.34,0 9.49,-4.1 9.49,-9.7c0,-5.6 -4.15,-9.7 -9.44,-9.7zM1055.36,55.6332c-1.81,0 -3.23,-0.9 -3.96,-2v-6.6c0.73,-0.9 2.3,-2 3.96,-2c3.13,0 5.53,2 5.53,5.3c0,3.3 -2.4,5.3 -5.53,5.3zM1044.26,48.7332v10.9h-4.7v-10.4c0,-3 -0.98,-4.3 -3.62,-4.3c-1.42,0 -2.88,0.8 -3.82,1.9v12.8h-4.69v-18.4h3.72c0.39,0 0.68,0.3 0.68,0.7v0.7c1.37,-1.4 3.18,-1.9 4.99,-1.9c2.06,0 3.77,0.6 5.14,1.7c1.66,1.4 2.3,3.2 2.3,6.3zM1016.03,40.7332c-3.23,0 -4.74,1.9 -4.74,1.9v-10.3h-4.7v27.3h3.96c0.39,0 0.69,-0.4 0.69,-0.7v-0.8c0,0 1.51,2 4.74,2c5.33,0 9.49,-4.1 9.49,-9.7c0.05,-5.6 -4.11,-9.7 -9.44,-9.7zM1015.25,55.6332c-1.81,0 -3.23,-0.9 -3.96,-2v-6.6c0.73,-0.9 2.3,-2 3.96,-2c3.13,0 5.53,2 5.53,5.3c0,3.3 -2.4,5.3 -5.53,5.3zM1002.53,40.7332c1.42,0 2.15,0.2 2.15,0.2v4.4c0,0 -3.91,-1.3 -6.36,1.5v12.8h-4.69v-18.4h3.96c0.39,0 0.68,0.3 0.68,0.7v0.7c0.89,-1 2.79,-1.9 4.26,-1.9zM953.76,57.9332c-0.24,-0.6 -0.49,-1.2 -0.73,-1.8c-0.39,-0.8 -0.79,-1.7 -1.13,-2.5h-0.05c-3.37,-7.3 -6.99,-14.8 -10.81,-22.1l-0.14,-0.3c-0.41,-0.8 -0.8,-1.5 -1.18,-2.3c-0.49,-0.9 -0.98,-1.8 -1.76,-2.7c-1.56,-1.9 -3.81,-3 -6.21,-3c-2.45,0 -4.65,1.1 -6.26,2.9c-0.74,0.9 -1.27,1.8 -1.76,2.7c-0.38,0.8 -0.78,1.5 -1.18,2.3l-0.14,0.3c-3.77,7.3 -7.44,14.8 -10.81,22.1l-0.05,0.1c-0.34,0.8 -0.74,1.6 -1.13,2.5c-0.24,0.5 -0.49,1.1 -0.73,1.8c-0.64,1.8 -0.83,3.5 -0.59,5.2c0.54,3.7 2.99,6.8 6.36,8.2c1.27,0.5 2.59,0.7 3.96,0.7c0.39,0 0.88,0 1.28,-0.1c1.61,-0.2 3.27,-0.7 4.89,-1.6c2,-1.1 3.91,-2.8 6.06,-5.1c2.16,2.3 4.11,4 6.07,5.1c1.61,0.9 3.28,1.4 4.89,1.6c0.39,0.1 0.88,0.1 1.27,0.1c1.37,0 2.74,-0.2 3.96,-0.7c3.43,-1.4 5.83,-4.5 6.36,-8.2c0.39,-1.7 0.2,-3.4 -0.44,-5.2zM931.7,60.4332c-2.64,-3.3 -4.35,-6.4 -4.94,-9c-0.24,-1.2 -0.29,-2.2 -0.15,-3c0.1,-0.8 0.39,-1.5 0.79,-2.1c0.93,-1.3 2.49,-2.1 4.3,-2.1c1.81,0 3.43,0.7 4.31,2.1c0.39,0.6 0.68,1.3 0.78,2.1c0.15,0.8 0.1,1.9 -0.15,3c-0.59,2.5 -2.3,5.7 -4.94,9zM951.22,62.7332c-0.35,2.6 -2.06,4.8 -4.45,5.8c-1.18,0.5 -2.45,0.6 -3.72,0.5c-1.22,-0.2 -2.45,-0.6 -3.72,-1.3c-1.76,-1 -3.52,-2.5 -5.58,-4.8c3.23,-3.9 5.19,-7.5 5.92,-10.8c0.35,-1.5 0.4,-2.9 0.25,-4.1c-0.2,-1.2 -0.64,-2.4 -1.32,-3.4c-1.52,-2.2 -4.06,-3.4 -6.9,-3.4c-2.84,0 -5.38,1.3 -6.9,3.4c-0.68,1 -1.12,2.2 -1.32,3.4c-0.19,1.2 -0.14,2.7 0.25,4.1c0.73,3.3 2.74,6.9 5.92,10.9c-2.01,2.2 -3.82,3.8 -5.58,4.7c-1.27,0.8 -2.5,1.2 -3.72,1.3c-1.32,0.2 -2.59,0 -3.72,-0.5c-2.39,-1 -4.1,-3.2 -4.45,-5.7c-0.14,-1.2 -0.05,-2.4 0.44,-3.8c0.15,-0.5 0.39,-1 0.64,-1.6c0.34,-0.8 0.73,-1.6 1.12,-2.4l0.05,-0.1c3.38,-7.3 7,-14.8 10.76,-22l0.15,-0.3c0.39,-0.7 0.78,-1.5 1.18,-2.2c0.39,-0.8 0.83,-1.6 1.36,-2.2c1.03,-1.2 2.4,-1.8 3.92,-1.8c1.52,0 2.88,0.6 3.91,1.8c0.54,0.7 0.98,1.4 1.37,2.2c0.39,0.7 0.78,1.5 1.18,2.2l0.14,0.3c3.71,7.3 7.28,14.6 10.71,22v0.1c0.4,0.8 0.74,1.6 1.13,2.4c0.24,0.6 0.49,1.1 0.64,1.6c0.39,1.3 0.53,2.5 0.34,3.7z" fill="#3E3E3E"/>
<g id="ikea-1">
<path id="Tracé 5377" d="M1159.98,23.2332h138.62v48.8h-138.62zM1161.39,47.7332c0,-12.4 30.5,-22.4 68.13,-22.4c37.63,0 68.14,10 68.14,22.4c0,12.4 -30.51,22.5 -68.14,22.5c-37.63,0 -68.13,-10.1 -68.13,-22.5c0,0 0,12.4 0,0z" fill="#676767"/>
<path id="Tracé 5378" d="M1161.39,47.7332c0,-12.4 30.5,-22.4 68.13,-22.4c37.63,0 68.14,10 68.14,22.4c0,12.4 -30.51,22.5 -68.14,22.5c-37.63,0 -68.13,-10.1 -68.13,-22.5c0,0 0,12.4 0,0z" fill="#ECECEC"/>
<path id="Tracé 5379" d="M1179.99,38.5332h12.11c0,0 -0.32,0.5 -0.32,1.1v15.6c0,0.9 0.36,1.6 0.36,1.6h-12.19c0,0 0.36,-0.7 0.36,-1.5v-15.6c0,-0.5 -0.32,-1.2 -0.32,-1.2zM1198.13,38.5332h11.52c0,0 -0.33,0.6 -0.33,1.1v5.6l4.08,-5.3c0,0 0.25,-0.3 0.25,-0.7v-0.6h11.72l-4.98,6.9c0,0 -0.24,0.3 -0.24,0.5c0,0.2 0.2,0.5 0.2,0.5l6.39,10.2h-14.1c0,0 0.24,-0.4 0.24,-0.8c0,-0.3 -0.24,-0.8 -0.24,-0.8l-3.36,-5.5v6c0,0.5 0.37,1.1 0.37,1.1h-11.52c0,0 0.32,-0.4 0.32,-0.9v-16.2c0,-0.5 -0.32,-1.1 -0.32,-1.1zM1230.17,38.6332h20.6v5.6c0,0 -0.45,-0.4 -1.01,-0.4h-8.44v1.5h7.35v4.9c0,0 -0.49,-0.4 -1.01,-0.4h-6.42v1.6h8.64c0.49,0 0.77,-0.7 0.77,-0.7v6h-20.48c0,0 0.36,-0.5 0.36,-0.9v-15.8c0,-0.7 -0.36,-1.4 -0.36,-1.4zM1259.88,38.4332h16.47c0,0 -0.32,0.8 -0.32,1.2c0,0.5 0.28,1.2 0.28,1.2l6.58,15.9h-12.35c0,0 0.28,-0.4 0.12,-0.8c-0.34,-0.8 -0.68,-1.7 -1.01,-2.5h-5.08c0,0 -1.01,2.2 -1.01,2.6c0,0.5 0.32,0.8 0.32,0.8h-10.17l6.38,-16.7c0,0 0.24,-0.3 0.24,-0.7c0,-0.4 -0.45,-1 -0.45,-1zM1266.87,46.6332l-1.21,3.2h2.66z" fill="#636363"/>
</g>
<path id="gucci-logo-1" d="M1550.08,37.8332l-0.29,0.1c-1.09,-2.4 -2.66,-4.3 -4.7,-5.7c-2.01,-1.4 -4.53,-2.1 -7.58,-2.1c-1.69,0 -3.31,0.4 -4.84,1.1c-1.54,0.7 -2.89,1.7 -4.05,2.9c-1.13,1.3 -2.04,2.8 -2.73,4.6c-0.69,1.8 -1.04,3.8 -1.04,5.9c0,2.2 0.35,4.2 1.04,6c0.69,1.8 1.6,3.3 2.73,4.6c1.16,1.2 2.51,2.2 4.05,2.9c1.53,0.7 3.15,1 4.84,1c3.01,0 5.46,-0.4 7.34,-1.4c1.92,-1 3.53,-2.4 4.85,-4.4l0.28,0.1l-0.09,3c-0.72,0.8 -1.55,1.4 -2.49,2c-0.95,0.6 -1.97,1.1 -3.06,1.5c-1.07,0.4 -2.18,0.6 -3.35,0.8c-1.16,0.3 -2.32,0.4 -3.48,0.4c-2.41,0 -4.72,-0.4 -6.91,-1.2c-2.2,-0.8 -4.13,-1.9 -5.79,-3.3c-1.67,-1.5 -2.98,-3.2 -3.96,-5.2c-0.97,-2 -1.45,-4.3 -1.45,-6.8c0,-2.4 0.48,-4.7 1.45,-6.7c0.98,-2 2.29,-3.8 3.96,-5.2c1.66,-1.5 3.59,-2.6 5.79,-3.3c2.19,-0.8 4.5,-1.2 6.91,-1.2c1.16,0 2.32,0.1 3.48,0.3c1.17,0.2 2.28,0.5 3.35,0.9c1.09,0.4 2.11,0.9 3.06,1.5c0.94,0.5 1.77,1.2 2.49,1.9zM1446.38,46.8332c-0.35,0.2 -0.68,0.4 -0.99,0.6c-0.32,0.3 -0.47,0.6 -0.47,1.1v5.7c-1.51,2.2 -3.44,3.9 -5.79,5.1c-2.35,1.2 -4.96,1.8 -7.81,1.8c-2.42,0 -4.72,-0.4 -6.92,-1.2c-2.2,-0.8 -4.13,-1.9 -5.79,-3.3c-1.66,-1.5 -2.98,-3.2 -3.95,-5.2c-0.97,-2 -1.46,-4.3 -1.46,-6.8c0,-2.4 0.49,-4.7 1.46,-6.7c0.97,-2 2.29,-3.8 3.95,-5.2c1.66,-1.5 3.59,-2.6 5.79,-3.3c2.2,-0.8 4.5,-1.2 6.92,-1.2c1.16,0 2.32,0.1 3.48,0.3c1.16,0.2 2.27,0.5 3.34,0.9c1.1,0.4 2.12,0.9 3.06,1.5c0.94,0.5 1.77,1.2 2.49,1.9l0.19,5l-0.28,0.1c-1.1,-2.4 -2.67,-4.3 -4.71,-5.7c-2,-1.4 -4.53,-2.1 -7.57,-2.1c-1.7,0 -3.31,0.4 -4.85,1.1c-1.54,0.7 -2.89,1.7 -4.05,2.9c-1.13,1.3 -2.04,2.8 -2.73,4.6c-0.69,1.8 -1.03,3.8 -1.03,5.9c0,2.2 0.33,4.1 0.99,5.9c0.69,1.8 1.6,3.3 2.73,4.6c1.16,1.3 2.51,2.3 4.04,3c1.54,0.7 3.17,1 4.9,1c3.26,0 6.05,-0.6 8.37,-1.8v-8.8c0,-0.5 -0.17,-0.8 -0.51,-1.1c-0.32,-0.2 -0.63,-0.4 -0.94,-0.6l0.04,-0.2c0.16,0 0.44,0 0.85,0.1c0.4,0 0.83,0 1.27,0.1h4.04c0.38,-0.1 0.74,-0.1 1.09,-0.1c0.34,-0.1 0.61,-0.1 0.8,-0.1zM1480.46,29.2332c-0.31,0.2 -0.63,0.4 -0.94,0.6c-0.31,0.3 -0.48,0.7 -0.52,1.4c-0.02,0.8 -0.06,1.7 -0.09,2.9c0,1.1 -0.01,2.4 -0.04,3.9c0,1.4 -0.02,3 -0.05,4.7v5.2c-0.02,2.1 -0.28,3.8 -0.75,5.3c-0.47,1.4 -1.1,2.6 -1.88,3.6c-0.75,1 -1.6,1.7 -2.54,2.3c-0.91,0.6 -1.82,1 -2.73,1.3c-0.88,0.3 -1.71,0.5 -2.5,0.5c-0.78,0.1 -1.39,0.2 -1.83,0.2c-1.79,0 -3.52,-0.3 -5.18,-0.7c-1.66,-0.5 -3.12,-1.2 -4.37,-2.2c-1.26,-1 -2.26,-2.3 -3.02,-3.9c-0.75,-1.6 -1.13,-3.6 -1.13,-5.8v-5.4v-4.9c0,-1.5 -0.01,-2.8 -0.04,-4c0,-1.2 -0.01,-2.2 -0.04,-3c-0.03,-0.7 -0.2,-1.1 -0.52,-1.4c-0.31,-0.2 -0.63,-0.4 -0.94,-0.6l0.04,-0.2c0.16,0 0.41,0 0.76,0.1c0.37,0 0.75,0 1.13,0.1c0.4,0 0.8,0 1.17,0h1.7c0.37,0 0.76,0 1.17,0c0.41,-0.1 0.79,-0.1 1.13,-0.1c0.38,-0.1 0.64,-0.1 0.8,-0.1l0.04,0.2c-0.34,0.2 -0.67,0.4 -0.98,0.6c-0.29,0.3 -0.44,0.7 -0.47,1.4c-0.03,0.8 -0.06,1.8 -0.1,3v14.3c0,3.4 0.8,5.9 2.4,7.5c1.6,1.7 3.97,2.5 7.11,2.5c0.91,0 1.94,-0.1 3.1,-0.4c1.16,-0.2 2.25,-0.7 3.25,-1.5c1.04,-0.7 1.9,-1.8 2.59,-3.2c0.72,-1.3 1.08,-3.2 1.08,-5.5c0,-2.4 -0.01,-4.6 -0.04,-6.3c0,-1.8 -0.02,-3.3 -0.04,-4.6c0,-1.3 -0.02,-2.4 -0.05,-3.3c-0.03,-0.9 -0.06,-1.7 -0.09,-2.5c-0.03,-0.7 -0.2,-1.1 -0.52,-1.4c-0.31,-0.2 -0.63,-0.4 -0.94,-0.6l0.04,-0.2c0.35,0 0.74,0.1 1.18,0.2c0.44,0 0.85,0 1.22,0c0.35,0 0.74,0 1.18,0c0.47,-0.1 0.88,-0.2 1.22,-0.2zM1514.61,37.8332l-0.28,0.1c-1.1,-2.4 -2.67,-4.3 -4.71,-5.7c-2.01,-1.4 -4.53,-2.1 -7.57,-2.1c-1.7,0 -3.31,0.4 -4.85,1.1c-1.54,0.7 -2.89,1.7 -4.05,2.9c-1.13,1.3 -2.04,2.8 -2.73,4.6c-0.69,1.8 -1.03,3.8 -1.03,5.9c0,2.2 0.34,4.2 1.03,6c0.69,1.8 1.6,3.3 2.73,4.6c1.16,1.2 2.51,2.2 4.05,2.9c1.54,0.7 3.15,1 4.85,1c3.01,0 5.45,-0.4 7.34,-1.4c1.91,-1 3.53,-2.4 4.84,-4.4l0.29,0.1l-0.1,3c-0.72,0.8 -1.55,1.4 -2.49,2c-0.94,0.6 -1.96,1.1 -3.06,1.5c-1.07,0.4 -2.18,0.6 -3.34,0.8c-1.16,0.3 -2.32,0.4 -3.48,0.4c-2.42,0 -4.73,-0.4 -6.92,-1.2c-2.2,-0.8 -4.13,-1.9 -5.79,-3.3c-1.66,-1.5 -2.98,-3.2 -3.95,-5.2c-0.98,-2 -1.46,-4.3 -1.46,-6.8c0,-2.4 0.48,-4.7 1.46,-6.7c0.97,-2 2.29,-3.8 3.95,-5.2c1.66,-1.5 3.59,-2.6 5.79,-3.3c2.19,-0.8 4.5,-1.2 6.92,-1.2c1.16,0 2.32,0.1 3.48,0.3c1.16,0.2 2.27,0.5 3.34,0.9c1.1,0.4 2.12,0.9 3.06,1.5c0.94,0.5 1.77,1.2 2.49,1.9zM1564.26,60.3332c-0.16,-0.1 -0.42,-0.1 -0.8,-0.1c-0.34,0 -0.72,0 -1.13,-0.1c-0.41,0 -0.8,0 -1.17,0h-2.83c-0.37,0 -0.75,0 -1.13,0.1c-0.34,0 -0.61,0 -0.8,0.1l-0.04,-0.2c0.31,-0.2 0.63,-0.4 0.94,-0.6c0.31,-0.3 0.49,-0.8 0.52,-1.4c0.03,-0.8 0.04,-1.6 0.04,-2.4c0.03,-0.8 0.04,-1.7 0.04,-2.8v-3.5v-4.8v-4.7v-3.6c0,-1 -0.01,-1.9 -0.04,-2.7c0,-0.8 -0.01,-1.6 -0.04,-2.4c-0.03,-0.7 -0.2,-1.1 -0.52,-1.4c-0.31,-0.3 -0.63,-0.5 -0.94,-0.6l0.04,-0.2c0.19,0 0.46,0.1 0.8,0.1c0.38,0 0.76,0 1.13,0.1c0.41,0 0.8,0 1.18,0h1.65c0.37,0 0.76,0 1.17,0c0.41,-0.1 0.79,-0.1 1.13,-0.1c0.38,-0.1 0.64,-0.1 0.8,-0.1l0.04,0.2c-0.34,0.1 -0.67,0.3 -0.98,0.6c-0.29,0.3 -0.44,0.7 -0.48,1.4c-0.02,0.8 -0.06,1.6 -0.09,2.4v22.1c0.03,0.8 0.06,1.6 0.09,2.4c0.03,0.6 0.19,1.1 0.48,1.4c0.31,0.2 0.64,0.4 0.98,0.6z" fill="black"/>
<g id="Groupe 8350">
<path id="Tracé 10175_4" d="M1691.25,39.9332v13.3c0,0.4 -0.36,0.8 -0.81,0.8h-4.2c-0.45,0 -0.81,-0.4 -0.81,-0.8v-21.7c0,-0.4 0.36,-0.8 0.81,-0.8h3.88c0.45,0 0.82,0.4 0.82,0.8v3.1c0,0 1.39,-4.4 5.51,-4.4c0,0 4.07,-0.5 5.73,4.1c0,0 1.39,-4.1 5.6,-4.1c0,0 6.26,-0.3 6.26,6.1l0.05,3.6v13.3c0,0.5 -0.37,0.8 -0.82,0.8h-4.19c-0.45,0 -0.82,-0.3 -0.82,-0.8l-0.03,-14.5c0.12,-3.3 -2.54,-3 -2.54,-3c-3.35,0 -3.02,4.2 -3.02,4.2v13.3c0,0.5 -0.37,0.8 -0.82,0.8h-4.19c-0.45,0 -0.82,-0.3 -0.82,-0.8v-14.2c0,0 0.25,-3.4 -2.74,-3.4c0,0 -2.95,-0.4 -2.85,4.3zM1799.45,39.8332v13.3c0,0.5 -0.37,0.8 -0.82,0.8l-4.36,0.1c-0.45,0 -0.81,-0.3 -0.81,-0.8v-14.2c0,0 0.24,-3.4 -2.75,-3.4c0,0 -2.85,-0.1 -2.85,5.2v12.4c0,0.4 -0.36,0.8 -0.81,0.8h-4.2c-0.45,0 -0.81,-0.4 -0.81,-0.8v-21.7c0,-0.4 0.36,-0.8 0.81,-0.8h3.89c0.45,0 0.81,0.4 0.81,0.8v3.1c0,0 1.39,-4.4 5.51,-4.4c0,0 4.41,-0.6 5.9,4c0,0 0.49,0.9 0.49,5.6zM1769.14,30.1332c-5.37,0 -9.72,4.6 -9.72,12.2c0,6.7 3.36,12.1 9.72,12.1c6,0 9.72,-5.4 9.72,-12.1c0,-7.5 -4.35,-12.2 -9.72,-12.2zM1772.53,42.6332c0,2.8 -0.36,4.3 -0.36,4.3c-0.51,3.1 -2.71,3.1 -3.03,3.1c-0.35,0 -2.57,-0.1 -3.03,-3.1c0,0 -0.36,-1.5 -0.36,-4.3v-0.5c0,-2.9 0.36,-4.4 0.36,-4.4c0.46,-3 2.68,-3 3.03,-3c0.32,0 2.52,0 3.03,3c0,0 0.36,1.5 0.36,4.4zM1756.98,34.6332v-3.1c0,-0.5 -0.36,-0.9 -0.81,-0.9h-13.87c-0.45,0 -0.82,0.4 -0.82,0.9v3c0,0.5 0.37,0.8 0.82,0.8h7.23l-8.56,12.5c0,0 -0.34,0.5 -0.33,1v3.8c0,0 -0.05,1.3 1.42,0.6c0,0 2.61,-1.6 6.98,-1.6c0,0 4.33,-0.1 7.21,1.7c0,0 1.2,0.5 1.2,-0.7v-3.3c0,0 0.1,-0.8 -1.04,-1.4c0,0 -3.31,-1.8 -7.67,-1.5zM1682.19,50.1332l-1.32,-2c-0.41,-0.7 -0.38,-1.6 -0.38,-1.6v-9.2c0.18,-8 -8.66,-7.3 -8.66,-7.3c-7.86,0 -9.02,6.1 -9.02,6.1c-0.33,1.3 0.62,1.3 0.62,1.3l3.84,0.4c0,0 0.66,0.1 0.9,-0.7c0,0 0.5,-2.6 3.33,-2.6c3.08,0 3.04,2.6 3.04,2.6v2.2c-6.14,0.2 -8.98,1.9 -8.98,1.9c-3.8,2.2 -3.56,6.5 -3.56,6.5c0,6.9 6.63,6.6 6.63,6.6c4.24,0 6.75,-3.1 6.75,-3.1c0.75,1.3 2.12,2.6 2.12,2.6c0.69,0.7 1.4,0.1 1.4,0.1l3.11,-2.7c0.69,-0.5 0.18,-1.1 0.18,-1.1zM1670.7,50.0332c-1.99,0 -2.73,-2 -2.4,-3.9c0.33,-2 2.05,-3.5 6.24,-3.4v1.1c0.15,5.2 -2.18,6.2 -3.84,6.2zM1737.97,50.1332l-1.32,-2c-0.42,-0.7 -0.39,-1.6 -0.39,-1.6v-9.2c0.18,-8 -8.66,-7.3 -8.66,-7.3c-7.85,0 -9.01,6.1 -9.01,6.1c-0.33,1.3 0.62,1.3 0.62,1.3l3.84,0.4c0,0 0.66,0.1 0.89,-0.7c0,0 0.51,-2.6 3.34,-2.6c3.07,0 3.04,2.6 3.04,2.6v2.2c-6.14,0.2 -8.99,1.9 -8.99,1.9c-3.79,2.2 -3.55,6.5 -3.55,6.5c0,6.9 6.63,6.6 6.63,6.6c4.24,0 6.75,-3.1 6.75,-3.1c0.74,1.3 2.12,2.6 2.12,2.6c0.68,0.7 1.4,0.1 1.4,0.1l3.11,-2.7c0.68,-0.5 0.18,-1.1 0.18,-1.1zM1726.48,50.0332c-2,0 -2.74,-2 -2.41,-3.9c0.34,-2 2.06,-3.5 6.25,-3.4v1.1c0.15,5.2 -2.18,6.2 -3.84,6.2z" fill="black"/>
<g id="Groupe 8306_4">
<path id="Tracé 10176_4" d="M1748.54,67.6332c0,0 -0.36,0.6 0.08,0.7c0,0 0.48,0.2 1.09,-0.4c0,0 4.43,-3.8 4.54,-10.9c0,0 0.03,-0.9 -0.32,-1.1c0,0 -1.39,-1.2 -6.38,-0.8c0,0 -4.35,0.2 -6.73,2.4c0,0 -0.21,0.1 -0.21,0.4c0,0 -0.06,0.5 1.25,0.3c0,0 4.35,-0.6 6.94,-0.3c0,0 1.34,0.1 1.71,0.6c0,0 0.62,0.5 0.29,2.2c0,0 -0.88,4.3 -2.26,6.9z" fill="#F3971B"/>
<path id="Tracé 10177_4" d="M1747.66,60.8332c0,0 0.65,0.9 -0.4,1.6c0,0 -11.2,8.9 -30.02,8.9c0,0 -19.36,1 -35.53,-13.7c0,0 -0.57,-0.5 -0.21,-1c0,0 0.31,-0.4 1.12,0.1c0,0 15.21,9.5 35.19,9.5c0,0 13.89,0.5 28.13,-5.6c0,0 1.13,-0.6 1.72,0.2z" fill="#F3971B"/>
</g>
</g>
</g></svg>