<svg viewBox="0 0 272 94" fill="none" xmlns="http://www.w3.org/2000/svg" xmlns:xlink="http://www.w3.org/1999/xlink" x="0" y="0"><g id="Group 3">
<path id="Rectangle 2095" d="M0,21c0,-11.6 9.402,-21 21,-21h230c11.598,0 21,9.4 21,21v52c0,11.6 -9.402,21 -21,21h-230c-11.598,0 -21,-9.4 -21,-21z" fill="#FFFBFB"/>
<path id="gucci-4" d="M95.28,52.28v6.34c-2.28,2.02 -7.73,3.23 -11.787,3.23c-4.052,0 -15.269,-2.54 -15.269,-14.45c0,-11.91 10.676,-14.48 14.983,-14.48c4.312,0 8.904,0.79 11.564,2.57v5.57c0,0.7 -0.95,0.64 -0.95,0c-0.063,-0.95 -2.598,-6.65 -8.936,-6.52c-6.842,0.14 -11.465,5.52 -11.465,12.61c0,7.09 4.493,13.18 11.278,12.98c2.203,-0.06 4.499,-0.75 5.611,-1.68l0.026,-6.17c0,-1.77 -1.076,-2.41 -2.151,-2.41c-0.701,0 -0.701,-1.01 0,-1.01h9.247c0.696,0 0.696,1.08 0,1.01c-1.07,0 -2.151,0.64 -2.151,2.41zM157.627,41.07c0,0.69 -0.696,0.63 -0.696,0c-0.068,-0.95 -2.598,-6.84 -8.936,-6.71c-6.842,0.13 -11.471,5.7 -11.471,12.79c0,7.09 4.437,13.37 11.217,13.18c6.779,-0.19 10.011,-6.9 10.265,-7.79c0.255,-0.89 0.696,-0.76 0.696,-0.06v5.19c-2.784,2.03 -8.047,4.18 -12.099,4.18c-4.052,0 -15.269,-2.53 -15.269,-14.44c0,-11.92 10.645,-14.77 14.952,-14.77c4.312,0 8.681,1.08 11.346,2.85v5.58zM202.996,33.34c1.013,0 1.013,0.95 0,0.95c-1.081,0 -2.156,0.63 -2.156,2.4v21.1c0,1.77 1.075,2.41 2.156,2.41c1.013,0 1.013,1.26 0,1.26h-9.315c-1.013,0 -1.013,-1.26 0,-1.26c1.08,0 2.156,-0.64 2.156,-2.41v-21.1c0,-1.77 -1.076,-2.4 -2.156,-2.4c-1.013,0 -1.013,-0.95 0,-0.95h9.315zM128.924,33.34c1.013,0 1.013,0.95 0,0.95c-1.075,0 -2.151,0.63 -2.151,2.4l-0.125,13.85c0,6.63 -5.376,11.5 -12.011,11.5c-6.634,0 -11.813,-4.87 -11.813,-11.5v-13.85c0,-1.77 -1.081,-2.4 -2.156,-2.4c-1.013,0 -1.013,-0.95 0,-0.95h9.377c1.013,0 1.013,0.95 0,0.95c-1.081,0 -2.156,0.63 -2.156,2.4l-0.01,15.46c0,4.68 3.823,8.47 8.499,8.47c4.675,0 8.468,-4.74 8.468,-9.41l-0.229,-14.52c0,-1.77 -1.075,-2.4 -2.156,-2.4c-1.008,0 -1.008,-0.95 0,-0.95h6.463zM188.61,41.07c0,0.69 -0.696,0.63 -0.696,0c-0.062,-0.95 -2.597,-6.84 -8.935,-6.71c-6.842,0.13 -11.471,5.7 -11.471,12.79c0,7.09 4.437,13.37 11.216,13.18c6.78,-0.19 10.011,-6.9 10.266,-7.79c0.254,-0.89 0.701,-0.76 0.701,-0.06v5.19c-2.79,2.03 -8.047,4.18 -12.105,4.18c-4.052,0 -15.268,-2.53 -15.268,-14.44c0,-11.92 10.645,-14.77 14.957,-14.77c4.306,0 8.681,1.08 11.341,2.85v5.58z" fill="black"/>
</g></svg>