<svg viewBox="0 0 273 94" fill="none" xmlns="http://www.w3.org/2000/svg" xmlns:xlink="http://www.w3.org/1999/xlink" x="0" y="0"><g id="Group 2">
<path id="Rectangle 2096" d="M0,21c0,-11.6 9.402,-21 21,-21h231c11.598,0 21,9.4 21,21v52c0,11.6 -9.402,21 -21,21h-231c-11.598,0 -21,-9.4 -21,-21z" fill="#FFFBFB"/>
<path id="airbnb" d="M140.932,34.89c0,1.76 -1.417,3.18 -3.175,3.18c-1.759,0 -3.175,-1.42 -3.175,-3.18c0,-1.76 1.368,-3.17 3.175,-3.17c1.808,0.05 3.175,1.46 3.175,3.17zM127.842,41.29v0.78c0,0 -1.513,-1.95 -4.737,-1.95c-5.323,0 -9.475,4.05 -9.475,9.67c0,5.57 4.103,9.67 9.475,9.67c3.273,0 4.737,-2 4.737,-2v0.83c0,0.39 0.294,0.68 0.684,0.68h3.956v-18.37h-3.956c-0.39,0.01 -0.684,0.35 -0.684,0.69zM127.842,53.06c-0.731,1.07 -2.197,2 -3.955,2c-3.126,0 -5.519,-1.95 -5.519,-5.27c0,-3.32 2.393,-5.28 5.519,-5.28c1.71,0 3.272,0.98 3.955,2.01zM135.413,40.61h4.688v18.36h-4.688zM205.449,40.12c-3.224,0 -4.738,1.95 -4.738,1.95v-10.3h-4.689v27.2h3.957c0.391,0 0.683,-0.34 0.683,-0.68v-0.83c0,0 1.514,2 4.737,2c5.324,0 9.475,-4.1 9.475,-9.67c0,-5.57 -4.151,-9.67 -9.425,-9.67zM204.667,55.01c-1.808,0 -3.223,-0.92 -3.956,-2v-6.54c0.733,-0.98 2.295,-2.01 3.956,-2.01c3.126,0 5.519,1.96 5.519,5.28c0,3.32 -2.393,5.27 -5.519,5.27zM193.581,48.08v10.94h-4.689v-10.4c0,-3.03 -0.977,-4.25 -3.613,-4.25c-1.416,0 -2.881,0.73 -3.811,1.8v12.8h-4.687v-18.36h3.711c0.39,0 0.684,0.34 0.684,0.68v0.78c1.367,-1.42 3.174,-1.95 4.981,-1.95c2.051,0 3.761,0.58 5.128,1.76c1.66,1.36 2.296,3.12 2.296,6.2zM165.4,40.12c-3.223,0 -4.737,1.95 -4.737,1.95v-10.3h-4.689v27.2h3.956c0.391,0 0.684,-0.34 0.684,-0.68v-0.83c0,0 1.514,2 4.737,2c5.324,0 9.475,-4.1 9.475,-9.67c0.049,-5.57 -4.102,-9.67 -9.426,-9.67zM164.618,55.01c-1.807,0 -3.223,-0.92 -3.955,-2v-6.54c0.732,-0.98 2.295,-2.01 3.955,-2.01c3.127,0 5.519,1.96 5.519,5.28c0,3.32 -2.392,5.27 -5.519,5.27zM151.92,40.12c1.416,0 2.149,0.24 2.149,0.24v4.35c0,0 -3.907,-1.32 -6.349,1.46v12.85h-4.689v-18.41h3.957c0.39,0 0.683,0.34 0.683,0.68v0.78c0.88,-1.02 2.785,-1.95 4.249,-1.95zM103.228,57.31c-0.244,-0.59 -0.488,-1.22 -0.732,-1.76c-0.392,-0.88 -0.782,-1.71 -1.123,-2.49l-0.049,-0.05c-3.371,-7.33 -6.984,-14.75 -10.794,-22.07l-0.146,-0.3c-0.401,-0.76 -0.792,-1.52 -1.172,-2.29c-0.489,-0.88 -0.977,-1.81 -1.758,-2.69c-1.563,-1.95 -3.81,-3.03 -6.203,-3.03c-2.442,0 -4.639,1.08 -6.25,2.93c-0.733,0.88 -1.271,1.81 -1.759,2.69c-0.381,0.77 -0.772,1.53 -1.171,2.29l-0.147,0.3c-3.761,7.32 -7.424,14.75 -10.794,22.07l-0.049,0.1c-0.341,0.78 -0.733,1.61 -1.124,2.49c-0.243,0.54 -0.487,1.12 -0.731,1.76c-0.636,1.81 -0.831,3.52 -0.586,5.27c0.537,3.67 2.978,6.74 6.349,8.11c1.27,0.54 2.589,0.78 3.956,0.78c0.39,0 0.878,-0.05 1.27,-0.09c1.612,-0.2 3.272,-0.74 4.884,-1.66c2.002,-1.13 3.907,-2.74 6.056,-5.08c2.149,2.34 4.102,3.95 6.056,5.08c1.612,0.92 3.272,1.46 4.884,1.66c0.39,0.05 0.879,0.09 1.27,0.09c1.368,0 2.735,-0.24 3.956,-0.78c3.419,-1.37 5.812,-4.49 6.349,-8.11c0.388,-1.7 0.193,-3.41 -0.442,-5.22zM81.202,59.85c-2.637,-3.32 -4.347,-6.45 -4.932,-9.08c-0.244,-1.13 -0.294,-2.11 -0.147,-2.98c0.097,-0.79 0.391,-1.47 0.782,-2.06c0.928,-1.31 2.491,-2.14 4.298,-2.14c1.807,0 3.419,0.78 4.298,2.14c0.391,0.59 0.684,1.27 0.782,2.06c0.146,0.88 0.097,1.9 -0.147,2.98c-0.588,2.58 -2.297,5.71 -4.934,9.08zM100.688,62.14c-0.341,2.54 -2.051,4.74 -4.444,5.72c-1.172,0.49 -2.442,0.63 -3.711,0.49c-1.221,-0.15 -2.443,-0.54 -3.712,-1.27c-1.758,-0.98 -3.516,-2.49 -5.568,-4.74c3.223,-3.96 5.177,-7.57 5.91,-10.79c0.342,-1.52 0.391,-2.89 0.244,-4.16c-0.195,-1.22 -0.635,-2.34 -1.318,-3.32c-1.515,-2.2 -4.055,-3.46 -6.887,-3.46c-2.832,0 -5.372,1.31 -6.886,3.46c-0.684,0.98 -1.124,2.1 -1.319,3.32c-0.195,1.27 -0.147,2.69 0.244,4.16c0.732,3.22 2.735,6.88 5.909,10.84c-2.002,2.24 -3.809,3.76 -5.568,4.74c-1.27,0.73 -2.49,1.12 -3.711,1.27c-1.318,0.14 -2.589,-0.05 -3.712,-0.49c-2.392,-0.98 -4.102,-3.18 -4.444,-5.72c-0.146,-1.22 -0.049,-2.44 0.44,-3.81c0.146,-0.48 0.391,-0.97 0.635,-1.56c0.342,-0.78 0.732,-1.61 1.123,-2.44l0.049,-0.1c3.37,-7.28 6.984,-14.7 10.744,-21.93l0.147,-0.29c0.391,-0.73 0.782,-1.51 1.172,-2.25c0.391,-0.78 0.83,-1.51 1.368,-2.15c1.025,-1.17 2.392,-1.8 3.907,-1.8c1.514,0 2.881,0.63 3.907,1.8c0.538,0.64 0.977,1.37 1.368,2.15c0.391,0.74 0.782,1.52 1.172,2.25l0.146,0.29c3.704,7.26 7.27,14.59 10.696,21.98v0.05c0.392,0.78 0.733,1.66 1.124,2.44c0.244,0.59 0.488,1.08 0.635,1.56c0.389,1.27 0.536,2.49 0.34,3.76z" fill="#FF5A5F"/>
</g></svg>