<svg viewBox="0 0 272 94" fill="none" xmlns="http://www.w3.org/2000/svg" xmlns:xlink="http://www.w3.org/1999/xlink" x="0" y="0"><g id="Group 6">
<path id="Rectangle 1971_2" d="M0.0005,21c0,-11.6 9.4,-21 21,-21h230c11.6,0 21,9.4 21,21v52c0,11.6 -9.4,21 -21,21h-230c-11.6,0 -21,-9.4 -21,-21z" fill="#FFFBFB"/>
<g id="Group 5">
<path id="Tracé 10175" d="M92.7305,37.01v14.46c0,0.49 -0.39,0.89 -0.88,0.89h-4.57c-0.49,0 -0.88,-0.4 -0.88,-0.89v-23.52c0,-0.49 0.39,-0.89 0.88,-0.89h4.23c0.49,0 0.88,0.4 0.88,0.89v3.31c0,0 1.51,-4.73 5.99,-4.73c0,0 4.44,-0.53 6.24,4.39c0,0 1.51,-4.39 6.09,-4.39c0,0 6.81,-0.4 6.81,6.65l0.06,3.88v14.46c0,0.49 -0.4,0.89 -0.89,0.89h-4.57c-0.48,0 -0.88,-0.4 -0.88,-0.89l-0.04,-15.78c0.13,-3.57 -2.76,-3.31 -2.76,-3.31c-3.64,0.06 -3.29,4.63 -3.29,4.63v14.46c0,0.49 -0.4,0.89 -0.88,0.89h-4.57c-0.49,0 -0.88,-0.4 -0.88,-0.89v-15.42c0,0 0.26,-3.7 -2.99,-3.7c0,0 -3.21,-0.43 -3.1,4.61zM210.4305,36.96v14.47c0,0.49 -0.39,0.88 -0.88,0.88l-4.75,0.1c-0.49,0 -0.88,-0.4 -0.88,-0.89v-15.42c0,0 0.26,-3.7 -2.98,-3.7c0,0 -3.11,-0.16 -3.11,5.65v13.42c0,0.49 -0.39,0.89 -0.88,0.89h-4.57c-0.49,0 -0.88,-0.4 -0.88,-0.89v-23.52c0,-0.49 0.39,-0.89 0.88,-0.89h4.23c0.49,0 0.88,0.4 0.88,0.89v3.31c0,0 1.51,-4.73 6,-4.73c0,0 4.8,-0.73 6.41,4.3c0.01,0 0.53,1.03 0.53,6.13zM177.4705,26.43c-5.84,0 -10.58,4.93 -10.58,13.21c0,7.29 3.66,13.2 10.58,13.2c6.52,0 10.57,-5.91 10.57,-13.2c0,-8.14 -4.74,-13.21 -10.57,-13.21zM181.1505,39.93c0,3.12 -0.39,4.78 -0.39,4.78c-0.55,3.29 -2.95,3.3 -3.3,3.28c-0.38,0.02 -2.79,-0.02 -3.29,-3.28c0,0 -0.39,-1.66 -0.39,-4.78v-0.52c0,-3.12 0.39,-4.77 0.39,-4.77c0.5,-3.27 2.91,-3.3 3.29,-3.29c0.35,-0.01 2.75,-0.01 3.3,3.29c0,0 0.39,1.65 0.39,4.77zM164.2405,31.23v-3.38c0,-0.49 -0.39,-0.88 -0.88,-0.88h-15.1c-0.48,0 -0.88,0.39 -0.88,0.88v3.35c0,0.49 0.4,0.88 0.88,0.88h7.88l-9.32,13.52c0,0 -0.37,0.55 -0.36,1.16v4.11c0,0 -0.06,1.41 1.54,0.59c0,0 2.84,-1.72 7.6,-1.72c0,0 4.71,-0.06 7.84,1.87c0,0 1.3,0.59 1.3,-0.71v-3.58c0,0 0.12,-0.95 -1.12,-1.54c0,0 -3.61,-1.98 -8.34,-1.66zM82.8705,48.15l-1.43,-2.18c-0.45,-0.81 -0.42,-1.72 -0.42,-1.72v-10.04c0.2,-8.67 -9.42,-7.92 -9.42,-7.92c-8.55,0 -9.81,6.65 -9.81,6.65c-0.35,1.34 0.68,1.37 0.68,1.37l4.18,0.42c0,0 0.71,0.17 0.97,-0.68c0,0 0.55,-2.9 3.63,-2.9c3.34,0 3.31,2.87 3.31,2.87v2.4c-6.68,0.23 -9.78,2.08 -9.78,2.08c-4.12,2.34 -3.87,6.99 -3.87,6.99c0,7.56 7.22,7.24 7.22,7.24c4.61,0 7.34,-3.38 7.34,-3.38c0.81,1.43 2.3,2.79 2.3,2.79c0.75,0.82 1.53,0.14 1.53,0.14l3.38,-2.9c0.75,-0.55 0.19,-1.23 0.19,-1.23zM70.3805,48.06c-2.17,0 -2.98,-2.16 -2.62,-4.28c0.36,-2.12 2.23,-3.78 6.8,-3.73v1.28c0.16,5.63 -2.38,6.73 -4.18,6.73zM143.5505,48.15l-1.43,-2.18c-0.45,-0.81 -0.42,-1.72 -0.42,-1.72v-10.04c0.2,-8.67 -9.42,-7.92 -9.42,-7.92c-8.55,0 -9.81,6.65 -9.81,6.65c-0.36,1.34 0.68,1.37 0.68,1.37l4.18,0.42c0,0 0.71,0.17 0.97,-0.68c0,0 0.55,-2.9 3.62,-2.9c3.35,0 3.32,2.87 3.32,2.87v2.4c-6.68,0.23 -9.78,2.08 -9.78,2.08c-4.13,2.34 -3.87,6.99 -3.87,6.99c0,7.56 7.21,7.24 7.21,7.24c4.62,0 7.35,-3.38 7.35,-3.38c0.81,1.43 2.3,2.79 2.3,2.79c0.75,0.82 1.53,0.14 1.53,0.14l3.38,-2.9c0.74,-0.55 0.19,-1.23 0.19,-1.23zM131.0605,48.06c-2.17,0 -2.98,-2.16 -2.62,-4.28c0.36,-2.12 2.23,-3.78 6.8,-3.73v1.28c0.16,5.63 -2.38,6.73 -4.18,6.73z" fill="black"/>
<g id="Groupe 8306">
<path id="Tracé 10176" d="M148.6805,67.15c0,0 -0.38,0.66 0.09,0.81c0,0 0.53,0.21 1.19,-0.41c0,0 4.82,-4.21 4.94,-11.88c0,0 0.03,-0.95 -0.35,-1.22c0,0 -1.51,-1.33 -6.94,-0.93c0,0 -4.74,0.32 -7.32,2.62c0,0 -0.24,0.2 -0.24,0.46c0,0 -0.05,0.57 1.37,0.32c0,0 4.73,-0.67 7.55,-0.32c0,0 1.45,0.18 1.86,0.67c0,0 0.67,0.55 0.32,2.38c0,0 -0.96,4.65 -2.47,7.5z" fill="#F3971B"/>
<path id="Tracé 10177" d="M147.7305,59.79c0,0 0.7,0.92 -0.44,1.71c0,0 -12.19,9.75 -32.65,9.75c0,0 -21.07,1.04 -38.66,-14.95c0,0 -0.61,-0.54 -0.23,-1.04c0,0 0.34,-0.46 1.23,0.04c0,0 16.54,10.31 38.28,10.31c0,0 15.1,0.58 30.6,-6.04c0,0 1.23,-0.64 1.87,0.22z" fill="#F3971B"/>
</g>
</g>
</g></svg>