<svg viewBox="0 0 41.5273 41.5275" fill="none" xmlns="http://www.w3.org/2000/svg" xmlns:xlink="http://www.w3.org/1999/xlink" x="0" y="0"><g id="icon.svg (32)">
<g id="Groupe 8604">
<g id="Groupe 8603">
<path id="Tracé 10509" d="M41.1714,0.3697c-0.476,-0.5 -1.246,-0.5 -1.721,0l-3.544,3.5c-0.218,-0.1 -0.447,-0.2 -0.687,-0.2l-11.013,-2.7c-1.236,-0.3 -2.564,0 -3.466,0.9l-19.673,19.7c-1.423,1.4 -1.423,3.7 0,5.1l13.765,13.8c1.423,1.4 3.739,1.4 5.162,0l19.641,-19.7c0.901,-0.9 1.269,-2.2 0.96,-3.4l-2.721,-11.1c-0.06,-0.2 -0.143,-0.4 -0.247,-0.6l3.544,-3.6c0.475,-0.5 0.475,-1.2 0,-1.7zM38.2344,17.8697c0.103,0.5 -0.019,0.9 -0.32,1.2l-19.641,19.7c-0.474,0.4 -1.246,0.4 -1.721,0l-13.765,-13.8c-0.474,-0.5 -0.474,-1.2 0,-1.7l19.674,-19.7c0.23,-0.2 0.544,-0.3 0.863,-0.3c0.098,0 0.196,0 0.292,0l10.344,2.6l-2.93,2.9c-1.357,-0.6 -3.032,-0.4 -4.154,0.7c-1.423,1.4 -1.423,3.8 0,5.2c0.712,0.7 1.647,1 2.581,1c0.935,0 1.87,-0.3 2.581,-1c1.122,-1.1 1.359,-2.8 0.713,-4.2l2.93,-2.9zM30.3184,12.9697c-0.475,0.4 -1.247,0.4 -1.721,0c-0.474,-0.5 -0.474,-1.3 0,-1.8c0.237,-0.2 0.549,-0.3 0.86,-0.3c0.312,0 0.623,0.1 0.861,0.3v0v0c0.474,0.5 0.474,1.3 0,1.8z" fill="black"/>
</g>
</g>
<g id="Groupe 8606">
<g id="Groupe 8605">
<path id="Tracé 10510" d="M19.9944,14.6697c-1.423,-1.4 -3.739,-1.4 -5.162,0c-1.423,1.4 -1.423,3.7 0,5.1c1.423,1.5 3.739,1.5 5.162,0c1.423,-1.4 1.423,-3.7 0,-5.1zM18.2734,18.0697c-0.474,0.5 -1.246,0.5 -1.72,0c-0.475,-0.5 -0.475,-1.2 0,-1.7c0.474,-0.5 1.246,-0.5 1.72,0c0.475,0.5 0.475,1.2 0,1.7z" fill="black"/>
</g>
</g>
<g id="Groupe 8608">
<g id="Groupe 8607">
<path id="Tracé 10511" d="M21.7144,26.6697c-1.426,-1.4 -3.735,-1.4 -5.161,0c-1.424,1.4 -1.424,3.8 0,5.2c1.426,1.4 3.735,1.4 5.161,0c1.424,-1.4 1.424,-3.8 0,-5.2zM19.9944,30.1697c-0.476,0.4 -1.245,0.4 -1.721,0c-0.474,-0.5 -0.474,-1.3 0,-1.8c0.476,-0.4 1.245,-0.4 1.721,0c0.474,0.5 0.474,1.3 0,1.8z" fill="black"/>
</g>
</g>
<g id="Groupe 8610">
<g id="Groupe 8609">
<path id="Tracé 10512" d="M27.2254,22.2697c-0.074,-0.7 -0.676,-1.2 -1.343,-1.1l-15.486,1.7c-0.668,0.1 -1.149,0.7 -1.075,1.4c0.069,0.6 0.596,1.1 1.208,1.1c0.045,0 0.09,0 0.136,0l15.485,-1.8c0.668,0 1.15,-0.6 1.075,-1.3z" fill="black"/>
</g>
</g>
</g></svg>