<svg viewBox="0 0 164.2142 88.8" fill="none" xmlns="http://www.w3.org/2000/svg" xmlns:xlink="http://www.w3.org/1999/xlink" id="694b6b74" x="0" y="0"><g id="Page d'accueil avec promotions" data-node-id="5:7" clip-path="url(#clip0_5_7)"><g id="Groupe 8925" data-node-id="5:1262"><g id="Groupe 8636" data-node-id="5:1263"><g id="Groupe 8577" data-node-id="5:1264"><g id="Groupe 8572" data-node-id="5:1266"><g id="Groupe 8564" data-node-id="5:1267"><g id="Groupe 8575" data-node-id="5:1296"><g id="Icons" data-node-id="5:1300">
<g id="Color-" data-node-id="5:1301">
<g id="chrome" data-node-id="5:1302">
<path id="chrome-icon-path" data-node-id="5:1303" d="M11.0283,15.8c20.267,-23.6 57.848,-18.9 71.897,8.7c-9.89,0 -25.376,-0.1 -33.764,0c-6.083,0 -10.011,-0.2 -14.264,2.1c-5.001,2.6 -8.774,7.5 -10.091,13.2z" fill="#EA4335"/>
<path id="chrome-icon-path_2" data-node-id="5:1304" d="M29.5943,44.2c0,8 6.5,14.5 14.49,14.5c7.99,0 14.49,-6.5 14.49,-14.5c0,-8 -6.5,-14.5 -14.49,-14.5c-7.99,0 -14.49,6.5 -14.49,14.5z" fill="#4285F4"/>
<path id="chrome-icon-path_3" data-node-id="5:1305" d="M49.7073,63.2c-8.133,2.4 -17.65,-0.2 -22.864,-9.2c-3.979,-6.9 -14.494,-25.2 -19.273,-33.6c-16.738,25.7 -2.312,60.7 28.075,66.6z" fill="#34A853"/>
<path id="chrome-icon-path_4" data-node-id="5:1306" d="M57.5443,29.7c6.774,6.3 8.25,16.5 3.661,24.5c-3.457,5.9 -14.49,24.5 -19.838,33.6c31.309,1.9 54.132,-28.8 43.823,-58.1z" fill="#FBBC05"/>
</g>
</g>
</g><g id="firefox-svgrepo-com(1)" data-node-id="5:1307">
<path id="c" data-node-id="5:1308" d="M160.6473,29.9c-1.848,-4.4 -5.595,-9.2 -8.534,-10.7c2.394,4.6 3.778,9.4 4.308,12.9c0,0 0.003,0 0.007,0l0.007,0.1c4.016,10.8 1.827,21.9 -1.325,28.7c-4.876,10.4 -16.68,21.2 -35.16,20.6c-19.966,-0.5 -37.556,-15.3 -40.839,-34.7c-0.599,-3.1 0,-4.7 0.301,-7.1c-0.367,1.9 -0.507,2.4 -0.691,5.8l-0.003,0.2c0,23.5 19.052,42.6 42.553,42.6c21.048,0 38.523,-15.3 41.947,-35.4l0.195,-1.6c0.845,-7.3 -0.094,-15 -2.762,-21.4z" fill="black"/>
<path id="g" data-node-id="5:1309" d="M121.3523,37.6c-0.072,1 -3.806,4.7 -5.117,4.7c-12.101,0 -14.066,7.3 -14.066,7.3c0.537,6.2 4.828,11.2 10.021,13.9c0.239,0.1 0.481,0.3 0.719,0.4c0.412,0.1 0.828,0.3 1.25,0.5c1.781,0.6 3.648,1 5.537,1c21.211,1 25.32,-25.3 10.012,-33c3.92,-0.6 7.986,0.9 10.26,2.5c-3.717,-6.5 -10.668,-10.9 -18.645,-10.9c-0.506,0 -0.998,0.1 -1.494,0.1c-4.27,0.3 -8.352,1.9 -11.711,4.5c0.646,0.6 1.381,1.3 2.922,2.8c2.885,2.9 10.293,5.8 10.308,6.2z" fill="black"/>
<path id="Tracé 10493" data-node-id="5:1310" d="M160.6473,29.9c-1.848,-4.4 -5.595,-9.2 -8.534,-10.7c2.394,4.6 3.778,9.4 4.308,12.9h0.009c-4.813,-12 -12.971,-16.8 -19.634,-27.3l-1.002,-1.6c-0.168,-0.3 -0.324,-0.6 -0.469,-0.9c-0.277,-0.6 -0.49,-1.1 -0.636,-1.7c0.002,-0.1 -0.04,-0.1 -0.097,-0.1c-0.026,0 -0.054,0 -0.08,0h-0.021h-0.03h0.017c-10.689,6.2 -14.316,17.8 -14.65,23.6c-4.269,0.3 -8.35,1.9 -11.712,4.5c-0.351,-0.3 -0.719,-0.5 -1.101,-0.8c-0.97,-3.4 -1.012,-7 -0.12,-10.4c-4.371,2 -7.774,5.1 -10.244,7.9h-0.017c-1.688,-2.1 -1.569,-9.2 -1.474,-10.6c-0.017,-0.1 -1.257,0.6 -1.42,0.7c-1.489,1.1 -2.881,2.3 -4.159,3.6c-1.455,1.4 -2.784,3 -3.974,4.7h-0.001v0c-2.737,3.9 -4.678,8.3 -5.711,12.9l-0.056,0.3c-0.157,0.9 -0.297,1.8 -0.42,2.7l-0.009,0.1c-0.373,1.9 -0.604,3.9 -0.69,5.8l-0.002,0.2c0,23.5 19.052,42.6 42.553,42.6c21.048,0 38.523,-15.3 41.947,-35.4l0.195,-1.6c0.845,-7.3 -0.094,-15 -2.762,-21.4zM111.5993,63.2c0.2,0.1 0.39,0.2 0.592,0.3h0.028c-0.208,-0.1 -0.415,-0.2 -0.62,-0.3zM156.4313,32.2l-0.005,-0.1l0.007,0.1z" fill="url(#paint0_linear_5_7)"/>
<path id="Tracé 10494" data-node-id="5:1311" d="M160.6473,29.9c-1.848,-4.4 -5.595,-9.2 -8.534,-10.7c2.394,4.6 3.778,9.4 4.308,12.9c0,0 0.003,0 0.007,0l0.007,0.1c4.016,10.8 1.827,21.9 -1.325,28.7c-4.876,10.4 -16.68,21.2 -35.16,20.6c-19.966,-0.5 -37.556,-15.3 -40.839,-34.7c-0.599,-3.1 0,-4.7 0.301,-7.1c-0.367,1.9 -0.507,2.4 -0.691,5.8l-0.003,0.2c0,23.5 19.052,42.6 42.553,42.6c21.048,0 38.523,-15.3 41.947,-35.4l0.195,-1.6c0.845,-7.3 -0.094,-15 -2.762,-21.4z" fill="url(#paint1_radial_5_7)"/>
<path id="Tracé 10495" data-node-id="5:1312" d="M160.6473,29.9c-1.848,-4.4 -5.595,-9.2 -8.534,-10.7c2.394,4.6 3.778,9.4 4.308,12.9c0,0 0.003,0 0.007,0l0.007,0.1c4.016,10.8 1.827,21.9 -1.325,28.7c-4.876,10.4 -16.68,21.2 -35.16,20.6c-19.966,-0.5 -37.556,-15.3 -40.839,-34.7c-0.599,-3.1 0,-4.7 0.301,-7.1c-0.367,1.9 -0.507,2.4 -0.691,5.8l-0.003,0.2c0,23.5 19.052,42.6 42.553,42.6c21.048,0 38.523,-15.3 41.947,-35.4l0.195,-1.6c0.845,-7.3 -0.094,-15 -2.762,-21.4z" fill="url(#paint2_radial_5_7)"/>
<path id="Tracé 10496" data-node-id="5:1313" d="M139.9713,34.9l0.264,0.2c-1.066,-1.9 -2.396,-3.6 -3.949,-5.1c-13.229,-13.3 -3.471,-28.7 -1.824,-29.5h0.015c-10.689,6.2 -14.316,17.8 -14.648,23.6c0.494,0 0.99,-0.1 1.496,-0.1c7.975,0 14.924,4.4 18.645,10.9z" fill="url(#paint3_radial_5_7)"/>
<path id="Tracé 10497" data-node-id="5:1314" d="M121.3523,37.6c-0.072,1 -3.806,4.7 -5.117,4.7c-12.101,0 -14.066,7.3 -14.066,7.3c0.537,6.2 4.828,11.2 10.021,13.9c0.239,0.1 0.481,0.3 0.719,0.4c0.412,0.1 0.828,0.3 1.25,0.5c1.781,0.6 3.648,1 5.537,1c21.211,1 25.32,-25.3 10.012,-33c3.92,-0.6 7.986,0.9 10.26,2.5c-3.717,-6.5 -10.668,-10.9 -18.645,-10.9c-0.506,0 -0.998,0.1 -1.494,0.1c-4.27,0.3 -8.352,1.9 -11.711,4.5c0.646,0.6 1.381,1.3 2.922,2.8c2.885,2.9 10.293,5.8 10.308,6.2z" fill="url(#paint4_radial_5_7)"/>
<path id="Tracé 10498" data-node-id="5:1315" d="M121.3523,37.6c-0.072,1 -3.806,4.7 -5.117,4.7c-12.101,0 -14.066,7.3 -14.066,7.3c0.537,6.2 4.828,11.2 10.021,13.9c0.239,0.1 0.481,0.3 0.719,0.4c0.412,0.1 0.828,0.3 1.25,0.5c1.781,0.6 3.648,1 5.537,1c21.211,1 25.32,-25.3 10.012,-33c3.92,-0.6 7.986,0.9 10.26,2.5c-3.717,-6.5 -10.668,-10.9 -18.645,-10.9c-0.506,0 -0.998,0.1 -1.494,0.1c-4.27,0.3 -8.352,1.9 -11.711,4.5c0.646,0.6 1.381,1.3 2.922,2.8c2.885,2.9 10.293,5.8 10.308,6.2z" fill="url(#paint5_radial_5_7)"/>
<path id="Tracé 10499" data-node-id="5:1316" d="M106.1343,27.2c0.296,0.2 0.588,0.4 0.881,0.6c-0.97,-3.4 -1.011,-7 -0.119,-10.4c-4.373,2 -7.772,5.1 -10.243,7.9c0.204,0 6.375,-0.1 9.481,1.9z" fill="url(#paint6_radial_5_7)"/>
<path id="Tracé 10500" data-node-id="5:1317" d="M79.1113,46.8c3.284,19.4 20.873,34.2 40.837,34.7c18.481,0.6 30.286,-10.2 35.162,-20.6c3.152,-6.8 5.341,-17.9 1.325,-28.7v0l-0.007,-0.1c-0.004,0 -0.008,0 -0.008,0h0.009c1.511,9.9 -3.505,19.4 -11.341,25.9l-0.023,0.1c-15.272,12.4 -29.885,7.5 -32.846,5.4c-0.208,-0.1 -0.415,-0.2 -0.62,-0.3c-8.903,-4.2 -12.581,-12.3 -11.793,-19.3c-7.516,0 -10.08,-6.3 -10.08,-6.3c0,0 6.75,-4.8 15.646,-0.7c8.239,3.9 15.977,0.7 15.977,0.7c-0.018,-0.4 -7.423,-3.3 -10.309,-6.2c-1.544,-1.5 -2.276,-2.2 -2.925,-2.8c-0.352,-0.3 -0.72,-0.5 -1.102,-0.8c-0.292,-0.2 -0.586,-0.4 -0.882,-0.6c-3.103,-2 -9.278,-1.9 -9.482,-1.9h-0.017c-1.688,-2.1 -1.569,-9.2 -1.474,-10.6c-0.017,-0.1 -1.257,0.6 -1.42,0.7c-1.489,1.1 -2.88,2.3 -4.159,3.6c-1.455,1.4 -2.784,3 -3.973,4.7h-0.002v0c-2.737,3.9 -4.678,8.3 -5.711,12.9c-0.017,0.1 -1.531,6.7 -0.786,10.2z" fill="url(#paint7_radial_5_7)"/>
<path id="Tracé 10501" data-node-id="5:1318" d="M136.2823,30c1.553,1.5 2.883,3.2 3.951,5.1l0.635,0.5c9.652,8.9 4.594,21.5 4.215,22.4c7.838,-6.5 12.853,-16 11.342,-25.9c-4.809,-12 -12.967,-16.8 -19.629,-27.3l-1.004,-1.6c-0.166,-0.3 -0.322,-0.6 -0.469,-0.9c-0.275,-0.6 -0.488,-1.1 -0.635,-1.7c0.004,-0.1 -0.039,-0.1 -0.097,-0.1c-0.028,0 -0.055,0 -0.08,0h-0.02h-0.031c-1.647,0.8 -11.403,16.2 1.824,29.5z" fill="url(#paint8_radial_5_7)"/>
<path id="Tracé 10502" data-node-id="5:1319" d="M140.8763,35.6c-0.207,-0.1 -0.418,-0.3 -0.641,-0.5l-0.265,-0.2c-2.27,-1.6 -6.336,-3.1 -10.258,-2.5c15.304,7.7 11.195,34 -10.012,33c-1.891,0 -3.758,-0.4 -5.539,-1c-0.422,-0.2 -0.836,-0.4 -1.25,-0.5c-0.242,-0.1 -0.481,-0.3 -0.719,-0.4h0.031c2.957,2.1 17.571,7 32.848,-5.4l0.024,-0.1c0.375,-0.9 5.429,-13.5 -4.215,-22.4z" fill="url(#paint9_radial_5_7)"/>
<path id="Tracé 10503" data-node-id="5:1320" d="M102.1703,49.6c0,0 1.965,-7.3 14.064,-7.3c1.31,0 5.047,-3.7 5.116,-4.7c0.072,-1.1 -7.737,3.2 -15.976,-0.7c-8.896,-4.1 -15.646,0.7 -15.646,0.7c0,0 2.565,6.3 10.082,6.3c-0.789,7 2.889,15.1 11.792,19.3c0.201,0.1 0.386,0.2 0.591,0.3c-5.197,-2.7 -9.487,-7.7 -10.021,-13.9z" fill="url(#paint10_radial_5_7)"/>
<path id="Tracé 10504" data-node-id="5:1321" d="M160.6473,29.9c-1.848,-4.4 -5.595,-9.2 -8.534,-10.7c2.394,4.6 3.778,9.4 4.308,12.9h0.009c-4.813,-12 -12.971,-16.8 -19.634,-27.3l-1.002,-1.6c-0.168,-0.3 -0.324,-0.6 -0.469,-0.9c-0.277,-0.6 -0.49,-1.1 -0.636,-1.7c0.002,-0.1 -0.04,-0.1 -0.097,-0.1c-0.026,0 -0.054,0 -0.08,0h-0.021h-0.03h0.017c-10.689,6.2 -14.316,17.8 -14.65,23.6c0.495,0 0.991,-0.1 1.496,-0.1c7.977,0 14.927,4.4 18.645,10.9c-2.273,-1.6 -6.339,-3.1 -10.261,-2.5c15.306,7.7 11.196,34 -10.013,33c-1.889,0 -3.755,-0.4 -5.537,-1c-0.422,-0.2 -0.838,-0.4 -1.25,-0.5c-0.242,-0.1 -0.481,-0.3 -0.717,-0.4h0.03c-0.208,-0.1 -0.415,-0.2 -0.62,-0.3c0.198,0.1 0.386,0.2 0.59,0.3c-5.197,-2.7 -9.488,-7.7 -10.022,-13.9c0,0 1.961,-7.3 14.062,-7.3c1.311,0 5.047,-3.7 5.118,-4.7c-0.018,-0.4 -7.419,-3.3 -10.309,-6.2c-1.541,-1.5 -2.276,-2.2 -2.922,-2.8c-0.352,-0.3 -0.72,-0.5 -1.103,-0.8c-0.97,-3.4 -1.011,-7 -0.119,-10.4c-4.373,2 -7.773,5.1 -10.243,7.9h-0.018c-1.687,-2.1 -1.569,-9.2 -1.473,-10.6c-0.018,-0.1 -1.257,0.6 -1.42,0.7c-1.489,1.1 -2.881,2.3 -4.159,3.6c-1.454,1.4 -2.783,3 -3.972,4.7h-0.002v0c-2.736,3.9 -4.677,8.3 -5.71,12.9l-0.057,0.3c-0.181,0.9 -0.344,1.8 -0.49,2.7c-0.004,0 0.003,0 0,0c-0.329,2 -0.539,3.9 -0.629,5.9l-0.005,0.2c0,23.5 19.052,42.6 42.553,42.6c21.048,0 38.523,-15.3 41.947,-35.4l0.195,-1.6c0.845,-7.3 -0.094,-15 -2.762,-21.4zM156.4263,32.1l0.007,0.1v0z" fill="url(#paint11_linear_5_7)"/>
</g></g></g></g></g></g></g></g><defs><linearGradient id="paint0_linear_5_7" x1="152.8773000000001" y1="14.099999999998545" x2="86.70730000000003" y2="82.19999999999891" gradientUnits="userSpaceOnUse">
<stop offset="0.05" stop-color="#FFF44F"/>
<stop offset="0.37" stop-color="#FF980E"/>
<stop offset="0.53" stop-color="#FF3647"/>
<stop offset="0.7" stop-color="#E31587"/>
</linearGradient><radialGradient id="paint1_radial_5_7" cx="0" cy="0" r="1" gradientUnits="userSpaceOnUse" gradientTransform="translate(747.63 12109.9) scale(53.1227 34.5698)">
<stop offset="0.13" stop-color="#FFBD4F"/>
<stop offset="0.28" stop-color="#FF980E"/>
<stop offset="0.47" stop-color="#FF3750"/>
<stop offset="0.78" stop-color="#EB0878"/>
<stop offset="0.86" stop-color="#E50080"/>
</radialGradient><radialGradient id="paint2_radial_5_7" cx="0" cy="0" r="1" gradientUnits="userSpaceOnUse" gradientTransform="translate(756.13 12118.9) scale(51.827 34.5698)">
<stop offset="0.3" stop-color="#960E18"/>
<stop offset="0.35" stop-color="#B11927" stop-opacity="0.741176"/>
<stop offset="0.43" stop-color="#DB293D" stop-opacity="0.341176"/>
<stop offset="0.5" stop-color="#F5334B" stop-opacity="0.101961"/>
<stop offset="0.53" stop-color="#FF3750" stop-opacity="0"/>
</radialGradient><radialGradient id="paint3_radial_5_7" cx="0" cy="0" r="1" gradientUnits="userSpaceOnUse" gradientTransform="translate(764.946 12083) scale(10.2031 17.3199)">
<stop offset="0.13" stop-color="#FFF44F"/>
<stop offset="0.53" stop-color="#FF980E"/>
</radialGradient><radialGradient id="paint4_radial_5_7" cx="0" cy="0" r="1" gradientUnits="userSpaceOnUse" gradientTransform="translate(755.982 12110) scale(18.8994 20.7149)">
<stop offset="0.35" stop-color="#3A8EE6"/>
<stop offset="0.67" stop-color="#9059FF"/>
<stop offset="1" stop-color="#C139E6"/>
</radialGradient><radialGradient id="paint5_radial_5_7" cx="0" cy="0" r="1" gradientUnits="userSpaceOnUse" gradientTransform="translate(758.082 12110) scale(20.9993 20.7149)">
<stop offset="0.21" stop-color="#9059FF" stop-opacity="0"/>
<stop offset="0.97" stop-color="#6E008B" stop-opacity="0.6"/>
</radialGradient><radialGradient id="paint6_radial_5_7" cx="0" cy="0" r="1" gradientUnits="userSpaceOnUse" gradientTransform="translate(736.748 12087.8) scale(5.18115 5.20068)">
<stop offset="0.1" stop-color="#FFE226"/>
<stop offset="0.79" stop-color="#FF7139"/>
</radialGradient><radialGradient id="paint7_radial_5_7" cx="0" cy="0" r="1" gradientUnits="userSpaceOnUse" gradientTransform="translate(753.671 12113.3) scale(39.8562 33.4556)">
<stop offset="0.11" stop-color="#FFF44F"/>
<stop offset="0.46" stop-color="#FF980E"/>
<stop offset="0.72" stop-color="#FF3647"/>
<stop offset="0.9" stop-color="#E31587"/>
</radialGradient><radialGradient id="paint8_radial_5_7" cx="0" cy="0" r="1" gradientTransform="matrix(1.42381 -28.6091 28.8216 6.39777 809.74 12043.9)" gradientUnits="userSpaceOnUse">
<stop stop-color="#FFF44F"/>
<stop offset="0.3" stop-color="#FF980E"/>
<stop offset="0.57" stop-color="#FF3647"/>
<stop offset="0.74" stop-color="#E31587"/>
</radialGradient><radialGradient id="paint9_radial_5_7" cx="0" cy="0" r="1" gradientUnits="userSpaceOnUse" gradientTransform="translate(764.386 12114.4) scale(17.2793 16.9729)">
<stop offset="0.14" stop-color="#FFF44F"/>
<stop offset="0.48" stop-color="#FF980E"/>
<stop offset="0.66" stop-color="#FF3647"/>
<stop offset="0.9" stop-color="#E31587"/>
</radialGradient><radialGradient id="paint10_radial_5_7" cx="0" cy="0" r="1" gradientUnits="userSpaceOnUse" gradientTransform="translate(740.453 12114.6) scale(15.8115 14.1455)">
<stop offset="0.09" stop-color="#FFF44F"/>
<stop offset="0.63" stop-color="#FF980E"/>
</radialGradient><linearGradient id="paint11_linear_5_7" x1="146.71530000000007" y1="12.799999999999272" x2="94.01730000000009" y2="74.19999999999891" gradientUnits="userSpaceOnUse">
<stop offset="0.17" stop-color="#FFF44F" stop-opacity="0.8"/>
<stop offset="0.6" stop-color="#FFF44F" stop-opacity="0"/>
</linearGradient><clipPath id="clip0_5_7">
<rect width="1920" height="13765" fill="white" x="-634.9137" y="-12065.2"/>
</clipPath></defs></svg>