<svg viewBox="0 0 421.8174 376.5892" fill="none" xmlns="http://www.w3.org/2000/svg" xmlns:xlink="http://www.w3.org/1999/xlink" x="0" y="0"><g id="Groupe 8599">
<path id="Rectangle 2038" d="M27.0184,14.3687l355.199,-12.4c14.35,-0.5 26.39,10.7 26.891,25l10.767,308.4c0.501,14.3 -10.726,26.4 -25.076,26.9l-355.199,12.4c-14.351,0.5 -26.39,-10.7 -26.891,-25.1l-10.768,-308.3l-0.014,-0.7c-0.135,-14.1 10.965,-25.7 25.091,-26.2z" fill="#FFDE77" stroke="#FFEAA8" stroke-width="2"/>
<g id="Groupe 8597">
<path id="Rectangle 2037_2" d="M35.0614,62.2687c-0.443,-12.7 9.488,-23.4 22.183,-23.8l34.239,-1.2c12.695,-0.5 23.346,9.5 23.789,22.2l1.07,30.6c0.443,12.7 -9.489,23.4 -22.184,23.8l-34.239,1.2c-12.694,0.4 -23.345,-9.5 -23.788,-22.2z" fill="white"/>
<path id="Codes promo" d="M51.1474,172.0687c-2.375,0 -4.394,-0.3 -6.056,-1.1c-1.662,-0.9 -2.945,-2.1 -3.847,-3.6c-0.883,-1.6 -1.361,-3.5 -1.435,-5.6c-0.075,-2.1 0.272,-4 1.04,-5.7c0.767,-1.8 1.929,-3.1 3.485,-4.2c1.576,-1 3.521,-1.6 5.835,-1.6c1.569,-0.1 2.951,0.1 4.144,0.5c1.192,0.4 2.121,0.9 2.786,1.6c0.32,0.3 0.569,0.6 0.747,1c0.177,0.3 0.273,0.7 0.287,1.1c0.021,0.6 -0.138,1.1 -0.477,1.4c-0.34,0.4 -0.799,0.5 -1.377,0.6c-0.475,0 -0.893,-0.1 -1.252,-0.4c-0.361,-0.2 -0.743,-0.5 -1.147,-0.8c-0.405,-0.4 -0.901,-0.6 -1.488,-0.9c-0.567,-0.2 -1.304,-0.3 -2.213,-0.3c-1.322,0 -2.427,0.4 -3.314,1c-0.888,0.7 -1.55,1.5 -1.988,2.6c-0.417,1.1 -0.603,2.3 -0.556,3.6c0.05,1.5 0.362,2.7 0.936,3.8c0.575,1 1.399,1.8 2.473,2.4c1.073,0.5 2.395,0.7 3.964,0.7c1.095,0 2.154,-0.2 3.177,-0.5c1.044,-0.3 2.085,-0.7 3.122,-1.2l0.126,3.6c-0.851,0.5 -1.848,0.9 -2.993,1.3c-1.124,0.4 -2.451,0.6 -3.979,0.7zM57.8614,163.7687c-0.058,-1.6 0.223,-3.1 0.841,-4.3c0.618,-1.3 1.524,-2.3 2.719,-3c1.194,-0.7 2.627,-1.1 4.3,-1.2c1.591,-0.1 2.996,0.2 4.217,0.8c1.221,0.6 2.182,1.5 2.885,2.7c0.723,1.2 1.113,2.6 1.171,4.2c0.057,1.7 -0.223,3.1 -0.841,4.4c-0.597,1.2 -1.493,2.2 -2.687,3c-1.195,0.7 -2.619,1.1 -4.271,1.1c-1.59,0.1 -3.006,-0.2 -4.247,-0.8c-1.221,-0.6 -2.193,-1.5 -2.916,-2.7c-0.724,-1.1 -1.114,-2.5 -1.171,-4.2zM62.0414,163.5687c0.034,1 0.229,1.8 0.584,2.5c0.354,0.7 0.827,1.2 1.418,1.5c0.611,0.4 1.278,0.5 2.001,0.5c0.744,0 1.408,-0.2 1.994,-0.6c0.586,-0.4 1.031,-1 1.337,-1.7c0.326,-0.8 0.472,-1.6 0.438,-2.6c-0.034,-1 -0.228,-1.8 -0.582,-2.4c-0.355,-0.7 -0.828,-1.2 -1.418,-1.6c-0.571,-0.3 -1.228,-0.5 -1.972,-0.5c-0.764,0.1 -1.439,0.3 -2.024,0.7c-0.565,0.4 -1.011,0.9 -1.338,1.7c-0.326,0.7 -0.472,1.5 -0.438,2.5zM89.8094,147.9687l0.779,22.3l-3.997,0.1l-0.779,-22.3zM87.1464,166.7687c-0.431,1.3 -1.12,2.3 -2.066,3c-0.926,0.8 -2.049,1.1 -3.371,1.2c-1.281,0 -2.448,-0.2 -3.504,-0.9c-1.035,-0.6 -1.873,-1.5 -2.513,-2.7c-0.642,-1.2 -0.992,-2.6 -1.05,-4.3c-0.058,-1.6 0.181,-3 0.718,-4.3c0.556,-1.2 1.339,-2.2 2.348,-2.9c1.029,-0.7 2.236,-1.1 3.62,-1.2c1.322,0 2.438,0.3 3.348,0.9c0.91,0.6 1.55,1.4 1.919,2.5l-0.309,3.6c-0.025,-0.7 -0.203,-1.3 -0.532,-1.9c-0.329,-0.5 -0.768,-1 -1.316,-1.3c-0.527,-0.3 -1.143,-0.4 -1.845,-0.4c-0.764,0 -1.439,0.3 -2.024,0.7c-0.565,0.4 -1,1 -1.306,1.7c-0.285,0.7 -0.412,1.5 -0.379,2.4c0.032,1 0.216,1.8 0.55,2.5c0.354,0.6 0.827,1.1 1.418,1.5c0.612,0.3 1.311,0.5 2.096,0.5c1.053,-0.1 1.888,-0.4 2.504,-1.1c0.638,-0.7 0.937,-1.6 0.898,-2.8zM99.9494,170.3687c-2.644,0 -4.702,-0.6 -6.175,-1.9c-1.473,-1.3 -2.253,-3.2 -2.339,-5.7c-0.059,-1.7 0.219,-3.2 0.836,-4.5c0.638,-1.2 1.554,-2.3 2.749,-3c1.214,-0.7 2.627,-1.1 4.238,-1.2c1.425,0 2.632,0.2 3.62,0.6c1.008,0.5 1.784,1.1 2.329,1.9c0.544,0.8 0.833,1.6 0.866,2.6c0.032,0.9 -0.169,1.7 -0.601,2.3c-0.434,0.6 -1.048,1.1 -1.842,1.5c-0.774,0.3 -1.675,0.5 -2.705,0.6c-1.009,0.2 -2.095,0.2 -3.255,0.1c-1.141,-0.1 -2.286,-0.3 -3.433,-0.6l-0.086,-2.4c1.104,0.2 2.133,0.3 3.087,0.4c0.953,0.1 1.789,0 2.509,-0.1c0.74,-0.1 1.312,-0.3 1.715,-0.6c0.402,-0.4 0.594,-0.8 0.575,-1.3c-0.019,-0.6 -0.264,-1.1 -0.732,-1.5c-0.47,-0.4 -1.128,-0.6 -1.975,-0.5c-0.785,0 -1.47,0.2 -2.055,0.6c-0.585,0.4 -1.04,1 -1.364,1.8c-0.303,0.8 -0.434,1.8 -0.393,3c0.039,1.1 0.236,2 0.592,2.7c0.356,0.8 0.892,1.3 1.607,1.6c0.715,0.4 1.63,0.5 2.746,0.5c0.908,0 1.814,-0.2 2.715,-0.4c0.901,-0.3 1.777,-0.6 2.629,-1.1l0.099,2.8c-0.687,0.5 -1.542,0.9 -2.564,1.2c-1.002,0.3 -2.133,0.5 -3.393,0.6zM113.0534,169.8687c-1.198,0 -2.297,-0.1 -3.298,-0.3c-1.001,-0.2 -1.892,-0.6 -2.67,-1l-0.119,-3.4c1.057,0.7 2.13,1.2 3.217,1.6c1.087,0.3 2.075,0.5 2.963,0.4c0.888,0 1.533,-0.2 1.934,-0.5c0.402,-0.4 0.594,-0.8 0.578,-1.3c-0.017,-0.4 -0.247,-0.8 -0.69,-1.1c-0.423,-0.2 -0.968,-0.5 -1.636,-0.6c-0.647,-0.2 -1.346,-0.4 -2.097,-0.6c-0.73,-0.1 -1.431,-0.4 -2.104,-0.7c-0.652,-0.3 -1.194,-0.7 -1.627,-1.3c-0.434,-0.6 -0.666,-1.3 -0.698,-2.2c-0.033,-1 0.185,-1.8 0.654,-2.6c0.489,-0.8 1.222,-1.4 2.199,-1.9c0.997,-0.5 2.228,-0.7 3.695,-0.8c1.177,0 2.194,0.1 3.051,0.4c0.877,0.2 1.551,0.5 2.022,1c0.491,0.5 0.748,1 0.77,1.6c0.015,0.5 -0.107,0.8 -0.366,1.1c-0.24,0.2 -0.566,0.4 -0.979,0.4c-0.392,0 -0.736,-0.1 -1.032,-0.2c-0.276,-0.2 -0.573,-0.5 -0.891,-0.7c-0.319,-0.3 -0.689,-0.5 -1.108,-0.6c-0.4,-0.2 -0.91,-0.3 -1.529,-0.3c-0.806,0 -1.399,0.2 -1.779,0.6c-0.38,0.4 -0.562,0.8 -0.546,1.2c0.017,0.5 0.237,0.9 0.661,1.2c0.443,0.2 0.989,0.5 1.635,0.6c0.668,0.2 1.367,0.4 2.098,0.6c0.73,0.2 1.432,0.4 2.105,0.7c0.672,0.3 1.225,0.8 1.658,1.3c0.433,0.6 0.665,1.3 0.698,2.3c0.033,0.9 -0.195,1.8 -0.686,2.5c-0.49,0.8 -1.245,1.4 -2.263,1.8c-0.998,0.5 -2.271,0.7 -3.82,0.8zM127.7954,175.1687l-0.758,-21.7l3.966,-0.1l0.757,21.7zM130.4484,156.9687c0.451,-1.3 1.139,-2.3 2.066,-3c0.946,-0.7 2.08,-1.1 3.402,-1.2c1.28,0 2.438,0.3 3.473,0.9c1.055,0.6 1.893,1.5 2.514,2.7c0.641,1.2 0.991,2.6 1.049,4.3c0.057,1.6 -0.182,3.1 -0.718,4.3c-0.536,1.2 -1.318,2.2 -2.348,2.9c-1.009,0.8 -2.205,1.1 -3.589,1.2c-1.322,0 -2.438,-0.2 -3.348,-0.8c-0.91,-0.6 -1.55,-1.5 -1.919,-2.6l0.278,-3.6c0.025,0.7 0.202,1.4 0.532,1.9c0.329,0.6 0.768,1 1.317,1.3c0.547,0.3 1.162,0.4 1.844,0.4c0.784,0 1.459,-0.2 2.024,-0.6c0.564,-0.5 1,-1 1.306,-1.7c0.305,-0.8 0.442,-1.6 0.41,-2.5c-0.033,-0.9 -0.227,-1.8 -0.581,-2.4c-0.355,-0.7 -0.827,-1.2 -1.419,-1.6c-0.591,-0.3 -1.279,-0.5 -2.064,-0.4c-1.053,0 -1.898,0.4 -2.536,1.1c-0.637,0.7 -0.936,1.6 -0.897,2.7zM144.3624,168.3687l-0.541,-15.5l3.966,-0.1l0.541,15.5zM148.0664,160.7687l-0.679,-4.4c0.367,-1.3 0.911,-2.3 1.631,-3c0.72,-0.7 1.544,-1.1 2.474,-1.1c0.475,0 0.901,0.1 1.28,0.2c0.399,0.2 0.718,0.5 0.958,0.8c0.26,0.4 0.4,0.8 0.42,1.4c0.025,0.7 -0.142,1.3 -0.501,1.6c-0.339,0.4 -0.787,0.6 -1.344,0.6c-0.372,0 -0.704,0 -0.997,-0.1c-0.273,-0.1 -0.564,-0.2 -0.874,-0.2c-0.744,0.1 -1.34,0.5 -1.79,1.2c-0.429,0.7 -0.622,1.7 -0.578,3zM153.3844,160.4687c-0.058,-1.7 0.223,-3.1 0.841,-4.4c0.618,-1.2 1.524,-2.2 2.719,-2.9c1.194,-0.8 2.627,-1.2 4.3,-1.2c1.591,-0.1 2.996,0.2 4.217,0.8c1.221,0.6 2.182,1.5 2.885,2.7c0.723,1.1 1.113,2.5 1.172,4.2c0.056,1.6 -0.224,3.1 -0.842,4.3c-0.597,1.3 -1.493,2.3 -2.687,3c-1.195,0.7 -2.619,1.1 -4.271,1.2c-1.59,0.1 -3.006,-0.2 -4.247,-0.8c-1.221,-0.6 -2.193,-1.5 -2.916,-2.7c-0.724,-1.2 -1.114,-2.6 -1.171,-4.2zM157.5644,160.2687c0.034,0.9 0.229,1.8 0.584,2.5c0.354,0.6 0.827,1.1 1.418,1.5c0.611,0.3 1.278,0.5 2.001,0.5c0.744,-0.1 1.408,-0.3 1.994,-0.7c0.586,-0.4 1.031,-0.9 1.337,-1.7c0.326,-0.7 0.472,-1.5 0.438,-2.5c-0.034,-1 -0.228,-1.8 -0.582,-2.5c-0.355,-0.7 -0.828,-1.2 -1.418,-1.5c-0.571,-0.4 -1.228,-0.5 -1.972,-0.5c-0.764,0 -1.439,0.2 -2.024,0.7c-0.565,0.3 -1.011,0.9 -1.338,1.6c-0.326,0.7 -0.472,1.6 -0.438,2.6zM191.0794,166.7687l-0.304,-8.7c-0.042,-1.2 -0.341,-2.1 -0.896,-2.6c-0.535,-0.5 -1.185,-0.7 -1.949,-0.7c-0.558,0 -1.09,0.2 -1.597,0.4c-0.507,0.3 -0.916,0.8 -1.227,1.3c-0.291,0.6 -0.422,1.3 -0.392,2.1l-1.423,-3.4c0.382,-0.9 0.882,-1.7 1.502,-2.3c0.64,-0.6 1.337,-1.1 2.092,-1.4c0.774,-0.3 1.554,-0.5 2.339,-0.5c0.991,-0.1 1.887,0.1 2.688,0.6c0.822,0.4 1.486,1.1 1.993,2c0.508,0.9 0.788,2.1 0.84,3.6l0.331,9.5zM170.9414,167.4687l-0.541,-15.5l3.966,-0.1l0.541,15.5zM181.0104,167.0687l-0.304,-8.7c-0.042,-1.2 -0.341,-2 -0.896,-2.5c-0.535,-0.5 -1.195,-0.8 -1.98,-0.8c-0.558,0.1 -1.09,0.2 -1.597,0.5c-0.486,0.3 -0.885,0.7 -1.196,1.3c-0.312,0.5 -0.453,1.2 -0.423,2.1l-0.803,-3.5c0.299,-0.9 0.717,-1.7 1.254,-2.3c0.558,-0.6 1.182,-1 1.875,-1.4c0.712,-0.3 1.461,-0.4 2.246,-0.5c1.012,0 1.919,0.2 2.719,0.6c0.8,0.4 1.444,1.1 1.931,2c0.506,0.9 0.785,2 0.834,3.5l0.337,9.6zM195.8174,158.9687c-0.058,-1.7 0.222,-3.1 0.841,-4.3c0.617,-1.3 1.524,-2.3 2.718,-3c1.194,-0.8 2.628,-1.2 4.301,-1.2c1.59,-0.1 2.996,0.2 4.217,0.8c1.22,0.6 2.182,1.5 2.885,2.7c0.722,1.1 1.113,2.5 1.171,4.2c0.057,1.7 -0.223,3.1 -0.841,4.4c-0.597,1.2 -1.493,2.2 -2.687,2.9c-1.195,0.8 -2.619,1.2 -4.271,1.2c-1.59,0.1 -3.006,-0.2 -4.247,-0.8c-1.221,-0.6 -2.193,-1.5 -2.917,-2.7c-0.723,-1.2 -1.113,-2.6 -1.17,-4.2zM199.9974,158.7687c0.034,1 0.228,1.8 0.583,2.5c0.355,0.7 0.827,1.2 1.419,1.5c0.611,0.3 1.278,0.5 2.001,0.5c0.743,-0.1 1.408,-0.3 1.994,-0.7c0.585,-0.4 1.031,-0.9 1.337,-1.6c0.326,-0.8 0.472,-1.6 0.438,-2.6c-0.034,-1 -0.228,-1.8 -0.582,-2.5c-0.355,-0.7 -0.828,-1.2 -1.419,-1.5c-0.57,-0.3 -1.227,-0.5 -1.971,-0.5c-0.764,0 -1.439,0.3 -2.024,0.7c-0.566,0.4 -1.011,0.9 -1.338,1.6c-0.327,0.7 -0.473,1.6 -0.438,2.6z" fill="#131313"/>
<path id="Apprenez à utiliser vos codes promo et 
découvrez les conditions d’application." d="M48.9864,210.8687l-5.72,0.2l-0.993,3l-1.331,0.1l4.153,-12.6h1.422l5.002,12.2l-1.331,0.1zM48.5724,209.8687l-2.72,-6.7l-2.245,6.8zM54.2624,205.9687c0.289,-0.6 0.761,-1.2 1.418,-1.7c0.668,-0.4 1.47,-0.7 2.405,-0.7c0.888,0 1.692,0.1 2.415,0.5c0.734,0.4 1.312,1 1.734,1.7c0.434,0.8 0.669,1.7 0.704,2.7c0.035,1 -0.137,1.9 -0.518,2.7c-0.369,0.7 -0.906,1.3 -1.611,1.8c-0.693,0.4 -1.483,0.7 -2.371,0.7c-0.923,0 -1.734,-0.1 -2.433,-0.6c-0.699,-0.4 -1.216,-0.9 -1.551,-1.6l0.238,6.8l-1.242,0.1l-0.505,-14.5h1.242zM61.6614,208.4687c-0.028,-0.8 -0.215,-1.5 -0.559,-2.1c-0.333,-0.6 -0.781,-1 -1.343,-1.3c-0.563,-0.3 -1.192,-0.4 -1.887,-0.4c-0.672,0 -1.284,0.2 -1.836,0.6c-0.541,0.3 -0.962,0.8 -1.265,1.4c-0.303,0.6 -0.441,1.3 -0.413,2.1c0.028,0.8 0.214,1.5 0.559,2.1c0.344,0.5 0.798,1 1.361,1.3c0.575,0.3 1.198,0.4 1.87,0.4c0.696,0 1.314,-0.2 1.855,-0.5c0.54,-0.4 0.956,-0.8 1.246,-1.4c0.303,-0.7 0.44,-1.4 0.412,-2.2zM66.1494,205.5687c0.289,-0.6 0.762,-1.2 1.418,-1.7c0.668,-0.4 1.47,-0.7 2.405,-0.7c0.888,0 1.693,0.1 2.415,0.5c0.734,0.4 1.312,1 1.734,1.7c0.435,0.8 0.669,1.6 0.704,2.7c0.036,1 -0.137,1.9 -0.518,2.6c-0.369,0.8 -0.906,1.4 -1.611,1.9c-0.693,0.4 -1.483,0.7 -2.371,0.7c-0.923,0 -1.734,-0.2 -2.433,-0.6c-0.699,-0.4 -1.216,-0.9 -1.551,-1.6l0.238,6.8l-1.241,0.1l-0.505,-14.5h1.241zM73.5484,208.0687c-0.028,-0.8 -0.215,-1.5 -0.559,-2.1c-0.333,-0.6 -0.78,-1 -1.343,-1.3c-0.562,-0.3 -1.192,-0.4 -1.887,-0.4c-0.672,0 -1.284,0.2 -1.836,0.5c-0.54,0.4 -0.962,0.9 -1.265,1.5c-0.303,0.6 -0.44,1.3 -0.413,2.1c0.028,0.8 0.214,1.5 0.559,2c0.345,0.6 0.799,1.1 1.361,1.4c0.575,0.3 1.199,0.4 1.87,0.4c0.696,0 1.314,-0.2 1.855,-0.5c0.54,-0.4 0.956,-0.8 1.247,-1.5c0.302,-0.6 0.439,-1.3 0.411,-2.1zM78.0404,204.7687c0.254,-0.6 0.658,-1.1 1.21,-1.5c0.564,-0.3 1.259,-0.5 2.087,-0.6l0.046,1.4h-0.342c-0.912,0 -1.635,0.3 -2.169,0.8c-0.535,0.5 -0.782,1.3 -0.742,2.5l0.192,5.5h-1.259l-0.343,-9.8l1.259,-0.1zM92.0264,206.9687c0.015,0.4 0.015,0.7 -0.001,1l-8.149,0.2c0.061,0.8 0.264,1.4 0.606,1.9c0.342,0.5 0.782,0.9 1.319,1.2c0.537,0.2 1.117,0.3 1.741,0.3c0.815,0 1.492,-0.2 2.03,-0.6c0.55,-0.5 0.903,-1 1.059,-1.7h1.331c-0.206,0.9 -0.694,1.7 -1.464,2.4c-0.759,0.6 -1.732,0.9 -2.919,1c-0.924,0 -1.758,-0.2 -2.504,-0.5c-0.746,-0.4 -1.342,-1 -1.788,-1.7c-0.435,-0.8 -0.67,-1.7 -0.706,-2.7c-0.035,-1 0.137,-1.9 0.518,-2.7c0.381,-0.8 0.93,-1.4 1.648,-1.8c0.717,-0.5 1.543,-0.7 2.479,-0.7c0.935,-0.1 1.758,0.1 2.468,0.5c0.722,0.4 1.28,0.9 1.677,1.6c0.407,0.7 0.626,1.4 0.655,2.3zM90.7484,206.9687c-0.014,-0.8 -0.186,-1.4 -0.516,-1.9c-0.317,-0.5 -0.745,-0.9 -1.282,-1.1c-0.537,-0.2 -1.117,-0.4 -1.74,-0.3c-0.936,0 -1.723,0.3 -2.362,0.9c-0.638,0.7 -0.974,1.5 -1.008,2.6zM98.5234,202.0687c1.175,0 2.147,0.3 2.917,1c0.768,0.7 1.177,1.8 1.225,3.2l0.201,5.7l-1.241,0.1l-0.196,-5.7c-0.038,-1 -0.336,-1.8 -0.895,-2.4c-0.548,-0.5 -1.283,-0.8 -2.207,-0.7c-0.947,0 -1.692,0.3 -2.235,0.9c-0.542,0.7 -0.794,1.5 -0.753,2.7l0.187,5.4h-1.259l-0.343,-9.8l1.259,-0.1l0.059,1.7c0.291,-0.6 0.724,-1.1 1.301,-1.4c0.577,-0.3 1.236,-0.5 1.98,-0.6zM114.0964,206.1687c0.015,0.4 0.015,0.8 -0.001,1l-8.149,0.3c0.062,0.7 0.264,1.3 0.606,1.9c0.342,0.5 0.782,0.9 1.32,1.1c0.536,0.3 1.117,0.4 1.74,0.4c0.816,-0.1 1.492,-0.3 2.03,-0.7c0.55,-0.4 0.903,-1 1.06,-1.6l1.331,-0.1c-0.206,1 -0.695,1.8 -1.465,2.4c-0.758,0.6 -1.731,1 -2.919,1c-0.923,0.1 -1.758,-0.1 -2.503,-0.5c-0.747,-0.4 -1.343,-1 -1.789,-1.7c-0.435,-0.8 -0.67,-1.6 -0.705,-2.7c-0.036,-1 0.137,-1.9 0.518,-2.7c0.381,-0.8 0.93,-1.4 1.647,-1.8c0.718,-0.4 1.544,-0.7 2.479,-0.7c0.936,0 1.758,0.2 2.468,0.5c0.722,0.4 1.281,1 1.677,1.6c0.408,0.7 0.626,1.5 0.655,2.3zM112.8184,206.1687c-0.014,-0.7 -0.185,-1.3 -0.515,-1.8c-0.318,-0.6 -0.745,-0.9 -1.282,-1.2c-0.537,-0.2 -1.117,-0.3 -1.741,-0.3c-0.935,0 -1.722,0.4 -2.361,1c-0.639,0.6 -0.975,1.5 -1.009,2.5zM116.9674,210.4687l5.145,-0.2l0.036,1l-6.584,0.3l-0.036,-1.1l4.784,-7.9l-4.965,0.2l-0.036,-1.1l6.404,-0.2l0.036,1.1zM127.9634,206.1687c-0.035,-1 0.132,-1.9 0.501,-2.7c0.381,-0.7 0.918,-1.4 1.612,-1.8c0.705,-0.4 1.507,-0.7 2.406,-0.7c0.936,0 1.747,0.2 2.433,0.6c0.699,0.4 1.21,0.9 1.533,1.6l-0.075,-2.2h1.259l0.343,9.8h-1.259l-0.076,-2.1c-0.289,0.6 -0.767,1.2 -1.435,1.7c-0.656,0.4 -1.452,0.7 -2.388,0.7c-0.887,0 -1.698,-0.1 -2.432,-0.5c-0.722,-0.4 -1.301,-1 -1.735,-1.8c-0.423,-0.7 -0.652,-1.6 -0.687,-2.6zM136.5444,205.8687c-0.027,-0.8 -0.213,-1.5 -0.558,-2.1c-0.345,-0.5 -0.805,-1 -1.38,-1.3c-0.563,-0.3 -1.18,-0.4 -1.852,-0.4c-0.695,0 -1.313,0.2 -1.854,0.5c-0.541,0.4 -0.963,0.8 -1.266,1.4c-0.291,0.6 -0.422,1.3 -0.394,2.2c0.028,0.8 0.209,1.5 0.542,2.1c0.345,0.6 0.799,1 1.362,1.3c0.562,0.3 1.191,0.4 1.887,0.4c0.671,0 1.277,-0.2 1.818,-0.5c0.552,-0.4 0.98,-0.9 1.283,-1.5c0.302,-0.6 0.44,-1.3 0.412,-2.1zM134.6224,199.2687l0.034,1l-3.763,-2l-0.04,-1.1zM153.4484,200.3687l0.343,9.8l-1.259,0.1l-0.06,-1.8c-0.267,0.7 -0.694,1.2 -1.282,1.5c-0.589,0.3 -1.255,0.5 -1.998,0.6c-1.175,0 -2.147,-0.3 -2.916,-1c-0.769,-0.7 -1.178,-1.8 -1.226,-3.2l-0.2,-5.7h1.241l0.195,5.6c0.038,1 0.33,1.8 0.877,2.4c0.56,0.5 1.301,0.8 2.224,0.8c0.948,-0.1 1.693,-0.4 2.236,-1c0.542,-0.6 0.793,-1.5 0.753,-2.7l-0.187,-5.3zM157.7454,201.2687l0.213,6.1c0.021,0.6 0.15,1 0.386,1.3c0.235,0.2 0.641,0.3 1.217,0.3l1.151,-0.1l0.038,1.1h-1.349c-0.888,0.1 -1.555,-0.1 -2.001,-0.5c-0.446,-0.4 -0.686,-1.1 -0.719,-2l-0.213,-6.1h-1.367l-0.037,-1l1.367,-0.1l-0.086,-2.5h1.277l0.086,2.5l2.699,-0.1l0.037,1zM162.7974,198.1687c-0.252,0 -0.471,0 -0.657,-0.2c-0.187,-0.2 -0.284,-0.4 -0.294,-0.7c-0.009,-0.2 0.074,-0.5 0.248,-0.6c0.173,-0.2 0.386,-0.3 0.638,-0.3c0.252,0 0.471,0.1 0.657,0.2c0.186,0.2 0.283,0.4 0.292,0.7c0.01,0.2 -0.073,0.5 -0.246,0.6c-0.174,0.2 -0.387,0.3 -0.638,0.3zM163.4914,200.0687l0.343,9.8h-1.259l-0.343,-9.8zM167.2284,196.3687l0.465,13.3l-1.259,0.1l-0.465,-13.3zM170.5144,197.9687c-0.251,0 -0.47,-0.1 -0.657,-0.3c-0.186,-0.2 -0.283,-0.4 -0.293,-0.6c-0.009,-0.3 0.074,-0.5 0.248,-0.7c0.173,-0.2 0.386,-0.3 0.638,-0.3c0.252,0 0.471,0.1 0.657,0.3c0.186,0.1 0.283,0.3 0.292,0.6c0.009,0.3 -0.073,0.5 -0.246,0.7c-0.174,0.2 -0.387,0.3 -0.639,0.3zM171.2094,199.7687l0.343,9.8l-1.259,0.1l-0.343,-9.9zM177.5384,209.4687c-1.127,0.1 -2.059,-0.1 -2.797,-0.6c-0.726,-0.5 -1.147,-1.2 -1.262,-2.1l1.295,-0.1c0.08,0.6 0.353,1 0.821,1.3c0.479,0.4 1.109,0.5 1.888,0.5c0.684,0 1.212,-0.2 1.584,-0.6c0.385,-0.3 0.569,-0.7 0.552,-1.2c-0.012,-0.3 -0.129,-0.6 -0.353,-0.8c-0.223,-0.2 -0.505,-0.4 -0.845,-0.5c-0.328,-0.1 -0.777,-0.2 -1.345,-0.3c-0.739,-0.2 -1.339,-0.4 -1.801,-0.6c-0.463,-0.1 -0.862,-0.4 -1.199,-0.8c-0.325,-0.3 -0.499,-0.8 -0.521,-1.5c-0.017,-0.4 0.111,-0.9 0.385,-1.3c0.273,-0.4 0.67,-0.8 1.189,-1c0.52,-0.3 1.115,-0.4 1.787,-0.5c1.055,0 1.916,0.3 2.582,0.8c0.666,0.5 1.04,1.2 1.12,2.1l-1.259,0.1c-0.056,-0.6 -0.3,-1.1 -0.732,-1.4c-0.42,-0.3 -0.99,-0.5 -1.71,-0.5c-0.635,0.1 -1.146,0.2 -1.531,0.5c-0.385,0.3 -0.57,0.7 -0.555,1.2c0.014,0.4 0.139,0.7 0.375,0.9c0.249,0.2 0.549,0.4 0.902,0.6c0.352,0.1 0.825,0.2 1.419,0.4c0.714,0.1 1.284,0.3 1.71,0.5c0.426,0.1 0.795,0.4 1.107,0.7c0.312,0.3 0.484,0.8 0.516,1.4c0.019,0.5 -0.109,1 -0.382,1.4c-0.273,0.4 -0.664,0.8 -1.171,1c-0.508,0.3 -1.097,0.4 -1.769,0.4zM191.7674,203.4687c0.015,0.4 0.015,0.7 -0.001,1l-8.149,0.3c0.062,0.7 0.264,1.3 0.606,1.8c0.342,0.6 0.782,1 1.319,1.2c0.537,0.3 1.118,0.4 1.741,0.3c0.816,0 1.492,-0.2 2.03,-0.6c0.55,-0.4 0.903,-1 1.06,-1.7h1.331c-0.207,1 -0.695,1.8 -1.465,2.4c-0.759,0.6 -1.731,1 -2.919,1c-0.923,0 -1.758,-0.1 -2.504,-0.5c-0.746,-0.4 -1.342,-1 -1.788,-1.7c-0.435,-0.8 -0.67,-1.7 -0.705,-2.7c-0.036,-1 0.137,-1.9 0.518,-2.7c0.381,-0.8 0.93,-1.4 1.647,-1.8c0.717,-0.4 1.544,-0.7 2.479,-0.7c0.936,0 1.758,0.1 2.468,0.5c0.722,0.4 1.281,0.9 1.677,1.6c0.408,0.7 0.626,1.4 0.655,2.3zM190.4894,203.4687c-0.014,-0.7 -0.185,-1.4 -0.515,-1.9c-0.318,-0.5 -0.745,-0.8 -1.282,-1.1c-0.537,-0.2 -1.117,-0.3 -1.741,-0.3c-0.935,0 -1.723,0.3 -2.361,1c-0.639,0.6 -0.975,1.4 -1.009,2.5zM194.9864,200.6687c0.254,-0.6 0.657,-1.1 1.209,-1.5c0.564,-0.3 1.26,-0.5 2.087,-0.5l0.046,1.3h-0.342c-0.911,0 -1.634,0.3 -2.169,0.8c-0.534,0.5 -0.781,1.3 -0.741,2.5l0.192,5.5h-1.26l-0.343,-9.8h1.26zM208.4064,207.0687l3.01,-8.7l1.331,-0.1l-3.597,10h-1.421l-4.283,-9.6l1.35,-0.1zM218.8494,208.0687c-0.923,0 -1.764,-0.1 -2.522,-0.5c-0.746,-0.4 -1.348,-1 -1.806,-1.7c-0.447,-0.8 -0.688,-1.7 -0.724,-2.7c-0.035,-1 0.15,-1.9 0.555,-2.7c0.405,-0.7 0.972,-1.4 1.701,-1.8c0.729,-0.4 1.555,-0.7 2.479,-0.7c0.923,0 1.764,0.1 2.522,0.5c0.77,0.4 1.378,1 1.825,1.7c0.458,0.8 0.705,1.7 0.74,2.7c0.036,1 -0.149,1.9 -0.554,2.7c-0.405,0.7 -0.978,1.4 -1.719,1.8c-0.741,0.4 -1.574,0.7 -2.497,0.7zM218.8114,206.9687c0.647,0 1.242,-0.2 1.783,-0.5c0.542,-0.3 0.97,-0.8 1.285,-1.4c0.327,-0.6 0.475,-1.3 0.445,-2.2c-0.03,-0.8 -0.223,-1.6 -0.579,-2.1c-0.357,-0.6 -0.816,-1.1 -1.378,-1.3c-0.562,-0.3 -1.167,-0.4 -1.815,-0.4c-0.647,0 -1.242,0.2 -1.783,0.5c-0.542,0.3 -0.97,0.8 -1.285,1.4c-0.303,0.6 -0.44,1.3 -0.409,2.2c0.03,0.8 0.217,1.6 0.562,2.2c0.356,0.5 0.81,1 1.36,1.2c0.561,0.3 1.166,0.4 1.814,0.4zM229.2214,207.6687c-1.127,0.1 -2.059,-0.1 -2.797,-0.6c-0.726,-0.5 -1.147,-1.2 -1.262,-2.1l1.295,-0.1c0.08,0.6 0.353,1 0.821,1.3c0.479,0.4 1.109,0.5 1.888,0.5c0.684,0 1.212,-0.2 1.584,-0.6c0.385,-0.3 0.569,-0.7 0.552,-1.2c-0.012,-0.3 -0.129,-0.6 -0.353,-0.8c-0.223,-0.2 -0.505,-0.4 -0.845,-0.5c-0.328,-0.1 -0.777,-0.2 -1.345,-0.3c-0.739,-0.2 -1.339,-0.4 -1.801,-0.6c-0.463,-0.1 -0.862,-0.4 -1.199,-0.8c-0.325,-0.3 -0.499,-0.8 -0.521,-1.5c-0.017,-0.5 0.111,-0.9 0.385,-1.3c0.274,-0.4 0.67,-0.8 1.189,-1c0.52,-0.3 1.115,-0.4 1.787,-0.5c1.055,0 1.916,0.2 2.582,0.8c0.666,0.5 1.04,1.2 1.12,2.1l-1.259,0.1c-0.056,-0.6 -0.3,-1.1 -0.732,-1.4c-0.42,-0.3 -0.99,-0.5 -1.71,-0.5c-0.635,0 -1.146,0.2 -1.531,0.5c-0.385,0.3 -0.57,0.7 -0.555,1.2c0.014,0.3 0.139,0.7 0.375,0.9c0.249,0.2 0.549,0.4 0.902,0.5c0.352,0.2 0.825,0.3 1.419,0.5c0.714,0.1 1.284,0.3 1.71,0.4c0.426,0.2 0.795,0.5 1.107,0.8c0.312,0.3 0.484,0.8 0.516,1.4c0.019,0.5 -0.109,1 -0.382,1.4c-0.273,0.4 -0.664,0.8 -1.171,1c-0.507,0.3 -1.097,0.4 -1.769,0.4zM238.6904,202.3687c-0.035,-1.1 0.138,-2 0.519,-2.7c0.381,-0.8 0.924,-1.4 1.629,-1.9c0.705,-0.4 1.519,-0.6 2.443,-0.7c1.211,0 2.217,0.3 3.017,0.8c0.813,0.6 1.351,1.4 1.615,2.4l-1.349,0.1c-0.193,-0.7 -0.578,-1.3 -1.155,-1.7c-0.566,-0.3 -1.263,-0.5 -2.09,-0.5c-0.66,0 -1.248,0.2 -1.766,0.5c-0.517,0.3 -0.921,0.8 -1.212,1.4c-0.279,0.6 -0.404,1.3 -0.373,2.2c0.03,0.9 0.205,1.6 0.526,2.2c0.333,0.6 0.768,1 1.306,1.3c0.538,0.3 1.137,0.4 1.797,0.4c0.827,-0.1 1.51,-0.3 2.048,-0.7c0.549,-0.4 0.895,-1 1.038,-1.7l1.349,-0.1c-0.192,1.1 -0.674,1.9 -1.444,2.5c-0.77,0.7 -1.755,1 -2.954,1c-0.923,0.1 -1.752,-0.1 -2.486,-0.5c-0.734,-0.4 -1.318,-0.9 -1.752,-1.7c-0.435,-0.7 -0.67,-1.6 -0.706,-2.6zM254.5224,206.8687c-0.923,0 -1.764,-0.2 -2.521,-0.6c-0.747,-0.4 -1.349,-0.9 -1.807,-1.7c-0.447,-0.7 -0.688,-1.6 -0.723,-2.6c-0.036,-1 0.149,-1.9 0.554,-2.7c0.405,-0.8 0.973,-1.4 1.702,-1.8c0.729,-0.5 1.555,-0.7 2.478,-0.8c0.924,0 1.765,0.2 2.523,0.6c0.77,0.4 1.378,0.9 1.824,1.7c0.458,0.7 0.705,1.6 0.741,2.6c0.035,1 -0.15,1.9 -0.555,2.7c-0.405,0.8 -0.978,1.4 -1.719,1.9c-0.741,0.4 -1.573,0.6 -2.497,0.7zM254.4844,205.7687c0.648,-0.1 1.242,-0.2 1.784,-0.5c0.541,-0.4 0.969,-0.8 1.285,-1.4c0.326,-0.6 0.475,-1.4 0.445,-2.2c-0.031,-0.9 -0.224,-1.6 -0.58,-2.2c-0.357,-0.6 -0.816,-1 -1.378,-1.3c-0.562,-0.2 -1.167,-0.4 -1.814,-0.4c-0.648,0.1 -1.242,0.2 -1.784,0.6c-0.541,0.3 -0.969,0.7 -1.284,1.3c-0.304,0.6 -0.44,1.4 -0.41,2.2c0.03,0.9 0.218,1.6 0.562,2.2c0.357,0.6 0.81,1 1.36,1.3c0.562,0.3 1.166,0.4 1.814,0.4zM260.7604,201.5687c-0.035,-1 0.138,-1.9 0.519,-2.7c0.381,-0.8 0.919,-1.4 1.612,-1.8c0.705,-0.5 1.507,-0.7 2.406,-0.7c0.864,-0.1 1.651,0.1 2.361,0.5c0.71,0.4 1.239,0.9 1.586,1.6l-0.196,-5.6l1.259,-0.1l0.465,13.3l-1.259,0.1l-0.077,-2.2c-0.276,0.7 -0.748,1.3 -1.416,1.7c-0.668,0.5 -1.464,0.7 -2.388,0.8c-0.899,0 -1.716,-0.2 -2.45,-0.6c-0.722,-0.4 -1.301,-0.9 -1.735,-1.7c-0.423,-0.7 -0.652,-1.6 -0.687,-2.6zM269.3424,201.2687c-0.028,-0.8 -0.214,-1.5 -0.559,-2.1c-0.345,-0.6 -0.805,-1 -1.38,-1.3c-0.563,-0.3 -1.18,-0.5 -1.851,-0.4c-0.696,0 -1.314,0.2 -1.855,0.5c-0.541,0.3 -0.963,0.8 -1.265,1.4c-0.292,0.6 -0.423,1.3 -0.395,2.1c0.028,0.8 0.209,1.5 0.542,2.1c0.345,0.6 0.799,1.1 1.362,1.4c0.562,0.3 1.191,0.4 1.887,0.4c0.672,-0.1 1.278,-0.2 1.818,-0.6c0.552,-0.3 0.98,-0.8 1.283,-1.4c0.303,-0.6 0.44,-1.3 0.413,-2.1zM282.0934,200.2687c0.015,0.5 0.014,0.8 -0.002,1l-8.149,0.3c0.062,0.7 0.264,1.4 0.606,1.9c0.343,0.5 0.782,0.9 1.32,1.2c0.537,0.2 1.117,0.3 1.741,0.3c0.815,0 1.492,-0.3 2.03,-0.7c0.549,-0.4 0.903,-0.9 1.059,-1.6l1.331,-0.1c-0.206,1 -0.694,1.8 -1.465,2.4c-0.758,0.7 -1.731,1 -2.918,1.1c-0.924,0 -1.758,-0.2 -2.504,-0.6c-0.746,-0.4 -1.343,-0.9 -1.789,-1.7c-0.434,-0.7 -0.669,-1.6 -0.705,-2.6c-0.036,-1.1 0.137,-2 0.518,-2.7c0.381,-0.8 0.93,-1.4 1.647,-1.9c0.718,-0.4 1.544,-0.6 2.48,-0.7c0.935,0 1.758,0.2 2.467,0.6c0.722,0.4 1.281,0.9 1.677,1.6c0.408,0.6 0.626,1.4 0.656,2.2zM280.8144,200.2687c-0.013,-0.7 -0.185,-1.3 -0.515,-1.8c-0.318,-0.5 -0.745,-0.9 -1.282,-1.1c-0.537,-0.3 -1.117,-0.4 -1.741,-0.4c-0.935,0.1 -1.722,0.4 -2.361,1c-0.639,0.6 -0.975,1.5 -1.009,2.6zM287.7214,205.6687c-1.128,0 -2.06,-0.2 -2.798,-0.7c-0.726,-0.5 -1.146,-1.2 -1.262,-2.1h1.296c0.079,0.5 0.352,1 0.82,1.3c0.48,0.3 1.109,0.5 1.889,0.4c0.683,0 1.211,-0.2 1.584,-0.5c0.384,-0.3 0.568,-0.7 0.551,-1.2c-0.011,-0.4 -0.129,-0.6 -0.352,-0.8c-0.224,-0.3 -0.506,-0.4 -0.846,-0.5c-0.328,-0.1 -0.776,-0.3 -1.345,-0.4c-0.738,-0.2 -1.339,-0.3 -1.801,-0.5c-0.463,-0.2 -0.862,-0.4 -1.199,-0.8c-0.325,-0.4 -0.499,-0.9 -0.521,-1.5c-0.017,-0.5 0.112,-0.9 0.385,-1.4c0.274,-0.4 0.67,-0.7 1.189,-1c0.52,-0.2 1.115,-0.4 1.787,-0.4c1.055,0 1.916,0.2 2.583,0.7c0.666,0.5 1.039,1.2 1.12,2.2h-1.26c-0.056,-0.6 -0.3,-1 -0.732,-1.3c-0.42,-0.4 -0.99,-0.5 -1.709,-0.5c-0.636,0 -1.147,0.2 -1.532,0.5c-0.385,0.3 -0.57,0.7 -0.554,1.1c0.013,0.4 0.138,0.7 0.375,1c0.248,0.2 0.548,0.4 0.901,0.5c0.353,0.1 0.825,0.3 1.419,0.4c0.714,0.2 1.284,0.3 1.71,0.5c0.426,0.2 0.795,0.4 1.107,0.8c0.312,0.3 0.484,0.8 0.517,1.3c0.018,0.6 -0.109,1 -0.383,1.5c-0.273,0.4 -0.664,0.7 -1.171,1c-0.507,0.2 -1.097,0.4 -1.768,0.4zM298.9104,197.4687c0.289,-0.7 0.762,-1.2 1.418,-1.7c0.668,-0.5 1.47,-0.7 2.406,-0.7c0.887,-0.1 1.692,0.1 2.414,0.5c0.734,0.4 1.312,1 1.735,1.7c0.434,0.7 0.668,1.6 0.704,2.6c0.035,1 -0.138,1.9 -0.519,2.7c-0.369,0.8 -0.906,1.4 -1.611,1.9c-0.693,0.4 -1.483,0.6 -2.37,0.7c-0.924,0 -1.735,-0.2 -2.434,-0.6c-0.699,-0.4 -1.216,-1 -1.55,-1.6l0.237,6.8h-1.241l-0.505,-14.4l1.241,-0.1zM306.3094,199.9687c-0.028,-0.8 -0.215,-1.5 -0.559,-2.1c-0.333,-0.6 -0.78,-1 -1.343,-1.3c-0.562,-0.3 -1.191,-0.5 -1.887,-0.4c-0.672,0 -1.284,0.2 -1.836,0.5c-0.54,0.4 -0.962,0.8 -1.265,1.4c-0.303,0.7 -0.44,1.4 -0.413,2.1c0.028,0.8 0.214,1.5 0.559,2.1c0.345,0.6 0.799,1 1.362,1.4c0.575,0.3 1.198,0.4 1.869,0.4c0.696,0 1.314,-0.2 1.855,-0.6c0.54,-0.3 0.956,-0.8 1.247,-1.4c0.302,-0.6 0.439,-1.3 0.411,-2.1zM310.8014,196.6687c0.255,-0.7 0.658,-1.1 1.21,-1.5c0.564,-0.4 1.259,-0.6 2.087,-0.6l0.046,1.3h-0.342c-0.912,0.1 -1.635,0.3 -2.169,0.9c-0.535,0.5 -0.782,1.3 -0.741,2.5l0.191,5.4l-1.259,0.1l-0.343,-9.8l1.259,-0.1zM320.3944,204.5687c-0.923,0 -1.764,-0.2 -2.522,-0.6c-0.746,-0.4 -1.348,-0.9 -1.806,-1.7c-0.447,-0.7 -0.688,-1.6 -0.724,-2.6c-0.035,-1 0.15,-1.9 0.555,-2.7c0.405,-0.8 0.972,-1.4 1.701,-1.8c0.729,-0.5 1.556,-0.7 2.479,-0.8c0.923,0 1.764,0.2 2.522,0.6c0.77,0.4 1.378,0.9 1.825,1.7c0.458,0.7 0.705,1.6 0.74,2.6c0.036,1 -0.149,1.9 -0.554,2.7c-0.405,0.8 -0.978,1.4 -1.719,1.9c-0.741,0.4 -1.574,0.6 -2.497,0.7zM320.3564,203.4687c0.647,-0.1 1.242,-0.2 1.784,-0.5c0.541,-0.4 0.969,-0.8 1.284,-1.4c0.327,-0.6 0.475,-1.4 0.445,-2.2c-0.03,-0.9 -0.223,-1.6 -0.579,-2.2c-0.357,-0.6 -0.816,-1 -1.378,-1.3c-0.562,-0.2 -1.167,-0.4 -1.815,-0.4c-0.647,0.1 -1.242,0.2 -1.783,0.6c-0.542,0.3 -0.97,0.7 -1.285,1.3c-0.303,0.6 -0.439,1.4 -0.409,2.2c0.03,0.9 0.217,1.6 0.562,2.2c0.356,0.6 0.81,1 1.36,1.3c0.561,0.3 1.166,0.4 1.814,0.4zM338.7234,193.7687c1.151,-0.1 2.1,0.3 2.845,1c0.756,0.7 1.159,1.7 1.207,3.1l0.201,5.7l-1.241,0.1l-0.196,-5.6c-0.037,-1.1 -0.324,-1.9 -0.859,-2.5c-0.536,-0.5 -1.247,-0.8 -2.134,-0.7c-0.924,0 -1.651,0.3 -2.181,1c-0.53,0.6 -0.775,1.5 -0.735,2.7l0.186,5.3h-1.241l-0.196,-5.6c-0.037,-1.1 -0.323,-1.9 -0.859,-2.4c-0.535,-0.6 -1.253,-0.8 -2.152,-0.8c-0.923,0 -1.65,0.4 -2.181,1c-0.53,0.6 -0.775,1.5 -0.734,2.7l0.186,5.3l-1.259,0.1l-0.343,-9.9h1.259l0.059,1.7c0.29,-0.6 0.718,-1.1 1.283,-1.4c0.564,-0.4 1.2,-0.6 1.908,-0.6c0.851,0 1.602,0.2 2.252,0.5c0.661,0.4 1.15,1 1.465,1.8c0.237,-0.8 0.666,-1.4 1.287,-1.8c0.633,-0.5 1.358,-0.7 2.173,-0.7zM349.8254,203.4687c-0.923,0.1 -1.764,-0.1 -2.522,-0.5c-0.746,-0.4 -1.348,-1 -1.806,-1.7c-0.447,-0.7 -0.688,-1.6 -0.723,-2.7c-0.036,-1 0.149,-1.9 0.554,-2.6c0.405,-0.8 0.972,-1.4 1.702,-1.9c0.729,-0.4 1.555,-0.6 2.478,-0.7c0.924,0 1.764,0.2 2.523,0.6c0.769,0.3 1.378,0.9 1.824,1.7c0.458,0.7 0.705,1.6 0.741,2.6c0.035,1 -0.15,1.9 -0.555,2.7c-0.405,0.8 -0.978,1.4 -1.719,1.8c-0.741,0.5 -1.573,0.7 -2.497,0.7zM349.7874,202.3687c0.647,0 1.242,-0.2 1.784,-0.5c0.541,-0.3 0.969,-0.7 1.284,-1.3c0.327,-0.6 0.476,-1.4 0.445,-2.3c-0.03,-0.8 -0.223,-1.5 -0.579,-2.1c-0.357,-0.6 -0.816,-1 -1.378,-1.3c-0.562,-0.3 -1.167,-0.4 -1.815,-0.4c-0.647,0 -1.242,0.2 -1.783,0.5c-0.541,0.3 -0.97,0.8 -1.284,1.4c-0.304,0.6 -0.44,1.3 -0.41,2.2c0.03,0.9 0.217,1.6 0.562,2.2c0.357,0.6 0.81,1 1.36,1.3c0.562,0.2 1.166,0.4 1.814,0.3zM370.1934,197.2687c0.015,0.4 0.014,0.7 -0.002,0.9l-8.149,0.3c0.062,0.8 0.264,1.4 0.607,1.9c0.342,0.5 0.782,0.9 1.319,1.2c0.537,0.2 1.117,0.3 1.741,0.3c0.815,0 1.492,-0.2 2.03,-0.7c0.55,-0.4 0.903,-0.9 1.059,-1.6h1.331c-0.206,0.9 -0.694,1.7 -1.464,2.4c-0.759,0.6 -1.732,0.9 -2.919,1c-0.924,0 -1.758,-0.2 -2.504,-0.5c-0.746,-0.4 -1.342,-1 -1.789,-1.8c-0.434,-0.7 -0.669,-1.6 -0.705,-2.6c-0.035,-1 0.137,-1.9 0.518,-2.7c0.381,-0.8 0.93,-1.4 1.648,-1.8c0.717,-0.5 1.543,-0.7 2.479,-0.7c0.935,-0.1 1.758,0.1 2.468,0.5c0.721,0.4 1.28,0.9 1.676,1.6c0.408,0.7 0.627,1.4 0.656,2.3zM368.9144,197.2687c-0.013,-0.8 -0.185,-1.4 -0.515,-1.9c-0.318,-0.5 -0.745,-0.9 -1.282,-1.1c-0.537,-0.3 -1.117,-0.4 -1.741,-0.4c-0.935,0.1 -1.722,0.4 -2.361,1c-0.638,0.7 -0.975,1.5 -1.008,2.6zM373.7654,193.7687l0.213,6.1c0.021,0.6 0.149,1 0.385,1.2c0.236,0.2 0.642,0.3 1.217,0.3h1.152l0.037,1l-1.349,0.1c-0.887,0 -1.554,-0.2 -2,-0.5c-0.446,-0.5 -0.686,-1.1 -0.719,-2.1l-0.213,-6.1l-1.367,0.1l-0.037,-1.1h1.367l-0.086,-2.5h1.277l0.086,2.4l2.698,-0.1l0.037,1.1zM42.0354,237.1687c-0.036,-1 0.137,-1.9 0.519,-2.6c0.381,-0.8 0.918,-1.4 1.611,-1.9c0.705,-0.4 1.507,-0.7 2.407,-0.7c0.863,0 1.65,0.2 2.36,0.6c0.711,0.4 1.239,0.9 1.587,1.5l-0.196,-5.6h1.259l0.465,13.3h-1.26l-0.076,-2.1c-0.276,0.6 -0.748,1.2 -1.416,1.7c-0.669,0.5 -1.465,0.7 -2.388,0.7c-0.9,0.1 -1.716,-0.1 -2.451,-0.5c-0.722,-0.4 -1.3,-1 -1.735,-1.7c-0.422,-0.8 -0.651,-1.7 -0.686,-2.7zM50.6164,236.8687c-0.028,-0.8 -0.214,-1.4 -0.559,-2c-0.344,-0.6 -0.804,-1.1 -1.379,-1.4c-0.563,-0.3 -1.18,-0.4 -1.852,-0.4c-0.696,0 -1.314,0.2 -1.855,0.5c-0.54,0.4 -0.962,0.8 -1.265,1.5c-0.291,0.6 -0.423,1.3 -0.394,2.1c0.028,0.8 0.208,1.5 0.542,2.1c0.344,0.6 0.798,1 1.361,1.3c0.563,0.3 1.192,0.4 1.887,0.4c0.672,0 1.278,-0.2 1.818,-0.5c0.553,-0.4 0.98,-0.8 1.283,-1.5c0.303,-0.6 0.441,-1.3 0.413,-2.1zM63.3674,235.9687c0.015,0.4 0.015,0.7 -0.001,1l-8.149,0.3c0.062,0.7 0.264,1.3 0.606,1.8c0.342,0.6 0.782,1 1.319,1.2c0.537,0.3 1.117,0.4 1.741,0.3c0.815,0 1.492,-0.2 2.03,-0.6c0.55,-0.4 0.903,-1 1.059,-1.7h1.332c-0.207,1 -0.695,1.8 -1.465,2.4c-0.759,0.6 -1.732,1 -2.919,1c-0.923,0 -1.758,-0.1 -2.504,-0.5c-0.746,-0.4 -1.342,-1 -1.788,-1.7c-0.435,-0.8 -0.67,-1.7 -0.706,-2.7c-0.035,-1 0.138,-1.9 0.518,-2.7c0.381,-0.8 0.931,-1.4 1.648,-1.8c0.717,-0.4 1.544,-0.7 2.479,-0.7c0.935,0 1.758,0.1 2.468,0.5c0.722,0.4 1.281,0.9 1.677,1.6c0.407,0.7 0.626,1.4 0.655,2.3zM62.0894,235.9687c-0.014,-0.7 -0.186,-1.4 -0.515,-1.9c-0.318,-0.5 -0.746,-0.8 -1.283,-1.1c-0.536,-0.2 -1.117,-0.3 -1.74,-0.3c-0.936,0 -1.723,0.3 -2.361,1c-0.639,0.6 -0.975,1.4 -1.009,2.5zM60.0364,228.7687l-3.613,2.3l-0.034,-1l3.607,-2.4zM64.8614,236.3687c-0.036,-1 0.137,-1.9 0.519,-2.6c0.381,-0.8 0.924,-1.4 1.629,-1.9c0.705,-0.4 1.519,-0.7 2.443,-0.7c1.211,0 2.217,0.2 3.017,0.8c0.813,0.6 1.351,1.4 1.615,2.4l-1.349,0.1c-0.193,-0.7 -0.578,-1.3 -1.156,-1.7c-0.566,-0.4 -1.262,-0.5 -2.09,-0.5c-0.659,0 -1.248,0.2 -1.765,0.5c-0.517,0.3 -0.921,0.8 -1.212,1.4c-0.279,0.6 -0.404,1.3 -0.374,2.2c0.03,0.9 0.206,1.6 0.527,2.2c0.332,0.6 0.768,1 1.306,1.3c0.538,0.3 1.137,0.4 1.797,0.4c0.827,-0.1 1.51,-0.3 2.048,-0.7c0.549,-0.4 0.895,-1 1.038,-1.7l1.349,-0.1c-0.193,1 -0.674,1.9 -1.444,2.5c-0.77,0.6 -1.755,1 -2.954,1c-0.924,0.1 -1.752,-0.1 -2.486,-0.5c-0.734,-0.4 -1.319,-1 -1.753,-1.7c-0.434,-0.8 -0.669,-1.6 -0.705,-2.7zM80.6934,240.8687c-0.923,0.1 -1.764,-0.1 -2.522,-0.5c-0.746,-0.4 -1.348,-0.9 -1.806,-1.7c-0.447,-0.7 -0.688,-1.6 -0.723,-2.6c-0.036,-1.1 0.149,-2 0.554,-2.7c0.405,-0.8 0.972,-1.4 1.702,-1.8c0.728,-0.5 1.555,-0.7 2.478,-0.8c0.923,0 1.764,0.2 2.522,0.6c0.77,0.4 1.378,0.9 1.825,1.7c0.458,0.7 0.705,1.6 0.741,2.6c0.035,1 -0.15,1.9 -0.555,2.7c-0.405,0.8 -0.978,1.4 -1.719,1.8c-0.741,0.5 -1.573,0.7 -2.497,0.7zM80.6554,239.7687c0.647,0 1.242,-0.1 1.784,-0.4c0.541,-0.4 0.969,-0.8 1.284,-1.4c0.327,-0.6 0.475,-1.4 0.445,-2.2c-0.03,-0.9 -0.223,-1.6 -0.579,-2.2c-0.357,-0.6 -0.816,-1 -1.378,-1.3c-0.562,-0.3 -1.167,-0.4 -1.815,-0.4c-0.647,0.1 -1.242,0.2 -1.783,0.5c-0.541,0.4 -0.97,0.8 -1.285,1.4c-0.303,0.6 -0.439,1.4 -0.409,2.2c0.03,0.9 0.217,1.6 0.562,2.2c0.356,0.6 0.81,1 1.36,1.3c0.561,0.2 1.166,0.4 1.814,0.3zM95.8444,230.3687l0.343,9.9h-1.259l-0.06,-1.7c-0.267,0.6 -0.694,1.1 -1.282,1.4c-0.589,0.4 -1.255,0.6 -1.998,0.6c-1.175,0 -2.147,-0.3 -2.916,-1c-0.769,-0.7 -1.178,-1.7 -1.226,-3.1l-0.2,-5.8h1.241l0.195,5.6c0.038,1.1 0.33,1.9 0.877,2.4c0.56,0.6 1.301,0.8 2.224,0.8c0.948,-0.1 1.693,-0.4 2.236,-1c0.542,-0.6 0.793,-1.5 0.753,-2.7l-0.187,-5.3zM102.2584,238.7687l3.009,-8.7h1.332l-3.597,9.9l-1.421,0.1l-4.283,-9.7l1.349,-0.1zM109.3744,231.6687c0.254,-0.6 0.657,-1.1 1.209,-1.5c0.564,-0.3 1.26,-0.5 2.087,-0.5l0.046,1.3h-0.342c-0.911,0 -1.634,0.3 -2.169,0.8c-0.534,0.5 -0.781,1.4 -0.741,2.5l0.192,5.5h-1.26l-0.343,-9.8h1.26zM123.3604,233.8687c0.015,0.4 0.014,0.8 -0.002,1l-8.149,0.3c0.062,0.7 0.264,1.3 0.606,1.9c0.343,0.5 0.782,0.9 1.32,1.1c0.537,0.3 1.117,0.4 1.74,0.4c0.816,-0.1 1.493,-0.3 2.03,-0.7c0.55,-0.4 0.903,-1 1.06,-1.7h1.331c-0.206,1 -0.695,1.8 -1.465,2.4c-0.758,0.6 -1.731,1 -2.919,1c-0.923,0 -1.758,-0.1 -2.503,-0.5c-0.747,-0.4 -1.343,-1 -1.789,-1.7c-0.434,-0.8 -0.67,-1.7 -0.705,-2.7c-0.036,-1 0.137,-1.9 0.518,-2.7c0.381,-0.8 0.93,-1.4 1.647,-1.8c0.718,-0.4 1.544,-0.7 2.479,-0.7c0.936,0 1.758,0.1 2.468,0.5c0.722,0.4 1.281,0.9 1.677,1.6c0.408,0.7 0.626,1.5 0.656,2.3zM122.0814,233.8687c-0.014,-0.7 -0.185,-1.4 -0.515,-1.9c-0.318,-0.5 -0.745,-0.8 -1.282,-1.1c-0.537,-0.2 -1.117,-0.3 -1.741,-0.3c-0.935,0 -1.722,0.3 -2.361,1c-0.639,0.6 -0.975,1.4 -1.009,2.5zM126.2304,238.1687l5.145,-0.2l0.036,1l-6.584,0.3l-0.036,-1.1l4.784,-7.9l-4.965,0.2l-0.036,-1.1l6.404,-0.2l0.037,1.1zM138.7684,225.3687l0.465,13.4h-1.259l-0.465,-13.3zM150.5304,232.8687c0.015,0.5 0.015,0.8 -0.001,1l-8.149,0.3c0.062,0.8 0.264,1.4 0.606,1.9c0.342,0.5 0.782,0.9 1.319,1.2c0.537,0.2 1.118,0.3 1.741,0.3c0.816,0 1.492,-0.2 2.03,-0.7c0.55,-0.4 0.903,-0.9 1.06,-1.6h1.331c-0.207,0.9 -0.695,1.7 -1.465,2.4c-0.759,0.6 -1.732,0.9 -2.919,1c-0.923,0 -1.758,-0.2 -2.504,-0.6c-0.746,-0.4 -1.342,-0.9 -1.788,-1.7c-0.435,-0.7 -0.67,-1.6 -0.705,-2.6c-0.036,-1 0.137,-1.9 0.518,-2.7c0.381,-0.8 0.93,-1.4 1.647,-1.8c0.717,-0.5 1.544,-0.7 2.479,-0.7c0.936,-0.1 1.758,0.1 2.468,0.5c0.722,0.4 1.281,0.9 1.677,1.6c0.407,0.6 0.626,1.4 0.655,2.2zM149.2524,232.9687c-0.014,-0.8 -0.185,-1.4 -0.515,-1.9c-0.318,-0.5 -0.745,-0.9 -1.282,-1.1c-0.537,-0.3 -1.117,-0.4 -1.741,-0.4c-0.936,0.1 -1.723,0.4 -2.361,1c-0.639,0.6 -0.975,1.5 -1.009,2.6zM156.1584,238.2687c-1.127,0.1 -2.059,-0.2 -2.797,-0.7c-0.726,-0.5 -1.147,-1.2 -1.262,-2.1h1.295c0.079,0.5 0.353,1 0.821,1.3c0.479,0.3 1.109,0.5 1.888,0.5c0.684,-0.1 1.212,-0.3 1.584,-0.6c0.385,-0.3 0.569,-0.7 0.552,-1.2c-0.012,-0.4 -0.129,-0.6 -0.353,-0.8c-0.223,-0.2 -0.505,-0.4 -0.845,-0.5c-0.328,-0.1 -0.777,-0.3 -1.346,-0.4c-0.738,-0.1 -1.338,-0.3 -1.801,-0.5c-0.462,-0.2 -0.862,-0.4 -1.198,-0.8c-0.326,-0.4 -0.499,-0.9 -0.521,-1.5c-0.017,-0.5 0.111,-0.9 0.385,-1.4c0.273,-0.4 0.67,-0.7 1.189,-1c0.519,-0.2 1.115,-0.4 1.786,-0.4c1.056,0 1.917,0.2 2.583,0.7c0.666,0.5 1.04,1.3 1.12,2.2h-1.259c-0.056,-0.5 -0.3,-1 -0.732,-1.3c-0.42,-0.4 -0.99,-0.5 -1.71,-0.5c-0.635,0 -1.146,0.2 -1.531,0.5c-0.385,0.3 -0.57,0.7 -0.555,1.1c0.014,0.4 0.139,0.7 0.375,1c0.248,0.2 0.549,0.4 0.902,0.5c0.352,0.1 0.825,0.3 1.419,0.4c0.714,0.2 1.284,0.4 1.71,0.5c0.426,0.2 0.795,0.4 1.107,0.8c0.312,0.3 0.484,0.8 0.516,1.3c0.019,0.6 -0.109,1 -0.382,1.5c-0.274,0.4 -0.664,0.7 -1.171,1c-0.508,0.2 -1.097,0.4 -1.769,0.4zM165.6274,232.8687c-0.035,-1 0.137,-1.9 0.519,-2.7c0.381,-0.7 0.924,-1.4 1.629,-1.8c0.705,-0.4 1.519,-0.7 2.443,-0.7c1.211,0 2.217,0.2 3.017,0.8c0.813,0.6 1.351,1.4 1.615,2.4h-1.349c-0.193,-0.7 -0.578,-1.2 -1.155,-1.6c-0.566,-0.4 -1.263,-0.6 -2.091,-0.5c-0.659,0 -1.248,0.2 -1.765,0.5c-0.517,0.3 -0.921,0.8 -1.212,1.4c-0.279,0.6 -0.404,1.3 -0.374,2.2c0.031,0.8 0.206,1.6 0.527,2.2c0.333,0.5 0.768,1 1.306,1.3c0.538,0.2 1.137,0.4 1.797,0.3c0.827,0 1.51,-0.2 2.048,-0.6c0.549,-0.4 0.895,-1 1.038,-1.7l1.349,-0.1c-0.192,1 -0.674,1.8 -1.444,2.5c-0.77,0.6 -1.755,1 -2.954,1c-0.924,0 -1.752,-0.1 -2.486,-0.5c-0.734,-0.4 -1.318,-1 -1.753,-1.7c-0.434,-0.8 -0.669,-1.7 -0.705,-2.7zM181.4594,237.3687c-0.923,0.1 -1.764,-0.1 -2.522,-0.5c-0.746,-0.4 -1.348,-1 -1.806,-1.7c-0.447,-0.8 -0.688,-1.6 -0.723,-2.7c-0.036,-1 0.149,-1.9 0.554,-2.6c0.405,-0.8 0.972,-1.4 1.702,-1.9c0.729,-0.4 1.555,-0.7 2.478,-0.7c0.924,0 1.764,0.2 2.523,0.6c0.769,0.3 1.378,0.9 1.824,1.7c0.458,0.7 0.705,1.6 0.741,2.6c0.035,1 -0.15,1.9 -0.555,2.7c-0.405,0.8 -0.978,1.4 -1.719,1.8c-0.741,0.5 -1.573,0.7 -2.497,0.7zM181.4214,236.2687c0.648,0 1.242,-0.2 1.784,-0.5c0.541,-0.3 0.969,-0.7 1.284,-1.3c0.327,-0.7 0.476,-1.4 0.445,-2.3c-0.03,-0.8 -0.223,-1.5 -0.579,-2.1c-0.357,-0.6 -0.816,-1 -1.378,-1.3c-0.562,-0.3 -1.167,-0.4 -1.815,-0.4c-0.647,0 -1.242,0.2 -1.783,0.5c-0.541,0.3 -0.97,0.8 -1.284,1.4c-0.304,0.6 -0.44,1.3 -0.41,2.2c0.03,0.9 0.217,1.6 0.562,2.2c0.357,0.6 0.81,1 1.36,1.3c0.562,0.2 1.166,0.4 1.814,0.3zM192.7014,226.8687c1.175,-0.1 2.147,0.3 2.916,1c0.769,0.7 1.177,1.7 1.225,3.1l0.202,5.7l-1.242,0.1l-0.196,-5.6c-0.037,-1.1 -0.335,-1.9 -0.895,-2.4c-0.547,-0.6 -1.282,-0.8 -2.206,-0.8c-0.947,0 -1.692,0.3 -2.235,1c-0.543,0.6 -0.794,1.5 -0.753,2.6l0.187,5.4h-1.259l-0.343,-9.8h1.259l0.058,1.6c0.291,-0.6 0.725,-1 1.302,-1.4c0.576,-0.3 1.236,-0.5 1.98,-0.5zM198.8294,231.6687c-0.035,-1 0.138,-1.9 0.519,-2.6c0.381,-0.8 0.918,-1.4 1.612,-1.8c0.704,-0.5 1.507,-0.7 2.406,-0.8c0.864,0 1.65,0.2 2.361,0.6c0.71,0.4 1.239,0.9 1.586,1.6l-0.196,-5.6l1.259,-0.1l0.465,13.3l-1.259,0.1l-0.077,-2.2c-0.276,0.7 -0.748,1.3 -1.416,1.7c-0.668,0.5 -1.464,0.7 -2.388,0.8c-0.899,0 -1.716,-0.2 -2.45,-0.6c-0.723,-0.4 -1.301,-1 -1.736,-1.7c-0.422,-0.8 -0.651,-1.7 -0.686,-2.7zM207.4104,231.4687c-0.027,-0.8 -0.214,-1.5 -0.558,-2.1c-0.345,-0.6 -0.805,-1 -1.38,-1.3c-0.563,-0.4 -1.18,-0.5 -1.852,-0.5c-0.695,0.1 -1.314,0.2 -1.854,0.6c-0.541,0.3 -0.963,0.8 -1.266,1.4c-0.291,0.6 -0.422,1.3 -0.394,2.1c0.028,0.8 0.209,1.5 0.542,2.1c0.345,0.6 0.798,1 1.361,1.3c0.563,0.3 1.192,0.5 1.888,0.4c0.671,0 1.277,-0.2 1.818,-0.5c0.552,-0.3 0.98,-0.8 1.282,-1.4c0.303,-0.6 0.441,-1.3 0.413,-2.1zM211.6864,224.4687c-0.252,0 -0.471,0 -0.657,-0.2c-0.186,-0.2 -0.284,-0.4 -0.293,-0.7c-0.01,-0.2 0.073,-0.4 0.247,-0.6c0.173,-0.2 0.386,-0.3 0.638,-0.3c0.252,0 0.471,0.1 0.657,0.2c0.186,0.2 0.283,0.4 0.293,0.7c0.009,0.2 -0.073,0.5 -0.247,0.6c-0.174,0.2 -0.386,0.3 -0.638,0.3zM212.3804,226.3687l0.343,9.8h-1.259l-0.343,-9.8zM216.6544,227.2687l0.213,6.1c0.021,0.6 0.149,1 0.385,1.2c0.236,0.2 0.641,0.3 1.217,0.3h1.151l0.038,1l-1.349,0.1c-0.888,0 -1.554,-0.2 -2,-0.5c-0.447,-0.5 -0.686,-1.1 -0.719,-2.1l-0.213,-6.1l-1.368,0.1l-0.037,-1.1h1.368l-0.087,-2.5h1.278l0.086,2.4l2.698,-0.1l0.037,1.1zM221.7054,224.1687c-0.252,0 -0.471,-0.1 -0.657,-0.3c-0.186,-0.1 -0.284,-0.4 -0.293,-0.6c-0.009,-0.3 0.073,-0.5 0.247,-0.7c0.174,-0.2 0.386,-0.3 0.638,-0.3c0.252,0 0.471,0.1 0.657,0.3c0.186,0.1 0.284,0.4 0.293,0.6c0.009,0.3 -0.073,0.5 -0.247,0.7c-0.173,0.2 -0.386,0.3 -0.638,0.3zM222.3994,225.9687l0.343,9.8l-1.259,0.1l-0.343,-9.8zM229.6464,235.6687c-0.923,0.1 -1.764,-0.1 -2.521,-0.5c-0.747,-0.4 -1.349,-0.9 -1.807,-1.7c-0.447,-0.7 -0.688,-1.6 -0.723,-2.6c-0.036,-1.1 0.149,-2 0.554,-2.7c0.405,-0.8 0.972,-1.4 1.702,-1.8c0.729,-0.5 1.555,-0.7 2.478,-0.8c0.924,0 1.765,0.2 2.523,0.6c0.77,0.4 1.378,0.9 1.824,1.7c0.458,0.7 0.705,1.6 0.741,2.6c0.035,1 -0.15,1.9 -0.555,2.7c-0.405,0.8 -0.978,1.4 -1.719,1.8c-0.741,0.5 -1.573,0.7 -2.497,0.7zM229.6084,234.5687c0.648,0 1.242,-0.1 1.784,-0.4c0.541,-0.4 0.969,-0.8 1.285,-1.4c0.326,-0.6 0.475,-1.4 0.445,-2.2c-0.031,-0.9 -0.224,-1.6 -0.58,-2.2c-0.357,-0.6 -0.816,-1 -1.378,-1.3c-0.562,-0.3 -1.167,-0.4 -1.814,-0.4c-0.648,0.1 -1.242,0.2 -1.784,0.5c-0.541,0.4 -0.969,0.8 -1.284,1.4c-0.304,0.6 -0.44,1.4 -0.41,2.2c0.03,0.9 0.218,1.6 0.562,2.2c0.357,0.6 0.81,1 1.36,1.3c0.562,0.2 1.166,0.4 1.814,0.3zM240.8884,225.1687c1.175,0 2.147,0.3 2.916,1c0.769,0.7 1.177,1.7 1.226,3.1l0.201,5.8h-1.242l-0.196,-5.6c-0.037,-1.1 -0.335,-1.9 -0.895,-2.4c-0.547,-0.6 -1.282,-0.8 -2.206,-0.8c-0.947,0 -1.692,0.4 -2.235,1c-0.543,0.6 -0.794,1.5 -0.753,2.7l0.187,5.3l-1.259,0.1l-0.343,-9.9h1.259l0.059,1.7c0.29,-0.6 0.724,-1.1 1.301,-1.5c0.576,-0.3 1.236,-0.5 1.98,-0.5zM251.1514,234.9687c-1.128,0 -2.06,-0.2 -2.798,-0.7c-0.726,-0.5 -1.146,-1.2 -1.262,-2.1h1.296c0.079,0.5 0.352,1 0.82,1.3c0.48,0.3 1.109,0.5 1.889,0.4c0.683,0 1.211,-0.2 1.584,-0.5c0.384,-0.3 0.568,-0.8 0.551,-1.2c-0.011,-0.4 -0.129,-0.6 -0.352,-0.9c-0.224,-0.2 -0.506,-0.3 -0.846,-0.4c-0.328,-0.1 -0.776,-0.3 -1.345,-0.4c-0.738,-0.2 -1.339,-0.3 -1.801,-0.5c-0.463,-0.2 -0.862,-0.4 -1.199,-0.8c-0.325,-0.4 -0.499,-0.9 -0.521,-1.5c-0.017,-0.5 0.112,-1 0.385,-1.4c0.274,-0.4 0.67,-0.7 1.189,-1c0.52,-0.2 1.115,-0.4 1.787,-0.4c1.055,0 1.916,0.2 2.583,0.7c0.666,0.5 1.039,1.2 1.12,2.2h-1.26c-0.056,-0.6 -0.3,-1 -0.732,-1.3c-0.42,-0.4 -0.99,-0.6 -1.709,-0.5c-0.636,0 -1.147,0.2 -1.532,0.5c-0.385,0.3 -0.57,0.7 -0.555,1.1c0.014,0.4 0.139,0.7 0.376,1c0.248,0.2 0.548,0.4 0.901,0.5c0.353,0.1 0.825,0.3 1.419,0.4c0.714,0.2 1.284,0.3 1.71,0.5c0.426,0.2 0.795,0.4 1.107,0.8c0.312,0.3 0.484,0.7 0.517,1.3c0.018,0.6 -0.109,1 -0.383,1.5c-0.273,0.4 -0.664,0.7 -1.171,1c-0.507,0.2 -1.097,0.4 -1.768,0.4zM260.6194,229.5687c-0.035,-1 0.138,-1.9 0.519,-2.7c0.381,-0.8 0.918,-1.4 1.612,-1.8c0.705,-0.4 1.507,-0.7 2.406,-0.7c0.864,0 1.65,0.1 2.361,0.5c0.71,0.4 1.239,1 1.586,1.6l-0.196,-5.6h1.259l0.465,13.3h-1.259l-0.077,-2.2c-0.276,0.7 -0.748,1.3 -1.416,1.8c-0.668,0.4 -1.464,0.7 -2.388,0.7c-0.899,0 -1.716,-0.2 -2.45,-0.6c-0.723,-0.3 -1.301,-0.9 -1.735,-1.7c-0.423,-0.7 -0.652,-1.6 -0.687,-2.6zM269.2004,229.2687c-0.027,-0.8 -0.214,-1.5 -0.558,-2.1c-0.345,-0.6 -0.805,-1 -1.38,-1.3c-0.563,-0.3 -1.18,-0.5 -1.852,-0.4c-0.695,0 -1.313,0.2 -1.854,0.5c-0.541,0.3 -0.963,0.8 -1.266,1.4c-0.291,0.6 -0.422,1.3 -0.394,2.1c0.028,0.8 0.209,1.5 0.542,2.1c0.345,0.6 0.799,1.1 1.362,1.4c0.562,0.3 1.191,0.4 1.887,0.4c0.671,0 1.277,-0.2 1.818,-0.6c0.552,-0.3 0.98,-0.8 1.282,-1.4c0.303,-0.6 0.441,-1.3 0.413,-2.1zM272.9774,221.4687l1.457,-0.1l-1.448,4h-0.917zM275.8034,229.0687c-0.035,-1.1 0.132,-1.9 0.501,-2.7c0.381,-0.8 0.918,-1.4 1.612,-1.8c0.705,-0.5 1.507,-0.7 2.406,-0.7c0.936,-0.1 1.747,0.1 2.433,0.5c0.699,0.4 1.21,1 1.533,1.6l-0.075,-2.1l1.259,-0.1l0.343,9.8l-1.259,0.1l-0.076,-2.2c-0.289,0.7 -0.767,1.3 -1.435,1.7c-0.656,0.5 -1.452,0.7 -2.388,0.8c-0.887,0 -1.698,-0.2 -2.432,-0.6c-0.723,-0.4 -1.301,-1 -1.735,-1.7c-0.423,-0.8 -0.652,-1.6 -0.687,-2.6zM284.3844,228.7687c-0.027,-0.8 -0.214,-1.5 -0.558,-2.1c-0.345,-0.6 -0.805,-1 -1.38,-1.3c-0.563,-0.3 -1.18,-0.5 -1.852,-0.5c-0.695,0.1 -1.313,0.2 -1.854,0.6c-0.541,0.3 -0.963,0.8 -1.266,1.4c-0.291,0.6 -0.422,1.3 -0.394,2.1c0.028,0.8 0.209,1.5 0.542,2.1c0.345,0.6 0.799,1.1 1.362,1.4c0.562,0.2 1.191,0.4 1.887,0.4c0.671,-0.1 1.277,-0.2 1.818,-0.6c0.552,-0.3 0.98,-0.8 1.282,-1.4c0.303,-0.6 0.441,-1.3 0.413,-2.1zM289.4124,225.7687c0.288,-0.6 0.761,-1.2 1.418,-1.6c0.668,-0.5 1.469,-0.8 2.405,-0.8c0.887,0 1.692,0.2 2.414,0.5c0.734,0.4 1.312,1 1.735,1.8c0.434,0.7 0.669,1.6 0.704,2.6c0.035,1 -0.138,1.9 -0.519,2.7c-0.369,0.7 -0.906,1.4 -1.611,1.8c-0.693,0.4 -1.483,0.7 -2.37,0.7c-0.924,0 -1.735,-0.1 -2.433,-0.6c-0.699,-0.4 -1.216,-0.9 -1.551,-1.6l0.237,6.8l-1.241,0.1l-0.505,-14.5h1.241zM296.8114,228.2687c-0.029,-0.8 -0.215,-1.5 -0.56,-2.1c-0.332,-0.6 -0.78,-1 -1.343,-1.3c-0.562,-0.3 -1.191,-0.4 -1.887,-0.4c-0.671,0 -1.283,0.2 -1.836,0.6c-0.54,0.3 -0.962,0.8 -1.264,1.4c-0.303,0.6 -0.441,1.3 -0.413,2.1c0.027,0.8 0.214,1.5 0.558,2.1c0.345,0.6 0.799,1 1.362,1.3c0.575,0.3 1.198,0.4 1.87,0.4c0.695,0 1.313,-0.2 1.854,-0.5c0.541,-0.4 0.956,-0.8 1.247,-1.4c0.302,-0.7 0.44,-1.4 0.412,-2.2zM301.2994,225.3687c0.289,-0.6 0.761,-1.2 1.418,-1.7c0.668,-0.4 1.47,-0.7 2.405,-0.7c0.887,0 1.692,0.1 2.415,0.5c0.733,0.4 1.312,1 1.734,1.7c0.434,0.8 0.669,1.7 0.704,2.7c0.035,1 -0.138,1.9 -0.519,2.6c-0.369,0.8 -0.905,1.4 -1.61,1.9c-0.693,0.4 -1.483,0.7 -2.371,0.7c-0.923,0 -1.734,-0.2 -2.433,-0.6c-0.699,-0.4 -1.216,-0.9 -1.551,-1.6l0.237,6.8l-1.241,0.1l-0.505,-14.5h1.241zM308.6984,227.8687c-0.029,-0.8 -0.215,-1.5 -0.559,-2.1c-0.333,-0.6 -0.781,-1 -1.343,-1.3c-0.563,-0.3 -1.192,-0.4 -1.888,-0.4c-0.671,0 -1.283,0.2 -1.835,0.5c-0.541,0.4 -0.962,0.9 -1.265,1.5c-0.303,0.6 -0.441,1.3 -0.413,2.1c0.028,0.8 0.214,1.5 0.558,2c0.345,0.6 0.799,1.1 1.362,1.4c0.575,0.3 1.198,0.4 1.87,0.4c0.695,0 1.314,-0.2 1.854,-0.5c0.541,-0.4 0.956,-0.8 1.247,-1.5c0.303,-0.6 0.44,-1.3 0.412,-2.1zM313.0074,219.3687l0.465,13.3h-1.26l-0.464,-13.3zM316.2934,220.8687c-0.252,0 -0.471,-0.1 -0.657,-0.3c-0.186,-0.1 -0.284,-0.4 -0.293,-0.6c-0.009,-0.3 0.073,-0.5 0.247,-0.7c0.174,-0.2 0.387,-0.3 0.639,-0.3c0.251,0 0.47,0.1 0.657,0.3c0.185,0.1 0.283,0.4 0.292,0.6c0.009,0.3 -0.073,0.5 -0.247,0.7c-0.173,0.2 -0.386,0.3 -0.638,0.3zM316.9884,222.6687l0.343,9.8l-1.26,0.1l-0.343,-9.8zM319.1834,227.5687c-0.035,-1.1 0.137,-2 0.519,-2.7c0.381,-0.8 0.924,-1.4 1.629,-1.8c0.705,-0.5 1.519,-0.7 2.443,-0.8c1.211,0 2.217,0.3 3.017,0.8c0.813,0.6 1.351,1.4 1.615,2.4l-1.349,0.1c-0.193,-0.7 -0.578,-1.3 -1.156,-1.6c-0.565,-0.4 -1.262,-0.6 -2.09,-0.6c-0.659,0 -1.248,0.2 -1.765,0.5c-0.517,0.3 -0.921,0.8 -1.212,1.4c-0.279,0.6 -0.404,1.3 -0.374,2.2c0.031,0.9 0.206,1.6 0.527,2.2c0.332,0.6 0.768,1 1.306,1.3c0.538,0.3 1.137,0.4 1.797,0.4c0.827,0 1.51,-0.3 2.048,-0.7c0.549,-0.4 0.895,-1 1.038,-1.7l1.349,-0.1c-0.193,1.1 -0.674,1.9 -1.444,2.5c-0.77,0.7 -1.755,1 -2.954,1c-0.924,0.1 -1.752,-0.1 -2.486,-0.5c-0.734,-0.4 -1.319,-0.9 -1.753,-1.7c-0.434,-0.7 -0.669,-1.6 -0.705,-2.6zM329.9634,227.1687c-0.035,-1 0.132,-1.9 0.501,-2.7c0.381,-0.8 0.918,-1.4 1.612,-1.8c0.705,-0.5 1.507,-0.7 2.406,-0.7c0.936,-0.1 1.747,0.1 2.433,0.5c0.699,0.4 1.21,1 1.533,1.6l-0.075,-2.1l1.259,-0.1l0.343,9.8l-1.259,0.1l-0.076,-2.2c-0.288,0.7 -0.767,1.3 -1.435,1.7c-0.656,0.5 -1.452,0.7 -2.388,0.8c-0.887,0 -1.698,-0.2 -2.432,-0.6c-0.722,-0.4 -1.301,-0.9 -1.735,-1.7c-0.423,-0.7 -0.652,-1.6 -0.687,-2.6zM338.5444,226.8687c-0.027,-0.8 -0.213,-1.5 -0.558,-2.1c-0.345,-0.6 -0.805,-1 -1.38,-1.3c-0.563,-0.3 -1.18,-0.5 -1.852,-0.4c-0.695,0 -1.313,0.2 -1.854,0.5c-0.541,0.3 -0.963,0.8 -1.266,1.4c-0.291,0.6 -0.422,1.3 -0.394,2.1c0.028,0.8 0.209,1.5 0.542,2.1c0.345,0.6 0.799,1.1 1.362,1.4c0.562,0.3 1.191,0.4 1.887,0.4c0.671,-0.1 1.277,-0.2 1.818,-0.6c0.552,-0.3 0.98,-0.8 1.283,-1.4c0.302,-0.6 0.44,-1.3 0.412,-2.1zM343.9294,222.7687l0.213,6.1c0.021,0.6 0.149,1 0.385,1.3c0.236,0.2 0.642,0.3 1.217,0.3l1.152,-0.1l0.037,1.1l-1.349,0.1c-0.887,0 -1.554,-0.2 -2,-0.6c-0.446,-0.4 -0.686,-1.1 -0.719,-2l-0.213,-6.1h-1.367l-0.037,-1l1.367,-0.1l-0.086,-2.4l1.277,-0.1l0.086,2.5l2.698,-0.1l0.037,1zM348.9804,219.6687c-0.252,0.1 -0.471,0 -0.657,-0.2c-0.186,-0.2 -0.284,-0.4 -0.293,-0.7c-0.009,-0.2 0.073,-0.4 0.247,-0.6c0.174,-0.2 0.387,-0.3 0.638,-0.3c0.252,0 0.471,0.1 0.657,0.2c0.186,0.2 0.284,0.4 0.293,0.7c0.009,0.2 -0.073,0.5 -0.247,0.7c-0.173,0.1 -0.386,0.2 -0.638,0.2zM349.6744,221.5687l0.343,9.8h-1.259l-0.343,-9.8zM356.9224,231.2687c-0.924,0 -1.764,-0.1 -2.522,-0.5c-0.746,-0.4 -1.349,-1 -1.807,-1.7c-0.446,-0.8 -0.687,-1.7 -0.723,-2.7c-0.036,-1 0.149,-1.9 0.555,-2.7c0.405,-0.8 0.972,-1.4 1.701,-1.8c0.729,-0.4 1.555,-0.7 2.479,-0.7c0.923,0 1.764,0.1 2.522,0.5c0.77,0.4 1.378,1 1.824,1.7c0.459,0.8 0.705,1.7 0.741,2.7c0.035,1 -0.15,1.9 -0.555,2.7c-0.405,0.7 -0.977,1.4 -1.718,1.8c-0.742,0.4 -1.574,0.7 -2.497,0.7zM356.8834,230.1687c0.648,0 1.242,-0.2 1.784,-0.5c0.541,-0.3 0.97,-0.8 1.285,-1.4c0.327,-0.6 0.475,-1.3 0.445,-2.2c-0.03,-0.8 -0.224,-1.6 -0.58,-2.1c-0.357,-0.6 -0.816,-1.1 -1.378,-1.3c-0.562,-0.3 -1.167,-0.4 -1.814,-0.4c-0.648,0 -1.242,0.2 -1.783,0.5c-0.542,0.3 -0.97,0.8 -1.285,1.4c-0.303,0.6 -0.44,1.3 -0.41,2.2c0.03,0.8 0.218,1.6 0.563,2.1c0.356,0.6 0.809,1.1 1.359,1.3c0.562,0.3 1.167,0.4 1.814,0.4zM368.1634,220.6687c1.175,0 2.148,0.3 2.917,1c0.768,0.7 1.177,1.8 1.225,3.2l0.201,5.7l-1.241,0.1l-0.196,-5.7c-0.038,-1 -0.336,-1.8 -0.895,-2.4c-0.548,-0.5 -1.283,-0.8 -2.206,-0.7c-0.948,0 -1.693,0.3 -2.236,0.9c-0.542,0.7 -0.793,1.5 -0.753,2.7l0.187,5.4h-1.259l-0.343,-9.8l1.259,-0.1l0.059,1.7c0.291,-0.6 0.724,-1.1 1.301,-1.4c0.577,-0.3 1.237,-0.5 1.98,-0.6zM375.2584,230.5687c-0.264,0 -0.489,-0.1 -0.675,-0.2c-0.174,-0.2 -0.266,-0.4 -0.275,-0.7c-0.009,-0.3 0.067,-0.5 0.229,-0.7c0.174,-0.1 0.392,-0.2 0.656,-0.2c0.252,-0.1 0.465,0 0.639,0.2c0.186,0.2 0.284,0.4 0.293,0.6c0.009,0.3 -0.073,0.5 -0.247,0.7c-0.161,0.2 -0.368,0.3 -0.62,0.3z" fill="#0B0C0C"/>
<g id="Groupe 8594_2">
<g id="Groupe 7645_2">
<g id="Groupe 7631_10">
<g id="Groupe 7574_14">
<path id="Rectangle 1366_16" d="M43.8574,314.1687c-0.591,-17 12.649,-31.2 29.573,-31.7l193.767,-6.8c16.924,-0.6 31.122,12.6 31.713,29.6c0.591,16.9 -12.649,31.1 -29.572,31.7l-193.768,6.7c-16.924,0.6 -31.122,-12.6 -31.713,-29.5z" fill="white"/>
</g>
</g>
<g id="Groupe 8595_2">
<g id="fi-rr-info_2">
<path id="Tracé 10507_2" d="M243.8864,294.5687c-7.206,0.3 -12.843,6.3 -12.592,13.5c0.252,7.2 6.297,12.9 13.503,12.6c7.205,-0.2 12.843,-6.3 12.591,-13.5c-0.259,-7.2 -6.3,-12.8 -13.502,-12.6zM244.7214,318.4687c-6.005,0.3 -11.042,-4.4 -11.252,-10.4c-0.21,-6.1 4.488,-11.1 10.493,-11.3c6.004,-0.2 11.042,4.5 11.252,10.5c0.203,6 -4.491,11 -10.493,11.2z" fill="#0D0D0D"/>
<path id="Tracé 10508_2" d="M244.2654,305.4687h-1.087c-0.6,0.1 -1.07,0.6 -1.049,1.2c0.021,0.6 0.525,1 1.125,1h1.087l0.228,6.5c0.021,0.6 0.525,1.1 1.125,1c0.601,0 1.071,-0.5 1.05,-1.1l-0.228,-6.5c-0.042,-1.2 -1.05,-2.1 -2.251,-2.1z" fill="#0D0D0D"/>
<circle id="Ellipse 486_2" cx="244.13239999999996" cy="301.6687000000002" r="1.63186" transform="rotate(-2, 244.13239999999996, 301.6687000000002)" fill="#0D0D0D"/>
</g>
<g id="Groupe 7633_10">
<path id="En savoir plus_3" d="M88.7294,307.5687l0.136,3.9l4.557,-0.2l0.062,1.8l-4.558,0.2l0.142,4l5.127,-0.2l0.061,1.8l-7.291,0.2l-0.462,-13.2l7.292,-0.2l0.061,1.7zM101.5644,307.9687c0.823,0 1.563,0.1 2.221,0.4c0.67,0.3 1.2,0.8 1.591,1.5c0.39,0.6 0.602,1.4 0.635,2.4l0.216,6.2h-2.146l-0.204,-5.8c-0.033,-0.9 -0.292,-1.6 -0.778,-2.1c-0.486,-0.5 -1.134,-0.7 -1.944,-0.7c-0.81,0 -1.447,0.3 -1.91,0.8c-0.451,0.5 -0.661,1.2 -0.628,2.2l0.204,5.8l-2.164,0.1l-0.366,-10.5h2.165l0.042,1.2c0.339,-0.5 0.777,-0.8 1.313,-1.1c0.548,-0.3 1.133,-0.4 1.753,-0.4zM117.1924,318.2687c-0.822,0 -1.568,-0.1 -2.236,-0.4c-0.657,-0.3 -1.183,-0.7 -1.581,-1.2c-0.398,-0.5 -0.62,-1 -0.668,-1.7h2.241c0.053,0.4 0.275,0.8 0.665,1.1c0.403,0.2 0.896,0.4 1.478,0.3c0.607,0 1.072,-0.1 1.393,-0.4c0.333,-0.2 0.494,-0.5 0.481,-0.9c-0.014,-0.4 -0.214,-0.7 -0.6,-0.8c-0.374,-0.2 -0.97,-0.4 -1.788,-0.6c-0.792,-0.2 -1.439,-0.4 -1.94,-0.6c-0.501,-0.1 -0.942,-0.4 -1.323,-0.8c-0.37,-0.5 -0.566,-1 -0.59,-1.7c-0.019,-0.5 0.128,-1 0.441,-1.5c0.313,-0.5 0.768,-0.9 1.367,-1.2c0.611,-0.3 1.315,-0.4 2.112,-0.4c1.19,-0.1 2.157,0.2 2.899,0.8c0.755,0.5 1.176,1.3 1.263,2.4l-2.164,0.1c-0.055,-0.5 -0.258,-0.9 -0.609,-1.1c-0.352,-0.3 -0.819,-0.4 -1.401,-0.4c-0.57,0 -1.003,0.1 -1.299,0.4c-0.296,0.2 -0.438,0.5 -0.426,0.8c0.01,0.3 0.119,0.5 0.329,0.7c0.209,0.2 0.461,0.3 0.756,0.4c0.295,0.1 0.73,0.3 1.305,0.4c0.767,0.2 1.394,0.4 1.883,0.6c0.501,0.1 0.935,0.4 1.304,0.8c0.369,0.4 0.571,1 0.607,1.6c0.021,0.6 -0.125,1.2 -0.438,1.6c-0.313,0.5 -0.768,0.9 -1.367,1.2c-0.585,0.3 -1.283,0.4 -2.094,0.5zM122.3604,312.5687c-0.036,-1 0.146,-2 0.548,-2.8c0.415,-0.8 0.988,-1.5 1.72,-1.9c0.743,-0.5 1.571,-0.8 2.482,-0.8c0.823,0 1.544,0.1 2.163,0.4c0.632,0.3 1.139,0.7 1.523,1.2l-0.053,-1.6h2.184l0.365,10.4l-2.184,0.1l-0.054,-1.6c-0.35,0.6 -0.835,1 -1.457,1.3c-0.621,0.4 -1.337,0.6 -2.147,0.6c-0.899,0 -1.73,-0.2 -2.493,-0.6c-0.763,-0.4 -1.38,-1.1 -1.852,-1.9c-0.46,-0.8 -0.708,-1.7 -0.745,-2.8zM130.9254,312.3687c-0.025,-0.8 -0.199,-1.4 -0.521,-1.9c-0.31,-0.5 -0.71,-0.9 -1.201,-1.2c-0.49,-0.2 -1.014,-0.4 -1.571,-0.3c-0.557,0 -1.071,0.1 -1.543,0.4c-0.472,0.3 -0.85,0.7 -1.135,1.3c-0.273,0.5 -0.397,1.1 -0.372,1.8c0.025,0.8 0.193,1.4 0.503,1.9c0.323,0.6 0.73,1 1.221,1.2c0.503,0.3 1.027,0.4 1.572,0.4c0.557,0 1.071,-0.2 1.542,-0.5c0.471,-0.3 0.843,-0.7 1.116,-1.2c0.285,-0.6 0.415,-1.2 0.389,-1.9zM139.8464,315.3687l2.665,-8.7l2.297,-0.1l-3.622,10.6l-2.582,0.1l-4.334,-10.3l2.316,-0.1zM151.0884,317.0687c-0.987,0 -1.887,-0.2 -2.7,-0.6c-0.814,-0.4 -1.462,-1 -1.946,-1.8c-0.485,-0.8 -0.746,-1.8 -0.783,-2.9c-0.037,-1 0.164,-2 0.603,-2.8c0.44,-0.8 1.057,-1.5 1.852,-2c0.795,-0.4 1.692,-0.7 2.692,-0.7c1,-0.1 1.913,0.1 2.739,0.5c0.825,0.5 1.487,1.1 1.984,1.9c0.497,0.8 0.764,1.7 0.801,2.8c0.037,1 -0.17,2 -0.623,2.8c-0.452,0.9 -1.088,1.5 -1.907,2c-0.808,0.5 -1.711,0.7 -2.712,0.8zM151.0234,315.1687c0.557,0 1.071,-0.2 1.543,-0.5c0.484,-0.2 0.869,-0.7 1.154,-1.2c0.286,-0.5 0.415,-1.2 0.389,-1.9c-0.027,-0.8 -0.195,-1.4 -0.504,-2c-0.31,-0.5 -0.71,-0.9 -1.2,-1.1c-0.491,-0.3 -1.014,-0.4 -1.571,-0.4c-0.557,0.1 -1.072,0.2 -1.543,0.5c-0.459,0.3 -0.819,0.7 -1.079,1.2c-0.26,0.6 -0.377,1.2 -0.351,2c0.04,1.1 0.355,2 0.946,2.6c0.604,0.5 1.342,0.8 2.216,0.8zM159.0754,304.7687c-0.393,0 -0.726,-0.1 -1.002,-0.4c-0.275,-0.3 -0.419,-0.6 -0.433,-1c-0.013,-0.4 0.108,-0.7 0.365,-1c0.256,-0.3 0.581,-0.4 0.973,-0.4c0.38,0 0.707,0.1 0.982,0.4c0.275,0.2 0.42,0.5 0.434,0.9c0.013,0.4 -0.108,0.8 -0.365,1c-0.256,0.3 -0.574,0.4 -0.954,0.5zM160.1874,306.0687l0.365,10.5h-2.165l-0.365,-10.4zM164.9804,307.4687c0.298,-0.6 0.702,-1 1.211,-1.3c0.521,-0.3 1.142,-0.5 1.864,-0.5l0.078,2.2h-0.551c-0.848,0.1 -1.486,0.3 -1.914,0.7c-0.416,0.5 -0.605,1.2 -0.567,2.3l0.192,5.5l-2.165,0.1l-0.365,-10.5l2.164,-0.1zM176.6704,307.0687c0.35,-0.5 0.836,-0.9 1.457,-1.3c0.622,-0.3 1.331,-0.5 2.129,-0.6c0.911,0 1.748,0.2 2.511,0.6c0.775,0.5 1.392,1.1 1.851,1.9c0.458,0.7 0.706,1.7 0.743,2.7c0.036,1.1 -0.146,2 -0.547,2.9c-0.402,0.8 -0.974,1.5 -1.717,2c-0.731,0.5 -1.553,0.7 -2.464,0.7c-0.798,0.1 -1.512,-0.1 -2.143,-0.4c-0.632,-0.3 -1.153,-0.7 -1.562,-1.1l0.227,6.5h-2.165l-0.539,-15.4l2.165,-0.1zM183.1584,310.4687c-0.025,-0.7 -0.199,-1.3 -0.521,-1.8c-0.309,-0.6 -0.716,-1 -1.219,-1.2c-0.491,-0.3 -1.014,-0.4 -1.571,-0.4c-0.545,0.1 -1.059,0.2 -1.543,0.5c-0.471,0.3 -0.849,0.7 -1.135,1.3c-0.272,0.5 -0.396,1.1 -0.371,1.9c0.025,0.7 0.193,1.3 0.503,1.8c0.323,0.6 0.729,1 1.22,1.2c0.503,0.3 1.027,0.4 1.572,0.4c0.557,0 1.071,-0.2 1.542,-0.5c0.484,-0.3 0.861,-0.7 1.134,-1.3c0.284,-0.5 0.414,-1.2 0.389,-1.9zM189.0944,301.4687l0.49,14.1h-2.164l-0.491,-14zM201.2714,304.6687l0.365,10.4l-2.165,0.1l-0.043,-1.2c-0.327,0.4 -0.764,0.8 -1.312,1.1c-0.536,0.2 -1.114,0.4 -1.735,0.4c-0.822,0 -1.569,-0.1 -2.239,-0.5c-0.658,-0.3 -1.188,-0.8 -1.591,-1.4c-0.391,-0.7 -0.603,-1.5 -0.636,-2.4l-0.215,-6.2l2.146,-0.1l0.204,5.9c0.032,0.9 0.292,1.6 0.778,2.1c0.485,0.5 1.133,0.7 1.943,0.7c0.811,-0.1 1.441,-0.3 1.892,-0.8c0.464,-0.6 0.679,-1.3 0.646,-2.2l-0.203,-5.8zM208.0304,315.0687c-0.823,0 -1.569,-0.1 -2.237,-0.4c-0.656,-0.3 -1.183,-0.6 -1.581,-1.1c-0.397,-0.5 -0.62,-1.1 -0.668,-1.7l2.241,-0.1c0.054,0.4 0.275,0.8 0.666,1.1c0.402,0.3 0.895,0.4 1.477,0.4c0.608,-0.1 1.072,-0.2 1.393,-0.4c0.334,-0.3 0.494,-0.6 0.481,-1c-0.013,-0.3 -0.213,-0.6 -0.6,-0.8c-0.374,-0.2 -0.97,-0.4 -1.788,-0.6c-0.792,-0.2 -1.439,-0.3 -1.939,-0.5c-0.501,-0.2 -0.942,-0.5 -1.324,-0.9c-0.369,-0.4 -0.566,-1 -0.589,-1.7c-0.02,-0.5 0.127,-1 0.44,-1.5c0.313,-0.5 0.769,-0.9 1.367,-1.1c0.611,-0.3 1.315,-0.5 2.113,-0.5c1.19,-0.1 2.156,0.2 2.899,0.8c0.755,0.6 1.176,1.4 1.263,2.4l-2.165,0.1c-0.054,-0.5 -0.257,-0.9 -0.609,-1.1c-0.351,-0.3 -0.818,-0.4 -1.401,-0.4c-0.569,0 -1.002,0.2 -1.299,0.4c-0.296,0.2 -0.438,0.5 -0.425,0.9c0.009,0.2 0.119,0.5 0.328,0.6c0.209,0.2 0.461,0.4 0.756,0.5c0.295,0.1 0.73,0.2 1.305,0.3c0.767,0.2 1.395,0.4 1.883,0.6c0.501,0.2 0.936,0.5 1.304,0.9c0.369,0.3 0.571,0.9 0.607,1.6c0.021,0.5 -0.125,1.1 -0.438,1.6c-0.312,0.4 -0.768,0.8 -1.366,1.1c-0.586,0.3 -1.284,0.5 -2.094,0.5z" fill="#0D0D0D"/>
</g>
</g>
</g>
</g>
<g id="icon.svg (34)">
<path id="Tracé 10513" d="M77.2034,68.5687c-2.079,0.1 -3.709,1.8 -3.637,3.9c0.073,2.1 1.821,3.7 3.9,3.6c2.081,0 3.712,-1.8 3.639,-3.9c-0.073,-2.1 -1.821,-3.7 -3.902,-3.6zM77.3024,71.3687c0.521,0 0.96,0.4 0.978,0.9c0.018,0.5 -0.391,1 -0.912,1c-0.522,0 -0.959,-0.4 -0.977,-0.9c-0.018,-0.5 0.389,-1 0.911,-1z" fill="#0D0D0D"/>
<path id="Tracé 10514" d="M53.9284,77.3687c-0.023,0 -0.102,0.1 -0.169,0.2c-0.184,0.2 -0.43,0.4 -0.72,0.7c-0.007,0 -0.013,0 -0.018,0c-1.155,0.9 -1.793,2.3 -1.747,3.8c0.022,1.2 0.094,3.3 0.149,4.8c0.043,1.3 0.58,2.5 1.492,3.3c0.913,0.9 2.126,1.3 3.372,1.3l39.464,-1.4c1.247,0 2.426,-0.6 3.276,-1.5c0.851,-0.9 1.304,-2.1 1.261,-3.4l-0.171,-4.9c-0.052,-1.4 -0.741,-2.7 -1.875,-3.5c-0.008,-0.1 -0.016,-0.1 -0.024,-0.1c-0.286,-0.2 -0.524,-0.4 -0.707,-0.6c-0.086,-0.1 -0.184,-0.1 -0.186,-0.2c-0.003,-0.2 0.107,-0.3 0.211,-0.4c0.175,-0.2 0.405,-0.4 0.67,-0.7c0.006,0 0.01,0 0.013,0c1.044,-0.9 1.608,-2.3 1.56,-3.6c-0.026,-1.3 -0.099,-3.4 -0.155,-5c-0.043,-1.2 -0.58,-2.4 -1.493,-3.2c-0.912,-0.9 -2.125,-1.3 -3.371,-1.3c-7.486,0.3 -31.979,1.1 -39.465,1.4c-2.595,0.1 -4.626,2.2 -4.536,4.8l0.17,4.9c0.053,1.5 0.771,2.8 1.945,3.6c0.008,0.1 0.013,0.1 0.021,0.1c0.317,0.2 0.588,0.4 0.799,0.6c0.1,0.1 0.212,0.2 0.234,0.3zM96.7994,66.2687c0.056,1.6 0.129,3.7 0.155,4.9v0.1c0.019,0.5 -0.206,1 -0.615,1.4c-1.244,1.1 -1.856,2.2 -1.841,3.2c0.016,1.1 0.654,2.1 2.05,3.1c0.452,0.4 0.723,0.9 0.744,1.4l0.171,4.9c0.017,0.5 -0.164,1 -0.504,1.4c-0.34,0.3 -0.809,0.6 -1.306,0.6l-39.464,1.4c-0.498,0 -0.981,-0.2 -1.345,-0.6c-0.365,-0.3 -0.579,-0.8 -0.596,-1.3c-0.055,-1.5 -0.126,-3.5 -0.15,-4.8c0.002,0 0.001,0 0.001,0c-0.02,-0.6 0.234,-1.1 0.688,-1.5c1.41,-1.1 2.026,-2.2 1.968,-3.3c-0.059,-1 -0.791,-2 -2.228,-3c-0.469,-0.4 -0.753,-0.9 -0.773,-1.5l-0.17,-4.9c-0.036,-1 0.774,-1.9 1.81,-1.9l39.464,-1.4c0.497,0 0.981,0.2 1.345,0.5c0.365,0.4 0.579,0.8 0.596,1.3z" fill="#0D0D0D"/>
<path id="Tracé 10515" d="M62.9774,64.1687l0.894,25.6c0.027,0.8 0.682,1.4 1.461,1.4c0.78,-0.1 1.391,-0.7 1.363,-1.5l-0.893,-25.6c-0.027,-0.8 -0.682,-1.4 -1.462,-1.3c-0.779,0 -1.39,0.6 -1.363,1.4z" fill="#0D0D0D"/>
<path id="Tracé 10516" d="M86.7354,76.5687c-2.081,0.1 -3.712,1.8 -3.639,3.9c0.073,2.1 1.821,3.7 3.902,3.6c2.079,0 3.709,-1.8 3.636,-3.9c-0.072,-2.1 -1.82,-3.7 -3.899,-3.6zM86.8334,79.3687c0.522,0 0.958,0.4 0.977,0.9c0.018,0.5 -0.389,1 -0.911,1c-0.522,0 -0.96,-0.4 -0.978,-0.9c-0.018,-0.5 0.391,-1 0.912,-1z" fill="#0D0D0D"/>
<path id="Tracé 10517" d="M86.3214,69.7687l-10.479,11.2c-0.533,0.6 -0.501,1.5 0.07,2c0.569,0.5 1.465,0.5 1.996,-0.1l10.481,-11.2c0.533,-0.6 0.501,-1.5 -0.07,-2c-0.571,-0.5 -1.465,-0.5 -1.998,0.1z" fill="#0D0D0D"/>
</g>
</g>
</g></svg>