<svg viewBox="0 0 25.8887 25.5284" fill="none" xmlns="http://www.w3.org/2000/svg" xmlns:xlink="http://www.w3.org/1999/xlink" x="0" y="0"><path id="fi-rr-comment-alt-middle" d="M12.953,25.53c-0.513,0 -1.03,-0.18 -1.442,-0.55l-4.043,-3.4h-3.153c-2.38,0 -4.315,-1.94 -4.315,-4.32v-12.95c-0.001,-2.37 1.934,-4.31 4.314,-4.31h17.26c2.376,0 4.316,1.94 4.316,4.31v12.95c0,2.38 -1.94,4.31 -4.316,4.31h-3.077l-4.15,3.44c-0.39,0.34 -0.89,0.52 -1.395,0.52zM4.314,2.16c-1.19,0 -2.158,0.97 -2.158,2.15v12.95c0,1.19 0.968,2.16 2.158,2.16h3.548c0.254,0 0.5,0.09 0.696,0.25l4.365,3.68l4.499,-3.69c0.194,-0.16 0.437,-0.24 0.688,-0.24h3.465c1.19,0 2.155,-0.97 2.155,-2.16v-12.95c0,-1.18 -0.965,-2.15 -2.155,-2.15z" fill="currentColor"/></svg>