<svg viewBox="0 0 92 91" fill="none" xmlns="http://www.w3.org/2000/svg" xmlns:xlink="http://www.w3.org/1999/xlink" id="661a8b5b" x="0" y="0"><g id="Page d'accueil avec promotions" data-node-id="5:7" clip-path="url(#clip0_5_7)"><g id="Groupe 8991" data-node-id="5:457"><g id="Groupe 8990" data-node-id="5:469"><path id="Ellipse 480" data-node-id="5:475" d="M46,2c24.32,0 44,19.5 44,43.5c0,24 -19.68,43.5 -44,43.5c-24.32,0 -44,-19.5 -44,-43.5c0,-24 19.68,-43.5 44,-43.5z" fill="white" stroke="#292929" stroke-width="4"/><path id="nike-6_4" data-node-id="5:479" d="M28.68,36.59c-3.57,4.2 -7,9.41 -7.04,13.3c-0.01,1.46 0.46,2.74 1.58,3.71c1.61,1.39 3.39,1.89 5.16,1.89c2.59,0 5.15,-1.04 7.16,-1.85c3.39,-1.35 40.81,-17.6 40.81,-17.6c0.36,-0.18 0.29,-0.41 -0.16,-0.29c-0.18,0.04 -40.74,11.03 -40.74,11.03c-0.78,0.22 -1.58,0.34 -2.36,0.34c-3.11,0.02 -5.89,-1.71 -5.87,-5.36c0.01,-1.42 0.45,-3.14 1.46,-5.17z" fill="#585858"/></g></g></g><defs><clipPath id="clip0_5_7">
<rect width="1920" height="13765" fill="white" x="-1064" y="-3050"/>
</clipPath></defs></svg>