<svg viewBox="0 0 92 91" fill="none" xmlns="http://www.w3.org/2000/svg" xmlns:xlink="http://www.w3.org/1999/xlink" id="6a052041" x="0" y="0"><g id="Page d'accueil avec promotions" data-node-id="5:7" clip-path="url(#clip0_5_7)"><g id="Groupe 8991" data-node-id="5:457"><g id="Groupe 8503" data-node-id="5:508"><path id="Ellipse 480_4" data-node-id="5:514" d="M46,2c24.321,0 44,19.5 44,43.5c0,24 -19.679,43.5 -44,43.5c-24.321,0 -44,-19.5 -44,-43.5c0,-24 19.679,-43.5 44,-43.5z" fill="white" stroke="#292929" stroke-width="4"/><path id="Tracé 10506" data-node-id="5:515" d="M74.263,49.5c0,-0.08 -0.036,-0.16 -0.107,-0.2c-0.071,-0.05 -0.151,-0.05 -0.231,-0.05h-0.414v0.95h0.115v-0.44h0.214l0.271,0.44h0.139l-0.288,-0.44c0.17,0 0.301,-0.07 0.301,-0.26zM73.804,49.67h-0.178v-0.34h0.271c0.118,0 0.248,0.02 0.248,0.17c0,0.19 -0.207,0.17 -0.341,0.17zM68.844,44.91l1.738,-1.86c0.1,-0.13 0.15,-0.23 0.15,-0.31c0,-0.14 -0.117,-0.19 -0.485,-0.19h-0.439v-1.17h4.747v1.17h-0.624c-0.72,0 -0.854,0.11 -1.859,1.37l-2.749,2.97v1.82c0,0.46 0.234,0.62 0.904,0.62h1.038v1.13h-6.648v-1.13h1.038c0.669,0 0.904,-0.16 0.904,-0.62v-1.82l-3.238,-3.58c-0.535,-0.63 -0.461,-0.76 -1.951,-0.76v-1.17h6.012v1.17h-0.428c-0.436,0 -0.62,0.08 -0.62,0.24c0,0.14 0.133,0.25 0.217,0.36l1.639,1.78c0.194,0.21 0.432,0.23 0.654,-0.02zM28.505,41.38h1.45v3.27h-1.339c-0.119,-0.66 -0.528,-0.91 -0.901,-1.26c-0.672,-0.61 -2.13,-1.13 -3.355,-1.13c-1.582,0 -2.917,0.49 -2.917,1.21c0,2.01 9.046,0.41 9.046,4.2c0,1.97 -1.937,3.08 -5.417,3.08c-1.205,0 -3.028,-0.38 -4.103,-0.95c-0.338,-0.19 -0.481,0.19 -0.544,0.66h-1.487v-3.38h1.345c0.297,0.86 0.706,1.04 1.082,1.38c0.652,0.6 2.204,1.04 3.628,1.02c2.147,-0.02 2.885,-0.49 2.885,-1.17c0,-0.68 -0.73,-0.85 -3.083,-1.21l-1.997,-0.33c-2.254,-0.34 -3.895,-0.84 -3.895,-2.64c0,-1.87 2.076,-3.04 5.359,-3.04c1.383,0 2.54,0.19 3.651,0.81c0.307,0.2 0.596,0.23 0.592,-0.52zM56.808,46.85l0.029,-3.63c0,-0.48 -0.248,-0.64 -0.957,-0.64h-0.832v-1.13h5.297v1.13h-0.69c-0.71,0 -0.958,0.16 -0.958,0.64v7.31l-2.073,-0.02l-6.714,-6.35v4.61c0,0.47 0.248,0.64 0.956,0.64h0.922v1.12h-5.502v-1.12h0.912c0.709,0 0.957,-0.17 0.957,-0.64v-5.55c0,-0.48 -0.248,-0.64 -0.957,-0.64h-0.912v-1.13h4.757zM39.064,41.02c-4.222,0 -6.864,1.87 -6.864,4.86c0,2.95 2.606,4.8 6.735,4.8c4.387,0 6.938,-1.83 6.938,-4.95c0.001,-2.8 -2.753,-4.71 -6.809,-4.71zM38.968,49.49c-2.337,0 -3.68,-1.34 -3.68,-3.67c0,-2.28 1.402,-3.63 3.797,-3.63c2.298,0 3.641,1.38 3.641,3.72c0,2.29 -1.363,3.58 -3.758,3.58z" fill="#0B0C0C"/></g></g></g><defs><clipPath id="clip0_5_7">
<rect width="1920" height="13765" fill="white" x="-580" y="-3050"/>
</clipPath></defs></svg>