<svg viewBox="0 0 91 91" fill="none" xmlns="http://www.w3.org/2000/svg" xmlns:xlink="http://www.w3.org/1999/xlink" id="1acf85c2" x="0" y="0"><g id="Page d'accueil avec promotions" data-node-id="5:7" clip-path="url(#clip0_5_7)"><g id="Groupe 8991" data-node-id="5:457"><g id="Groupe 8989" data-node-id="5:496"><circle id="Ellipse 480_3" data-node-id="5:503" cx="45.5" cy="45.5" r="43.5" fill="white" stroke="#292929" stroke-width="4"/><path id="adidas-svgrepo-com_2" data-node-id="5:504" d="M44.82,54.23c0,-1.16 0.93,-2.08 2.08,-2.08c1.16,0 2.09,0.92 2.09,2.08c0,0.55 -0.22,1.08 -0.61,1.48c-0.39,0.39 -0.92,0.61 -1.48,0.6c-0.55,0.01 -1.08,-0.21 -1.47,-0.6c-0.39,-0.39 -0.61,-0.92 -0.61,-1.48zM53.3,54.23c0,-1.16 0.93,-2.08 2.09,-2.08c1.15,0 2.08,0.92 2.08,2.08c0,1.16 -0.93,2.08 -2.08,2.08c-0.56,0.01 -1.09,-0.21 -1.48,-0.6c-0.39,-0.39 -0.61,-0.92 -0.61,-1.48zM33.64,54.23c0,-1.16 0.93,-2.08 2.08,-2.08c1.16,0 2.09,0.92 2.09,2.08c0,1.16 -0.93,2.08 -2.09,2.08c-0.55,0.01 -1.08,-0.21 -1.47,-0.6c-0.39,-0.39 -0.61,-0.92 -0.61,-1.48zM25.16,54.23c0,-1.16 0.93,-2.08 2.08,-2.08c1.16,0 2.09,0.92 2.09,2.08c0,0.55 -0.22,1.09 -0.61,1.48c-0.39,0.39 -0.92,0.61 -1.48,0.6c-0.55,0.01 -1.08,-0.21 -1.47,-0.6c-0.39,-0.39 -0.61,-0.93 -0.61,-1.48zM42.31,50.55h-1.82v7.29h1.82zM29.31,57.84h1.82v-7.29h-1.82v0.58c-0.63,-0.44 -1.38,-0.67 -2.15,-0.67c-2.09,0 -3.77,1.69 -3.77,3.77c0,2.1 1.68,3.77 3.77,3.77c0.8,0 1.54,-0.24 2.15,-0.67zM57.46,57.84h1.81v-7.29h-1.81v0.58c-0.64,-0.44 -1.39,-0.67 -2.16,-0.67c-2.09,0 -3.77,1.69 -3.77,3.77c0,1 0.39,1.96 1.1,2.67c0.71,0.71 1.67,1.1 2.67,1.1c0.8,0 1.54,-0.24 2.16,-0.67zM59.94,55.47c0.06,1.48 1.32,2.52 3.41,2.52c1.72,0 3.13,-0.75 3.13,-2.39c0,-1.14 -0.64,-1.81 -2.13,-2.1l-1.15,-0.22c-0.75,-0.15 -1.26,-0.29 -1.26,-0.73c0,-0.49 0.5,-0.7 1.13,-0.7c0.91,0 1.28,0.45 1.31,1h1.83c-0.1,-1.43 -1.24,-2.39 -3.09,-2.39c-1.89,0 -3.02,1.04 -3.02,2.4c0,1.66 1.34,1.93 2.5,2.14l0.95,0.17c0.69,0.13 0.99,0.33 0.99,0.73c0,0.36 -0.34,0.71 -1.16,0.71c-1.18,0 -1.57,-0.61 -1.58,-1.14h-1.86zM37.79,48.06v3.07c-0.63,-0.44 -1.38,-0.67 -2.15,-0.67c-2.09,0 -3.77,1.69 -3.77,3.77c0,2.1 1.68,3.77 3.77,3.77c0.8,0 1.54,-0.24 2.15,-0.67v0.51h1.82v-9.78zM48.97,48.06v3.07c-0.63,-0.44 -1.38,-0.67 -2.15,-0.67c-2.09,0 -3.77,1.69 -3.77,3.77c-0.01,1 0.39,1.96 1.1,2.67c0.71,0.71 1.67,1.1 2.67,1.1c0.8,0 1.54,-0.24 2.15,-0.67v0.51h1.82v-9.78zM28.1,45.91l1.23,2.15h8.46l-3.35,-5.8l-6.34,3.65zM42.31,49.88v-1.82h6.66l-7.11,-12.31l-6.35,3.65l4.98,8.66v1.82zM51.67,48.06h8.48l-10.96,-18.98l-6.34,3.66z" fill="#1A1A1A"/></g></g></g><defs><clipPath id="clip0_5_7">
<rect width="1920" height="13765" fill="white" x="-1549" y="-3050"/>
</clipPath></defs></svg>