<svg viewBox="0 0 79 18" fill="none" xmlns="http://www.w3.org/2000/svg" xmlns:xlink="http://www.w3.org/1999/xlink" x="0" y="0"><g id="Groupe 8973">
<path id="Rectangle 2098" d="M0,9c0,-4.97 4.029,-9 9,-9h9c4.971,0 9,4.03 9,9c0,4.97 -4.029,9 -9,9h-9c-4.971,0 -9,-4.03 -9,-9z" fill="#0D0D0D"/>
<path id="Rectangle 2099" d="M35,9c0,-4.97 4.029,-9 9,-9c4.971,0 9,4.03 9,9c0,4.97 -4.029,9 -9,9c-4.971,0 -9,-4.03 -9,-9z" fill="#E1E1E1"/>
<path id="Rectangle 2100" d="M61,9c0,-4.97 4.029,-9 9,-9c4.971,0 9,4.03 9,9c0,4.97 -4.029,9 -9,9c-4.971,0 -9,-4.03 -9,-9z" fill="#E1E1E1"/>
</g></svg>