<svg viewBox="0 0 29.8593 25.0213" fill="none" xmlns="http://www.w3.org/2000/svg" xmlns:xlink="http://www.w3.org/1999/xlink" x="0" y="0"><g id="fi-sr-envelope">
<path id="Tracé 9547" d="M29.7975,5.168l-10.47,9.6c-2.43,2.2 -6.37,2.2 -8.8,0l-10.47,-9.6c-0.02,0.2 -0.06,0.3 -0.06,0.5v13.7c0.01,3.1 2.79,5.6 6.22,5.7h17.42c3.43,-0.1 6.22,-2.6 6.22,-5.7v-13.7c0,-0.2 -0.04,-0.3 -0.06,-0.5z" fill="currentColor"/>
<path id="Tracé 9548" d="M17.5675,13.168l11.37,-10.4c-1.12,-1.7 -3.13,-2.8 -5.3,-2.8h-17.42c-2.16,0 -4.17,1.1 -5.29,2.8l11.36,10.4c1.46,1.3 3.82,1.3 5.28,0z" fill="currentColor"/>
</g></svg>