<svg viewBox="0 0 284 102" fill="none" xmlns="http://www.w3.org/2000/svg" xmlns:xlink="http://www.w3.org/1999/xlink" id="9259fb79" x="0" y="0"><g id="Page d'accueil avec promotions" data-node-id="5:7" clip-path="url(#clip0_5_7)"><g id="Groupe 8925" data-node-id="5:1262"><g id="Groupe 8636" data-node-id="5:1263"><g id="Groupe 8577" data-node-id="5:1264"><g id="Groupe 8572" data-node-id="5:1266"><g id="Groupe 8564" data-node-id="5:1267"><g id="Groupe 8563" data-node-id="5:1268"><g id="Groupe 8560" data-node-id="5:1284">
<path id="Rectangle 2001" data-node-id="5:1285" d="M0.5,5.5c0,-2.8 2.238,-5 5,-5h66c2.761,0 5,2.2 5,5v32c0,2.8 -2.239,5 -5,5h-66c-2.762,0 -5,-2.2 -5,-5z" fill="currentColor"/>
<path id="Rectangle 2008" data-node-id="5:1286" d="M206.5,5.5c0,-2.8 2.239,-5 5,-5h67c2.761,0 5,2.2 5,5v1c0,2.8 -2.239,5 -5,5h-67c-2.761,0 -5,-2.2 -5,-5z" fill="currentColor"/>
<path id="Rectangle 2009" data-node-id="5:1287" d="M206.5,22.5c0,-2.8 2.239,-5 5,-5h67c2.761,0 5,2.2 5,5v74c0,2.8 -2.239,5 -5,5h-67c-2.761,0 -5,-2.2 -5,-5z" fill="currentColor"/>
<path id="Rectangle 2002" data-node-id="5:1288" d="M84.5,5.5c0,-2.8 2.239,-5 5,-5h92c2.761,0 5,2.2 5,5v1c0,2.8 -2.239,5 -5,5h-92c-2.761,0 -5,-2.2 -5,-5z" fill="currentColor"/>
<path id="Rectangle 2006" data-node-id="5:1289" d="M84.5,22.5c0,-2.8 2.239,-5 5,-5h65c2.761,0 5,2.2 5,5c0,2.8 -2.239,5 -5,5h-65c-2.761,0 -5,-2.2 -5,-5z" fill="currentColor"/>
<path id="Rectangle 2007" data-node-id="5:1290" d="M84.5,38c0,-2.5 2.015,-4.5 4.5,-4.5h83c2.485,0 4.5,2 4.5,4.5c0,2.5 -2.015,4.5 -4.5,4.5h-83c-2.485,0 -4.5,-2 -4.5,-4.5z" fill="currentColor"/>
</g><g id="Groupe 8561" data-node-id="5:1291">
<path id="Rectangle 2001_2" data-node-id="5:1292" d="M0.5,64.5c0,-2.8 2.238,-5 5,-5h66c2.761,0 5,2.2 5,5v32c0,2.8 -2.239,5 -5,5h-66c-2.762,0 -5,-2.2 -5,-5z" fill="currentColor"/>
<path id="Rectangle 2002_2" data-node-id="5:1293" d="M84.5,64c0,-2.5 2.015,-4.5 4.5,-4.5h93c2.485,0 4.5,2 4.5,4.5c0,2.5 -2.015,4.5 -4.5,4.5h-93c-2.485,0 -4.5,-2 -4.5,-4.5z" fill="currentColor"/>
<path id="Rectangle 2006_2" data-node-id="5:1294" d="M84.5,80.5c0,-2.8 2.239,-5 5,-5h65c2.761,0 5,2.2 5,5c0,2.8 -2.239,5 -5,5h-65c-2.761,0 -5,-2.2 -5,-5z" fill="currentColor"/>
<path id="Rectangle 2007_2" data-node-id="5:1295" d="M84.5,97c0,-2.5 2.015,-4.5 4.5,-4.5h83c2.485,0 4.5,2 4.5,4.5c0,2.5 -2.015,4.5 -4.5,4.5h-83c-2.485,0 -4.5,-2 -4.5,-4.5z" fill="currentColor"/>
</g></g></g></g></g></g></g></g><defs><clipPath id="clip0_5_7">
<rect width="1920" height="13765" fill="white" x="-220.5" y="-12136.5"/>
</clipPath></defs></svg>