<svg viewBox="0 0 31.2361 17.7605" fill="none" xmlns="http://www.w3.org/2000/svg" xmlns:xlink="http://www.w3.org/1999/xlink" x="0" y="0"><g id="Groupe 8559">
<g id="Groupe 5">
<path id="Trac횄짤 20" d="M6.653,1.4764c-0.613,-0.3 -1.3,-0.4 -2.063,-0.4c-0.874,0 -1.659,0.2 -2.355,0.6c-0.695,0.3 -1.242,0.8 -1.639,1.5c-0.398,0.7 -0.596,1.4 -0.596,2.2c0,0.9 0.198,1.6 0.596,2.3c0.397,0.6 0.944,1.2 1.639,1.5c0.696,0.4 1.481,0.6 2.355,0.6c0.29,0 0.568,0 0.836,-0.1l-0.705,-1.9h-0.012c-0.453,0 -0.856,-0.1 -1.21,-0.3c-0.353,-0.2 -0.628,-0.5 -0.823,-0.8c-0.195,-0.4 -0.292,-0.8 -0.292,-1.3c0,-0.4 0.097,-0.8 0.292,-1.2c0.195,-0.4 0.47,-0.7 0.823,-0.9c0.354,-0.1 0.757,-0.2 1.21,-0.2c0.771,0 1.427,0.3 1.968,0.9l1.501,-1.3c-0.404,-0.5 -0.913,-0.9 -1.525,-1.2z" fill="#0B0C0C"/>
<path id="Trac횄짤 21" d="M9.121,0.7764v5.4l2.264,0.8v-6.2z" fill="#0B0C0C"/>
<path id="Trac횄짤 22" d="M14.986,0.3764c-0.254,-0.3 -0.589,-0.4 -1.002,-0.4c-0.413,0 -0.747,0.1 -1.001,0.4c-0.254,0.2 -0.382,0.5 -0.382,0.8c0,0.4 0.128,0.7 0.382,0.9c0.254,0.2 0.588,0.3 1.001,0.3c0.413,0 0.748,-0.1 1.002,-0.3c0.254,-0.3 0.381,-0.6 0.381,-0.9c0,-0.3 -0.127,-0.6 -0.381,-0.8zM12.852,3.0764v4.5l2.191,0.8c0.026,0 0.051,0 0.074,0v-5.3z" fill="#0B0C0C"/>
<path id="Trac횄짤 23" d="M19.874,7.8764c-0.405,0 -0.741,-0.1 -1.008,-0.4c-0.266,-0.3 -0.399,-0.6 -0.399,-1.1c0,-0.5 0.133,-0.9 0.399,-1.2c0.267,-0.2 0.603,-0.4 1.008,-0.4c0.564,0 0.994,0.3 1.288,0.9l1.752,-0.9c-0.223,-0.5 -0.6,-1 -1.133,-1.3c-0.532,-0.3 -1.164,-0.5 -1.896,-0.5c-0.715,0 -1.354,0.2 -1.918,0.5c-0.565,0.2 -1.004,0.6 -1.318,1.1c-0.314,0.5 -0.471,1.1 -0.471,1.8c0,0.6 0.157,1.2 0.471,1.7c0.314,0.5 0.753,0.9 1.318,1.2c0.564,0.3 1.203,0.4 1.918,0.4c0.732,0 1.364,-0.1 1.896,-0.5c0.533,-0.3 0.91,-0.7 1.133,-1.3l-1.752,-0.9c-0.294,0.6 -0.724,0.9 -1.288,0.9z" fill="#0B0C0C"/>
<path id="Trac횄짤 24" d="M28.326,5.8764l2.683,-2.8h-2.683l-2.312,2.3v-4.6h-2.265v8.8h2.265v-1.6l0.668,-0.7l1.812,2.3h2.742z" fill="#0B0C0C"/>
</g>
<path id="Trac횄짤 25" d="M16.857,9.9764l-10.536,-3.9c-0.128,0 -0.267,0 -0.394,0c-0.304,0.1 -0.462,0.5 -0.354,0.8l3.915,10.5c0.063,0.2 0.197,0.3 0.365,0.4c0.306,0.1 0.635,-0.1 0.734,-0.4l1.444,-4.6c0.026,-0.1 0.089,-0.2 0.17,-0.2l4.627,-1.5c0.167,0 0.301,-0.1 0.365,-0.3c0.115,-0.3 -0.035,-0.6 -0.336,-0.8zM11.76,11.1764h-1.111v1.1h-1.012v-1.1h-1.117v-1h1.117v-1.1h1.012v1.1h1.111z" fill="#FFAA00"/>
</g></svg>