<svg viewBox="0 0 866.5581 602.2369" fill="none" xmlns="http://www.w3.org/2000/svg" xmlns:xlink="http://www.w3.org/1999/xlink" x="0" y="0"><g id="True friends-pana">
<g id="freepik--Characters--inject-67">
<path id="Trac횄짤 10214" d="M282.2881,237.62l-10.9,-0.26c2.84,19.72 5.68,39.44 8.52,59.16c82.41,1.66 164.44,-41.02 210.23,-109.58z" fill="#EB996E"/>
<path id="Trac횄짤 10215" d="M201.2881,247.68c4.55,0 87.03,-15.16 87.03,-15.16l15.59,74.66l-78.94,52.64z" fill="#4A4A4A"/>
<g id="freepik--shopping-bags--inject-119">
<g id="freepik--shopping-bags--inject-119_2">
<g id="freepik--Bag--inject-119">
<path id="Trac횄짤 8875" d="M570.0981,187.84l-11.61,-10.86l-20.95,146.53l13.36,-7.46l10.89,1.53l20.95,-146.53zM559.5781,292.42c-0.36,2.31 -1.94,2.98 -3.54,1.49c-1.72,-1.87 -2.55,-4.4 -2.27,-6.93c0.36,-2.31 1.91,-3 3.57,-1.54c1.73,1.89 2.54,4.44 2.24,6.98zM569.6581,223.9c-0.37,2.32 -1.95,3 -3.57,1.54c-1.73,-1.87 -2.55,-4.4 -2.28,-6.93c0.37,-2.32 1.93,-3.02 3.57,-1.54c1.73,1.87 2.56,4.4 2.27,6.93z" fill="#263238"/>
<path id="Trac횄짤 8876" d="M570.0981,187.84l12.65,-16.79l-4.77,33.38l-19.49,-27.45z" fill="#37474F"/>
<path id="Trac횄짤 8877" opacity="0.15" d="M570.0981,187.84l9.07,8.18l-1.19,8.41l-19.49,-27.45z" fill="black"/>
<path id="Trac횄짤 8878" d="M561.8181,317.55l118.85,143.13l24.72,-174.07l-122.6,-115.57zM581.9381,286.26c-0.32,2.25 -2.04,2.9 -3.81,1.51c-1.88,-1.63 -2.87,-4.07 -2.65,-6.56c0.3,-2.24 2.01,-2.91 3.81,-1.51c1.86,1.65 2.81,4.09 2.58,6.56zM591.4481,218.03c-0.31,2.24 -2.04,2.9 -3.82,1.52c-1.88,-1.64 -2.86,-4.08 -2.64,-6.57c0.3,-2.23 2.01,-2.91 3.81,-1.51c1.88,1.63 2.86,4.07 2.65,6.56z" fill="#455A64"/>
<path id="Trac횄짤 8879" d="M561.7881,317.58l118.86,143.08l-66.62,18.13l-76.49,-155.28l13.36,-7.46z" fill="#37474F"/>
<path id="Trac횄짤 8880" opacity="0.15" d="M561.7881,317.58l118.86,143.08l-66.62,18.13l-76.49,-155.28l13.36,-7.46z" fill="black"/>
<path id="Trac횄짤 8881" d="M614.0281,478.79l21.25,-32.06l45.37,13.93z" fill="#263238"/>
<path id="Trac횄짤 8882" d="M635.2781,446.73l-84.37,-130.68l10.88,1.53l118.86,143.08z" fill="#37474F"/>
</g>
<g id="freepik--bag--inject-119">
<path id="Trac횄짤 8883" d="M592.5581,173.45l-6.36,-4.97l-20.66,146.93l17.19,-15.68l6.75,3.18l178.58,142.57l20.65,-146.93l-178.55,-142.63zM593.1081,280.68c-0.31,2.24 -2.04,2.9 -3.82,1.51c-1.88,-1.64 -2.86,-4.08 -2.64,-6.56c0.31,-2.24 2.02,-2.92 3.81,-1.51c1.88,1.62 2.88,4.04 2.69,6.51zM602.5981,212.18c-0.31,2.24 -2.03,2.9 -3.82,1.5c-1.88,-1.64 -2.86,-4.07 -2.65,-6.56c0.31,-2.24 2.02,-2.9 3.82,-1.5c1.88,1.62 2.88,4.04 2.68,6.51z" fill="#FFC100"/>
<path id="Trac횄짤 8884" opacity="0.3" d="M592.5581,173.45l-6.36,-4.97l-20.66,146.93l17.19,-15.68l6.75,3.18l178.58,142.57l20.65,-146.93l-178.55,-142.63zM593.1081,280.68c-0.31,2.24 -2.04,2.9 -3.82,1.51c-1.88,-1.64 -2.86,-4.08 -2.64,-6.56c0.31,-2.24 2.02,-2.92 3.81,-1.51c1.88,1.62 2.88,4.04 2.69,6.51zM602.5981,212.18c-0.31,2.24 -2.03,2.9 -3.82,1.5c-1.88,-1.64 -2.86,-4.07 -2.65,-6.56c0.31,-2.24 2.02,-2.9 3.82,-1.5c1.88,1.62 2.88,4.04 2.68,6.51z" fill="black"/>
<path id="Trac횄짤 8885" d="M589.4681,302.9l178.59,142.58l20.65,-146.94l-178.55,-142.63zM613.1681,276.27c-0.3,2.23 -2.04,2.9 -3.81,1.51c-1.88,-1.64 -2.86,-4.08 -2.65,-6.56c0.3,-2.24 2.03,-2.91 3.81,-1.52c1.89,1.64 2.87,4.08 2.65,6.57zM622.6481,207.77c-0.31,2.24 -2.03,2.9 -3.81,1.51c-1.88,-1.64 -2.87,-4.08 -2.66,-6.56c0.32,-2.25 2.03,-2.91 3.82,-1.51c1.89,1.63 2.88,4.07 2.65,6.56z" fill="#FFC100"/>
<path id="Trac횄짤 8886" d="M695.1181,471.44l17.75,-32.78l55.14,6.86z" fill="#FFC100"/>
<path id="Trac횄짤 8887" opacity="0.3" d="M695.1181,471.44l17.75,-32.78l55.14,6.86z" fill="black"/>
<path id="Trac횄짤 8888" d="M712.8781,438.67l-130.16,-138.95l6.75,3.18l178.54,142.62z" fill="#FFC100"/>
<path id="Trac횄짤 8889" opacity="0.1" d="M712.8781,438.67l-130.16,-138.95l6.75,3.18l178.54,142.62z" fill="black"/>
<path id="Trac횄짤 8890" d="M565.5481,315.41l17.17,-15.69l130.15,138.95l-17.75,32.77z" fill="#FFC100"/>
<path id="Trac횄짤 8891" opacity="0.2" d="M565.5481,315.41l17.17,-15.69l130.15,138.95l-17.75,32.77z" fill="black"/>
<path id="Trac횄짤 8892" opacity="0.5" d="M586.1881,168.47l18.69,24.83l5.25,-37.32l-17.58,17.47z" fill="#FFC100"/>
<path id="Trac횄짤 8893" opacity="0.5" d="M592.5481,173.45l13.62,10.64l3.96,-28.11z" fill="#FFC100"/>
</g>
<g id="freepik--bag--inject-119_2">
<path id="Trac횄짤 8894" d="M829.3281,242.1l-194.45,-94.57l-9.06,9.38l-12.14,-0.8l152.33,111.57z" fill="#FFC100"/>
<path id="Trac횄짤 8895" opacity="0.4" d="M829.3281,242.1l-194.45,-94.57l-9.06,9.38l-12.14,-0.8l152.33,111.57z" fill="white"/>
<path id="Trac횄짤 8896" opacity="0.2" d="M625.8181,156.91l6.93,5.76l-1.27,9.01l-17.79,-15.56z" fill="#FFC100"/>
<path id="Trac횄짤 8897" d="M593.7781,297.78l152.32,111.55l19.9,-141.64l-152.31,-111.56zM619.6881,271.11c-0.3,2.24 -2.03,2.9 -3.81,1.5c-1.88,-1.64 -2.87,-4.07 -2.66,-6.56c0.31,-2.24 2.04,-2.91 3.83,-1.51c1.88,1.63 2.87,4.07 2.65,6.56zM629.1781,202.61c-0.31,2.24 -2.03,2.9 -3.82,1.51c-1.87,-1.64 -2.86,-4.08 -2.64,-6.56c0.31,-2.24 2.02,-2.92 3.81,-1.51c1.88,1.63 2.87,4.07 2.66,6.55z" fill="#FFC100"/>
<path id="Trac횄짤 8898" opacity="0.2" d="M593.7781,297.78l152.32,111.55l19.9,-141.64l-152.31,-111.56zM619.6881,271.11c-0.3,2.24 -2.03,2.9 -3.81,1.5c-1.88,-1.64 -2.87,-4.07 -2.66,-6.56c0.31,-2.24 2.04,-2.91 3.83,-1.51c1.88,1.63 2.87,4.07 2.65,6.56zM629.1781,202.61c-0.31,2.24 -2.03,2.9 -3.82,1.51c-1.87,-1.64 -2.86,-4.08 -2.64,-6.56c0.31,-2.24 2.02,-2.92 3.81,-1.51c1.88,1.63 2.87,4.07 2.66,6.55z" fill="white"/>
<path id="Trac횄짤 8899" d="M593.7781,297.76l10.04,-10.16l11.15,1.58l194.45,94.57l-63.32,25.59z" fill="#FFC100"/>
<path id="Trac횄짤 8900" opacity="0.55" d="M593.7781,297.76l10.04,-10.16l11.15,1.58l194.45,94.57l-63.32,25.59z" fill="white"/>
<path id="Trac횄짤 8901" opacity="0.2" d="M756.5081,379.95l-152.69,-92.35l-10.04,10.16l152.32,111.58z" fill="#FFC100"/>
<path id="Trac횄짤 8902" opacity="0.4" d="M809.4181,383.75l-52.91,-3.8l-10.41,29.39z" fill="#FFC100"/>
<path id="Trac횄짤 8903" d="M634.8781,147.53l-19.91,141.65l194.45,94.57l19.91,-141.65zM643.1381,260.59c-0.05,0.9 -0.57,1.7 -1.38,2.09c-0.81,0.39 -1.76,0.3 -2.49,-0.22c-1.93,-1.16 -3.04,-3.32 -2.87,-5.56c0.27,-2.05 2.02,-2.88 3.89,-1.85c1.93,1.16 3.03,3.3 2.85,5.54zM653.0581,191.37c-0.22,1.94 -2.01,2.85 -3.99,2.02c-2,-0.87 -3.26,-2.87 -3.19,-5.05c0.22,-1.95 2,-2.87 4,-2.03c2,0.87 3.27,2.88 3.18,5.06z" fill="#FFC100"/>
<path id="Trac횄짤 8904" opacity="0.7" d="M634.8781,147.53l-19.91,141.65l194.45,94.57l19.91,-141.65zM643.1381,260.59c-0.05,0.9 -0.57,1.7 -1.38,2.09c-0.81,0.39 -1.76,0.3 -2.49,-0.22c-1.93,-1.16 -3.04,-3.32 -2.87,-5.56c0.27,-2.05 2.02,-2.88 3.89,-1.85c1.93,1.16 3.03,3.3 2.85,5.54zM653.0581,191.37c-0.22,1.94 -2.01,2.85 -3.99,2.02c-2,-0.87 -3.26,-2.87 -3.19,-5.05c0.22,-1.95 2,-2.87 4,-2.03c2,0.87 3.27,2.88 3.18,5.06z" fill="white"/>
</g>
<g id="freepik--Cord--inject-119">
<path id="Trac횄짤 8911" d="M640.7981,259.56c-0.3,0.38 -0.8,0.53 -1.26,0.37l-69.01,-23.33c-17.93,-6.07 -29.02,-24.04 -26.4,-42.8c1.35,-9.53 6.86,-17.97 15.05,-23.02c8.19,-5.05 18.21,-6.2 27.33,-3.12l63.43,21.43c0.59,0.2 0.91,0.84 0.71,1.44c-0.2,0.59 -0.85,0.91 -1.44,0.71l-63.43,-21.43c-8.48,-2.85 -17.79,-1.79 -25.4,2.91c-7.62,4.7 -12.75,12.54 -14,21.4c-2.46,17.67 7.98,34.6 24.88,40.33l69.01,23.32c0.29,0.1 0.53,0.31 0.66,0.58c0.14,0.27 0.15,0.59 0.05,0.88c-0.04,0.12 -0.1,0.23 -0.18,0.33z" fill="#F0F0F0"/>
<path id="Trac횄짤 8912" d="M616.2581,268.47c-0.34,0.45 -0.97,0.58 -1.46,0.3l-46.24,-26.02c-17.68,-9.84 -27.45,-29.58 -24.56,-49.61c1.21,-8.55 6.56,-15.96 14.3,-19.79c7.74,-3.84 16.87,-3.6 24.4,0.63l41.79,23.51c0.56,0.31 0.75,1.02 0.44,1.57c-0.31,0.55 -1.02,0.75 -1.57,0.43l-41.78,-23.52c-6.88,-3.85 -15.22,-4.07 -22.28,-0.57c-7.06,3.5 -11.94,10.26 -13.04,18.07c-2.76,19.08 6.55,37.89 23.38,47.28l46.24,26.02c0.26,0.15 0.46,0.4 0.54,0.69c0.08,0.29 0.04,0.6 -0.11,0.86z" fill="#E0E0E0"/>
<path id="Trac횄짤 8913" d="M608.0081,196.55l-0.35,2.52l-27.24,-18.7c-6.16,-4.19 -14.05,-4.92 -20.88,-1.91c-6.82,3 -11.61,9.31 -12.67,16.69c-2.8,19.41 5.7,38.72 21.9,49.76l29.57,20.35l-0.35,2.53l-30.56,-20.99c-16.92,-11.54 -25.8,-31.71 -22.89,-51.98c1.17,-8.17 6.47,-15.14 14.02,-18.47c7.55,-3.32 16.27,-2.51 23.08,2.14z" fill="#F0F0F0"/>
<path id="Trac횄짤 8914" d="M589.2981,277.9l-0.11,0.15c-0.47,0.42 -1.19,0.39 -1.61,-0.08l-23.34,-25.69c-14.53,-15.96 -21.18,-37.56 -18.14,-58.92c0.96,-6.9 5.82,-12.62 12.48,-14.67c6.65,-2.06 13.89,-0.08 18.58,5.08l21.72,23.91c0.43,0.47 0.4,1.2 -0.07,1.63c-0.47,0.43 -1.2,0.4 -1.63,-0.06l-21.75,-23.94c-4.08,-4.5 -10.4,-6.23 -16.21,-4.44c-5.81,1.79 -10.06,6.77 -10.91,12.79c-2.91,20.69 3.54,41.6 17.6,57.05l23.34,25.69c0.39,0.42 0.42,1.06 0.05,1.5z" fill="#E0E0E0"/>
<path id="Trac횄짤 8915" d="M561.7781,177.63l19.44,26.29l-0.46,3.22l-20.82,-28.16c-1.85,-2.52 -5.05,-3.66 -8.08,-2.89c-3.04,0.77 -5.3,3.3 -5.74,6.4c-4.27,30 3.47,60.47 21.55,84.79l3.94,5.33l-0.51,3.21l-5.31,-7.18c-18.42,-24.79 -26.31,-55.85 -21.95,-86.43c0.56,-4.01 3.49,-7.29 7.42,-8.29c3.93,-0.99 8.08,0.49 10.48,3.75z" fill="#F0F0F0"/>
<path id="Trac횄짤 8916" d="M557.5481,290.38c-0.14,0.17 -0.32,0.3 -0.52,0.37c-0.6,0.21 -1.24,-0.1 -1.45,-0.69l-3.86,-11.15c-11,-31.79 -14.32,-65.73 -9.67,-99.04c0.37,-2.55 2.43,-4.52 4.99,-4.77c2.56,-0.26 4.97,1.28 5.82,3.71l14.53,41.81c0.17,0.58 -0.15,1.19 -0.72,1.39c-0.57,0.2 -1.2,-0.08 -1.43,-0.64l-14.52,-41.82c-0.51,-1.44 -1.93,-2.35 -3.46,-2.2c-1.52,0.15 -2.74,1.32 -2.96,2.83c-4.59,32.95 -1.31,66.52 9.57,97.97l3.83,11.14c0.14,0.36 0.08,0.78 -0.15,1.09z" fill="#E0E0E0"/>
</g>
</g>
<path id="freepik--Logo--inject-119" d="M729.0481,216.95c-17.98,-8.84 -34.99,-5.79 -44.27,6.1c-3.73,4.95 -6.09,10.8 -6.84,16.95c-3.49,24.88 13.72,54.88 38.47,67c17.99,8.83 35,5.78 44.28,-6.1c3.74,-4.95 6.09,-10.8 6.84,-16.95c3.46,-24.85 -13.75,-54.85 -38.48,-67zM752.9281,249.09c6.51,11.35 9.28,23.41 7.8,33.94c-0.57,4.97 -2.45,9.7 -5.45,13.7c-7.59,9.71 -21.35,11.32 -35.88,4.18c-10.75,-5.29 -20.3,-14.52 -26.9,-26.01c-6.6,-11.49 -9.28,-23.41 -7.8,-33.95c0.58,-4.97 2.47,-9.69 5.47,-13.7c7.59,-9.71 21.33,-11.31 35.87,-4.16c10.75,5.28 20.29,14.51 26.89,26zM702.1281,251.88c-1.61,11.44 6.28,25.21 17.68,30.83c11.4,5.62 21.89,0.84 23.5,-10.6c1.61,-11.44 -6.27,-25.22 -17.68,-30.83c-11.41,-5.6 -21.9,-0.84 -23.5,10.6z" fill="white"/>
</g>
<path id="Trac횄짤 10217" d="M349.9581,244.56c0,0 -62.17,9.78 -80.33,34.23c-18.16,24.45 -35.63,30.03 -27.24,89.41c0,0 75.44,25.85 75.44,27.94c0,2.1 14.97,205.66 14.97,205.66h207.4l-14.96,-242.68l69.12,-47c0,0 -29.01,-104.14 -91.99,-98.95c-92.51,7.64 -152.41,31.39 -152.41,31.39z" fill="#2D2E2E"/>
<path id="Trac횄짤 10218" d="M458.8381,477.44c-0.05,0.32 -0.14,0.64 -0.27,0.94l-0.94,2.61c-0.42,1.14 -0.95,2.53 -1.67,4.09c-0.71,1.56 -1.41,3.33 -2.38,5.32c-0.96,2 -1.96,4.08 -3.19,6.3c-1.23,2.23 -2.59,4.58 -4.04,7.04c-3.28,5.27 -6.87,10.33 -10.75,15.17c-3.93,4.8 -8.14,9.36 -12.6,13.67c-2.1,1.95 -4.08,3.81 -6.04,5.42c-1.96,1.62 -3.78,3.13 -5.51,4.44c-1.73,1.32 -3.32,2.45 -4.7,3.45c-1.38,0.99 -2.63,1.81 -3.65,2.44l-2.36,1.48c-0.26,0.19 -0.55,0.34 -0.85,0.47c0,0 0.24,-0.24 0.75,-0.62l2.26,-1.66c1,-0.68 2.22,-1.53 3.58,-2.58c1.36,-1.05 2.94,-2.14 4.61,-3.52c1.66,-1.39 3.51,-2.82 5.4,-4.51c1.9,-1.7 3.88,-3.51 5.96,-5.46c4.41,-4.31 8.58,-8.86 12.49,-13.64c3.85,-4.81 7.44,-9.83 10.73,-15.05c1.46,-2.43 2.89,-4.72 4.09,-6.95c1.2,-2.23 2.31,-4.31 3.32,-6.22c1.02,-1.91 1.77,-3.71 2.5,-5.26c0.73,-1.54 1.3,-2.89 1.76,-4.01c0.47,-1.11 0.8,-1.88 1.1,-2.56c0.1,-0.28 0.23,-0.55 0.4,-0.8z" fill="#263238"/>
<path id="Trac횄짤 10219" d="M464.6581,451c-0.45,0.81 -0.97,1.57 -1.55,2.29c-1.03,1.47 -2.59,3.53 -4.57,6.04c-10.39,13.06 -22.15,24.97 -35.08,35.51c-2.48,2.01 -4.52,3.59 -5.97,4.66c-0.71,0.58 -1.48,1.1 -2.28,1.56c0.64,-0.67 1.34,-1.28 2.08,-1.83c1.38,-1.13 3.33,-2.79 5.79,-4.85c4.86,-4.15 11.43,-9.98 18.3,-16.95c6.86,-6.97 12.64,-13.57 16.71,-18.48c2.05,-2.46 3.68,-4.46 4.79,-5.86c0.54,-0.74 1.13,-1.44 1.78,-2.09z" fill="#263238"/>
<path id="Trac횄짤 10220" d="M275.4681,40.74c-2.65,-2.92 -7.54,0.52 -8.83,4.25c-1.3,3.72 -1.67,8.31 -4.99,10.44c-4.43,2.71 -11.96,-0.58 -14.41,4.01c-1.88,3.53 1.85,7.67 1.32,11.64c-0.97,7.07 -13.04,6.66 -15.77,13.19c-1.66,3.93 0.95,8.2 2.93,11.96c1.98,3.76 3.17,9.1 -0.2,11.64c-3.38,2.55 -8.95,0.57 -11.65,3.76c-3.56,4.26 3.06,10.25 2.38,15.77c-0.5,4.04 -4.72,6.44 -8.58,7.72c-3.86,1.28 -8.23,2.34 -10.55,5.7c-5.08,7.44 4.48,17.12 3,26.02c-0.9,5.37 -5.86,10.32 -4.04,15.46c2.31,6.66 13.3,6.37 15.6,12.96c1.91,5.59 -3.94,12.81 0.13,17.1c4.08,4.29 11.34,-0.87 16.63,1.43c6.09,2.66 6.11,13.52 12.69,14.44c2.93,0.39 5.74,-1.67 8.7,-1.5c7.17,0.31 10.33,12.36 17.43,11.16c4.15,-0.7 6.92,-6.01 11.08,-5.39c4.16,0.62 5.29,6.2 8.95,8.05c5.72,2.89 11.21,-4.87 17.55,-5.81c3.95,-0.59 8.06,1.67 11.89,0.47c3.82,-1.2 5.9,-4.99 6.32,-8.78c0.14,-3.82 -0.34,-7.64 -1.42,-11.31c-4.47,-20.64 -3.02,-42.12 4.16,-61.97" fill="#263238"/>
<path id="Trac횄짤 10221" d="M318.6381,261.94l-2.76,-32.75c0,0 -32.96,-1.46 -44.74,-42.83c-5.87,-20.56 -9.01,-55.07 -10.58,-83.39c-1.66,-31.26 28.65,-67.41 54.18,-67.8l77.72,19.08l1.36,13.64l16.82,186.02c2.28,25.18 -16.11,47.51 -41.27,50.09c-12.33,1.27 -24.65,-2.47 -34.19,-10.39c-9.54,-7.91 -15.5,-19.32 -16.54,-31.67z" fill="#936754"/>
<path id="Trac횄짤 10222" d="M272.1381,132.16c0.75,0.61 4.47,-2.91 10.3,-3.6c5.82,-0.68 10.44,1.67 10.99,0.92c0.27,-0.35 -0.57,-1.55 -2.59,-2.66c-2.73,-1.46 -5.84,-2.04 -8.9,-1.67c-3.03,0.36 -5.87,1.67 -8.1,3.75c-1.62,1.63 -2.07,2.97 -1.7,3.26z" fill="#263238"/>
<path id="Trac횄짤 10223" d="M326.0481,122.78c0.74,0.63 4.49,-2.9 10.31,-3.58c5.82,-0.68 10.43,1.66 10.98,0.91c0.26,-0.34 -0.57,-1.54 -2.6,-2.67c-2.72,-1.46 -5.82,-2.04 -8.88,-1.67c-3.03,0.36 -5.87,1.67 -8.1,3.75c-1.63,1.64 -2.08,2.99 -1.71,3.26z" fill="#263238"/>
<path id="Trac횄짤 10224" d="M311.5881,159.85c0,-0.33 -3.71,-0.53 -9.66,-0.57c-1.5,0 -2.94,-0.1 -3.33,-1.08c-0.31,-1.52 -0.15,-3.1 0.47,-4.52c0.95,-3.78 1.96,-7.72 3.03,-11.86c4.15,-16.83 6.96,-30.62 6.28,-30.79c-0.68,-0.16 -4.59,13.31 -8.75,30.22c-0.99,4.15 -1.94,8.11 -2.84,11.9c-0.35,1.74 -1.1,3.77 0,5.92c0.57,1 1.57,1.7 2.71,1.88c0.85,0.1 1.71,0.1 2.56,0c5.94,-0.35 9.55,-0.77 9.53,-1.1z" fill="#263238"/>
<path id="Trac횄짤 10225" d="M315.8781,229.19c19.89,-2.09 38.81,-9.67 54.66,-21.87c0,0 -11.11,30.95 -53.79,32.1z" fill="#7C5142"/>
<path id="Trac횄짤 10226" d="M315.7481,173.57c1.92,-3.09 5.29,-4.98 8.93,-4.99c2.62,-0.09 5.17,0.91 7.04,2.75c1.84,1.79 2.35,4.54 1.3,6.88c-1.3,2.4 -4.53,3.33 -7.41,2.85c-2.86,-0.65 -5.57,-1.85 -7.96,-3.55c-0.71,-0.39 -1.35,-0.9 -1.88,-1.51c-0.51,-0.61 -0.61,-1.47 -0.25,-2.18" fill="#7C5142"/>
<path id="Trac횄짤 10227" d="M329.2081,161.81c-0.95,0 -0.2,6.37 -5.08,11.51c-4.87,5.14 -11.64,5.24 -11.64,6.14c0,0.4 1.66,1.05 4.49,0.78c3.71,-0.4 7.16,-2.09 9.75,-4.77c2.48,-2.58 3.85,-6.02 3.84,-9.6c-0.05,-2.68 -0.95,-4.16 -1.36,-4.06z" fill="#263238"/>
<path id="Trac횄짤 10228" d="M323.2481,91.52c0.77,1.52 6.49,0 13.41,0c6.92,0 12.67,1.2 13.4,-0.33c0.34,-0.73 -0.81,-2.09 -3.22,-3.33c-6.48,-3.07 -14.02,-2.99 -20.43,0.22c-2.39,1.31 -3.44,2.71 -3.16,3.44z" fill="#263238"/>
<path id="Trac횄짤 10229" d="M270.2781,102.87c1.18,1.19 4.99,-0.67 9.84,-1.32c4.86,-0.65 9,-0.18 9.78,-1.66c0.34,-0.72 -0.46,-1.96 -2.41,-2.99c-2.57,-1.28 -5.48,-1.7 -8.31,-1.22c-2.83,0.4 -5.46,1.66 -7.54,3.61c-1.5,1.55 -1.89,2.98 -1.36,3.58z" fill="#263238"/>
<path id="Trac횄짤 10230" d="M278.0581,47.05c0,0.48 1.55,0.73 3.33,0.55c1.78,-0.19 3.19,-0.73 3.14,-1.22c-0.05,-0.48 -1.54,-0.73 -3.32,-0.55c-1.78,0.19 -3.15,0.7 -3.15,1.22z" fill="#263238"/>
<path id="Trac횄짤 10231" d="M281.6881,54.93c-13.09,-20.52 9.79,-41.13 21,-48.23c11.21,-7.1 25.97,-9.03 38.03,-3.48c5.5,2.53 10.49,6.54 16.48,7.42c13.82,2.01 26.94,-13.31 40.08,-8.55c10.83,3.88 14.16,19.14 24.95,22.94c5.24,1.83 10.96,0.48 16.5,0.51c5.54,0.04 12.03,2.36 13.31,7.75c1.41,6.01 -4.34,13.08 -0.59,17.95c4.64,6 15.81,-1.16 21.46,3.88c5.29,4.7 0.77,15.8 6.99,19.19c4.54,2.49 11.36,-1.76 14.96,2.01c3.61,3.78 -1.87,10.18 -1.96,15.72c-0.08,5.54 5.67,9.45 10.56,12.41c4.89,2.96 10.18,7.9 8.55,13.3c-1.89,6.29 -11.74,7.85 -12.8,14.34c-1.07,6.49 8.4,12.97 4.99,18.84c-2.25,3.93 -8.32,3.5 -11.4,6.84c-4.99,5.57 -18.43,16.08 -20.46,23.29c-2.77,9.97 1.44,5.88 -4.04,14.68c-3.04,4.88 -1.79,12.31 -6.47,15.65c-4.67,3.35 -11.64,-0.5 -17.39,0.8c-9.42,2.1 -13.79,17.15 -23.29,15.29c-4.84,-0.97 -8.9,-6.52 -13.56,-4.86c-4,1.45 -4.98,7.48 -9.14,8.58c-5.57,1.47 -8,-6.65 -11.86,-10.93c-5.14,-5.7 -15.07,-4.99 -19.96,-10.99c-4.36,-5.37 -2.43,-13.31 0.25,-19.68c2.68,-6.37 5.95,-13.3 3.67,-19.87c-2.61,-7.42 -12.05,-13.11 -9.73,-20.63c2.57,-8.21 17.34,-8.89 17.49,-17.51c0.14,-8.12 -13.78,-11.28 -13.06,-19.38c0.48,-5.43 7.57,-8.31 8.4,-13.68c0.96,-6.27 -6.95,-10.72 -7.5,-17.04c-0.35,-4.04 2.39,-7.6 4.24,-11.21c1.84,-3.61 2.53,-8.78 -0.82,-11.07c-5.34,-3.66 -11.94,4.69 -18.29,3.49c-4.44,-0.85 -6.54,-5.81 -8.5,-9.88c0,0 -13.17,-16.1 -33.27,-11.53c-20.09,4.58 -27.82,13.64 -27.82,13.64z" fill="#263238"/>
<path id="Trac횄짤 10232" d="M280.5881,47.15c-3.64,4.54 -0.91,12.52 4.74,13.87c5.27,1.26 10.31,-2.48 14.49,-5.92c4.17,-3.44 9.43,-7.02 14.6,-5.42c9.5,2.94 8.62,19.64 18.2,22.32c3.92,1.08 7.96,-0.82 11.84,-2.08c3.87,-1.27 8.81,-1.67 11.37,1.53c3.45,4.26 0.19,11.97 4.55,15.27c1.83,1.38 4.44,1.41 6.12,2.96c2.69,2.48 1.23,7.08 -1.18,9.86c-2.42,2.78 -5.71,4.99 -6.66,8.63c-1.51,5.64 3.63,10.81 8.63,13.84c5.01,3.03 10.97,5.99 12.56,11.64c2.58,9.08 -7.96,19.16 -3.21,27.31c2.68,4.59 9.37,5.58 14.14,3.21c4.77,-2.36 7.88,-7.13 9.98,-12.02c8.53,-20.08 3.24,-43.05 -2.5,-64.09c-3.75,-13.78 -7.93,-28.02 -17.31,-38.78c-9.75,-11.18 -24.08,-17.33 -38.5,-20.78c-11.03,-2.64 -22.62,-3.87 -33.67,-1.34c-11.04,2.52 -21.5,9.26 -26.61,19.39" fill="#263238"/>
<path id="Trac횄짤 10233" d="M421.6181,226.28c0.23,0.17 0.5,0.29 0.78,0.35c0.86,0.21 1.77,0.02 2.48,-0.52c1.15,-0.83 1.96,-2.05 2.27,-3.44c0.24,-0.88 0.24,-1.81 0,-2.7c-0.3,-0.98 -0.81,-1.89 -1.51,-2.66c-1.68,-1.68 -3.69,-3 -5.9,-3.89c-2.55,-0.95 -4.89,-2.37 -6.89,-4.21c-1.05,-1 -1.74,-2.32 -1.96,-3.76c-0.1,-1.53 0.33,-3.06 1.21,-4.32c1.03,-1.38 2.14,-2.7 3.33,-3.94c1.35,-1.35 2.41,-2.96 3.11,-4.74c0.67,-2.04 0.24,-4.28 -1.15,-5.92c-1.46,-1.51 -3.23,-2.68 -5.19,-3.43c-1.88,-0.85 -3.84,-1.56 -5.64,-2.54c-1.84,-0.85 -3.27,-2.37 -4,-4.26c-0.52,-2.01 0,-4.14 1.39,-5.67c1.47,-1.76 3.04,-3.43 4.71,-4.99c1.8,-1.67 3.21,-3.73 4.12,-6.01c0.8,-2.58 0.34,-5.38 -1.23,-7.58c-1.51,-2.13 -3.43,-3.94 -5.63,-5.32c-2.18,-1.45 -4.46,-2.57 -6.52,-4.05c-2.1,-1.34 -3.81,-3.2 -4.99,-5.38c-1.02,-2.28 -0.94,-4.9 0.21,-7.11c1.24,-2.35 2.7,-4.58 4.36,-6.65c1.86,-2.23 3.14,-4.89 3.73,-7.73c0.13,-1.55 -0.15,-3.11 -0.82,-4.51c-0.72,-1.32 -1.74,-2.46 -2.98,-3.33c-2.42,-1.58 -5,-2.92 -7.68,-4.01c-2.53,-0.93 -4.74,-2.58 -6.35,-4.74c-1.25,-2.29 -1.25,-5.06 0,-7.35c1.19,-2.44 2.62,-4.76 4.25,-6.93c1.65,-2.34 2.71,-5.03 3.11,-7.85c0.15,-1.49 -0.13,-2.99 -0.8,-4.33c-0.72,-1.31 -1.81,-2.37 -3.14,-3.06c-2.56,-1 -5.33,-1.36 -8.07,-1.05c-2.49,0.23 -5.01,0.18 -7.5,-0.16c-2.3,-0.31 -4.27,-1.82 -5.17,-3.96c-0.93,-2.11 -1.13,-4.61 -2.01,-6.99c-0.85,-2.47 -2.74,-4.44 -5.17,-5.39c-4.73,-1.91 -9.58,-0.73 -13.81,-0.18c-2.08,0.32 -4.2,0.32 -6.29,0c-1.97,-0.38 -3.85,-1.14 -5.54,-2.24c-3.15,-2.27 -6.14,-4.76 -8.94,-7.46c-2.65,-2.51 -5.81,-4.42 -9.27,-5.58c-3.13,-0.92 -6.44,-1.05 -9.64,-0.4c-5.17,1.01 -9.66,4.16 -12.38,8.66c-1.72,2.79 -2.71,5.96 -2.86,9.23c-0.06,1.12 0.02,2.24 0.25,3.33c0.08,0 -0.1,-1.16 0,-3.33c0.28,-3.18 1.33,-6.24 3.06,-8.93c2.7,-4.27 7.06,-7.22 12.03,-8.13c3.06,-0.58 6.21,-0.4 9.19,0.51c3.31,1.15 6.32,3.01 8.82,5.46c2.82,2.77 5.84,5.32 9.03,7.65c1.81,1.2 3.84,2.03 5.97,2.45c2.21,0.34 4.45,0.34 6.65,0c4.36,-0.55 8.95,-1.57 13.13,0.16c2.07,0.81 3.68,2.5 4.39,4.61c0.78,2.14 0.96,4.64 1.99,7.08c1.1,2.58 3.44,4.4 6.21,4.83c2.6,0.37 5.23,0.44 7.85,0.2c2.48,-0.28 5,0.04 7.33,0.93c1.05,0.54 1.91,1.38 2.48,2.41c0.53,1.08 0.75,2.28 0.62,3.48c-0.39,2.57 -1.37,5.01 -2.88,7.13c-1.69,2.25 -3.16,4.65 -4.39,7.17c-0.62,1.37 -0.98,2.84 -1.05,4.34c-0.01,1.56 0.41,3.09 1.2,4.43c1.77,2.43 4.23,4.3 7.05,5.35c2.58,1.04 5.06,2.33 7.4,3.84c1.04,0.76 1.91,1.74 2.53,2.86c0.52,1.14 0.74,2.39 0.65,3.63c-0.55,2.58 -1.73,4.98 -3.43,7c-1.73,2.17 -3.24,4.5 -4.51,6.97c-1.3,2.61 -1.37,5.66 -0.18,8.32c1.31,2.43 3.23,4.48 5.56,5.95c2.16,1.55 4.5,2.7 6.55,4.04c2.06,1.31 3.84,3 5.26,4.99c1.33,1.83 1.74,4.18 1.09,6.36c-0.85,2.11 -2.16,4.01 -3.84,5.55c-1.71,1.6 -3.32,3.3 -4.81,5.11c-1.62,1.88 -2.2,4.45 -1.56,6.85c0.84,2.21 2.51,4 4.66,4.99c1.93,1.03 3.91,1.66 5.75,2.55c1.8,0.67 3.43,1.71 4.78,3.07c1.15,1.33 1.53,3.17 0.98,4.84c-1.15,3.33 -4.33,5.52 -6.14,8.48c-2.14,2.86 -1.73,6.88 0.95,9.24c2.11,1.87 4.56,3.32 7.22,4.27c2.13,0.8 4.09,2.03 5.73,3.61c1.33,1.24 1.91,3.08 1.52,4.86c-0.26,1.31 -0.98,2.48 -2.01,3.32c-0.63,0.52 -1.46,0.75 -2.27,0.62c-0.56,-0.25 -0.83,-0.38 -0.84,-0.35z" fill="#455A64"/>
<path id="Trac횄짤 10234" d="M241.1381,209.66c-0.47,0.44 -1.04,0.75 -1.67,0.9c-1.89,0.11 -3.7,-0.82 -4.72,-2.43c-1.48,-1.99 -1.1,-5.22 -1.11,-8.83c-0.05,-1.99 -0.52,-3.95 -1.38,-5.75c-0.96,-1.91 -1.81,-3.86 -2.55,-5.86c-0.78,-2.08 -0.35,-4.44 1.13,-6.1c1.84,-1.68 4.01,-2.95 6.37,-3.74c2.38,-1.1 5.28,-1.9 7.25,-4.53c0.93,-1.37 1.21,-3.09 0.75,-4.69c-0.52,-1.53 -1.46,-2.89 -2.71,-3.92c-2.24,-2.08 -5.1,-3.63 -6.37,-6.17c-1.26,-2.55 0.35,-5.56 2.9,-7.22c2.54,-1.67 5.85,-2.43 8.93,-4.21c1.63,-0.88 2.98,-2.2 3.89,-3.81c0.87,-1.68 1.22,-3.58 0.98,-5.46c-0.55,-3.51 -1.89,-6.85 -3.92,-9.76c-1.88,-2.63 -3.32,-5.56 -4.25,-8.66c-0.67,-2.97 0.08,-6.08 2.03,-8.4c1.85,-2.4 4.24,-4.36 6.26,-6.66c2.08,-2.27 3.44,-5.1 3.91,-8.15c0.33,-2.79 0.29,-5.62 -0.12,-8.41c-0.65,-5.31 -1.53,-10.25 -0.45,-14.57c0.91,-3.91 2.81,-7.52 5.52,-10.48c2.03,-2.27 4.47,-4.14 7.2,-5.49c2.35,-1.12 4.83,-1.93 7.39,-2.41c-0.68,-0.03 -1.37,0 -2.05,0.1c-1.95,0.3 -3.85,0.86 -5.65,1.66c-6.73,3.11 -11.7,9.09 -13.54,16.27c-1.21,4.59 -0.33,9.73 0.25,14.97c0.36,2.68 0.36,5.39 0,8.06c-0.44,2.78 -1.7,5.37 -3.63,7.42c-1.91,2.2 -4.34,4.14 -6.35,6.74c-2.23,2.68 -3.08,6.25 -2.3,9.65c1.58,6.8 7.47,11.54 8.12,18.29c0.19,1.57 -0.09,3.15 -0.8,4.56c-0.78,1.37 -1.93,2.48 -3.32,3.21c-2.75,1.66 -6.17,2.26 -9.04,4.29c-1.47,0.97 -2.66,2.3 -3.46,3.88c-0.79,1.65 -0.79,3.58 0,5.23c1.67,3.18 4.66,4.61 6.76,6.66c1.05,0.85 1.85,1.97 2.33,3.24c0.34,1.2 0.14,2.5 -0.55,3.54c-1.45,2.07 -4.23,3.03 -6.66,4.09c-2.52,0.89 -4.82,2.29 -6.77,4.13c-0.87,1.01 -1.44,2.24 -1.66,3.56c-0.14,1.24 -0.01,2.49 0.38,3.67c0.78,2.04 1.69,4.03 2.72,5.96c0.84,1.67 1.32,3.5 1.39,5.37c0.14,3.48 -0.25,6.9 1.5,9.17c1.17,1.73 3.22,2.65 5.29,2.37c0.77,-0.08 1.45,-0.57 1.78,-1.28z" fill="#455A64"/>
<path id="Trac횄짤 10235" d="M470.3181,174.7c2.2,-0.59 4.22,-1.74 5.87,-3.32c1.93,-1.94 3.33,-4.35 4.04,-6.99c1.05,-3.56 0.56,-7.4 -1.37,-10.58h0.42c-0.32,1.29 -1.14,2.4 -2.28,3.08c-1.19,0.69 -2.56,1.02 -3.94,0.93c-1.47,-0.05 -2.88,-0.6 -3.99,-1.56c-1.12,-1.05 -1.91,-2.4 -2.3,-3.88c-0.77,-3.17 -0.23,-6.52 1.48,-9.3c1.88,-2.88 4.17,-5.48 6.81,-7.7l0.25,0.57c-4.13,0.5 -8.31,0.46 -12.43,-0.1c-2.2,-0.36 -4.32,-1.12 -6.24,-2.26c-1.97,-1.26 -3.61,-2.97 -4.79,-4.99c-1.27,-2.08 -1.76,-4.55 -1.38,-6.95c0.56,-2.43 1.87,-4.61 3.75,-6.24c1.78,-1.67 3.79,-3.15 5.57,-4.81c1.81,-1.65 3.09,-3.79 3.67,-6.17c0.3,-1.17 0.26,-2.4 -0.11,-3.54c-0.43,-1.13 -1.27,-2.05 -2.35,-2.58c-2.19,-1.1 -4.91,-0.38 -7.43,0.17c-2.53,0.55 -5.34,1.33 -8.12,0.36c-1.39,-0.48 -2.57,-1.43 -3.33,-2.69c-0.71,-1.25 -1.15,-2.63 -1.28,-4.06c-0.75,-5.72 2.8,-11.01 1.67,-16.45c-0.28,-1.33 -0.88,-2.56 -1.75,-3.59c-0.91,-1.03 -2.05,-1.83 -3.33,-2.33c-2.65,-1.01 -5.5,-1.35 -8.31,-1c-3.08,0.4 -6.12,1.06 -9.08,2c-3.01,0.91 -6.14,1.35 -9.28,1.31c-3.2,-0.08 -6.23,-1.41 -8.45,-3.71c-2.04,-2.36 -3.37,-5.24 -3.85,-8.31c-1.19,-5.91 -0.93,-11.81 -2.18,-17.34c-0.47,-2.72 -1.72,-5.25 -3.59,-7.3c-1.92,-1.89 -4.47,-3.02 -7.17,-3.16c-2.66,-0.08 -5.32,0.18 -7.91,0.78c-2.58,0.58 -5.18,0.99 -7.8,1.25c-2.61,0.24 -5.24,-0.15 -7.67,-1.13c-2.28,-1.02 -4.44,-2.31 -6.42,-3.82c-1.89,-1.44 -3.87,-2.75 -5.92,-3.95c-1.94,-1.14 -4.13,-1.81 -6.37,-1.94c-2.17,0 -4.31,0.47 -6.27,1.39c-1.97,0.85 -3.81,1.9 -5.64,2.85c-1.78,0.99 -3.67,1.77 -5.62,2.34c-1.88,0.5 -3.8,0.77 -5.74,0.8c-3.52,-0.02 -7.04,-0.31 -10.51,-0.86c-3,-0.49 -6.03,-0.71 -9.07,-0.67c-2.55,0.14 -5.05,0.7 -7.42,1.67c-3.37,1.11 -6.17,3.5 -7.8,6.65c-0.47,1.13 -0.77,2.32 -0.89,3.54c0,0 0,-0.31 0,-0.93c0,-0.39 0.06,-0.78 0.18,-1.15c0.11,-0.53 0.28,-1.05 0.5,-1.54c1.59,-3.26 4.42,-5.75 7.85,-6.92c2.4,-0.97 4.94,-1.53 7.52,-1.67c3.06,-0.06 6.12,0.14 9.14,0.6c3.45,0.54 6.94,0.81 10.43,0.8c1.89,-0.04 3.77,-0.31 5.59,-0.81c1.92,-0.57 3.76,-1.35 5.51,-2.33c1.81,-0.95 3.65,-2.02 5.65,-2.9c2.06,-0.95 4.29,-1.45 6.55,-1.48c2.35,0.14 4.63,0.83 6.66,2.01c2.08,1.21 4.08,2.54 6,3.98c1.95,1.48 4.06,2.73 6.29,3.73c2.32,0.92 4.83,1.29 7.32,1.06c2.59,-0.27 5.17,-0.69 7.71,-1.26c2.67,-0.63 5.4,-0.9 8.14,-0.8c2.88,0.12 5.61,1.3 7.66,3.32c1.99,2.15 3.33,4.82 3.85,7.7c1.28,5.66 1.01,11.65 2.19,17.35c0.46,2.9 1.72,5.62 3.64,7.84c2.07,2.13 4.9,3.36 7.87,3.42c3.05,0.03 6.09,-0.41 9.02,-1.28c3.01,-0.95 6.1,-1.63 9.23,-2.03c2.94,-0.35 5.92,0.01 8.68,1.07c1.39,0.55 2.63,1.43 3.63,2.56c0.97,1.13 1.63,2.5 1.91,3.97c1.11,5.97 -2.46,11.18 -1.67,16.54c0.11,1.3 0.51,2.57 1.17,3.71c0.64,1.09 1.65,1.93 2.84,2.36c2.42,0.86 5.11,0.18 7.65,-0.4c1.3,-0.32 2.62,-0.55 3.95,-0.7c1.37,-0.18 2.78,0.03 4.04,0.61c1.27,0.62 2.25,1.71 2.74,3.03c0.42,1.29 0.48,2.68 0.15,3.99c-0.61,2.57 -1.98,4.88 -3.92,6.66c-1.85,1.66 -3.86,3.14 -5.58,4.79c-1.77,1.51 -3.01,3.55 -3.54,5.82c-0.35,2.22 0.1,4.5 1.28,6.42c1.11,1.9 2.66,3.5 4.53,4.67c1.83,1.1 3.86,1.85 5.97,2.2c4.06,0.57 8.17,0.62 12.24,0.13h0.95l-0.7,0.63c-2.57,2.18 -4.82,4.71 -6.65,7.54c-1.66,2.63 -2.19,5.81 -1.48,8.83c0.34,1.39 1.08,2.64 2.12,3.62c1.01,0.9 2.3,1.42 3.65,1.47c2.54,0.34 4.97,-1.17 5.77,-3.61l0.11,-0.53l0.29,0.46c1.95,3.29 2.43,7.25 1.31,10.91c-0.76,2.69 -2.22,5.12 -4.22,7.06c-1.25,1.18 -2.72,2.1 -4.33,2.71c-0.86,0.26 -1.54,0.36 -1.54,0.36z" fill="#455A64"/>
<path id="Trac횄짤 10236" d="M275.6781,150.65c-0.23,0 -0.53,-0.61 -0.66,-1.46c-0.13,-0.85 0,-1.53 0.2,-1.58c0.2,-0.05 0.53,0.61 0.66,1.46c0.14,0.85 0.04,1.55 -0.2,1.58z" fill="#7C5142"/>
<path id="Trac횄짤 10237" d="M286.3781,147.01c-0.22,0.1 -0.57,-0.23 -0.78,-0.75c-0.22,-0.52 -0.2,-0.98 0,-1.06c0.2,-0.09 0.56,0.23 0.78,0.73c0.21,0.5 0.26,1 0,1.08z" fill="#7C5142"/>
<path id="Trac횄짤 10238" d="M282.5181,156.87c-0.25,0 -0.42,-0.7 -0.37,-1.53c0.05,-0.83 0.27,-1.51 0.5,-1.49c0.24,0.01 0.4,0.69 0.37,1.53c-0.03,0.83 -0.27,1.51 -0.5,1.49z" fill="#7C5142"/>
<path id="Trac횄짤 10239" d="M339.2381,141.55c-0.17,0.17 -0.69,0 -1.15,-0.53c-0.47,-0.53 -0.7,-0.98 -0.53,-1.15c0.16,-0.16 0.68,0 1.14,0.54c0.47,0.53 0.7,0.93 0.54,1.14z" fill="#7C5142"/>
<path id="Trac횄짤 10240" d="M349.2681,138.96c-0.15,0.18 -0.67,0 -1.19,-0.35c-0.51,-0.35 -0.78,-0.83 -0.64,-1.03c0.13,-0.2 0.68,0 1.18,0.35c0.5,0.35 0.78,0.83 0.65,1.03z" fill="#7C5142"/>
<path id="Trac횄짤 10241" d="M345.4881,147.62c-0.25,0 -0.37,-0.59 -0.28,-1.26c0.08,-0.67 0.35,-1.2 0.58,-1.16c0.23,0.03 0.36,0.59 0.28,1.26c-0.08,0.67 -0.35,1.2 -0.58,1.16z" fill="#7C5142"/>
<path id="Trac횄짤 10242" d="M330.4381,147.62c-0.24,-0.1 -0.2,-0.64 0,-1.24c0.2,-0.6 0.63,-0.98 0.85,-0.88c0.21,0.1 0.2,0.64 0,1.23c-0.2,0.58 -0.64,0.98 -0.85,0.89z" fill="#7C5142"/>
<path id="Trac횄짤 10243" d="M361.2181,137.91c-0.21,0.08 -0.63,-0.41 -0.93,-1.13c-0.3,-0.71 -0.35,-1.36 -0.13,-1.45c0.22,-0.08 0.65,0.42 0.93,1.12c0.28,0.7 0.37,1.36 0.13,1.46z" fill="#7C5142"/>
<path id="Trac횄짤 10244" d="M273.4481,162.34c-0.23,-0.1 -0.11,-0.79 0.22,-1.54c0.33,-0.75 0.82,-1.27 1.03,-1.17c0.22,0.1 0.1,0.78 -0.23,1.53c-0.33,0.75 -0.8,1.28 -1.02,1.18z" fill="#7C5142"/>
<path id="Trac횄짤 10245" d="M240.5081,350.34c0.25,3.33 31.07,181.58 40.43,211.86c8.08,26.12 45.49,57.19 76.51,26.13c29.64,-29.62 41.85,-162.7 41.85,-162.7l-69.68,3.25l-0.96,-78.54c0,0 -51.56,-18.55 -92.13,0" fill="#936754"/>
<path id="Trac횄짤 10246" d="M526.0281,192.05c-8.78,-21.44 -48.06,-15.95 -48.06,-15.95c0,0 -122.12,109.64 -139.9,125.99c-17.78,16.35 -21.07,32.18 -20.61,36.81c0,0 -4.2,43.54 -1.38,59.77c2.83,16.24 17.38,42.96 29.58,39.92c0,0 9.81,-5.27 4.75,-11.96c0,0 10.23,6.66 14.04,-0.75c3.81,-7.4 -6.19,-16.63 -6.19,-16.63c0,0 12.49,9.45 15.64,-1.11c3.14,-10.56 -9.65,-17 -9.65,-17c0,0 -8.83,-17.35 -5.87,-26.91c2.96,-9.57 16.52,-11.31 17.65,-27.83c0.5,-7.18 0.78,-12.59 0.96,-16.43l145.14,-86.77c0,0 12.69,-19.73 3.9,-41.15z" fill="#FFBE9D"/>
<path id="Trac횄짤 10247" d="M250.7781,251.38c-0.61,-2.04 -0.79,-4.18 -0.49,-6.29c0.46,-2.43 1.44,-4.73 2.86,-6.75c2,-2.63 4.27,-5.04 6.78,-7.19c3.18,-2.73 5.92,-5.93 8.14,-9.48c2.48,-4.17 4.09,-8.81 4.72,-13.62c0.71,-5.34 0.18,-10.78 -1.55,-15.88c-1.92,-5.31 -4.29,-10.43 -7.1,-15.32c-2.71,-4.77 -4.91,-9.82 -6.54,-15.06c-1.44,-4.8 -1.54,-9.91 -0.3,-14.76c2.53,-9.3 8.09,-16.64 10.9,-23.74c2.65,-5.51 3.46,-11.73 2.29,-17.73c-0.35,-1.61 -0.97,-3.15 -1.81,-4.57c-0.58,-0.97 -1,-1.4 -1.05,-1.35c0.82,1.97 1.46,4.02 1.92,6.1c0.74,5.79 -0.3,11.67 -2.96,16.85c-2.9,6.79 -8.64,13.94 -11.51,23.85c-1.4,5.25 -1.35,10.77 0.16,15.99c1.63,5.43 3.86,10.65 6.66,15.58c2.73,4.79 5.07,9.79 6.96,14.97c1.67,4.75 2.24,9.82 1.67,14.82c-0.54,4.53 -1.98,8.91 -4.23,12.87c-2.07,3.44 -4.62,6.56 -7.58,9.27c-2.51,2.32 -4.74,4.93 -6.65,7.76c-1.43,2.23 -2.34,4.75 -2.67,7.37c-0.2,1.69 0,3.4 0.59,4.99c0.16,0.5 0.43,0.95 0.79,1.32z" fill="#263238"/>
<path id="Trac횄짤 10248" d="M120.6181,206.2c-3.57,8.24 -11.68,13.58 -20.66,13.61c-8.92,-0.22 -17.17,-4.8 -22.07,-12.26c-4.76,-7.47 -6.45,-16.49 -4.74,-25.18c0.72,-3.91 2.03,-7.8 1.66,-11.74c-0.63,-5.58 -4.7,-10.2 -6.1,-15.64c-2.49,-9.81 4.67,-20.17 14,-24.1c9.34,-3.92 19.96,-2.71 29.79,0" fill="#263238"/>
<path id="Trac횄짤 10249" d="M262.7581,92.77c8.98,9.03 5.56,20.91 1.36,28.94c-4.19,8.03 -9.23,16.18 -9.33,25.25c-0.1,9.06 4.99,17.7 7.54,26.61c3.22,11.39 2.27,23.55 -2.68,34.3c-3.69,7.98 -9.48,14.87 -13.31,22.83c-3.82,7.97 -5.12,18.02 0,25.2c-4.89,-1.04 -9,-4.33 -11.07,-8.88c-2.01,-4.51 -2.9,-9.44 -2.61,-14.37c0.39,-18.66 9.33,-36.81 7.1,-55.34c-1.3,-10.77 -6.36,-21.12 -5.66,-31.95c0.7,-10.82 7.1,-20.39 11.65,-30.25c4.54,-9.86 7.33,-22.17 1.19,-31.17" fill="#263238"/>
<path id="Trac횄짤 10250" d="M240.6581,57.36c11.01,1.43 21.93,7.19 27.26,16.93c5.32,9.75 3.49,23.55 -5.61,29.94c-8.58,6 -20.74,4.03 -29.55,-1.66c-6.66,-4.08 -11.7,-10.32 -14.29,-17.68c-2.52,-7.46 -1.24,-15.67 3.42,-22.01c4.78,-6.07 13.49,-9.05 20.73,-6.32" fill="#263238"/>
<path id="Trac횄짤 10251" d="M249.6481,56.23c-4.85,-13.39 -16.76,-23.52 -30.18,-28.28c-13.43,-4.75 -28.28,-4.69 -42.22,-2.04c-13.93,2.64 -27.42,7.7 -40.75,12.74c-9.69,3.67 -19.61,7.48 -27.51,14.22c-7.9,6.74 -13.12,15.85 -16.63,25.5c-6.65,18.09 -6.93,31.35 0.87,49c3.32,7.68 0.63,16.28 3.67,24.1c3.05,7.81 17.17,17.14 12.78,24.3" fill="#263238"/>
<path id="Trac횄짤 10252" d="M256.7581,105.63c-0.22,-25.35 -15.29,-57.25 -40.59,-55.94l-79.67,15.6c-7.68,0.4 -13.78,6.62 -14.05,14.31l-6.24,183.7l94.03,21.42c0.84,-14.7 0,-50.52 0,-50.44c0,0.08 32.54,-3.63 41.58,-45.36c4.39,-20.75 5.19,-55.13 4.94,-83.29z" fill="#FFBE9D"/>
<path id="Trac횄짤 10253" d="M248.5081,133.29c-0.72,0.66 -4.64,-2.6 -10.45,-2.9c-5.8,-0.3 -10.23,2.38 -10.83,1.67c-0.28,-0.34 0.47,-1.58 2.4,-2.83c2.61,-1.6 5.64,-2.36 8.7,-2.18c3.04,0.14 5.96,1.25 8.31,3.18c1.67,1.44 2.22,2.79 1.87,3.06z" fill="#263238"/>
<path id="Trac횄짤 10254" d="M191.1681,131.74c-0.69,0.67 -4.64,-2.58 -10.44,-2.88c-5.81,-0.3 -10.23,2.38 -10.81,1.67c-0.3,-0.34 0.45,-1.57 2.38,-2.81c2.61,-1.61 5.65,-2.37 8.71,-2.18c3.04,0.14 5.96,1.25 8.32,3.17c1.64,1.43 2.24,2.73 1.84,3.03z" fill="#263238"/>
<path id="Trac횄짤 10255" d="M209.8681,165.3c0,-0.33 3.63,-0.76 9.53,-1.19c1.48,0 2.91,-0.29 3.21,-1.28c0.22,-1.53 -0.04,-3.09 -0.75,-4.46c-1.2,-3.66 -2.45,-7.51 -3.77,-11.54c-5.23,-16.4 -8.92,-29.94 -8.32,-30.08c0.6,-0.13 5.44,12.93 10.66,29.34c1.25,4.05 2.46,7.9 3.59,11.65c0.47,1.66 1.33,3.69 0.45,5.87c-0.48,1.03 -1.42,1.78 -2.54,2.03c-0.84,0.18 -1.69,0.26 -2.55,0.21c-5.79,-0.05 -9.51,-0.21 -9.51,-0.55z" fill="#263238"/>
<path id="Trac횄짤 10256" d="M210.2381,234.28c-19.84,-0.78 -39.08,-7.04 -55.57,-18.1c0,0 13.4,29.79 55.75,28.13z" fill="#EB996E"/>
<path id="Trac횄짤 10257" d="M194.6781,104.2c-0.66,1.56 -6.42,0.5 -13.3,0.94c-6.89,0.45 -12.49,2.02 -13.31,0.55c-0.36,-0.69 0.67,-2.13 2.98,-3.54c6.21,-3.48 13.68,-3.9 20.24,-1.13c2.48,1.13 3.61,2.44 3.39,3.18z" fill="#263238"/>
<path id="Trac횄짤 10258" d="M247.1281,106.14c-1.1,1.27 -4.99,-0.31 -9.83,-0.65c-4.84,-0.33 -8.95,0.42 -9.82,-1.01c-0.36,-0.7 0.35,-1.98 2.2,-3.14c5.06,-2.8 11.3,-2.27 15.82,1.34c1.63,1.45 2.11,2.85 1.63,3.46z" fill="#263238"/>
<path id="Trac횄짤 10259" d="M206.7081,178.53c-1.95,-2.76 -5.18,-4.31 -8.55,-4.11c-2.43,0.09 -4.72,1.16 -6.34,2.98c-1.58,1.77 -1.89,4.34 -0.78,6.43c1.69,2.07 4.46,2.93 7.02,2.18c2.6,-0.77 5.03,-2.05 7.14,-3.76c0.64,-0.39 1.2,-0.91 1.66,-1.51c0.43,-0.6 0.47,-1.39 0.1,-2.03" fill="#EB996E"/>
<path id="Trac횄짤 10260" d="M193.5681,168.48c0.88,0 0.56,5.87 5.39,10.31c4.82,4.44 11.09,4.15 11.09,4.99c0,0.37 -1.44,1.07 -4.11,1c-3.44,-0.14 -6.73,-1.49 -9.28,-3.81c-2.45,-2.24 -3.93,-5.34 -4.14,-8.65c-0.08,-2.47 0.72,-3.9 1.05,-3.84z" fill="#263238"/>
<path id="Trac횄짤 10261" d="M250.3681,67.54c-2.76,13.21 -23.93,14.19 -37.02,10.89c-9.64,10.99 -24.21,16.31 -38.66,14.12c-1.89,-0.48 -3.88,-0.48 -5.77,0c-1.85,0.94 -3.43,2.33 -4.57,4.06c-6.03,7.13 -14.48,11.76 -23.72,13.03c-2.87,13.48 -13.65,23.88 -27.23,26.26c0,0 -4.21,-2.38 -1.66,-19.31c2.54,-16.93 2.61,-52.43 2.61,-52.43l47.27,-18.29l55.68,-7.17c0,0 37.73,6.49 33.07,28.84z" fill="#263238"/>
<path id="Trac횄짤 10262" d="M93.8581,129.28c0.36,0.08 0.1,-4.66 3.52,-11.64c2.09,-4.17 5.11,-7.79 8.84,-10.58c4.83,-3.59 10.62,-5.66 16.63,-5.96h0.73l0.22,-0.71c2.06,-6.65 5.65,-13.76 11.99,-18.7c6.34,-4.94 15.77,-6.88 23.28,-2.59l1.23,0.71l0.57,-1.36c0.2,-0.48 0.42,-1 0.62,-1.51c5.08,-11.23 15.96,-18.73 28.27,-19.48c2.73,-0.07 5.46,0.16 8.13,0.68c2.73,0.65 5.57,0.68 8.32,0.1c2.51,-0.88 4.75,-2.39 6.5,-4.39c1.49,-1.65 3.17,-3.12 4.99,-4.39c5.73,-3.62 12.75,-4.57 19.23,-2.59c2.35,0.83 4.62,1.89 6.77,3.16c0,0 -0.43,-0.55 -1.45,-1.38c-1.53,-1.13 -3.21,-2.04 -4.99,-2.7c-6.78,-2.46 -14.31,-1.71 -20.47,2.03c-4.04,2.25 -6.65,7.02 -11.1,8.32c-4.44,1.29 -9.97,-1.45 -16.01,-1.08c-13.28,0.62 -25.08,8.67 -30.51,20.8c-0.21,0.57 -0.45,1.12 -0.66,1.67l1.79,-0.65c-8.73,-4.99 -19.29,-2.48 -25.98,2.86c-6.14,5.19 -10.52,12.17 -12.54,19.96l0.97,-0.75c-6.41,0.37 -12.56,2.7 -17.61,6.65c-3.85,3.02 -6.9,6.94 -8.89,11.41c-1.29,2.83 -2.12,5.84 -2.44,8.93c-0.17,1.06 -0.15,2.13 0.05,3.18z" fill="#455A64"/>
<path id="Trac횄짤 10263" d="M169.0981,88.86c1.01,0.66 2.14,1.11 3.33,1.33c3.25,0.86 6.62,1.23 9.98,1.12c11.35,-0.3 22.07,-5.31 29.57,-13.84l-1.55,0.28l1.35,0.7c5.82,2.83 12.37,3.81 18.76,2.81c5.18,-0.82 10.06,-2.97 14.16,-6.24c2.74,-2.16 5.06,-4.81 6.87,-7.8c0.75,-1.03 1.26,-2.23 1.49,-3.49c-0.4,-0.28 -2.59,4.89 -9.43,9.88c-3.97,2.86 -8.57,4.71 -13.42,5.39c-5.92,0.79 -11.95,-0.18 -17.33,-2.78l-1.25,-0.65l-0.9,-0.46l-0.64,0.75c-7.11,8.02 -17.08,12.94 -27.76,13.72c-8.15,0.6 -13.13,-1.18 -13.23,-0.72z" fill="#455A64"/>
<path id="Trac횄짤 10264" d="M194.1981,65.29c0,0.75 6.19,0.55 13.31,2.65c7.12,2.09 12.17,5.42 12.6,4.82c0.44,-0.6 -4.27,-4.99 -11.9,-7.22c-7.64,-2.23 -14.14,-0.86 -14.01,-0.25z" fill="#455A64"/>
<path id="Trac횄짤 10265" d="M210.2381,64.83c0.51,0.48 2.76,-1.18 5.58,-2.98c2.83,-1.79 5.26,-3.19 4.99,-3.86c-0.26,-0.66 -3.32,-0.26 -6.38,1.77c-3.06,2.02 -4.71,4.62 -4.19,5.07z" fill="#455A64"/>
<path id="Trac횄짤 10266" d="M143.4181,85.6c0.24,0.7 5.66,-0.73 12.34,-0.11c6.69,0.61 11.83,2.81 12.16,2.16c0.34,-0.65 -4.62,-4.08 -11.94,-4.66c-7.32,-0.58 -12.84,2.03 -12.56,2.61z" fill="#455A64"/>
<path id="Trac횄짤 10267" d="M130.4981,107.49c0,0.63 7.9,1.41 17.21,-1.31c9.32,-2.73 15.66,-7.57 15.27,-8.07c-0.38,-0.5 -7.03,3.14 -15.96,5.67c-8.94,2.53 -16.54,2.98 -16.52,3.71z" fill="#455A64"/>
<path id="Trac횄짤 10268" d="M100.8381,121.98c0.54,0.51 4.66,-3.63 11.31,-5.51c6.66,-1.88 12.35,-0.76 12.51,-1.48c0.17,-0.71 -5.77,-3.14 -13.2,-0.91c-7.44,2.23 -11.2,7.6 -10.62,7.9z" fill="#455A64"/>
<path id="Trac횄짤 10269" d="M105.0881,61.5c0.19,0 0.74,-1.38 2.36,-3.54c2.41,-2.96 5.45,-5.33 8.91,-6.94c8.67,-4.22 22.34,-6.85 37.21,-6.18c12.76,0.78 25.38,3.19 37.54,7.15c9.41,2.93 15.15,5.07 15.3,4.72c-1.17,-0.86 -2.46,-1.55 -3.83,-2.03c-2.52,-1.14 -6.23,-2.68 -10.91,-4.37c-12.2,-4.51 -25.01,-7.2 -38,-7.97c-15.27,-0.66 -29.21,2.28 -38.14,7.12c-3.59,1.85 -6.65,4.58 -8.88,7.95c-0.87,1.2 -1.41,2.61 -1.56,4.09z" fill="#455A64"/>
<path id="Trac횄짤 10270" d="M100.3781,84.19c0.46,0.18 1.76,-5.11 7.15,-11.51c7.21,-8.18 16.84,-13.85 27.49,-16.17c12.46,-2.79 24.27,-1.66 32.6,-0.68c8.34,0.98 13.57,2.1 13.66,1.66c0.08,-0.43 -4.99,-1.91 -13.39,-3.46c-11.03,-2.22 -22.4,-2.22 -33.43,0c-13.01,2.95 -23.29,10.5 -28.28,17.48c-2.11,2.71 -3.8,5.73 -4.99,8.95c-0.53,1.17 -0.81,2.44 -0.81,3.73z" fill="#455A64"/>
<path id="Trac횄짤 10271" d="M81.5481,167.08c0.23,-0.38 -4.02,-2.64 -9.98,-7.15c-3.49,-2.6 -6.38,-5.91 -8.48,-9.71c-2.55,-4.56 -2.82,-10.05 -0.73,-14.84c2.07,-4.79 5.96,-8.57 10.82,-10.49c4.05,-1.48 8.44,-1.76 12.64,-0.82c7.31,1.67 10.88,5.16 11.15,4.76c0,-0.12 -0.67,-1.06 -2.4,-2.41c-2.48,-1.87 -5.31,-3.25 -8.31,-4.06c-4.55,-1.28 -9.38,-1.15 -13.86,0.37c-5.52,2.04 -9.97,6.24 -12.32,11.64c-2.37,5.47 -2,11.74 1,16.9c2.34,4 5.58,7.42 9.46,9.98c2.52,1.75 5.17,3.3 7.93,4.64c1.88,0.93 3,1.34 3.08,1.19z" fill="#263238"/>
<path id="Trac횄짤 10272" d="M79.5881,167.32c-0.83,1.1 -1.48,2.33 -1.93,3.64c-1.54,3.41 -2.86,6.92 -3.96,10.49c-1.73,5.38 -2.62,10.99 -2.64,16.64c-0.07,7.01 1.93,13.88 5.75,19.76c4,5.97 10.33,9.98 17.43,11.06c5.84,0.83 11.73,-1.19 15.83,-5.43c2.82,-2.72 4.59,-6.34 4.99,-10.24c0.23,-1.4 0.05,-2.84 -0.53,-4.14c-0.23,0 0,1.49 -0.43,4.01c-1.92,8.98 -10.51,14.92 -19.59,13.54c-6.4,-1.11 -12.07,-4.79 -15.69,-10.18c-3.53,-5.53 -5.42,-11.94 -5.44,-18.5c-0.06,-5.42 0.63,-10.82 2.05,-16.05c2.36,-8.98 4.57,-14.45 4.16,-14.6z" fill="#263238"/>
<path id="Trac횄짤 10273" d="M144.7881,88.53c5.25,10.46 1.23,23.13 -4.14,33.53c-5.38,10.4 -12.26,20.71 -12.71,32.4c-0.75,19.59 16.75,36.92 14.34,56.38c-1.7,11.86 -10.45,21.5 -22.09,24.32c9.28,-6.24 10.11,-19.88 6.65,-30.47c-3.46,-10.59 -20.69,-38.5 -23.17,-49.4c-8.31,-36.59 -4.79,-40.85 8,-53.7" fill="#263238"/>
<path id="Trac횄짤 10274" d="M109.5281,114.61c0,0.3 2.56,0.9 6.78,0.28c11.34,-1.74 20.48,-10.18 23.14,-21.34c0.95,-4.16 0.55,-6.8 0.25,-6.8c-0.3,0 -0.67,2.53 -2,6.29c-1.69,4.89 -4.54,9.3 -8.31,12.84c-3.84,3.46 -8.46,5.95 -13.46,7.25c-3.84,1.01 -6.4,1.08 -6.4,1.48z" fill="#455A64"/>
<path id="Trac횄짤 10275" d="M124.7581,223.52c0,0 0.5,-0.22 1.3,-0.83c1.14,-0.94 2.18,-2.02 3.08,-3.2c3.33,-4.45 5.08,-9.89 4.99,-15.45c-0.04,-3.87 -1.02,-7.67 -2.87,-11.08c-2.26,-3.69 -5,-7.08 -8.13,-10.07c-3.29,-3.16 -5.97,-6.88 -7.92,-11c-1.94,-4.44 -2.83,-9.27 -2.61,-14.12c0.2,-4.85 1.58,-9.57 4.01,-13.77c2.39,-3.94 5.12,-7.67 8.17,-11.13c5.4,-5.95 9.89,-12.68 13.3,-19.96c2.28,-4.94 3.62,-10.26 3.96,-15.7c0.23,-1.98 0.08,-3.99 -0.43,-5.92c-0.53,-0.1 0.73,8.72 -5.17,20.87c-3.59,7 -8.13,13.46 -13.49,19.2c-3.2,3.52 -6.07,7.34 -8.55,11.41c-2.68,4.55 -4.19,9.69 -4.39,14.97c-0.24,5.24 0.75,10.47 2.88,15.27c2.08,4.37 4.97,8.32 8.51,11.64c3.04,2.82 5.72,6 7.99,9.48c1.75,3.09 2.74,6.55 2.89,10.09c0.25,5.23 -1.13,10.41 -3.96,14.81c-2.06,2.97 -3.73,4.31 -3.56,4.49z" fill="#455A64"/>
<path id="Trac횄짤 10276" d="M105.2481,113.23c-0.11,-0.1 -1.13,0.61 -2.69,2.28c-2.17,2.38 -3.94,5.1 -5.24,8.05c-3.48,7.35 -4.99,19.22 -1.33,31.22c3.35,10.01 8.71,19.22 15.75,27.09c5.25,6.05 8.96,9.33 9.2,9.12c0.23,-0.22 -2.96,-4 -7.8,-10.27c-4.84,-6.27 -11.21,-15.28 -14.77,-26.69c-3.08,-9.72 -2.88,-20.18 0.56,-29.77c2.83,-7.31 6.7,-10.7 6.32,-11.03z" fill="#455A64"/>
<path id="Trac횄짤 10277" d="M269.9081,485.81c-4.82,-13.16 -3.41,-27.8 3.83,-39.8c17.79,-28.76 14.42,-69.51 -21.62,-122.38c-0.47,-0.68 -0.92,-1.38 -1.34,-2.08c-5.2,-8.6 -45.12,-74.41 -109.17,-80.88c-13.14,-1.32 -28.52,2.24 -38.37,11.04c-12.34,11.03 -26.61,28.69 -32.67,48.07c-10.24,32.56 -20.82,102.77 -6.85,146.2c9.73,30.25 37.99,91.47 54.24,125.75c7.2,15.24 -12.87,29.34 3.96,30.07h176.38c-5.49,-25.29 -23.23,-101.39 -28.39,-115.99z" fill="#414141"/>
<path id="Trac횄짤 10278" d="M198.7781,413.29c0,0 153.61,47.94 178.11,41.82c24.5,-6.12 166.52,-190.69 166.52,-190.69l-51.94,-38.46l-129.81,129.93l-124.13,-44.4z" fill="#FFBE9D"/>
<path id="Trac횄짤 10279" d="M374.7481,357.09c-0.38,-0.05 -0.74,-0.14 -1.1,-0.25l-3.06,-0.88l-11.26,-3.32c-9.5,-2.88 -22.62,-6.84 -37.06,-11.38c-14.44,-4.54 -27.44,-8.92 -36.79,-12.26c-4.67,-1.66 -8.45,-3.06 -11.03,-4.07l-2.97,-1.17c-0.36,-0.11 -0.7,-0.27 -1.02,-0.46c0.37,0.07 0.73,0.17 1.08,0.3l3.03,1.01l11.11,3.81c9.38,3.19 22.4,7.45 36.86,12.01l36.97,11.64l11.18,3.63l3.01,1.04c0.36,0.08 0.71,0.19 1.05,0.35z" fill="#EB996E"/>
<path id="Trac횄짤 10280" d="M475.6681,241.76c0,0 -3.01,-9.38 0,-17.73c1.83,-4.3 4.27,-8.32 7.24,-11.94c1.73,-2.24 4.33,-3.64 7.16,-3.87c2.82,-0.23 5.61,0.74 7.69,2.67l26.29,-32.26c0,0 12.55,-8.32 20.31,4.19c0,0 1.78,-8.12 7.75,-3.46c5.97,4.66 3,17.8 3,17.8c0,0 7.17,1.18 4.17,19.11c0,0 3.33,6.57 0.73,18.51c-2.59,11.94 -19.24,38.25 -24.01,44.19l-15.55,21.21" fill="#FFBE9D"/>
<path id="Trac횄짤 10281" d="M520.4281,300.18c0.07,-0.14 0.16,-0.28 0.25,-0.4l0.78,-1.13c0.73,-1.04 1.78,-2.48 3.09,-4.34l11.65,-16.14c2.52,-3.32 4.99,-7.33 7.73,-11.64c2.74,-4.31 5.42,-9 8.13,-14.07c1.33,-2.56 2.7,-5.21 3.93,-7.97c1.36,-2.8 2.47,-5.71 3.33,-8.7c0.79,-3.13 1.2,-6.35 1.23,-9.58c0.08,-3.33 -0.49,-6.66 -1.67,-9.78v-0.13v-0.12c0.59,-3.35 0.79,-6.76 0.6,-10.16c-0.12,-1.71 -0.5,-3.39 -1.13,-4.99c-0.56,-1.57 -1.77,-2.83 -3.33,-3.46l-0.43,-0.12l0.08,-0.39c0.43,-2.13 0.67,-4.29 0.72,-6.46c0.1,-2.24 -0.17,-4.49 -0.8,-6.65c-0.38,-1.25 -1.01,-2.42 -1.84,-3.43c-0.87,-0.94 -1.97,-1.65 -3.18,-2.06c-0.55,-0.15 -1.12,-0.15 -1.66,0c-0.56,0.23 -1.06,0.58 -1.45,1.03c-0.79,0.98 -1.36,2.11 -1.66,3.33l-0.27,0.98l-0.52,-0.85c-1.9,-3.42 -5.23,-5.82 -9.08,-6.55c-3.73,-0.39 -7.48,0.49 -10.64,2.49h0.1l-22.97,28.1l-2.56,3.12l-0.64,0.77l-0.15,0.2c-0.98,0.08 -0.28,0 -0.49,0h-0.1l-0.37,-0.32c-0.48,-0.4 -1.01,-0.74 -1.56,-1.03c-2.14,-1.15 -4.63,-1.46 -6.99,-0.87c-2.18,0.55 -4.12,1.83 -5.47,3.63c-1.35,1.66 -2.56,3.44 -3.66,5.12c-1.04,1.6 -1.97,3.27 -2.78,4.99c-0.69,1.52 -1.21,3.11 -1.54,4.74c-0.48,2.61 -0.62,5.28 -0.4,7.92c0.13,1.68 0.37,3.34 0.71,4.99c0.12,0.53 0.2,0.93 0.28,1.26c0.05,0.14 0.08,0.29 0.09,0.44c-0.07,-0.14 -0.13,-0.28 -0.17,-0.42l-0.35,-1.25c-0.39,-1.64 -0.67,-3.31 -0.83,-4.99c-0.27,-2.67 -0.18,-5.38 0.28,-8.03c0.33,-1.67 0.83,-3.3 1.52,-4.86c0.8,-1.72 1.72,-3.39 2.76,-4.99c1.11,-1.69 2.32,-3.42 3.64,-5.19c1.43,-1.91 3.46,-3.27 5.77,-3.87c2.51,-0.65 5.17,-0.33 7.45,0.88c0.59,0.31 1.15,0.68 1.67,1.1l0.38,0.31h0.1c-0.22,0 0.5,0 -0.47,0l0.15,-0.18l0.63,-0.78l2.55,-3.13l22.87,-28.17c3.32,-2.14 7.28,-3.08 11.21,-2.65c4.1,0.76 7.65,3.3 9.7,6.94l-0.8,0.13c0.33,-1.37 0.95,-2.65 1.83,-3.76c0.49,-0.57 1.11,-1.01 1.81,-1.28c0.73,-0.22 1.51,-0.22 2.24,0c1.38,0.45 2.61,1.25 3.58,2.31c0.93,1.11 1.62,2.39 2.05,3.76c0.65,2.24 0.93,4.56 0.83,6.89c-0.04,2.23 -0.29,4.46 -0.75,6.65l-0.35,-0.51c1.85,0.65 3.31,2.12 3.96,3.97c0.67,1.68 1.08,3.46 1.2,5.27c0.19,3.47 -0.02,6.95 -0.64,10.37v-0.25c1.22,3.24 1.78,6.68 1.67,10.14c-0.04,3.3 -0.47,6.58 -1.28,9.78c-0.86,3.03 -1.98,5.98 -3.33,8.82c-1.26,2.77 -2.64,5.42 -3.99,7.98c-2.75,5.09 -5.54,9.78 -8.32,14.07c-2.77,4.29 -5.25,8.22 -7.85,11.64c-4.99,6.79 -9.08,12.23 -11.89,15.99c-1.38,1.83 -2.44,3.32 -3.21,4.26l-0.83,1.09c-0.05,0.07 -0.1,0.13 -0.15,0.19z" fill="#EB996E"/>
<path id="Trac횄짤 10282" d="M529.3781,202.18c2.43,-3.23 5.09,-6.29 7.95,-9.15c2.66,-3.04 5.53,-5.9 8.58,-8.55c-2.42,3.24 -5.08,6.3 -7.95,9.15c-2.65,3.06 -5.52,5.91 -8.58,8.55z" fill="#EB996E"/>
<path id="Trac횄짤 10283" d="M489.1581,224.02c1.26,-2.72 2.71,-5.34 4.34,-7.85c1.37,-2.66 2.94,-5.2 4.69,-7.62c-0.98,2.83 -2.31,5.53 -3.94,8.05c-1.4,2.66 -3.11,5.15 -5.09,7.42z" fill="#EB996E"/>
<path id="Trac횄짤 10284" d="M544.8781,215.83c-0.2,-0.13 2.38,-4.64 5.34,-10.31c2.96,-5.67 5.19,-10.38 5.42,-10.28c-0.24,1.12 -0.62,2.21 -1.13,3.23c-0.82,1.95 -2.03,4.59 -3.53,7.45c-1.49,2.86 -2.96,5.37 -4.09,7.14c-0.53,1.01 -1.21,1.95 -2.01,2.77z" fill="#EB996E"/>
<path id="Trac횄짤 10285" d="M552.7081,234.05c0.79,-3.78 1.85,-7.5 3.18,-11.13c1.05,-3.72 2.39,-7.35 3.99,-10.86c-0.79,3.78 -1.85,7.5 -3.18,11.13c-1.05,3.71 -2.39,7.34 -3.99,10.86z" fill="#EB996E"/>
<path id="Trac횄짤 10286" d="M147.2481,245.74c0,0 42.54,5.42 71.13,33.13c42.1,40.82 52.5,43.24 52.51,43.64c0.02,0.4 -65.26,105.47 -65.26,105.47l-58.38,-28.39l-34.51,-102.56z" fill="#414141"/>
<path id="Trac횄짤 10297" d="M198.0781,421.43c-0.41,-0.01 -0.82,-0.07 -1.22,-0.17l-3.44,-0.65c-1.5,-0.26 -3.33,-0.65 -5.44,-1.2c-2.11,-0.54 -4.51,-1.04 -7.12,-1.86l-4.11,-1.21c-1.43,-0.42 -2.87,-0.97 -4.4,-1.47c-3.06,-0.98 -6.24,-2.28 -9.6,-3.57c-7.24,-3 -14.29,-6.42 -21.12,-10.25c-6.8,-3.9 -13.35,-8.2 -19.63,-12.89c-2.84,-2.23 -5.59,-4.29 -8,-6.42c-1.21,-1.05 -2.41,-2.01 -3.51,-3.03c-1.1,-1.01 -2.08,-1.97 -3.14,-2.86c-2.05,-1.81 -3.73,-3.62 -5.26,-5.15c-1.53,-1.53 -2.81,-2.9 -3.81,-4.04l-2.33,-2.63c-0.29,-0.29 -0.55,-0.61 -0.76,-0.97c0.32,0.26 0.62,0.55 0.9,0.85l2.43,2.51c1.04,1.12 2.34,2.46 3.9,3.95c1.57,1.48 3.33,3.32 5.34,4.98l3.16,2.87c1.12,0.99 2.33,1.94 3.55,2.97c2.42,2.1 5.17,4.14 8.01,6.32c6.28,4.63 12.82,8.9 19.58,12.79c6.8,3.81 13.81,7.23 20.99,10.25c3.33,1.33 6.5,2.63 9.55,3.64c1.49,0.52 2.94,1.07 4.35,1.51l4.1,1.27c2.57,0.85 4.98,1.41 7.06,1.98c2.08,0.56 3.9,1.01 5.38,1.35l3.32,0.79c0.43,0.09 0.85,0.2 1.27,0.34z" fill="#263238"/>
<path id="Trac횄짤 10298" d="M251.3181,583.19c-0.39,0.03 -0.77,0.03 -1.15,0l-3.33,-0.2c-1.41,0 -3.14,-0.21 -5.14,-0.46c-1.99,-0.25 -4.29,-0.45 -6.78,-0.9c-2.5,-0.45 -5.26,-0.85 -8.17,-1.5c-2.91,-0.65 -6,-1.36 -9.26,-2.19c-14.09,-3.78 -27.62,-9.37 -40.27,-16.64c-2.88,-1.66 -5.66,-3.32 -8.12,-4.98c-2.46,-1.67 -4.79,-3.21 -6.83,-4.71c-2.05,-1.5 -3.86,-2.91 -5.44,-4.14c-1.58,-1.23 -2.93,-2.37 -3.99,-3.33l-2.45,-2.15c-0.29,-0.24 -0.57,-0.5 -0.81,-0.79c0.34,0.18 0.65,0.4 0.93,0.66l2.54,2.03c1.1,0.9 2.45,1.98 4.06,3.18c1.61,1.2 3.41,2.61 5.51,4.02c2.09,1.42 4.34,3.05 6.87,4.61c2.52,1.56 5.23,3.21 8.13,4.89c12.64,7.14 26.13,12.69 40.13,16.52c3.25,0.83 6.31,1.66 9.22,2.26c2.91,0.6 5.62,1.15 8.11,1.58c2.5,0.43 4.76,0.73 6.76,1.03c1.99,0.3 3.71,0.48 5.1,0.61l3.33,0.37c0.36,0.04 0.71,0.12 1.05,0.23z" fill="#263238"/>
<path id="Trac횄짤 10299" d="M270.8881,322.51l-0.48,-0.13l-1.35,-0.48c-0.73,-0.27 -1.43,-0.59 -2.11,-0.98c-0.95,-0.5 -1.86,-1.06 -2.74,-1.67c-5.59,-3.78 -10.84,-8.04 -15.69,-12.74c-6.3,-5.73 -13.47,-12.94 -21.92,-20.39c-4.22,-3.69 -8.9,-7.32 -13.67,-11.16c-4.77,-3.84 -9.81,-7.7 -15.1,-11.47c-9.8,-7.28 -20.51,-13.22 -31.87,-17.68c-9.32,-3.53 -19.19,-5.36 -29.16,-5.41c-6.72,0 -13.39,1.1 -19.76,3.24l-2.96,1.12c-0.84,0.33 -1.53,0.68 -2.11,0.93l-1.31,0.56c-0.15,0.08 -0.3,0.14 -0.45,0.19c0,0 0.13,-0.1 0.41,-0.25l1.27,-0.67c0.56,-0.26 1.25,-0.65 2.09,-1.01l2.95,-1.18c6.37,-2.29 13.09,-3.48 19.86,-3.53c10.05,-0.06 20.04,1.72 29.45,5.26c11.45,4.45 22.24,10.41 32.1,17.73c5.29,3.79 10.32,7.68 15.11,11.51c4.79,3.82 9.44,7.48 13.68,11.22c8.44,7.52 15.57,14.76 21.81,20.54c4.79,4.71 9.96,9.03 15.45,12.91c0.86,0.6 1.76,1.16 2.68,1.66c0.66,0.39 1.35,0.74 2.06,1.05l1.31,0.55c0.17,0.07 0.32,0.17 0.45,0.28z" fill="#263238"/>
<path id="Trac횄짤 10300" d="M85.9081,329.63c-0.21,-0.64 -0.35,-1.31 -0.43,-1.98c-0.24,-1.28 -0.49,-3.16 -0.74,-5.47c-0.64,-6.08 -0.83,-12.19 -0.58,-18.29c0.24,-6.08 0.91,-12.12 2.01,-18.1c0.44,-2.3 0.85,-4.14 1.19,-5.41c0.12,-0.66 0.32,-1.32 0.58,-1.94c-0.01,0.68 -0.09,1.35 -0.25,2.01c-0.24,1.28 -0.55,3.14 -0.9,5.44c-1.87,11.96 -2.35,24.09 -1.43,36.16c0.17,2.31 0.33,4.17 0.45,5.47c0.13,0.7 0.16,1.41 0.1,2.11z" fill="#263238"/>
<path id="Trac횄짤 10301" d="M187.9281,569.04c-0.23,0 -12.61,-37.94 -27.66,-84.83c-15.05,-46.88 -27.06,-85.09 -26.83,-85.17c0.24,-0.08 12.61,37.94 27.66,84.91c15.06,46.97 27.15,85.01 26.83,85.09z" fill="#263238"/>
<path id="Trac횄짤 10302" d="M185.2481,598.91c-0.23,0 -3.24,-8.76 -6.65,-19.73c-3.41,-10.96 -6.1,-19.95 -5.87,-19.95c0.23,0 3.23,8.74 6.65,19.72c3.43,10.98 6.09,19.89 5.87,19.96z" fill="#263238"/>
<g id="Groupe 8466" opacity="0.3">
<path id="Trac횄짤 10303" d="M212.1981,417.43c-14.51,13.54 -87.06,-20.95 -116.11,-53.35c1.36,7.65 5.09,14.68 10.66,20.09c13.3,12.96 26.61,22.89 42.13,35.19c18.79,14.97 39.35,28.83 62.79,34.17c23.43,5.34 48.94,0.1 65.33,-17.48c-22.12,-6.17 -48.64,-14.06 -64.8,-18.62z" fill="black"/>
</g>
<path id="Trac횄짤 10304" d="M82.8481,324.68c0,0.15 -1.32,-0.4 -3.45,-0.72c-1.24,-0.18 -2.51,-0.22 -3.77,-0.12c-1.54,0.15 -3.05,0.48 -4.51,0.99c-1.44,0.53 -2.81,1.24 -4.09,2.11c-1.04,0.71 -2,1.54 -2.84,2.48c-1.45,1.66 -2.07,2.82 -2.2,2.74c0.31,-1.16 0.88,-2.24 1.66,-3.14c0.83,-1.03 1.79,-1.96 2.85,-2.75c2.63,-1.92 5.76,-3.04 9.01,-3.22c1.32,-0.07 2.64,0.03 3.93,0.31c1.22,0.16 2.39,0.61 3.41,1.32z" fill="#FAFAFA"/>
<path id="Trac횄짤 10305" d="M229.5781,295.07c-1.68,-1.34 -3.52,-2.45 -5.47,-3.33c-5.45,-2.22 -11.48,-2.61 -17.17,-1.11c-7.27,1.66 -14.85,6.75 -21.42,14.02c-6.57,7.27 -12.39,16.48 -19.96,25.08c-3.62,4.26 -7.86,7.94 -12.59,10.93c-4.46,2.7 -9.34,4.62 -14.44,5.7c-4.6,1.02 -9.32,1.35 -14.02,0.99l-1.66,-0.1l-1.66,-0.22c-1.05,-0.17 -2.1,-0.28 -3.1,-0.48c-1.92,-0.39 -3.82,-0.88 -5.69,-1.48c-5.67,-1.74 -10.95,-4.57 -15.55,-8.32c-1.26,-1.01 -2.44,-2.13 -3.52,-3.33l-0.87,-0.89c-0.1,-0.11 -0.19,-0.22 -0.26,-0.34c0,0 0.11,0.09 0.33,0.27l0.91,0.85c1.14,1.12 2.35,2.16 3.63,3.12c4.63,3.62 9.89,6.33 15.52,8c1.9,0.61 3.84,1.1 5.8,1.48c0.98,0.19 2.01,0.29 3.06,0.44l1.57,0.21l1.66,0.09c4.62,0.32 9.27,-0.03 13.79,-1.05c5,-1.08 9.79,-2.98 14.17,-5.64c4.64,-2.95 8.82,-6.59 12.39,-10.78c7.47,-8.51 13.2,-17.83 19.96,-25.06c6.75,-7.24 14.42,-12.53 21.85,-14.07c5.81,-1.48 11.95,-0.99 17.45,1.39c1.47,0.68 2.85,1.53 4.11,2.53l0.93,0.83z" fill="#FAFAFA"/>
<path id="Trac횄짤 10306" d="M228.1581,381.89c-0.12,0.27 -0.27,0.52 -0.44,0.75c-0.32,0.48 -0.75,1.21 -1.42,2.08c-1.83,2.49 -3.86,4.83 -6.07,7c-14.82,14.69 -36.03,20.93 -56.45,16.63c-3,-0.62 -5.94,-1.47 -8.8,-2.56c-1.03,-0.36 -1.79,-0.75 -2.33,-0.96c-0.27,-0.11 -0.53,-0.25 -0.78,-0.4c1.09,0.27 2.17,0.62 3.21,1.05c2.91,0.96 5.89,1.73 8.9,2.29c20.2,3.9 41.03,-2.25 55.87,-16.5c2.22,-2.11 4.31,-4.36 6.24,-6.75c0.64,-0.92 1.33,-1.79 2.07,-2.63z" fill="#FAFAFA"/>
<path id="Trac횄짤 10307" d="M142.0281,432.14c-0.15,0.02 -0.29,0.02 -0.44,0h-1.24c-0.69,-0.04 -1.37,-0.04 -2.05,0c-0.92,-0.01 -1.84,0.04 -2.76,0.15c-5.9,0.56 -11.54,2.72 -16.3,6.25c-3.28,2.39 -6.06,5.39 -8.2,8.83c-2.54,3.91 -3.79,8.51 -3.58,13.16c0.19,2.44 1.1,4.77 2.61,6.69c1.59,2.03 3.87,3.4 6.41,3.85c2.65,0.33 5.3,-0.55 7.23,-2.39c2.03,-1.88 3.35,-4.39 3.75,-7.12c0.58,-5.5 -0.82,-11.03 -3.96,-15.58c-2.84,-4.31 -6.66,-7.88 -11.15,-10.42c-4.04,-2.33 -8.48,-3.87 -13.1,-4.54c-4.04,-0.55 -8.13,-0.55 -12.16,0c-5.87,0.84 -11.58,2.56 -16.93,5.09c-1.92,0.88 -3.33,1.67 -4.33,2.15l-1.11,0.58c-0.25,0.13 -0.38,0.2 -0.4,0.18l0.35,-0.25l1.08,-0.66c0.95,-0.57 2.36,-1.38 4.26,-2.31c5.34,-2.66 11.06,-4.47 16.96,-5.38c4.1,-0.62 8.26,-0.66 12.36,-0.11c4.72,0.65 9.27,2.2 13.41,4.57c4.61,2.58 8.53,6.23 11.46,10.63c3.25,4.73 4.71,10.47 4.09,16.18c-0.43,2.93 -1.85,5.62 -4.03,7.62c-2.11,2.02 -5.02,2.98 -7.91,2.61c-2.75,-0.48 -5.21,-1.97 -6.92,-4.17c-1.6,-2.09 -2.54,-4.61 -2.68,-7.24c-0.2,-4.82 1.12,-9.58 3.77,-13.6c2.2,-3.53 5.06,-6.58 8.44,-9c4.87,-3.54 10.63,-5.65 16.63,-6.1c0.94,-0.06 1.87,-0.06 2.81,0c0.68,-0.01 1.37,0.03 2.05,0.13l1.24,0.16c0.11,0 0.23,0.01 0.34,0.04z" fill="#FAFAFA"/>
<path id="Trac횄짤 10308" d="M269.0481,485.31l-0.5,0.37l-1.5,0.98c-1.96,1.22 -4,2.29 -6.12,3.21c-3.34,1.49 -6.84,2.61 -10.43,3.32c-4.75,0.99 -9.63,1.18 -14.45,0.59c-2.84,-0.37 -5.62,-1.03 -8.32,-1.98c-2.87,-1.08 -5.6,-2.51 -8.11,-4.28c-5.6,-3.9 -9.95,-9.32 -12.56,-15.61c-1.4,-3.41 -2.17,-7.05 -2.25,-10.73c-0.03,-1.91 0.14,-3.81 0.54,-5.67c0.88,-3.85 2.76,-7.39 5.45,-10.28c1.36,-1.51 2.98,-2.76 4.77,-3.71c1.83,-1.01 3.86,-1.57 5.94,-1.67c2.12,-0.04 4.22,0.5 6.06,1.57c3.57,2.24 5.97,5.96 6.53,10.14c0.72,3.98 0.07,8.09 -1.84,11.65c-2.01,3.32 -4.88,6.04 -8.32,7.85c-3.26,1.69 -6.79,2.82 -10.43,3.32c-3.44,0.53 -6.94,0.61 -10.41,0.24c-3.26,-0.29 -6.49,-0.84 -9.66,-1.67c-5.68,-1.5 -11.17,-3.62 -16.39,-6.32c-7.49,-3.95 -14.66,-8.49 -21.44,-13.57c-2.42,-1.76 -4.27,-3.16 -5.53,-4.12l-1.42,-1.1c-0.17,-0.12 -0.32,-0.25 -0.46,-0.4c0.18,0.09 0.35,0.2 0.51,0.33l1.48,1.03l5.61,3.99c6.87,4.96 14.1,9.41 21.62,13.31c5.19,2.64 10.64,4.71 16.27,6.19c3.12,0.82 6.31,1.39 9.53,1.69c3.4,0.34 6.83,0.25 10.21,-0.28c3.55,-0.51 6.99,-1.63 10.16,-3.32c3.3,-1.74 6.05,-4.34 7.97,-7.54c1.82,-3.39 2.44,-7.3 1.74,-11.09c-0.51,-3.94 -2.75,-7.44 -6.12,-9.55c-1.7,-0.99 -3.64,-1.49 -5.6,-1.45c-1.94,0.06 -3.84,0.57 -5.56,1.48c-3.36,1.89 -6.09,4.73 -7.83,8.17c-0.89,1.65 -1.56,3.41 -1.98,5.24c-0.38,1.8 -0.55,3.63 -0.52,5.47c0.07,3.59 0.8,7.13 2.17,10.45c3.73,9.02 11.02,16.1 20.16,19.56c2.61,0.95 5.32,1.61 8.08,1.99c4.75,0.63 9.58,0.48 14.29,-0.43c3.56,-0.68 7.04,-1.74 10.37,-3.16c2.12,-0.89 4.17,-1.9 6.16,-3.04l1.55,-0.92c0.18,-0.11 0.37,-0.19 0.58,-0.25z" fill="#FAFAFA"/>
<path id="Trac횄짤 10309" d="M166.8881,511.97c-0.96,0.07 -1.92,0.07 -2.88,0c-0.91,0 -2.04,0 -3.32,0c-1.28,0 -2.8,0 -4.44,0.17c-1.65,0.17 -3.43,0.22 -5.34,0.48c-1.92,0.27 -3.96,0.57 -6.09,0.93c-9.25,1.77 -18.16,4.96 -26.43,9.47c-1.88,1.08 -3.69,2.08 -5.3,3.14c-1.62,1.06 -3.11,2.06 -4.45,3.01c-1.33,0.95 -2.49,1.9 -3.52,2.7c-1.03,0.79 -1.9,1.51 -2.6,2.12c-0.7,0.65 -1.44,1.25 -2.22,1.8c0.6,-0.75 1.27,-1.44 2.01,-2.06c0.65,-0.65 1.48,-1.42 2.49,-2.25c1.02,-0.83 2.13,-1.83 3.48,-2.79c1.35,-0.97 2.78,-2.08 4.42,-3.13c1.65,-1.05 3.33,-2.13 5.31,-3.24c8.32,-4.63 17.35,-7.85 26.73,-9.53c2.16,-0.35 4.2,-0.72 6.15,-0.87c1.95,-0.15 3.74,-0.31 5.41,-0.38c1.66,-0.07 3.14,0 4.45,0c1.11,-0.01 2.22,0.04 3.33,0.15c0.94,0.02 1.88,0.11 2.81,0.28z" fill="#FAFAFA"/>
<path id="Trac횄짤 10310" d="M280.9381,535.97c-0.25,0.27 -0.53,0.51 -0.83,0.72c-0.58,0.45 -1.4,1.15 -2.55,1.93c-3.17,2.28 -6.5,4.33 -9.98,6.12c-23.31,12.13 -50.9,12.89 -74.84,2.06c-3.57,-1.59 -7.02,-3.44 -10.31,-5.54c-1.19,-0.71 -2.03,-1.38 -2.63,-1.78c-0.31,-0.2 -0.61,-0.43 -0.88,-0.68c0.34,0.13 0.66,0.31 0.96,0.53c0.63,0.37 1.53,0.97 2.73,1.67c3.35,1.97 6.81,3.73 10.38,5.27c23.85,10.41 51.09,9.66 74.33,-2.06c3.48,-1.74 6.84,-3.69 10.08,-5.86c1.16,-0.73 2.01,-1.38 2.62,-1.78c0.28,-0.24 0.59,-0.44 0.92,-0.6z" fill="#FAFAFA"/>
<path id="Trac횄짤 10311" d="M185.8481,258.36c0,0 0,0.17 0,0.47l-0.26,1.38c-0.48,1.74 -1.17,3.42 -2.07,4.99c-2.28,4.14 -7.31,9.06 -14.7,13.06c-4.02,2.19 -8.2,4.05 -12.52,5.57c-4.98,1.79 -10.25,2.62 -15.54,2.43c-5.92,-0.2 -11.6,-2.42 -16.08,-6.31c-2.3,-2.12 -4.08,-4.75 -5.19,-7.68c-1.19,-3.03 -1.47,-6.34 -0.8,-9.52c1.45,-6.46 7.06,-11.14 13.67,-11.41c3.1,0.08 6.04,1.43 8.12,3.73c2.04,2.15 3.22,4.97 3.33,7.93c-0.02,2.85 -1.27,5.54 -3.43,7.39c-2,1.68 -4.39,2.82 -6.95,3.32c-4.54,0.85 -9.21,0.71 -13.69,-0.39c-6.5,-1.4 -12.63,-4.16 -17.98,-8.1c-1.99,-1.41 -3.81,-3.02 -5.44,-4.83c0.14,0.09 0.26,0.19 0.38,0.3l1.03,0.93c1.35,1.19 2.76,2.3 4.23,3.33c5.35,3.79 11.41,6.44 17.83,7.78c4.4,1.04 8.97,1.14 13.4,0.29c2.46,-0.48 4.75,-1.58 6.66,-3.2c1.98,-1.71 3.12,-4.2 3.12,-6.82c-0.11,-2.75 -1.22,-5.36 -3.11,-7.37c-1.93,-2.12 -4.64,-3.37 -7.51,-3.44c-6.22,0.29 -11.47,4.7 -12.84,10.76c-0.62,3.02 -0.36,6.15 0.76,9.02c1.08,2.8 2.78,5.32 4.99,7.37c4.33,3.75 9.81,5.91 15.53,6.12c5.2,0.21 10.38,-0.58 15.27,-2.32c4.27,-1.48 8.41,-3.29 12.39,-5.42c7.36,-3.89 12.38,-8.68 14.71,-12.69c1.23,-2.07 2.14,-4.32 2.69,-6.67z" fill="#FAFAFA"/>
<path id="Trac횄짤 10312" d="M179.9281,588.38c-1.48,0.2 -2.98,0.3 -4.47,0.32c-7.19,0.49 -14.21,2.41 -20.64,5.65c-1.31,0.75 -2.65,1.42 -4.03,2.02c1.12,-1.02 2.37,-1.88 3.73,-2.57c3.19,-1.78 6.58,-3.17 10.11,-4.14c3.52,-0.97 7.14,-1.5 10.79,-1.58c1.51,-0.1 3.03,0 4.51,0.3z" fill="#FAFAFA"/>
<path id="Trac횄짤 10313" d="M243.1281,595.87c-0.69,0.23 -1.4,0.4 -2.13,0.5c-1.94,0.36 -3.91,0.63 -5.88,0.79c-13.12,1.15 -26.32,-1.03 -38.37,-6.33c-2.3,-1.03 -4.11,-1.95 -5.33,-2.65c-0.65,-0.32 -1.27,-0.71 -1.84,-1.16c0.69,0.21 1.36,0.49 1.99,0.85c1.27,0.61 3.11,1.44 5.41,2.39c12.06,4.95 25.08,7.1 38.09,6.29c2.49,-0.15 4.5,-0.33 5.89,-0.52c0.71,-0.13 1.44,-0.19 2.17,-0.16z" fill="#FAFAFA"/>
<path id="Trac횄짤 10314" d="M305.8681,336.38c0,0 8.88,-16.36 18.3,-13.55c9.41,2.81 10.66,4.67 10.66,4.67c0,0 5.69,-7.95 15.52,-0.46c0,0 11.21,-7.49 21.95,0.46c0,0 9.81,-5.93 15.42,1.95c5.6,7.88 16.83,27.03 15.43,49c-1.39,21.97 -9.66,94.14 -9.66,94.14l-75.51,13.17c0,0 16.85,-68.08 9.88,-74.51c-13.99,-12.89 -20.33,-39.92 -20.33,-39.92l-16.63,-26.61c0,0 3.33,-14.02 12.16,-5.14c6.26,6.41 12.18,13.14 17.75,20.16l-1.87,-18.3c0,0 -12.14,4.29 -13.07,-5.06z" fill="#936754"/>
<path id="Trac횄짤 10315" d="M318.2781,333.69c0.55,1.61 0.82,3.29 0.8,4.99c0.28,1.68 0.28,3.39 0,5.07c-0.55,-1.6 -0.82,-3.29 -0.8,-4.99c-0.29,-1.68 -0.29,-3.39 0,-5.07z" fill="#7C5142"/>
<path id="Trac횄짤 10316" d="M342.9281,349.61c-0.25,0 -1.2,-5.18 -3.41,-11.3c-2.21,-6.12 -4.79,-10.76 -4.56,-10.87c0.79,0.86 1.43,1.84 1.91,2.91c1.36,2.46 2.52,5.03 3.46,7.68c0.96,2.64 1.7,5.36 2.23,8.12c0.3,1.13 0.42,2.29 0.37,3.46z" fill="#7C5142"/>
<path id="Trac횄짤 10317" d="M357.4981,343.01c-0.79,-3.18 -1.9,-6.26 -3.33,-9.2c-1.65,-2.81 -3.6,-5.43 -5.8,-7.84c5.56,3.91 8.93,10.24 9.06,17.04z" fill="#7C5142"/>
<path id="Trac횄짤 10318" d="M378.7181,341.84c-0.25,0.08 -1.48,-3.74 -3.53,-8.22c-2.04,-4.47 -4.05,-7.93 -3.84,-8.06c3.7,4.78 6.22,10.35 7.37,16.28z" fill="#7C5142"/>
<path id="Trac횄짤 10319" d="M329.3681,413.23c0.03,0.14 0.03,0.29 0,0.43c0,0.33 0,0.75 0,1.26c0,1.12 0,2.76 0,4.89c-0.2,5.99 -0.75,11.96 -1.66,17.88c-1.38,8.79 -3.53,17.44 -6.4,25.85c-3.16,9.53 -7.41,19.71 -11.43,30.52c-3.85,10.13 -6.7,20.62 -8.53,31.3c-1.51,8.72 -1.74,17.61 -0.68,26.4c0.73,5.92 2.31,11.71 4.69,17.18c0.33,0.87 0.73,1.72 1.18,2.54l0.94,1.83c0.22,0.47 0.42,0.83 0.57,1.15c0.07,0.13 0.12,0.26 0.17,0.4c-0.1,-0.11 -0.19,-0.23 -0.25,-0.37l-0.64,-1.09l-1.01,-1.8c-0.49,-0.81 -0.91,-1.65 -1.26,-2.53c-2.52,-5.46 -4.2,-11.27 -4.99,-17.23c-1.15,-8.85 -0.97,-17.81 0.51,-26.61c1.8,-10.75 4.66,-21.29 8.55,-31.47c4.04,-10.84 8.32,-21.01 11.48,-30.47c2.92,-8.36 5.15,-16.95 6.65,-25.68c0.94,-5.9 1.57,-11.85 1.88,-17.81c0,-2.07 0.12,-3.7 0.17,-4.88c0,-0.51 0,-0.93 0,-1.26c0,-0.15 0.02,-0.29 0.06,-0.43z" fill="#7C5142"/>
<path id="Trac횄짤 10320" d="M459.6681,346.08c0,0 23.64,82.63 28.38,110.24c4.74,27.61 25.93,99.25 69.29,85.06c43.36,-14.19 51.27,-50.55 49.69,-89.95c-1.58,-39.4 -23.05,-132.13 -23.05,-132.13l-56,37.99l-9.98,-42.11z" fill="#936754"/>
<path id="Trac횄짤 10321" d="M468.0181,236.87c0,0 -12.92,-9.79 -22,4.89c0,0 -5.96,-7.1 -12.94,-1.66c-6.99,5.44 -1.38,18.43 -1.38,18.43c0,0 -7.87,-0.97 -4.38,19.96c0,0 -9.98,6.52 -2.28,21.62c6.49,12.72 29.04,38.92 34.63,45.9l8.32,13.74l49.13,-40.45c0,0 10.98,-19.56 7.48,-29.34c-2.09,-4.98 -4.89,-9.64 -8.31,-13.83c-2.03,-2.66 -5.08,-4.34 -8.41,-4.64c-3.33,-0.29 -6.63,0.84 -9.09,3.11v0z" fill="#936754"/>
<path id="Trac횄짤 10322" d="M462.7781,264.42c-0.35,0.36 -3.97,-4.99 -8.45,-11.26c-2.24,-3.18 -4.32,-6.02 -5.85,-8.05c-0.9,-1.05 -1.72,-2.16 -2.46,-3.33c1.11,0.83 2.1,1.82 2.92,2.94c1.67,1.93 3.85,4.74 6.09,7.94c2.25,3.19 4.21,6.14 5.59,8.31z" fill="#7C5142"/>
<path id="Trac횄짤 10323" d="M508.7981,289.93c-0.1,0.08 -0.81,-0.83 -1.94,-2.33c-1.13,-1.49 -2.71,-3.52 -4.38,-5.85c-2.19,-2.7 -3.94,-5.72 -5.19,-8.97c0.2,-0.1 2.5,3.89 5.89,8.47c2.18,2.68 4.07,5.59 5.62,8.68z" fill="#7C5142"/>
<path id="Trac횄짤 10324" d="M443.6381,280.37c-0.91,-1.01 -1.69,-2.13 -2.31,-3.33c-1.32,-2.08 -3.03,-4.99 -4.78,-8.32c-1.74,-3.32 -3.16,-6.43 -4.12,-8.69c-0.6,-1.2 -1.06,-2.46 -1.37,-3.76c0.76,1.09 1.4,2.26 1.92,3.49c1.09,2.21 2.61,5.24 4.35,8.57c1.75,3.32 3.33,6.3 4.53,8.46c0.7,1.14 1.3,2.33 1.78,3.58z" fill="#7C5142"/>
<path id="Trac횄짤 10325" d="M435.8381,300.18c-0.58,-0.99 -1.05,-2.03 -1.4,-3.11c-0.8,-1.95 -1.95,-4.61 -3.33,-7.55c-1.74,-3.49 -3.04,-7.19 -3.86,-11c0.59,0.98 1.06,2.03 1.42,3.11c0.78,1.95 1.94,4.61 3.32,7.55c1.76,3.48 3.05,7.18 3.85,11z" fill="#7C5142"/>
<path id="Trac횄짤 10369" d="M562.1781,472.59c-0.06,-0.13 -0.1,-0.25 -0.14,-0.39c-0.1,-0.31 -0.21,-0.69 -0.35,-1.16c-0.31,-1.11 -0.73,-2.61 -1.28,-4.52c-1.09,-4 -2.67,-9.67 -4.6,-16.64c-3.93,-14.02 -9.63,-33.26 -16.02,-54.6c-6.39,-21.34 -12.01,-40.63 -15.79,-54.7c-1.89,-7.04 -3.32,-12.74 -4.35,-16.64c-0.47,-1.91 -0.83,-3.44 -1.1,-4.55l-0.27,-1.18c-0.02,-0.14 -0.02,-0.28 0,-0.42c0.07,0.13 0.12,0.26 0.15,0.4c0,0.3 0.2,0.68 0.35,1.16c0.3,1.1 0.73,2.61 1.27,4.51l4.6,16.63c3.93,14.04 9.63,33.27 16.04,54.62c6.4,21.36 11.99,40.62 15.78,54.69c1.88,7.04 3.33,12.74 4.34,16.63c0.47,1.93 0.83,3.45 1.12,4.56c0.1,0.48 0.18,0.87 0.26,1.2c0.02,0.13 0.01,0.27 -0.01,0.4z" fill="#7C5142"/>
</g>
<g id="freepik--Desk--inject-67">
<path id="Trac횄짤 10370" d="M712.4681,601.8c0,0.25 -159.51,0.44 -356.22,0.44c-196.71,0 -356.25,-0.19 -356.25,-0.44c0,-0.25 159.47,-0.43 356.25,-0.43c196.78,0 356.22,0.2 356.22,0.43z" fill="#263238"/>
</g>
</g></svg>