<svg viewBox="0 0 49.3603 54.3612" fill="none" xmlns="http://www.w3.org/2000/svg" xmlns:xlink="http://www.w3.org/1999/xlink" x="0" y="0"><g id="playstore-svgrepo-com">
<g id="Groupe 8555">
<path id="Trac횄짤 10485" d="M38.0956,18.6193c-6.31,-3.5 -16.45,-9.2 -32.17,-18c-1.06,-0.7 -2.28,-0.8 -3.33,-0.4l26.97,27z" fill="#32BBFF"/>
<path id="Trac횄짤 10486" d="M2.5956,0.2193c-0.2,0.1 -0.39,0.1 -0.58,0.2c-1.16,0.7 -2.02,1.9 -2.02,3.4v46.7c0,1.5 0.86,2.8 2.02,3.4c0.19,0.1 0.38,0.2 0.58,0.2l26.97,-26.9z" fill="#32BBFF"/>
<path id="Trac횄짤 10487" d="M29.5656,27.2193l-26.97,26.9c1.05,0.4 2.27,0.3 3.33,-0.4c15.25,-8.5 25.27,-14.1 31.66,-17.7c0.17,-0.1 0.35,-0.2 0.52,-0.3z" fill="#32BBFF"/>
</g>
<path id="Trac횄짤 10488" d="M-0.0044,27.2193v23.3c0,1.5 0.86,2.8 2.02,3.4c0.19,0.1 0.38,0.2 0.58,0.2l26.97,-26.9z" fill="#2C9FD9"/>
<path id="Trac횄짤 10489" d="M5.9256,0.6193c-1.26,-0.8 -2.74,-0.8 -3.91,-0.2l27.14,27.2l8.94,-9c-6.31,-3.5 -16.45,-9.2 -32.17,-18z" fill="#29CC5E"/>
<path id="Trac횄짤 10490" d="M29.1556,26.8193l-27.14,27.1c1.17,0.6 2.65,0.6 3.91,-0.2c15.25,-8.5 25.27,-14.1 31.66,-17.7c0.17,-0.1 0.35,-0.2 0.52,-0.3z" fill="#D93F21"/>
<path id="Trac횄짤 10491" d="M49.3556,27.2193c0,-1.3 -0.65,-2.6 -1.94,-3.4c0,0 -2.42,-1.3 -9.84,-5.5l-8.83,8.9l8.84,8.8c7.33,-4.1 9.83,-5.5 9.83,-5.5c1.29,-0.7 1.94,-2 1.94,-3.3z" fill="#FFD500"/>
<path id="Trac횄짤 10492" d="M47.4156,30.5193c1.29,-0.7 1.94,-2 1.94,-3.3h-20.61l8.84,8.8c7.33,-4.1 9.83,-5.5 9.83,-5.5z" fill="#FFAA00"/>
</g></svg>