<svg viewBox="0 0 18.9641 18.9641" fill="none" xmlns="http://www.w3.org/2000/svg" xmlns:xlink="http://www.w3.org/1999/xlink" x="0" y="0"><g id="fi-br-grid">
<path id="Trac횄짤 10185" d="M1.58,13.828h1.976c0.873,0 1.58,0.708 1.58,1.58v1.976c0,0.873 -0.707,1.58 -1.58,1.58h-1.976c-0.872,0 -1.58,-0.707 -1.58,-1.58v-1.976c0,-0.872 0.708,-1.58 1.58,-1.58z" fill="currentColor"/>
<path id="Trac횄짤 10186" d="M15.408,13.828h1.976c0.873,0 1.58,0.708 1.58,1.58v1.976c0,0.873 -0.707,1.58 -1.58,1.58h-1.976c-0.872,0 -1.58,-0.707 -1.58,-1.58v-1.976c0,-0.872 0.708,-1.58 1.58,-1.58z" fill="currentColor"/>
<path id="Trac횄짤 10187" d="M1.58,6.914h1.976c0.873,0 1.58,0.708 1.58,1.58v1.976c0,0.873 -0.707,1.58 -1.58,1.58h-1.976c-0.872,0 -1.58,-0.707 -1.58,-1.58v-1.976c0,-0.872 0.708,-1.58 1.58,-1.58z" fill="currentColor"/>
<path id="Trac횄짤 10188" d="M15.408,6.914h1.976c0.873,0 1.58,0.708 1.58,1.58v1.976c0,0.873 -0.707,1.58 -1.58,1.58h-1.976c-0.872,0 -1.58,-0.707 -1.58,-1.58v-1.976c0,-0.872 0.708,-1.58 1.58,-1.58z" fill="currentColor"/>
<path id="Trac횄짤 10189" d="M1.58,0h1.976c0.873,0 1.58,0.708 1.58,1.58v1.976c0,0.873 -0.707,1.58 -1.58,1.58h-1.976c-0.872,0 -1.58,-0.707 -1.58,-1.58v-1.976c0,-0.872 0.708,-1.58 1.58,-1.58z" fill="currentColor"/>
<path id="Trac횄짤 10190" d="M8.494,13.828h1.976c0.873,0 1.58,0.708 1.58,1.58v1.976c0,0.873 -0.707,1.58 -1.58,1.58h-1.976c-0.872,0 -1.58,-0.707 -1.58,-1.58v-1.976c0,-0.872 0.708,-1.58 1.58,-1.58z" fill="currentColor"/>
<path id="Trac횄짤 10191" d="M8.494,6.914h1.976c0.873,0 1.58,0.708 1.58,1.58v1.976c0,0.873 -0.707,1.58 -1.58,1.58h-1.976c-0.872,0 -1.58,-0.707 -1.58,-1.58v-1.976c0,-0.872 0.708,-1.58 1.58,-1.58z" fill="currentColor"/>
<path id="Trac횄짤 10192" d="M8.494,0h1.976c0.873,0 1.58,0.708 1.58,1.58v1.976c0,0.873 -0.707,1.58 -1.58,1.58h-1.976c-0.872,0 -1.58,-0.707 -1.58,-1.58v-1.976c0,-0.872 0.708,-1.58 1.58,-1.58z" fill="currentColor"/>
<path id="Trac횄짤 10193" d="M15.408,0h1.976c0.873,0 1.58,0.708 1.58,1.58v1.976c0,0.873 -0.707,1.58 -1.58,1.58h-1.976c-0.872,0 -1.58,-0.707 -1.58,-1.58v-1.976c0,-0.872 0.708,-1.58 1.58,-1.58z" fill="currentColor"/>
</g></svg>