<svg viewBox="0 0 116.9786 25.3747" fill="none" xmlns="http://www.w3.org/2000/svg" xmlns:xlink="http://www.w3.org/1999/xlink" x="0" y="0"><path id="gucci-4_2" d="M23.3475,16.9505v5.47c-1.96,1.75 -6.67,2.79 -10.17,2.79c-3.5,0 -13.18,-2.19 -13.18,-12.47c0,-10.28 9.22,-12.5 12.93,-12.5c3.73,0 7.69,0.68 9.99,2.22v4.81c0,0.6 -0.83,0.54 -0.83,0c-0.05,-0.82 -2.24,-5.74 -7.71,-5.63c-5.9,0.12 -9.89,4.76 -9.89,10.88c0,6.12 3.88,11.37 9.73,11.21c1.9,-0.06 3.88,-0.66 4.84,-1.45l0.03,-5.33c0,-1.53 -0.93,-2.08 -1.86,-2.08c-0.61,0 -0.61,-0.87 0,-0.87h7.98c0.6,0 0.6,0.93 0,0.87c-0.92,0 -1.86,0.55 -1.86,2.08zM77.1675,7.2705c0,0.6 -0.6,0.55 -0.6,0c-0.06,-0.82 -2.25,-5.9 -7.72,-5.79c-5.9,0.12 -9.9,4.92 -9.9,11.04c0,6.12 3.83,11.54 9.68,11.38c5.86,-0.17 8.64,-5.96 8.86,-6.73c0.22,-0.76 0.61,-0.65 0.61,-0.05v4.48c-2.41,1.75 -6.95,3.61 -10.45,3.61c-3.5,0 -13.18,-2.19 -13.18,-12.47c0,-10.28 9.19,-12.74 12.91,-12.74c3.72,0 7.49,0.93 9.79,2.46v4.81zM116.3275,0.6005c0.87,0 0.87,0.82 0,0.82c-0.94,0 -1.87,0.55 -1.87,2.08v18.21c0,1.53 0.93,2.07 1.87,2.07c0.87,0 0.87,1.1 0,1.1h-8.04c-0.88,0 -0.88,-1.1 0,-1.1c0.93,0 1.86,-0.54 1.86,-2.07v-18.21c0,-1.54 -0.93,-2.08 -1.86,-2.08c-0.88,0 -0.88,-0.82 0,-0.82h8.04zM52.3875,0.6005c0.88,0 0.88,0.82 0,0.82c-0.93,0 -1.85,0.55 -1.85,2.08l-0.11,11.95c0,5.72 -4.64,9.92 -10.37,9.92c-5.72,0 -10.19,-4.2 -10.19,-9.92v-11.95c0,-1.54 -0.94,-2.08 -1.87,-2.08c-0.87,0 -0.87,-0.82 0,-0.82h8.1c0.87,0 0.87,0.82 0,0.82c-0.93,0 -1.86,0.55 -1.86,2.08l-0.01,13.34c0,4.04 3.3,7.31 7.33,7.31c4.04,0 7.31,-4.09 7.31,-8.12l-0.19,-12.53c0,-1.54 -0.93,-2.08 -1.87,-2.08c-0.86,0 -0.86,-0.82 0,-0.82h5.58zM103.9075,7.2705c0,0.6 -0.6,0.55 -0.6,0c-0.06,-0.82 -2.24,-5.9 -7.71,-5.79c-5.91,0.12 -9.9,4.92 -9.9,11.04c0,6.12 3.82,11.54 9.68,11.38c5.85,-0.16 8.64,-5.96 8.86,-6.73c0.22,-0.76 0.6,-0.65 0.6,-0.05v4.48c-2.41,1.75 -6.94,3.61 -10.45,3.61c-3.49,0 -13.17,-2.19 -13.17,-12.47c0,-10.28 9.18,-12.74 12.91,-12.74c3.71,0 7.49,0.93 9.78,2.46v4.81z" fill="black"/></svg>