<svg viewBox="0 0 26.1097 26.1097" fill="none" xmlns="http://www.w3.org/2000/svg" xmlns:xlink="http://www.w3.org/1999/xlink" x="0" y="0"><g id="fi-rr-info">
<path id="Tracé 10507" d="M13.0549,-0.0129c-7.21,0 -13.055,5.9 -13.055,13.1c0,7.2 5.845,13 13.055,13c7.21,0 13.055,-5.8 13.055,-13c-0.008,-7.2 -5.848,-13.1 -13.055,-13.1zM13.0549,23.8871c-6.008,0 -10.879,-4.8 -10.879,-10.8c0,-6 4.871,-10.9 10.879,-10.9c6.008,0 10.879,4.9 10.879,10.9c-0.007,6 -4.873,10.8 -10.879,10.8z" fill="currentColor"/>
<path id="Tracé 10508" d="M13.0549,10.8871h-1.088c-0.601,0 -1.088,0.5 -1.088,1.1c0,0.6 0.487,1.1 1.088,1.1h1.088v6.5c0,0.6 0.487,1.1 1.088,1.1c0.601,0 1.088,-0.5 1.088,-1.1v-6.5c0,-1.2 -0.974,-2.2 -2.176,-2.2z" fill="currentColor"/>
<circle id="Ellipse 486" cx="13.054900000000032" cy="7.087099999998827" r="1.63186" fill="currentColor"/>
</g></svg>