<svg viewBox="0 0 26.1097 26.1097" fill="none" xmlns="http://www.w3.org/2000/svg" xmlns:xlink="http://www.w3.org/1999/xlink" x="0" y="0"><g id="fi-rr-info_3">
<path id="Tracé 10507_3" d="M13.0545,-0.0129c-7.21,0 -13.05,5.9 -13.05,13.1c0,7.2 5.84,13 13.05,13c7.21,0 13.06,-5.8 13.06,-13c-0.01,-7.2 -5.85,-13.1 -13.06,-13.1zM13.0545,23.8871c-6.01,0 -10.88,-4.8 -10.88,-10.8c0,-6 4.87,-10.9 10.88,-10.9c6.01,0 10.88,4.9 10.88,10.9c-0.01,6 -4.87,10.8 -10.88,10.8z" fill="currentColor"/>
<path id="Tracé 10508_3" d="M13.0545,10.8871h-1.09c-0.6,0 -1.09,0.5 -1.09,1.1c0,0.6 0.49,1.1 1.09,1.1h1.09v6.5c0,0.6 0.49,1.1 1.09,1.1c0.6,0 1.09,-0.5 1.09,-1.1v-6.5c0,-1.2 -0.98,-2.2 -2.18,-2.2z" fill="currentColor"/>
<circle id="Ellipse 486_3" cx="13.054499999999962" cy="7.087099999998827" r="1.63186" fill="currentColor"/>
</g></svg>