<svg viewBox="0 0 38.9396 38.9491" fill="none" xmlns="http://www.w3.org/2000/svg" xmlns:xlink="http://www.w3.org/1999/xlink" x="0" y="0"><g id="fi-rr-link">
<path id="Tracé 10203" d="M22.4645,28.02l-5.293,5.29c-3.185,3.19 -8.351,3.19 -11.538,0c-3.186,-3.18 -3.187,-8.35 -0.001,-11.53l5.294,-5.3c0.633,-0.64 0.633,-1.66 -0.001,-2.3c-0.634,-0.63 -1.662,-0.63 -2.296,0l-5.291,5.3c-4.453,4.46 -4.451,11.68 0.004,16.13c4.455,4.45 11.676,4.45 16.129,0l5.293,-5.3c0.634,-0.63 0.634,-1.66 0,-2.29c-0.634,-0.64 -1.661,-0.64 -2.295,0z" fill="currentColor"/>
<path id="Tracé 10204" d="M35.6075,3.34c-2.133,-2.14 -5.037,-3.35 -8.063,-3.34v0c-3.025,-0.01 -5.928,1.19 -8.062,3.34l-5.301,5.29c-0.634,0.64 -0.635,1.66 -0.001,2.3c0.633,0.63 1.661,0.63 2.295,0l5.298,-5.29c1.526,-1.54 3.603,-2.4 5.767,-2.39v0c3.3,0 6.274,1.98 7.536,5.03c1.262,3.05 0.564,6.56 -1.769,8.89l-5.293,5.3c-0.634,0.63 -0.634,1.66 0,2.29c0.634,0.64 1.662,0.64 2.296,0l5.293,-5.29c4.447,-4.45 4.448,-11.67 0.004,-16.13z" fill="currentColor"/>
<path id="Tracé 10205" d="M23.1915,13.46l-9.736,9.73c-0.634,0.64 -0.634,1.66 0,2.3c0.634,0.63 1.661,0.63 2.295,0l9.736,-9.74c0.634,-0.63 0.634,-1.66 0,-2.29c-0.634,-0.64 -1.661,-0.64 -2.295,0z" fill="currentColor"/>
</g></svg>