<svg viewBox="0 0 47.3917 47.3885" fill="none" xmlns="http://www.w3.org/2000/svg" xmlns:xlink="http://www.w3.org/1999/xlink" x="0" y="0"><path id="Path_2520" d="M40.381,40.3449h-7.023v-11c0,-2.6 -0.046,-6 -3.652,-6c-3.657,0 -4.218,2.9 -4.218,5.8v11.2h-7.02v-22.6h6.742v3.1h0.094c1.375,-2.3 3.93,-3.7 6.651,-3.6c7.118,0 8.428,4.6 8.428,10.7zM10.544,14.6449c-2.251,0 -4.075,-1.8 -4.075,-4c0,-2.3 1.824,-4.1 4.075,-4.1c2.252,0 4.075,1.8 4.075,4.1c0,2.2 -1.823,4 -4.075,4zM14.054,40.3449h-7.029v-22.6h7.029zM43.882,0.0449h-40.386c-1.908,-0.1 -3.473,1.5 -3.496,3.4v40.5c0.023,1.9 1.588,3.5 3.496,3.4h40.386c1.912,0.1 3.484,-1.5 3.51,-3.4v-40.5c-0.028,-1.9 -1.6,-3.5 -3.51,-3.4" fill="currentColor"/></svg>