<svg viewBox="0 0 140.7895 62" fill="none" xmlns="http://www.w3.org/2000/svg" xmlns:xlink="http://www.w3.org/1999/xlink" x="0" y="0"><g id="Groupe 10051">
<g id="Groupe 3">
<path id="Trac횄짤 14" d="M39.898,12.9965c-1.9,-2.0941 -4.321,-3.7974 -7.265,-5.1084c-3.376,-1.5027 -6.722,-2.1382 -10.043,-1.9074c-3.319,0.2319 -6.312,1.278 -8.979,3.1422c-2.67,1.863 -4.719,4.4058 -6.153,7.6265c-1.435,3.2226 -1.953,6.4471 -1.55,9.6751c0.398,3.2316 1.623,6.156 3.672,8.7773c2.05,2.6225 4.762,4.6845 8.137,6.1872c1.117,0.4974 2.226,0.9001 3.326,1.21l0.54,-8.5337l-0.046,-0.0203c-1.749,-0.7786 -3.135,-1.8547 -4.159,-3.2304c-1.023,-1.3725 -1.601,-2.9249 -1.731,-4.6578c-0.132,-1.7293 0.208,-3.4982 1.015,-5.3097c0.805,-1.8091 1.893,-3.2461 3.267,-4.3067c1.373,-1.0614 2.914,-1.6704 4.619,-1.8313c1.707,-0.1574 3.435,0.151 5.184,0.9297c2.974,1.3242 4.945,3.7105 5.914,7.1539l8.133,-2.6639c-0.69,-2.6602 -1.984,-5.0372 -3.881,-7.1323z" fill="#0D0D0D"/>
<path id="Trac횄짤 15" d="M47.348,4.0305v22.9744l9.569,3.5538v-26.5282z" fill="#0D0D0D"/>
<path id="Trac횄짤 16" d="M72.132,2.2929c-1.076,-0.9235 -2.487,-1.3853 -4.233,-1.3853c-1.747,0 -3.157,0.4878 -4.232,1.4609c-1.073,0.9744 -1.612,2.1835 -1.612,3.6261c0,1.445 0.539,2.6542 1.612,3.6278c1.075,0.9738 2.485,1.4616 4.232,1.4616c1.746,0 3.157,-0.495 4.233,-1.4878c1.073,-0.9882 1.611,-2.2402 1.611,-3.7517c0,-1.4424 -0.538,-2.6281 -1.611,-3.5516zM63.115,14.1049v18.7557l9.257,3.4402c0.109,0.0426 0.215,0.0901 0.312,0.1475v-22.3434z" fill="#0D0D0D"/>
<path id="Trac횄짤 17" d="M92.782,34.2559c-1.713,0 -3.131,-0.5809 -4.257,-1.7377c-1.126,-1.1592 -1.687,-2.7637 -1.687,-4.8112c0,-2.0164 0.561,-3.5942 1.687,-4.7347c1.126,-1.1429 2.544,-1.7136 4.257,-1.7136c2.385,0 4.198,1.2257 5.441,3.6776l7.404,-3.7778c-0.941,-2.3493 -2.536,-4.1895 -4.785,-5.5161c-2.25,-1.3259 -4.921,-1.9897 -8.011,-1.9897c-3.021,0 -5.725,0.5978 -8.108,1.788c-2.385,1.1926 -4.242,2.8543 -5.567,4.9872c-1.327,2.1327 -1.99,4.5581 -1.99,7.2791c0,2.7188 0.663,5.1543 1.99,7.3035c1.325,2.1499 3.182,3.8275 5.567,5.0372c2.383,1.2093 5.087,1.8139 8.108,1.8139c3.09,0 5.761,-0.6619 8.011,-1.9901c2.249,-1.3262 3.844,-3.164 4.785,-5.5157l-7.404,-3.7774c-1.243,2.4514 -3.056,3.6775 -5.441,3.6775z" fill="#0D0D0D"/>
<path id="Trac횄짤 18" d="M128.496,25.7929l11.333,-11.688h-11.333l-9.771,9.5219v-19.5963h-9.57v37.3783h9.57v-6.7006l2.82,-2.8711l7.658,9.5717h11.587z" fill="#0D0D0D"/>
</g>
<path id="Trac횄짤 19" d="M60.555,37.3529l-33.535,-12.4585c-0.405,-0.1447 -0.847,-0.1447 -1.252,0c-0.969,0.3457 -1.472,1.4109 -1.126,2.3782l12.458,33.5352c0.201,0.5238 0.628,0.9282 1.161,1.1013c0.977,0.3162 2.024,-0.2188 2.34,-1.1943l4.596,-14.7254c0.08,-0.2574 0.282,-0.4588 0.54,-0.5397l14.725,-4.5965c0.533,-0.1726 0.961,-0.5777 1.162,-1.1017c0.367,-0.9571 -0.111,-2.0315 -1.069,-2.3986zM44.333,40.9376h-3.535v3.4513h-3.221v-3.4513h-3.556v-3.0541h3.556v-3.4513h3.221v3.4513h3.535z" fill="#FFDE77"/>
</g></svg>