<svg viewBox="0 0 70.4156 56.3296" fill="none" xmlns="http://www.w3.org/2000/svg" xmlns:xlink="http://www.w3.org/1999/xlink" x="0" y="0"><path id="mcdonald-s-15-logo-svgrepo-com" d="M46.2707,4.0192c5.56,0 10.06,23.42 10.06,52.31h8.05c0,-31.11 -8.11,-56.33 -18.11,-56.33c-5.69,0 -10.76,7.58 -14.08,19.43c-3.32,-11.85 -8.4,-19.43 -14.08,-19.43c-10,0 -18.11,25.22 -18.11,56.33h8.05c0,-28.89 4.5,-52.31 10.06,-52.31c5.55,0 10.06,21.62 10.06,48.29h8.04c0,-26.67 4.51,-48.29 10.06,-48.29zM68.4107,52.3092c1.09,0 2,0.86 2,2c0,1.16 -0.91,2.02 -2,2.02c-1.1,0 -2.02,-0.87 -2.02,-2.02c0,-1.14 0.92,-2 2.02,-2zM68.4107,56.0392c0.92,0 1.64,-0.75 1.64,-1.73c0,-0.97 -0.72,-1.71 -1.64,-1.71c-0.94,0 -1.66,0.74 -1.66,1.71c0,0.98 0.72,1.73 1.66,1.73zM67.6307,53.1392h0.9c0.56,0 0.82,0.22 0.82,0.67c0,0.43 -0.27,0.61 -0.61,0.64l0.66,1.04h-0.39l-0.63,-1.01h-0.39v1.01h-0.36v-2.35zM67.9907,54.1892h0.38c0.32,0 0.62,-0.02 0.62,-0.39c0,-0.31 -0.27,-0.36 -0.52,-0.36h-0.48v0.75z" fill="currentColor"/></svg>