<svg viewBox="0 0 117.097 54.2074" fill="none" xmlns="http://www.w3.org/2000/svg" xmlns:xlink="http://www.w3.org/1999/xlink" x="0" y="0"><g id="new-balance-2-logo-svgrepo-com">
<path id="Tracé 10526" d="M48.5004,24.8275l-13.46,0.48l12.78,0.71zM46.8904,27.6575l-13.5,0.48l12.83,0.71zM45.2804,30.5075l-13.48,0.47l12.82,0.71zM43.7004,33.3475l-13.49,0.48l12.8,0.71zM60.2004,10.5475l-17.19,0.61l17.24,0.96zM60.0904,7.7375l-15.44,0.54l15.49,0.89l-0.05,-1.43zM59.9804,5.0275l-13.75,0.45l13.82,0.77zM59.8904,2.2475l-12.06,0.4l12.1,0.72zM59.8104,-0.0025h-10.49l10.5,0.56zM42.0804,36.1775l-13.47,0.49h13.19z" fill="black"/>
<path id="Tracé 10527" d="M87.7004,0.0875h-19.4l-0.55,0.98l9.71,0.51c0.11,0 0.11,0.16 -0.05,0.16l-10.23,0.35l-0.98,1.72l9.64,0.57c0.13,0.02 0.1,0.2 -0.02,0.2l-10.24,0.33l-0.95,1.66l9.62,0.53c0.21,0.02 0.21,0.19 0,0.19l-10.22,0.36l-0.97,1.73l9.59,0.55c0.21,0.02 0.2,0.21 0,0.21l-10.22,0.37l-0.99,1.7l9.61,0.54c0.14,0.01 0.16,0.19 -0.03,0.19l-29.47,0.99l27.96,1.55c0.18,0 0.16,0.23 -0.03,0.23l-29.51,1.05l27.96,1.55c0.13,0 0.16,0.21 -0.04,0.21l-29.56,1.07l27.96,1.56c0.12,0.01 0.23,0.22 -0.01,0.24l-29.52,1.05l27.96,1.55c0.08,0.02 0.16,0.23 -0.03,0.23l-14.85,0.53l0.04,1.34l13.24,0.73c0.1,0.02 0.15,0.21 -0.03,0.21l-13.16,0.47l0.07,1.5l11.49,0.64c0.11,0.02 0.16,0.24 -0.04,0.24l-11.39,0.4l0.05,1.65l9.79,0.54c0.11,0.02 0.15,0.23 -0.05,0.23l-9.69,0.34l0.06,1.81l8.1,0.45c0.11,0.02 0.11,0.21 -0.05,0.21l-8.01,0.29l0.03,0.78h26.12c6.92,0 13.13,-5.05 14.3,-9.06c1.17,-4.01 1.17,-7.64 -4.4,-9.45c3.11,-0.71 8.51,-4.22 9.58,-9.06c0.97,-4.4 -0.65,-8.9 -8.19,-8.92zM74.5604,28.1975h-8.02l4.53,-8.03h5.95c6.15,0 3.17,8.03 -2.46,8.03zM84.9504,10.9775c-0.26,0.97 -2.2,3.43 -4.66,3.43h-5.95l3.81,-6.73h3.05c3.88,0.13 4.01,2.33 3.75,3.3zM117.1004,48.2075c0,-3.11 -2.59,-5.71 -5.7,-5.71c-3.19,0 -5.79,2.64 -5.79,5.89c-0.01,1.55 0.6,3.03 1.69,4.12c1.09,1.1 2.58,1.71 4.12,1.7c2.36,0 4.61,-1.62 5.27,-3.82h-2.95c-0.58,0.93 -1.35,1.36 -2.4,1.36c-1.33,0 -2.52,-0.91 -2.91,-2.21h8.52c0.11,-0.62 0.15,-0.92 0.15,-1.33zM108.3504,47.4275c0.39,-1.51 1.6,-2.48 3.09,-2.48c1.5,0 2.67,0.95 3.03,2.48zM78.8104,43.0375v0.9c-0.84,-0.91 -2.07,-1.42 -3.39,-1.42c-2.9,0 -5.38,2.48 -5.38,5.71c0,3.05 2.19,5.79 5.44,5.79c1.44,0 2.53,-0.34 3.56,-1.51v1.44h2.46v-10.91h-2.69zM75.8004,51.6975c-1.87,0 -3.38,-1.51 -3.38,-3.38c0,-1.87 1.51,-3.39 3.38,-3.39c1.87,0 3.39,1.52 3.39,3.39c0,1.87 -1.52,3.38 -3.39,3.38zM5.3704,42.4975c-1.11,0 -1.96,0.38 -2.89,1.33v-1.07h-2.48v11.19h2.69v-5.27c0,-1.44 0.12,-3.72 2.1,-3.72c1.85,0 2.06,2.14 2.06,3.51v5.48h2.68v-6c0,-1.58 -0.12,-2.32 -0.54,-3.21c-0.63,-1.33 -2.1,-2.24 -3.62,-2.24zM22.0604,48.2075c0,-3.11 -2.58,-5.71 -5.69,-5.71c-3.2,0 -5.8,2.64 -5.8,5.89c-0.01,1.55 0.6,3.03 1.7,4.12c1.09,1.1 2.57,1.71 4.12,1.7c2.36,0 4.6,-1.62 5.27,-3.82h-2.95c-0.59,0.93 -1.36,1.36 -2.41,1.36c-1.33,0 -2.52,-0.91 -2.9,-2.21h8.52c0.1,-0.62 0.14,-0.92 0.14,-1.33zM13.3204,47.4275c0.38,-1.51 1.59,-2.48 3.09,-2.48c1.49,0 2.66,0.95 3.03,2.48zM66.2504,53.9375h2.69v-14.93h-2.69zM88.5904,42.4975c-1.11,0 -1.96,0.38 -2.89,1.33v-1.07h-2.49v11.19h2.69v-5.27c0,-1.44 0.12,-3.72 2.1,-3.72c1.86,0 2.06,2.14 2.06,3.51v5.48h2.69v-6c0,-1.58 -0.12,-2.32 -0.55,-3.21c-0.62,-1.33 -2.1,-2.24 -3.61,-2.24zM99.4504,44.9575c1.23,0 1.94,0.4 2.61,1.54h3.02c-0.82,-2.41 -2.94,-4 -5.53,-4c-3.27,0 -5.9,2.6 -5.9,5.81c0,3.23 2.65,5.9 5.9,5.9c1.68,-0.01 3.27,-0.72 4.4,-1.96c0.57,-0.63 0.77,-0.99 1.13,-1.98h-3.02c-0.63,0.97 -1.44,1.48 -2.45,1.48c-1.88,0 -3.27,-1.46 -3.27,-3.4c0,-1.96 1.33,-3.39 3.11,-3.39zM32.3304,49.5875l-1.91,-6.83h-2.16l-1.92,6.83l-2.27,-6.83h-2.37l3.73,11.19h1.72l2.18,-7.25l2.12,7.25h1.81l3.58,-11.19h-2.22zM46.7204,42.5075c-1.32,0 -2.54,0.52 -3.39,1.42v-4.92h-2.69v14.93h2.46v-1.44c1.04,1.18 2.13,1.51 3.56,1.51c3.25,0 5.44,-2.74 5.44,-5.79c0,-3.23 -2.48,-5.71 -5.38,-5.71zM46.3404,51.6975c-1.87,0 -3.39,-1.51 -3.39,-3.38c0,-1.87 1.52,-3.39 3.39,-3.39c1.87,0 3.38,1.52 3.38,3.39c0,1.87 -1.51,3.38 -3.38,3.38zM61.7704,43.0375v0.9c-0.85,-0.91 -2.07,-1.42 -3.39,-1.42c-2.91,0 -5.39,2.48 -5.39,5.71c0,3.05 2.2,5.79 5.45,5.79c1.43,0 2.52,-0.34 3.55,-1.51v1.44h2.47v-10.91h-2.69zM58.7604,51.6975c-1.87,0 -3.38,-1.51 -3.38,-3.38c0,-1.87 1.51,-3.39 3.38,-3.39c1.87,0 3.39,1.52 3.39,3.39c0,1.87 -1.52,3.38 -3.39,3.38z" fill="black"/>
</g></svg>