<svg viewBox="0 0 106.4563 38.3139" fill="none" xmlns="http://www.w3.org/2000/svg" xmlns:xlink="http://www.w3.org/1999/xlink" x="0" y="0"><path id="nike-6_5" d="M13.6366,1.7008c-6.927,8.13 -13.569,18.22 -13.636,25.76c-0.026,2.84 0.88,5.32 3.054,7.19c3.126,2.7 6.569,3.66 9.997,3.66c5.011,0.01 9.986,-2.01 13.882,-3.57c6.56,-2.62 79.074,-34.11 79.074,-34.11c0.7,-0.35 0.568,-0.79 -0.307,-0.57c-0.353,0.09 -78.943,21.38 -78.943,21.38c-1.517,0.43 -3.066,0.65 -4.575,0.66c-6.039,0.03 -11.413,-3.32 -11.37,-10.38c0.017,-2.77 0.865,-6.1 2.824,-10.02z" fill="currentColor"/></svg>