<svg viewBox="0 0 329 173" fill="none" xmlns="http://www.w3.org/2000/svg" xmlns:xlink="http://www.w3.org/1999/xlink" x="0" y="0"><g id="Groupe 8365_5">
<path id="Rectangle 1968_5" d="M0.0004,24c0,-13.25 10.74,-24 24,-24h281c13.25,0 24,10.75 24,24v125c0,13.25 -10.75,24 -24,24h-281c-13.26,0 -24,-10.75 -24,-24z" fill="#F1F1F1"/>
<g id="logo-amazon_3">
<path id="Tracé 10175_3" d="M126.1004,81.88v12.89c0,0.43 -0.35,0.78 -0.79,0.78h-4.07c-0.43,0 -0.78,-0.35 -0.78,-0.78v-20.96c0,-0.43 0.35,-0.79 0.78,-0.79h3.77c0.43,0 0.79,0.36 0.79,0.79v2.95c0,0 1.34,-4.21 5.33,-4.21c0,0 3.95,-0.48 5.56,3.91c0,0 1.34,-3.91 5.42,-3.91c0,0 6.07,-0.36 6.07,5.92l0.05,3.46v12.88c0,0.44 -0.35,0.79 -0.79,0.79h-4.07c-0.43,0 -0.78,-0.35 -0.78,-0.79l-0.04,-14.06c0.11,-3.18 -2.46,-2.95 -2.46,-2.95c-3.24,0.06 -2.93,4.13 -2.93,4.13v12.88c0,0.44 -0.35,0.79 -0.79,0.79h-4.06c-0.44,0 -0.79,-0.35 -0.79,-0.79v-13.74c0,0 0.24,-3.3 -2.66,-3.3c0,0 -2.86,-0.37 -2.76,4.11zM230.9404,81.84v12.89c0,0.43 -0.35,0.79 -0.79,0.79l-4.23,0.08c-0.43,0 -0.78,-0.35 -0.78,-0.79v-13.74c0,0 0.23,-3.3 -2.66,-3.3c0,0 -2.76,-0.13 -2.76,5.04v11.96c0,0.43 -0.36,0.78 -0.79,0.78h-4.07c-0.43,0 -0.79,-0.35 -0.79,-0.78v-20.96c0,-0.43 0.36,-0.79 0.79,-0.79h3.77c0.43,0 0.78,0.36 0.78,0.79v2.95c0,0 1.35,-4.21 5.34,-4.21c0,0 4.28,-0.65 5.72,3.83c0,0 0.47,0.92 0.47,5.46zM201.5704,72.46c-5.2,0 -9.41,4.39 -9.41,11.77c0,6.49 3.25,11.76 9.41,11.76c5.82,0 9.42,-5.27 9.42,-11.76c0,-7.25 -4.21,-11.77 -9.42,-11.77zM204.8604,84.49c0,2.77 -0.35,4.25 -0.35,4.25c-0.49,2.94 -2.63,2.94 -2.94,2.93c-0.34,0.01 -2.49,-0.02 -2.93,-2.93c0,0 -0.35,-1.48 -0.35,-4.25v-0.47c0,-2.77 0.35,-4.25 0.35,-4.25c0.44,-2.91 2.59,-2.94 2.93,-2.92c0.31,-0.02 2.45,-0.02 2.94,2.92c0,0 0.35,1.48 0.35,4.25zM189.7904,76.73v-3c0,-0.44 -0.35,-0.79 -0.78,-0.79h-13.45c-0.43,0 -0.78,0.35 -0.78,0.79v2.98c0,0.43 0.35,0.79 0.78,0.79h7.02l-8.3,12.04c0,0 -0.33,0.49 -0.32,1.03v3.66c0,0 -0.05,1.25 1.37,0.53c0,0 2.53,-1.53 6.77,-1.53c0,0 4.19,-0.06 6.98,1.66c0,0 1.16,0.52 1.16,-0.64v-3.18c0,0 0.11,-0.85 -1,-1.37c0,0 -3.21,-1.77 -7.43,-1.48zM117.3204,91.81l-1.28,-1.94c-0.4,-0.72 -0.37,-1.54 -0.37,-1.54v-8.94c0.17,-7.72 -8.39,-7.06 -8.39,-7.06c-7.62,0 -8.74,5.93 -8.74,5.93c-0.32,1.19 0.6,1.22 0.6,1.22l3.72,0.38c0,0 0.64,0.14 0.87,-0.61c0,0 0.49,-2.59 3.23,-2.59c2.98,0 2.95,2.56 2.95,2.56v2.14c-5.95,0.2 -8.71,1.85 -8.71,1.85c-3.67,2.09 -3.44,6.22 -3.44,6.22c0,6.75 6.42,6.46 6.42,6.46c4.11,0 6.54,-3.01 6.54,-3.01c0.72,1.27 2.05,2.49 2.05,2.49c0.67,0.72 1.36,0.11 1.36,0.11l3.01,-2.57c0.67,-0.5 0.18,-1.1 0.18,-1.1zM106.1904,91.72c-1.94,0 -2.65,-1.92 -2.33,-3.8c0.32,-1.89 1.99,-3.37 6.05,-3.33v1.15c0.14,5.01 -2.12,5.98 -3.72,5.98zM171.3704,91.81l-1.28,-1.94c-0.4,-0.72 -0.37,-1.54 -0.37,-1.54v-8.94c0.17,-7.72 -8.39,-7.06 -8.39,-7.06c-7.62,0 -8.74,5.93 -8.74,5.93c-0.32,1.19 0.6,1.22 0.6,1.22l3.72,0.38c0,0 0.64,0.14 0.87,-0.61c0,0 0.49,-2.59 3.23,-2.59c2.98,0 2.95,2.56 2.95,2.56v2.14c-5.95,0.2 -8.71,1.85 -8.71,1.85c-3.67,2.09 -3.44,6.22 -3.44,6.22c0,6.75 6.42,6.46 6.42,6.46c4.11,0 6.54,-3.01 6.54,-3.01c0.72,1.27 2.05,2.49 2.05,2.49c0.67,0.72 1.36,0.11 1.36,0.11l3.01,-2.57c0.67,-0.5 0.18,-1.1 0.18,-1.1zM160.2404,91.72c-1.94,0 -2.66,-1.92 -2.33,-3.8c0.32,-1.89 1.98,-3.37 6.05,-3.33v1.15c0.14,5.01 -2.12,5.98 -3.72,5.98z" fill="black"/>
<g id="Groupe 8306_3">
<path id="Tracé 10176_3" d="M181.6104,108.73c0,0 -0.34,0.59 0.08,0.72c0,0 0.47,0.19 1.06,-0.36c0,0 4.29,-3.75 4.39,-10.58c0,0 0.04,-0.85 -0.31,-1.09c0,0 -1.34,-1.19 -6.18,-0.83c0,0 -4.22,0.29 -6.52,2.33c0,0 -0.21,0.18 -0.21,0.42c0,0 -0.05,0.5 1.22,0.28c0,0 4.22,-0.59 6.73,-0.28c0,0 1.29,0.15 1.65,0.59c0,0 0.6,0.49 0.29,2.12c0,0 -0.86,4.14 -2.2,6.68z" fill="#F3971B"/>
<path id="Tracé 10177_3" d="M180.7604,102.18c0,0 0.63,0.81 -0.39,1.52c0,0 -10.86,8.68 -29.08,8.68c0,0 -18.77,0.93 -34.44,-13.31c0,0 -0.54,-0.48 -0.2,-0.93c0,0 0.3,-0.41 1.09,0.04c0,0 14.74,9.18 34.1,9.18c0,0 13.45,0.52 27.25,-5.38c0,0 1.1,-0.57 1.67,0.2z" fill="#F3971B"/>
</g>
</g>
</g></svg>