<svg viewBox="0 0 330 173" fill="none" xmlns="http://www.w3.org/2000/svg" xmlns:xlink="http://www.w3.org/1999/xlink" x="0" y="0"><g id="Groupe 8365_8">
<path id="Rectangle 1968_8" d="M0.0002,24c0,-13.3 10.745,-24 24,-24h282c13.25,0 24,10.7 24,24v125c0,13.3 -10.75,24 -24,24h-282c-13.255,0 -24,-10.7 -24,-24z" fill="#D8EDF5"/>
<g id="sony-2_2">
<path id="Tracé 10181_2" d="M227.1402,93.7c-1.07,0 -1.94,0.9 -1.94,1.9c0,1.1 0.87,2 1.94,2c0.51,0 1,-0.2 1.37,-0.6c0.36,-0.4 0.56,-0.9 0.56,-1.4c0,-1 -0.87,-1.9 -1.93,-1.9zM227.1402,97.3c-0.46,0 -0.89,-0.1 -1.21,-0.5c-0.32,-0.3 -0.5,-0.7 -0.5,-1.2c0,-0.4 0.18,-0.9 0.5,-1.2c0.32,-0.3 0.76,-0.5 1.21,-0.5c0.93,0 1.69,0.8 1.69,1.7c0.01,0.5 -0.17,0.9 -0.49,1.2c-0.32,0.4 -0.75,0.5 -1.2,0.5z" fill="black"/>
<path id="Tracé 10182_2" d="M228.1302,95.1c0,-0.2 -0.08,-0.3 -0.24,-0.4c-0.17,-0.1 -0.35,-0.1 -0.53,-0.1h-0.94v2.1h0.26v-1h0.49l0.62,1h0.31l-0.65,-1c0.38,0 0.68,-0.1 0.68,-0.6zM227.0902,95.5h-0.41v-0.8h0.62c0.27,0 0.56,0.1 0.56,0.4c0,0.5 -0.47,0.4 -0.77,0.4zM215.7902,84.7l3.96,-4.3c0.23,-0.3 0.34,-0.5 0.34,-0.7c0,-0.3 -0.27,-0.4 -1.11,-0.4h-0.99v-2.7h10.81v2.7h-1.42c-1.64,0 -1.95,0.2 -4.24,3.1l-6.26,6.8v4.1c0,1.1 0.53,1.4 2.06,1.4h2.36v2.6h-15.14v-2.6h2.37c1.52,0 2.06,-0.3 2.06,-1.4v-4.1l-7.379,-8.2c-1.218,-1.4 -1.05,-1.7 -4.443,-1.7v-2.7h13.692v2.7h-0.98c-0.99,0 -1.41,0.2 -1.41,0.5c0,0.4 0.31,0.6 0.5,0.9l3.73,4c0.44,0.5 0.98,0.5 1.49,0zM123.9222,76.6h3.303v7.5h-3.05c-0.27,-1.5 -1.202,-2.1 -2.051,-2.9c-1.532,-1.4 -4.851,-2.6 -7.642,-2.6c-3.602,0 -6.642,1.2 -6.642,2.8c0,4.6 20.601,0.9 20.601,9.6c0,4.5 -4.413,7 -12.338,7c-2.743,0 -6.895,-0.9 -9.344,-2.2c-0.768,-0.4 -1.094,0.4 -1.238,1.5h-3.386v-7.7h3.063c0.676,2 1.606,2.4 2.463,3.2c1.485,1.3 5.021,2.3 8.263,2.3c4.889,-0.1 6.57,-1.1 6.57,-2.7c0,-1.5 -1.663,-1.9 -7.02,-2.7l-4.549,-0.8c-5.133,-0.8 -8.87,-1.9 -8.87,-6c0,-4.3 4.728,-6.9 12.203,-6.9c3.15,0 5.786,0.4 8.315,1.8c0.701,0.5 1.358,0.5 1.349,-1.2zM188.3802,89.1l0.065,-8.3c0,-1.1 -0.565,-1.4 -2.179,-1.4h-1.896v-2.6h12.064v2.6h-1.572c-1.615,0 -2.18,0.3 -2.18,1.4v16.7l-4.722,-0.1l-15.291,-14.4v10.5c0,1 0.565,1.4 2.178,1.4h2.1v2.6h-12.53v-2.6h2.076c1.614,0 2.179,-0.4 2.179,-1.4v-12.7c0,-1.1 -0.565,-1.4 -2.179,-1.4h-2.076v-2.6h10.833zM147.9702,75.8c-9.615,0 -15.633,4.3 -15.633,11.1c0,6.7 5.935,10.9 15.339,10.9c9.99,0 15.8,-4.1 15.8,-11.3c0.001,-6.3 -6.269,-10.7 -15.506,-10.7zM147.7512,95.1c-5.322,0 -8.381,-3.1 -8.381,-8.4c0,-5.1 3.192,-8.2 8.647,-8.2c5.233,0 8.292,3.1 8.292,8.5c0,5.2 -3.104,8.1 -8.558,8.1z" fill="black"/>
</g>
</g></svg>