<svg viewBox="0 0 329 173" fill="none" xmlns="http://www.w3.org/2000/svg" xmlns:xlink="http://www.w3.org/1999/xlink" x="0" y="0"><g id="Groupe 8365_9">
<path id="Rectangle 1968_9" d="M0.0002,24c0,-13.3 10.74,-24 24,-24h281c13.25,0 24,10.7 24,24v125c0,13.3 -10.75,24 -24,24h-281c-13.26,0 -24,-10.7 -24,-24z" fill="#F7F8DE"/>
<path id="nike-6_6" d="M133.9902,67.4c-8.24,9.7 -16.15,21.7 -16.23,30.7c-0.03,3.4 1.05,6.3 3.64,8.5c3.72,3.3 7.81,4.4 11.89,4.4c5.96,0 11.88,-2.4 16.52,-4.2c7.81,-3.2 94.09,-40.6 94.09,-40.6c0.83,-0.5 0.67,-1 -0.37,-0.7c-0.42,0.1 -93.93,25.4 -93.93,25.4c-1.81,0.5 -3.65,0.8 -5.44,0.8c-7.19,0.1 -13.58,-3.9 -13.53,-12.3c0.02,-3.3 1.03,-7.3 3.36,-12z" fill="#585858"/>
</g></svg>