<svg viewBox="0 0 329 173" fill="none" xmlns="http://www.w3.org/2000/svg" xmlns:xlink="http://www.w3.org/1999/xlink" x="0" y="0"><g id="Groupe 8365_10">
<path id="Rectangle 1968_10" d="M0.0004,24c0,-13.3 10.74,-24 24,-24h281c13.25,0 24,10.7 24,24v125c0,13.3 -10.75,24 -24,24h-281c-13.26,0 -24,-10.7 -24,-24z" fill="#E9E5FF"/>
<g id="ASUS_logo_2">
<g id="asus_logo_2">
<path id="Tracé 10166_2" d="M213.6704,84.5l-20.92,-1.3c0,3.2 2.1,5.4 5.68,5.7l14.89,1.1c1.15,0.1 1.87,0.4 1.87,1.4c0,0.9 -0.82,1.2 -2.5,1.2h-20.28v6.2h20.73c6.53,0 9.42,-2.3 9.42,-7.5c0,-4.7 -2.59,-6.4 -8.89,-6.8z" fill="#404040"/>
<path id="Tracé 10167_2" d="M185.6804,89.9c0,2.2 -1.1,2.8 -4.91,2.8h-5.27c-3.13,0 -4.48,-0.9 -4.48,-2.8v-7.7l-6.68,-0.5v8.7h-0.14c-0.38,-2.5 -1.35,-5.5 -7.69,-5.9l-20.93,-1.4c0,3.2 2.3,5.1 5.88,5.5l14.57,1.5c1.13,0.1 2.01,0.4 2.01,1.4c0,1.1 -0.86,1.1 -2.21,1.1h-20.49v-9.5l-6.69,-0.4v16.1h27.22c6.07,0 8.02,-3.2 8.32,-5.8h0.14c0.76,4.2 4.38,5.8 10.54,5.8h6.8c7.19,0 10.6,-2.2 10.6,-7.4v-8.2l-6.59,-0.3z" fill="#404040"/>
<path id="Tracé 10168_2" d="M106.6804,98.8h8.12l10.18,-16.4l-7.26,-0.7z" fill="#404040"/>
<path id="Tracé 10169_2" d="M199.4404,74.9c-4.73,0 -6.83,3 -7.16,5.8v-5.8h-6.6v6.1h36.2v-6.1z" fill="#404040"/>
<path id="Rectangle 1961_2" d="M164.3404,74.9h6.68v6.1h-6.68z" fill="#404040"/>
<path id="Tracé 10170_2" d="M163.1404,74.9h-20.4c-4.73,0 -6.82,3 -7.3,5.8v-5.8h-11.33c-1.55,0 -2.33,0.5 -3.1,1.6l-3.11,4.5h45.23z" fill="#404040"/>
</g>
</g>
</g></svg>