<svg viewBox="0 0 329 173" fill="none" xmlns="http://www.w3.org/2000/svg" xmlns:xlink="http://www.w3.org/1999/xlink" x="0" y="0"><g id="Groupe 8365_4">
<path id="Rectangle 1968_4" d="M0.0002,24c0,-13.25 10.74,-24 24,-24h281c13.25,0 24,10.75 24,24v125c0,13.25 -10.75,24 -24,24h-281c-13.26,0 -24,-10.75 -24,-24z" fill="#FFF2F2"/>
<path id="airbnb_3" d="M169.1402,74.68c0,1.73 -1.39,3.12 -3.11,3.12c-1.73,0 -3.12,-1.39 -3.12,-3.12c0,-1.72 1.34,-3.11 3.12,-3.11c1.77,0.05 3.11,1.44 3.11,3.11zM156.3002,80.96v0.77c0,0 -1.49,-1.92 -4.65,-1.92c-5.22,0 -9.3,3.98 -9.3,9.49c0,5.46 4.03,9.49 9.3,9.49c3.21,0 4.65,-1.97 4.65,-1.97v0.82c0,0.38 0.29,0.67 0.67,0.67h3.88v-18.02h-3.88c-0.38,0 -0.67,0.34 -0.67,0.67zM156.3002,92.51c-0.72,1.05 -2.16,1.96 -3.88,1.96c-3.07,0 -5.42,-1.91 -5.42,-5.17c0,-3.26 2.35,-5.18 5.42,-5.18c1.68,0 3.21,0.96 3.88,1.97zM163.7302,80.29h4.6v18.02h-4.6zM232.4402,79.81c-3.16,0 -4.64,1.92 -4.64,1.92v-10.11h-4.6v26.69h3.88c0.38,0 0.67,-0.34 0.67,-0.67v-0.82c0,0 1.48,1.97 4.65,1.97c5.22,0 9.29,-4.03 9.29,-9.49c0,-5.46 -4.07,-9.49 -9.25,-9.49zM231.6802,94.43c-1.78,0 -3.17,-0.91 -3.88,-1.97v-6.42c0.71,-0.96 2.25,-1.96 3.88,-1.96c3.06,0 5.41,1.91 5.41,5.17c0,3.26 -2.35,5.18 -5.41,5.18zM220.8002,87.62v10.74h-4.6v-10.21c0,-2.97 -0.96,-4.17 -3.55,-4.17c-1.38,0 -2.82,0.72 -3.73,1.77v12.56h-4.6v-18.02h3.64c0.38,0 0.67,0.34 0.67,0.67v0.77c1.34,-1.39 3.11,-1.92 4.89,-1.92c2.01,0 3.69,0.58 5.03,1.73c1.63,1.34 2.25,3.06 2.25,6.08zM193.1502,79.81c-3.16,0 -4.65,1.92 -4.65,1.92v-10.11h-4.6v26.69h3.88c0.39,0 0.67,-0.34 0.67,-0.67v-0.82c0,0 1.49,1.97 4.65,1.97c5.23,0 9.3,-4.03 9.3,-9.49c0.05,-5.46 -4.03,-9.49 -9.25,-9.49zM192.3802,94.43c-1.77,0 -3.16,-0.91 -3.88,-1.97v-6.42c0.72,-0.96 2.25,-1.96 3.88,-1.96c3.07,0 5.42,1.91 5.42,5.17c0,3.26 -2.35,5.18 -5.42,5.18zM179.9202,79.81c1.39,0 2.11,0.24 2.11,0.24v4.26c0,0 -3.83,-1.29 -6.23,1.44v12.61h-4.6v-18.07h3.88c0.39,0 0.67,0.33 0.67,0.67v0.77c0.87,-1.01 2.74,-1.92 4.17,-1.92zM132.1502,96.68c-0.24,-0.58 -0.48,-1.2 -0.72,-1.73c-0.38,-0.86 -0.77,-1.67 -1.1,-2.44l-0.05,-0.05c-3.31,-7.19 -6.85,-14.47 -10.59,-21.66l-0.15,-0.29c-0.39,-0.74 -0.77,-1.49 -1.14,-2.25c-0.48,-0.86 -0.96,-1.77 -1.73,-2.63c-1.53,-1.92 -3.74,-2.98 -6.09,-2.98c-2.39,0 -4.55,1.06 -6.13,2.88c-0.72,0.86 -1.25,1.77 -1.72,2.64c-0.38,0.75 -0.76,1.5 -1.15,2.25l-0.15,0.29c-3.69,7.18 -7.28,14.47 -10.59,21.66l-0.05,0.09c-0.33,0.77 -0.72,1.58 -1.1,2.44c-0.24,0.53 -0.48,1.11 -0.72,1.73c-0.62,1.77 -0.81,3.45 -0.57,5.18c0.53,3.59 2.92,6.61 6.23,7.95c1.24,0.53 2.54,0.77 3.88,0.77c0.38,0 0.86,-0.05 1.25,-0.1c1.58,-0.19 3.21,-0.72 4.79,-1.63c1.96,-1.1 3.83,-2.68 5.94,-4.98c2.11,2.3 4.02,3.88 5.94,4.98c1.58,0.91 3.21,1.44 4.79,1.63c0.39,0.05 0.87,0.1 1.25,0.1c1.34,0 2.68,-0.24 3.88,-0.77c3.36,-1.34 5.7,-4.41 6.23,-7.95c0.38,-1.68 0.19,-3.36 -0.43,-5.13zM110.5402,99.17c-2.59,-3.26 -4.27,-6.33 -4.84,-8.91c-0.24,-1.1 -0.29,-2.06 -0.15,-2.93c0.1,-0.76 0.39,-1.43 0.77,-2.01c0.91,-1.29 2.44,-2.11 4.22,-2.11c1.77,0 3.35,0.77 4.21,2.11c0.39,0.58 0.67,1.25 0.77,2.01c0.14,0.87 0.1,1.87 -0.14,2.93c-0.58,2.54 -2.26,5.6 -4.84,8.91zM129.6602,101.42c-0.34,2.49 -2.02,4.65 -4.36,5.61c-1.15,0.48 -2.4,0.62 -3.65,0.48c-1.19,-0.15 -2.39,-0.53 -3.64,-1.25c-1.72,-0.96 -3.45,-2.44 -5.46,-4.65c3.16,-3.88 5.08,-7.42 5.8,-10.59c0.33,-1.48 0.38,-2.82 0.24,-4.07c-0.19,-1.2 -0.63,-2.3 -1.3,-3.26c-1.48,-2.16 -3.98,-3.4 -6.75,-3.4c-2.78,0 -5.27,1.29 -6.76,3.4c-0.67,0.96 -1.1,2.06 -1.29,3.26c-0.2,1.25 -0.15,2.64 0.23,4.07c0.72,3.17 2.69,6.76 5.8,10.64c-1.96,2.21 -3.74,3.69 -5.46,4.65c-1.25,0.72 -2.44,1.1 -3.64,1.25c-1.3,0.14 -2.54,-0.05 -3.64,-0.48c-2.35,-0.96 -4.03,-3.12 -4.36,-5.61c-0.15,-1.2 -0.05,-2.4 0.43,-3.74c0.14,-0.48 0.38,-0.96 0.62,-1.53c0.34,-0.77 0.72,-1.58 1.1,-2.4l0.05,-0.09c3.31,-7.14 6.85,-14.43 10.54,-21.52l0.15,-0.29c0.38,-0.71 0.76,-1.48 1.15,-2.2c0.38,-0.77 0.81,-1.49 1.34,-2.11c1,-1.15 2.35,-1.77 3.83,-1.77c1.49,0 2.83,0.62 3.84,1.77c0.52,0.63 0.95,1.34 1.34,2.11c0.38,0.72 0.76,1.49 1.15,2.2l0.14,0.29c3.64,7.12 7.13,14.31 10.5,21.57v0.04c0.38,0.77 0.72,1.63 1.1,2.4c0.24,0.58 0.48,1.05 0.62,1.53c0.38,1.25 0.53,2.45 0.34,3.69z" fill="#FF5A5F"/>
</g></svg>