<svg viewBox="0 0 329 173" fill="none" xmlns="http://www.w3.org/2000/svg" xmlns:xlink="http://www.w3.org/1999/xlink" x="0" y="0"><g id="Groupe 8365_7">
<path id="Rectangle 1968_7" d="M0.0001,24c0,-13.3 10.745,-24 24,-24h281c13.255,0 24,10.7 24,24v125c0,13.3 -10.745,24 -24,24h-281c-13.255,0 -24,-10.7 -24,-24z" fill="#F6F2FF"/>
<g id="puma-logo_2">
<path id="Tracé 10178_2" d="M176.8931,47.4c-0.415,0 -0.814,1.6 -1.615,2.4c-0.587,0.5 -1.318,0.5 -1.707,1.2c-0.148,0.3 -0.1,0.7 -0.267,1.2c-0.327,0.8 -1.48,0.9 -1.48,1.9c-0.004,1 0.961,1.2 1.797,1.9c0.652,0.6 0.716,1 1.505,1.3c0.674,0.2 1.677,-0.5 2.58,-0.3c0.742,0.2 1.452,0.4 1.619,1.2c0.148,0.7 -0.01,1.8 -0.909,1.6c-0.303,0 -1.617,-0.4 -3.232,-0.3c-1.948,0.2 -4.171,0.9 -4.389,3.1c-0.119,1.2 1.382,2.6 2.832,2.3c1.003,-0.2 0.528,-1.4 1.074,-1.9c0.716,-0.8 4.772,2.5 8.542,2.5c1.588,0 2.768,-0.4 3.941,-1.6c0.109,-0.1 0.243,-0.3 0.412,-0.3c0.16,0 0.439,0.2 0.531,0.2c3.037,2.5 5.332,7.4 16.492,7.4c1.569,0 3.357,0.8 4.817,2.1c1.302,1.2 2.064,3.1 2.804,5c1.116,2.8 3.118,5.6 6.153,8.7c0.165,0.2 2.664,2.1 2.863,2.2c0.032,0.1 0.216,0.5 0.152,0.8c-0.074,1.8 -0.343,7.2 3.669,7.4c0.981,0.1 0.723,-0.6 0.723,-1.1c-0.001,-0.9 -0.173,-1.9 0.322,-2.8c0.675,-1.3 -1.434,-1.9 -1.372,-4.8c0.044,-2.1 -1.743,-1.8 -2.65,-3.4c-0.523,-0.9 -0.987,-1.4 -0.953,-2.6c0.203,-6.4 -1.376,-10.7 -2.164,-11.7c-0.614,-0.8 -1.122,-1.1 -0.56,-1.5c3.348,-2.2 4.107,-4.3 4.107,-4.3c1.781,-4.1 3.382,-8 5.589,-9.6c0.445,-0.4 1.586,-1.2 2.286,-1.6c2.059,-1 3.144,-1.5 3.742,-2.1c0.947,-0.9 1.695,-2.9 0.788,-4c-1.129,-1.5 -3.081,-0.3 -3.942,0.2c-6.156,3.6 -7.063,10.1 -9.194,13.8c-1.701,2.9 -4.467,5.1 -6.939,5.3c-1.855,0.1 -3.853,-0.3 -5.843,-1.1c-4.839,-2.2 -7.487,-4.9 -8.111,-5.4c-1.3,-1 -11.394,-10.9 -19.571,-11.3c0,0 -1.015,-2 -1.27,-2.1c-0.598,0 -1.21,1.3 -1.649,1.4c-0.413,0.1 -1.106,-1.4 -1.523,-1.3zM140.8941,106.5c-0.77,0 -1.424,-0.6 -1.424,-1.4l0.002,-25.5h-8.406v28.1c0,1.4 1.116,2.5 2.486,2.5h14.694c1.379,0 2.482,-1.1 2.482,-2.5v-28.1h-8.398l-0.008,25.5c0,0.8 -0.654,1.4 -1.428,1.4zM169.0411,79.6h-12.724c-1.505,0 -2.732,1.2 -2.732,2.7v27.9h8.415v-25.6c0.006,-0.8 0.64,-1.4 1.422,-1.4c0.785,0 1.415,0.6 1.433,1.4v25.6h8.381v-25.6c0.01,-0.8 0.64,-1.4 1.423,-1.4c0.778,0 1.42,0.6 1.426,1.4v25.6h8.415v-27.9c0,-1.5 -1.229,-2.7 -2.734,-2.7zM119.8161,84.7c0.006,-0.9 -0.688,-1.5 -1.424,-1.5h-1.428v15.5h1.428c0.742,0 1.43,-0.6 1.424,-1.4zM125.4571,102.5h-8.493v7.7h-8.402v-30.6h16.949c1.517,0 2.701,1.2 2.701,2.7v17.4c0,1.6 -1.23,2.8 -2.755,2.8zM213.3341,103.3c-1.689,0 -3.106,1.5 -3.106,3.3c0,1.7 1.417,3.2 3.16,3.2c1.729,0 3.129,-1.5 3.129,-3.2c0,-1.8 -1.4,-3.3 -3.129,-3.3zM217.1191,106.6c0,2 -1.667,3.7 -3.731,3.7c-2.086,0 -3.76,-1.6 -3.76,-3.7c0,-2.1 1.674,-3.8 3.698,-3.8c2.126,0 3.793,1.7 3.793,3.8z" fill="#404040"/>
<path id="Tracé 10179_2" d="M212.9991,106.3c0.584,0 0.892,-0.2 0.892,-0.6c0,-0.4 -0.297,-0.6 -0.866,-0.6h-0.167v1.2zM215.1511,108.7h-1.003l-1.29,-1.7v1.7h-0.82v-4.3h0.862c1.17,0 1.792,0.4 1.792,1.3c0,0.6 -0.367,1.1 -0.879,1.2h-0.06zM198.6071,98.7v-14.1c-0.02,-0.8 -0.648,-1.4 -1.432,-1.4c-0.775,0 -1.417,0.7 -1.423,1.4v14.1zM198.6071,110.2v-7.7h-2.855v7.7h-8.399v-27.9c0,-1.5 1.226,-2.7 2.732,-2.7h14.189c1.509,0 2.736,1.2 2.736,2.7v27.9z" fill="#404040"/>
</g>
</g></svg>