<svg viewBox="0 0 329 173" fill="none" xmlns="http://www.w3.org/2000/svg" xmlns:xlink="http://www.w3.org/1999/xlink" x="0" y="0"><g id="Groupe 8365">
<path id="Rectangle 1968" d="M0,24c0,-13.25 10.745,-24 24,-24h281c13.255,0 24,10.75 24,24v125c0,13.25 -10.745,24 -24,24h-281c-13.255,0 -24,-10.75 -24,-24z" fill="#F9F9F9"/>
<path id="adidas-svgrepo-com_3" d="M164.655,112.98c0,-2.82 2.259,-5.07 5.078,-5.07c2.814,0 5.069,2.25 5.069,5.07c0.005,1.34 -0.528,2.64 -1.479,3.59c-0.952,0.95 -2.244,1.49 -3.59,1.48c-1.347,0.01 -2.641,-0.52 -3.594,-1.48c-0.953,-0.95 -1.487,-2.24 -1.484,-3.59zM185.298,112.98c0,-2.82 2.259,-5.07 5.073,-5.07c2.814,0 5.074,2.25 5.074,5.07c0,2.81 -2.26,5.07 -5.069,5.07c-1.347,0.01 -2.641,-0.52 -3.594,-1.48c-0.953,-0.95 -1.487,-2.24 -1.484,-3.59zM137.449,112.98c0,-2.82 2.259,-5.07 5.073,-5.07c2.814,0 5.069,2.25 5.069,5.07c0,2.81 -2.255,5.07 -5.069,5.07c-1.346,0.01 -2.638,-0.53 -3.591,-1.48c-0.952,-0.95 -1.485,-2.24 -1.482,-3.59zM116.806,112.98c0,-2.82 2.259,-5.07 5.074,-5.07c2.814,0 5.073,2.25 5.073,5.07c0.005,1.35 -0.528,2.64 -1.481,3.59c-0.952,0.95 -2.246,1.49 -3.592,1.48c-1.346,0.01 -2.637,-0.53 -3.589,-1.48c-0.951,-0.95 -1.484,-2.24 -1.48,-3.59zM158.542,104.02h-4.414v17.75h4.414zM126.918,121.77h4.413v-17.75h-4.413v1.42c-1.539,-1.07 -3.37,-1.64 -5.244,-1.63c-5.078,0 -9.176,4.1 -9.176,9.17c0,5.11 4.098,9.18 9.176,9.18c1.945,0 3.749,-0.59 5.244,-1.64zM195.41,121.77h4.413v-17.75h-4.413v1.42c-1.539,-1.07 -3.37,-1.64 -5.244,-1.63c-5.078,0 -9.177,4.1 -9.177,9.17c-0.008,2.44 0.957,4.78 2.679,6.5c1.723,1.72 4.062,2.68 6.498,2.68c1.945,0 3.749,-0.59 5.244,-1.64zM201.457,116c0.14,3.59 3.199,6.12 8.303,6.12c4.173,0 7.612,-1.81 7.612,-5.8c0,-2.78 -1.564,-4.42 -5.178,-5.12l-2.814,-0.55c-1.809,-0.35 -3.059,-0.7 -3.059,-1.77c0,-1.18 1.215,-1.7 2.744,-1.7c2.229,0 3.129,1.11 3.199,2.43h4.448c-0.244,-3.47 -3.024,-5.8 -7.507,-5.8c-4.619,0 -7.367,2.53 -7.367,5.83c0,4.03 3.268,4.69 6.082,5.22l2.329,0.41c1.67,0.32 2.399,0.8 2.399,1.78c0,0.87 -0.834,1.73 -2.818,1.73c-2.884,0 -3.819,-1.49 -3.854,-2.78h-4.519zM147.561,97.97v7.47c-1.539,-1.07 -3.37,-1.64 -5.244,-1.63c-5.078,0 -9.177,4.1 -9.177,9.17c0,5.11 4.099,9.18 9.177,9.18c1.94,0 3.749,-0.59 5.244,-1.64v1.25h4.413v-23.8zM174.767,97.97v7.47c-1.539,-1.07 -3.369,-1.64 -5.244,-1.63c-5.073,0 -9.176,4.1 -9.176,9.17c-0.009,2.44 0.956,4.78 2.679,6.5c1.722,1.72 4.061,2.68 6.497,2.68c1.945,0 3.749,-0.59 5.244,-1.64v1.25h4.413v-23.8zM123.964,92.72l2.989,5.25h20.608l-8.167,-14.11l-15.426,8.86zM158.542,102.38v-4.41h16.225l-17.304,-29.96l-15.465,8.87l12.13,21.09v4.41zM181.339,97.97h20.638l-26.686,-46.19l-15.429,8.9z" fill="#1A1A1A"/>
</g></svg>