<svg viewBox="0 0 91 13.0164" fill="none" xmlns="http://www.w3.org/2000/svg" xmlns:xlink="http://www.w3.org/1999/xlink" x="0" y="0"><g id="Groupe 8569">
<path id="Rectangle 2014" d="M0,5.001c0,-2.8 2.24,-5 5,-5h9c2.76,0 5,2.2 5,5v3c0,2.8 -2.24,5 -5,5h-9c-2.76,0 -5,-2.2 -5,-5z" fill="#E2E2E2"/>
<path id="Rectangle 2017" d="M37,5.001c0,-2.8 2.24,-5 5,-5h9c2.76,0 5,2.2 5,5v3c0,2.8 -2.24,5 -5,5h-9c-2.76,0 -5,-2.2 -5,-5z" fill="#E2E2E2"/>
<path id="Rectangle 2018" d="M73,5.001c0,-2.8 2.24,-5 5,-5h8c2.76,0 5,2.2 5,5v3c0,2.8 -2.24,5 -5,5h-8c-2.76,0 -5,-2.2 -5,-5z" fill="#E2E2E2"/>
<line id="Ligne 191" opacity="0.2" x1="28.470000000000027" y1="0.8009999999994761" x2="28.470000000000027" y2="13.001000000000204" stroke="#707070" stroke-width="0.3"/>
<line id="Ligne 192" opacity="0.2" x1="63.700000000000045" y1="0.8009999999994761" x2="63.700000000000045" y2="13.001000000000204" stroke="#707070" stroke-width="0.3"/>
</g></svg>