<svg viewBox="0 0 16.7788 9.5404" fill="none" xmlns="http://www.w3.org/2000/svg" xmlns:xlink="http://www.w3.org/1999/xlink" x="0" y="0"><g id="Groupe 8570">
<g id="Groupe 5_2">
<path id="Trac횄짤 20_2" d="M3.5713,0.8062c-0.33,-0.2 -0.7,-0.2 -1.11,-0.2c-0.47,0 -0.89,0.1 -1.26,0.3c-0.37,0.2 -0.67,0.4 -0.88,0.8c-0.21,0.4 -0.32,0.8 -0.32,1.2c0,0.4 0.11,0.9 0.32,1.2c0.21,0.4 0.51,0.6 0.88,0.8c0.37,0.2 0.79,0.3 1.26,0.3c0.16,0 0.31,0 0.45,0l-0.38,-1v0c-0.25,0 -0.46,-0.1 -0.65,-0.2c-0.19,-0.1 -0.34,-0.2 -0.44,-0.4c-0.11,-0.2 -0.16,-0.4 -0.16,-0.7c0,-0.3 0.05,-0.5 0.16,-0.7c0.1,-0.2 0.25,-0.3 0.44,-0.4c0.19,-0.1 0.4,-0.2 0.65,-0.2c0.41,0 0.76,0.2 1.06,0.5l0.8,-0.7c-0.22,-0.3 -0.49,-0.5 -0.82,-0.6z" fill="#0B0C0C"/>
<path id="Trac횄짤 21_2" d="M4.9013,0.4062v2.9l1.21,0.5v-3.4z" fill="#0B0C0C"/>
<path id="Trac횄짤 22_2" d="M8.0513,0.2062c-0.14,-0.1 -0.32,-0.2 -0.54,-0.2c-0.22,0 -0.4,0.1 -0.54,0.2c-0.13,0.1 -0.2,0.3 -0.2,0.4c0,0.2 0.07,0.4 0.2,0.5c0.14,0.1 0.32,0.2 0.54,0.2c0.22,0 0.4,-0.1 0.54,-0.2c0.14,-0.1 0.2,-0.3 0.2,-0.5c0,-0.2 -0.06,-0.3 -0.2,-0.4zM6.9013,1.7062v2.4l1.18,0.4c0.01,0 0.03,0 0.04,0v-2.8z" fill="#0B0C0C"/>
<path id="Trac횄짤 23_2" d="M10.6713,4.2062c-0.21,0 -0.39,0 -0.54,-0.2c-0.14,-0.1 -0.21,-0.3 -0.21,-0.6c0,-0.3 0.07,-0.5 0.21,-0.6c0.15,-0.1 0.33,-0.2 0.54,-0.2c0.31,0 0.54,0.1 0.7,0.4l0.94,-0.4c-0.12,-0.3 -0.33,-0.6 -0.61,-0.7c-0.29,-0.2 -0.63,-0.3 -1.02,-0.3c-0.38,0 -0.73,0.1 -1.03,0.2c-0.3,0.2 -0.54,0.4 -0.71,0.7c-0.17,0.2 -0.25,0.6 -0.25,0.9c0,0.3 0.08,0.7 0.25,0.9c0.17,0.3 0.41,0.5 0.71,0.7c0.3,0.1 0.65,0.2 1.03,0.2c0.39,0 0.73,-0.1 1.02,-0.3c0.28,-0.1 0.49,-0.4 0.61,-0.7l-0.94,-0.4c-0.16,0.3 -0.39,0.4 -0.7,0.4z" fill="#0B0C0C"/>
<path id="Trac횄짤 24_2" d="M15.2113,3.2062l1.45,-1.5h-1.45l-1.24,1.2v-2.5h-1.21v4.7h1.21v-0.8l0.36,-0.4l0.97,1.2h1.48z" fill="#0B0C0C"/>
</g>
<path id="Trac횄짤 25_2" d="M9.0513,5.4062l-5.66,-2.1c-0.06,-0.1 -0.14,-0.1 -0.21,0c-0.16,0 -0.25,0.2 -0.19,0.4l2.11,5.6c0.03,0.1 0.1,0.2 0.19,0.2c0.17,0.1 0.34,0 0.4,-0.2l0.77,-2.5c0.02,0 0.05,0 0.09,-0.1l2.49,-0.7c0.09,-0.1 0.16,-0.1 0.19,-0.2c0.07,-0.2 -0.01,-0.4 -0.18,-0.4zM6.3213,6.0062h-0.6v0.6h-0.54v-0.6h-0.6v-0.5h0.6v-0.6h0.54v0.6h0.6z" fill="#FFAA00"/>
</g></svg>