<svg viewBox="0 0 110.4715 55.044" fill="none" xmlns="http://www.w3.org/2000/svg" xmlns:xlink="http://www.w3.org/1999/xlink" x="0" y="0"><g id="puma-logo">
<path id="Tracé 10178" d="M59.5396,0.189c-0.361,0.05 -0.709,1.38 -1.407,2.08c-0.511,0.5 -1.149,0.47 -1.488,1.09c-0.128,0.23 -0.086,0.62 -0.232,1c-0.285,0.76 -1.29,0.82 -1.29,1.65c-0.003,0.89 0.838,1.06 1.566,1.69c0.568,0.51 0.624,0.86 1.312,1.11c0.587,0.2 1.461,-0.45 2.248,-0.22c0.646,0.19 1.265,0.33 1.411,1c0.128,0.61 -0.009,1.56 -0.793,1.45c-0.264,-0.03 -1.409,-0.42 -2.816,-0.27c-1.698,0.19 -3.635,0.75 -3.824,2.64c-0.104,1.06 1.204,2.31 2.467,2.05c0.874,-0.17 0.46,-1.2 0.937,-1.7c0.623,-0.64 4.157,2.24 7.443,2.24c1.383,0 2.411,-0.35 3.433,-1.42c0.095,-0.08 0.212,-0.26 0.359,-0.27c0.139,0.01 0.383,0.15 0.463,0.21c2.646,2.12 4.645,6.39 14.37,6.44c1.367,0.01 2.925,0.66 4.197,1.82c1.135,1.05 1.799,2.68 2.443,4.34c0.973,2.48 2.718,4.9 5.362,7.59c0.144,0.14 2.321,1.84 2.495,1.96c0.027,0.02 0.187,0.4 0.132,0.62c-0.064,1.61 -0.299,6.3 3.197,6.51c0.854,0.04 0.63,-0.56 0.63,-0.97c-0.001,-0.82 -0.151,-1.63 0.28,-2.47c0.589,-1.15 -1.249,-1.68 -1.195,-4.16c0.038,-1.86 -1.519,-1.54 -2.309,-2.95c-0.456,-0.82 -0.86,-1.26 -0.831,-2.26c0.177,-5.63 -1.199,-9.33 -1.885,-10.24c-0.535,-0.68 -0.978,-0.96 -0.488,-1.28c2.917,-1.92 3.579,-3.72 3.579,-3.72c1.551,-3.64 2.947,-6.97 4.87,-8.44c0.387,-0.3 1.381,-1.04 1.991,-1.33c1.795,-0.85 2.74,-1.36 3.261,-1.87c0.825,-0.81 1.477,-2.48 0.686,-3.5c-0.983,-1.25 -2.684,-0.26 -3.434,0.19c-5.364,3.18 -6.154,8.8 -8.012,12.02c-1.482,2.58 -3.891,4.47 -6.046,4.62c-1.616,0.12 -3.357,-0.2 -5.09,-0.96c-4.217,-1.85 -6.525,-4.24 -7.068,-4.66c-1.133,-0.88 -9.928,-9.51 -17.053,-9.86c0,0 -0.884,-1.77 -1.107,-1.8c-0.521,-0.07 -1.054,1.06 -1.437,1.19c-0.359,0.12 -0.964,-1.22 -1.327,-1.16zM28.1726,51.709c-0.671,-0.01 -1.241,-0.56 -1.241,-1.24l0.002,-22.23h-7.325v24.5c0,1.2 0.973,2.18 2.166,2.18h12.803c1.203,0 2.164,-0.98 2.164,-2.18v-24.5h-7.318l-0.007,22.23c0,0.68 -0.57,1.23 -1.244,1.24zM52.6976,28.239h-11.086c-1.312,0 -2.381,1.07 -2.381,2.39v24.29h7.332v-22.28c0.005,-0.68 0.558,-1.22 1.239,-1.22c0.684,0 1.233,0.53 1.249,1.2v22.3h7.302v-22.3c0.009,-0.67 0.558,-1.2 1.241,-1.2c0.678,0 1.237,0.54 1.242,1.22v22.28h7.332v-24.29c0,-1.32 -1.07,-2.39 -2.382,-2.39zM9.8056,32.689c0.006,-0.74 -0.599,-1.27 -1.24,-1.27h-1.244v13.49h1.244c0.646,0 1.246,-0.51 1.24,-1.25zM14.7216,48.219h-7.4v6.7h-7.322v-26.68h14.769c1.322,0 2.354,1.08 2.354,2.4v15.17c0,1.33 -1.072,2.41 -2.401,2.41zM91.2926,48.959c-1.472,0 -2.707,1.27 -2.707,2.81c0,1.54 1.235,2.81 2.754,2.81c1.506,0 2.726,-1.27 2.726,-2.81c0,-1.55 -1.22,-2.81 -2.726,-2.81zM94.5906,51.759c0,1.81 -1.453,3.28 -3.251,3.28c-1.817,0 -3.277,-1.46 -3.277,-3.28c0,-1.79 1.459,-3.28 3.223,-3.28c1.852,0 3.305,1.45 3.305,3.28z" fill="currentColor"/>
<path id="Tracé 10179" d="M90.7436,51.549c0.509,0 0.777,-0.18 0.777,-0.54c0,-0.32 -0.259,-0.49 -0.754,-0.49h-0.146v1.03zM92.6186,53.659h-0.874l-1.124,-1.5v1.5h-0.714v-3.78h0.751c1.02,0 1.562,0.38 1.562,1.12c0,0.49 -0.32,0.93 -0.767,1.06l-0.052,0.02zM78.2036,44.919v-12.29c-0.018,-0.68 -0.565,-1.2 -1.248,-1.2c-0.676,0 -1.235,0.55 -1.24,1.22v12.27zM78.2036,54.919v-6.7h-2.488v6.7h-7.318v-24.29c0,-1.32 1.068,-2.39 2.38,-2.39h12.364c1.315,0 2.383,1.07 2.383,2.39v24.29z" fill="currentColor"/>
</g></svg>