<svg viewBox="0 0 50.591 33.7275" fill="none" xmlns="http://www.w3.org/2000/svg" xmlns:xlink="http://www.w3.org/1999/xlink" x="0" y="0"><path id="Tracé 10518" d="M50.1373,2.2904c-0.28,-0.2 -0.64,-0.2 -0.96,-0.1l-8.59,3.1c-1.07,0.4 -1.92,1.2 -2.39,2.2c-0.09,0.2 -0.15,0.4 -0.21,0.6c-1.47,-0.4 -4.21,-1.3 -6.94,-2.7c-4.12,-2.1 -7.26,-1.1 -9.96,1c-1.37,0 -3.25,0.2 -5.1,0.3c-1.19,0.1 -2.3,0.2 -3.21,0.3c-0.02,-0.6 -0.15,-1.1 -0.38,-1.6c-0.48,-1 -1.33,-1.8 -2.39,-2.2l-8.59,-3.1c-0.33,-0.1 -0.69,-0.1 -0.97,0.1c-0.28,0.2 -0.45,0.5 -0.45,0.9v21c0,0.6 0.47,1.1 1.06,1.1h3.08c1.3,0 2.52,-0.6 3.31,-1.6c0.42,0.3 0.92,0.7 1.44,1.1c1.23,0.9 2.57,1.9 3.16,2.4c3.93,3.3 8.65,6.8 9.59,7.4c0.88,0.6 2.46,1.2 3.66,1.2c0.47,0 1.65,0 2.49,-0.7c0.85,0.4 1.78,0.4 2.64,0c0.85,-0.4 1.55,-1.1 1.95,-2c0.82,0.2 1.77,0.1 2.63,-0.4c0.8,-0.4 1.39,-1 1.71,-1.7c0.76,0.1 1.57,-0.2 2.3,-0.7c1.04,-0.8 1.52,-2 1.38,-3.2l2.68,-1.4c0.78,1 2.02,1.7 3.38,1.7h3.08c0.58,0 1.05,-0.5 1.05,-1v-21.1c0,-0.4 -0.16,-0.7 -0.45,-0.9zM6.1073,19.6904c-0.31,0.8 -1.1,1.4 -1.97,1.4h-2.03v-18.5l7.18,2.6c0.53,0.2 0.96,0.6 1.19,1.1c0.24,0.5 0.26,1.1 0.06,1.6zM37.7373,26.4904c-0.35,0.3 -0.85,0.4 -1.08,0.2c-0.01,0 -0.03,0 -0.04,0c-0.02,0 -0.03,-0.1 -0.05,-0.1c-0.75,-0.6 -4.13,-4 -6.21,-6.2c-0.41,-0.4 -1.08,-0.4 -1.49,0c-0.43,0.4 -0.44,1 -0.04,1.5c0.49,0.5 4.42,4.6 6,6c-0.12,0.5 -0.55,0.7 -0.77,0.9c-0.67,0.3 -1.38,0.2 -1.64,0c-0.01,0 -0.02,0 -0.03,0c-0.01,0 -0.02,-0.1 -0.03,-0.1c-1.26,-1 -4.43,-4.3 -5.15,-5.1c-0.4,-0.5 -1.06,-0.5 -1.49,-0.1c-0.43,0.4 -0.46,1.1 -0.06,1.5c0.03,0 3.14,3.4 4.88,4.9c-0.17,0.5 -0.52,0.9 -0.97,1.1c-0.33,0.2 -0.84,0.3 -1.43,-0.2c-1.52,-1.3 -4.56,-4.5 -5.15,-5.1c-0.4,-0.4 -1.07,-0.5 -1.49,-0.1c-0.43,0.4 -0.45,1.1 -0.05,1.5c0.7,0.8 2.8,3 4.39,4.5c-0.18,0 -0.36,0 -0.54,0c-0.7,0 -1.9,-0.4 -2.5,-0.8c-0.74,-0.5 -5.38,-4 -9.39,-7.3c-0.61,-0.5 -1.99,-1.6 -3.26,-2.5c-0.68,-0.5 -1.3,-1 -1.76,-1.4l3.95,-10.5c1.02,0 2.39,-0.1 3.83,-0.3c0.82,0 1.64,-0.1 2.42,-0.2c-1.2,1.3 -2.99,3.5 -2.75,5.5c0.1,1 0.62,1.8 1.49,2.3c1.72,1.1 4.91,0.2 6.44,-1.7c1,-0.1 1.67,-0.4 2.4,-0.8c1.23,1.2 2.89,2.6 4.63,4c3.02,2.5 6.46,5.3 7.37,6.9c0.5,0.9 -0.2,1.5 -0.43,1.7zM39.5473,23.0904c-1.4,-1.9 -4.45,-4.4 -7.41,-6.8c-1.98,-1.7 -3.85,-3.2 -5.04,-4.4c-0.33,-0.3 -0.84,-0.4 -1.24,-0.2c-1.08,0.6 -1.56,0.8 -2.77,1c-0.33,0 -0.62,0.2 -0.79,0.4c-0.83,1.4 -3.12,2 -3.85,1.5c-0.42,-0.2 -0.5,-0.5 -0.52,-0.7c-0.1,-0.9 0.81,-2.4 2.31,-3.9c3.73,-3.8 6.4,-4.5 9.85,-2.7c3.27,1.7 6.51,2.6 7.86,3c0.04,0.1 0.07,0.3 0.13,0.4l4.09,11zM48.4873,23.1904h-2.03c-0.87,0 -1.67,-0.6 -1.97,-1.4l-4.44,-11.8c-0.19,-0.5 -0.17,-1.1 0.06,-1.6c0.24,-0.5 0.66,-0.9 1.2,-1.1l7.18,-2.6v18.5z" fill="black"/></svg>