<svg viewBox="0 0 44 44" fill="none" xmlns="http://www.w3.org/2000/svg" xmlns:xlink="http://www.w3.org/1999/xlink" x="0" y="0"><g id="Groupe 8386">
<circle id="Ellipse 472" cx="22" cy="22" r="22" fill="#FFF6D8"/>
<path id="Tracé 10195" d="M33.58,32.4892l-5.4,-5.4001c2.91,-3.5631 2.52,-8.7847 -0.89,-11.8725c-3.41,-3.0877 -8.65,-2.9568 -11.9,0.2976c-3.26,3.2545 -3.39,8.4892 -0.3,11.9022c3.09,3.4131 8.31,3.8054 11.87,0.8921l5.4,5.4zM21.51,28.5344c-3.81,0 -6.9,-3.0887 -6.9,-6.8989c0,-3.8101 3.09,-6.8988 6.9,-6.8988c3.81,0 6.9,3.0887 6.9,6.8988c-0.01,3.8084 -3.09,6.8946 -6.9,6.8989z" fill="#0D0D0D"/>
</g></svg>