<svg viewBox="0 0 22 22.0005" fill="none" xmlns="http://www.w3.org/2000/svg" xmlns:xlink="http://www.w3.org/1999/xlink" x="0" y="0"><g id="fi-rr-settings-sliders">
<path id="Tracé 9549" d="M0.917,4.3544h2.508c0.404,1.4882 1.755,2.5211 3.297,2.5211c1.543,0 2.894,-1.0329 3.298,-2.5211h11.063c0.507,0 0.917,-0.4104 0.917,-0.9167c0,-0.5062 -0.41,-0.9166 -0.917,-0.9166h-11.063c-0.404,-1.4882 -1.755,-2.5211 -3.298,-2.5211c-1.542,0 -2.893,1.0329 -3.297,2.5211h-2.508c-0.507,0 -0.917,0.4104 -0.917,0.9166c0,0.5063 0.41,0.9167 0.917,0.9167zM6.722,1.8336c0.886,0 1.604,0.7182 1.604,1.6041c0,0.886 -0.718,1.6042 -1.604,1.6042c-0.886,0 -1.604,-0.7182 -1.604,-1.6042c0.001,-0.8855 0.718,-1.6031 1.604,-1.6041z" fill="black"/>
<path id="Tracé 9550" d="M21.083,10.0836h-2.508c-0.403,-1.4886 -1.755,-2.522 -3.297,-2.522c-1.542,0 -2.893,1.0334 -3.297,2.522h-11.064c-0.507,0 -0.917,0.4104 -0.917,0.9166c0,0.5063 0.41,0.9167 0.917,0.9167h11.064c0.404,1.4886 1.755,2.522 3.297,2.522c1.542,0 2.894,-1.0334 3.297,-2.522h2.508c0.507,0 0.917,-0.4104 0.917,-0.9167c0,-0.5062 -0.41,-0.9166 -0.917,-0.9166zM15.278,12.6044c-0.886,0 -1.604,-0.7182 -1.604,-1.6042c0,-0.8859 0.718,-1.6041 1.604,-1.6041c0.886,0 1.604,0.7182 1.604,1.6041c-0.001,0.8856 -0.718,1.6032 -1.604,1.6042z" fill="black"/>
<path id="Tracé 9551" d="M21.083,17.6461h-11.063c-0.404,-1.4882 -1.755,-2.5211 -3.298,-2.5211c-1.542,0 -2.893,1.0329 -3.297,2.5211h-2.508c-0.507,0 -0.917,0.4104 -0.917,0.9167c0,0.5062 0.41,0.9166 0.917,0.9166h2.508c0.404,1.4882 1.755,2.5211 3.297,2.5211c1.543,0 2.894,-1.0329 3.298,-2.5211h11.063c0.507,0 0.917,-0.4104 0.917,-0.9166c0,-0.5063 -0.41,-0.9167 -0.917,-0.9167zM6.722,20.1669c-0.886,0 -1.604,-0.7182 -1.604,-1.6041c0,-0.886 0.718,-1.6042 1.604,-1.6042c0.886,0 1.604,0.7182 1.604,1.6042c-0.001,0.8853 -0.719,1.6026 -1.604,1.6041z" fill="black"/>
</g></svg>