<svg viewBox="0 0 106.7439 18.6151" fill="none" xmlns="http://www.w3.org/2000/svg" xmlns:xlink="http://www.w3.org/1999/xlink" x="0" y="0"><g id="sony-2">
<path id="Tracé 10181" d="M105.1222,15.0288c-0.9,0 -1.63,0.73 -1.63,1.63c0,0.9 0.73,1.63 1.63,1.63c0.43,0 0.84,-0.17 1.15,-0.48c0.3,-0.31 0.47,-0.72 0.47,-1.15c0,-0.9 -0.72,-1.63 -1.62,-1.63zM105.1222,18.0888c-0.38,0 -0.75,-0.15 -1.01,-0.42c-0.27,-0.27 -0.42,-0.63 -0.42,-1.01c0,-0.38 0.15,-0.75 0.42,-1.01c0.27,-0.27 0.63,-0.42 1.01,-0.42c0.79,0 1.43,0.64 1.43,1.43c0,0.38 -0.15,0.74 -0.42,1.01c-0.27,0.27 -0.63,0.42 -1.01,0.42z" fill="black"/>
<path id="Tracé 10182" d="M105.9522,16.2288c0,-0.15 -0.06,-0.31 -0.2,-0.39c-0.14,-0.08 -0.29,-0.09 -0.44,-0.09h-0.8v1.82h0.23v-0.84h0.41l0.51,0.84h0.27l-0.55,-0.84c0.32,-0.01 0.57,-0.14 0.57,-0.5zM105.0822,16.5488h-0.34v-0.64h0.51c0.23,0 0.48,0.04 0.48,0.32c0,0.37 -0.4,0.32 -0.65,0.32zM95.5822,7.4388l3.33,-3.55c0.19,-0.26 0.29,-0.45 0.29,-0.6c0,-0.26 -0.23,-0.37 -0.93,-0.37h-0.84v-2.24h9.08v2.24h-1.19c-1.38,0 -1.64,0.21 -3.56,2.64l-5.26,5.68v3.47c0,0.88 0.45,1.2 1.73,1.2h1.99v2.16h-12.73v-2.16h1.99c1.28,0 1.73,-0.32 1.73,-1.2v-3.47l-6.2,-6.86c-1.02,-1.2 -0.88,-1.46 -3.73,-1.46v-2.24h11.5v2.24h-0.82c-0.83,0 -1.18,0.16 -1.18,0.47c0,0.26 0.25,0.47 0.41,0.68l3.14,3.42c0.37,0.38 0.83,0.44 1.25,-0.05zM18.3822,0.6788h2.77v6.26h-2.56c-0.23,-1.25 -1.01,-1.74 -1.73,-2.4c-1.28,-1.18 -4.07,-2.17 -6.42,-2.17c-3.03,0 -5.58,0.94 -5.58,2.32c0,3.84 17.31,0.79 17.31,8.03c0,3.78 -3.71,5.9 -10.37,5.9c-2.3,0 -5.79,-0.72 -7.85,-1.81c-0.64,-0.37 -0.92,0.35 -1.04,1.26h-2.84v-6.47h2.57c0.57,1.65 1.35,1.98 2.07,2.64c1.25,1.14 4.22,1.98 6.94,1.95c4.11,-0.04 5.53,-0.94 5.53,-2.24c0,-1.3 -1.4,-1.62 -5.9,-2.32l-3.83,-0.63c-4.31,-0.65 -7.45,-1.61 -7.45,-5.05c0,-3.58 3.97,-5.82 10.25,-5.82c2.65,0 4.87,0.36 6.99,1.56c0.59,0.38 1.14,0.43 1.14,-1.01zM72.5522,11.1588l0.05,-6.96c0,-0.91 -0.47,-1.22 -1.83,-1.22h-1.59v-2.17h10.14v2.17h-1.33c-1.35,0 -1.83,0.31 -1.83,1.22v14l-3.97,-0.03l-12.85,-12.17v8.84c0,0.89 0.48,1.22 1.83,1.22h1.77v2.14h-10.53v-2.14h1.74c1.36,0 1.83,-0.34 1.83,-1.22v-10.64c0,-0.91 -0.47,-1.22 -1.83,-1.22h-1.74v-2.17h9.1zM38.5922,-0.0012c-8.08,0 -13.14,3.57 -13.14,9.31c0,5.63 4.98,9.18 12.89,9.18c8.39,0 13.28,-3.5 13.28,-9.47c0,-5.37 -5.27,-9.02 -13.03,-9.02zM38.4022,16.2188c-4.47,0 -7.04,-2.58 -7.04,-7.04c0,-4.36 2.68,-6.94 7.27,-6.94c4.39,0 6.96,2.64 6.96,7.12c0,4.38 -2.6,6.86 -7.19,6.86z" fill="black"/>
</g></svg>