<svg viewBox="0 0 113.055 22.1115" fill="none" xmlns="http://www.w3.org/2000/svg" xmlns:xlink="http://www.w3.org/1999/xlink" x="0" y="0"><g id="Groupe 6486">
<path id="Polygone 5" d="M10.188,1.39c0.3903,-0.64 1.3145,-0.64 1.7048,0l2.6066,4.25c0.1383,0.22 0.3604,0.39 0.6175,0.45l4.843,1.17c0.7245,0.17 1.0098,1.05 0.5267,1.62l-3.2326,3.8c-0.1712,0.2 -0.2559,0.46 -0.2355,0.72l0.3855,4.98c0.0576,0.74 -0.6899,1.28 -1.3792,1l-4.6023,-1.91c-0.2447,-0.1 -0.5195,-0.1 -0.7642,0l-4.6023,1.91c-0.6893,0.28 -1.4368,-0.26 -1.3792,-1l0.3855,-4.98c0.0204,-0.26 -0.0643,-0.52 -0.2355,-0.72l-3.2326,-3.8c-0.4831,-0.57 -0.1978,-1.45 0.5267,-1.62l4.843,-1.17c0.2571,-0.06 0.4792,-0.23 0.6175,-0.45z" fill="currentColor"/>
<path id="Polygone 6" d="M33.188,1.39c0.3903,-0.64 1.3145,-0.64 1.7048,0l2.6066,4.25c0.1383,0.22 0.3604,0.39 0.6175,0.45l4.843,1.17c0.7245,0.17 1.0098,1.05 0.5267,1.62l-3.2326,3.8c-0.1712,0.2 -0.2559,0.46 -0.2355,0.72l0.3855,4.98c0.0576,0.74 -0.6899,1.28 -1.3792,1l-4.6023,-1.91c-0.2447,-0.1 -0.5195,-0.1 -0.7642,0l-4.6023,1.91c-0.6893,0.28 -1.4368,-0.26 -1.3792,-1l0.3855,-4.98c0.0204,-0.26 -0.0643,-0.52 -0.2355,-0.72l-3.2326,-3.8c-0.4831,-0.57 -0.1978,-1.45 0.5267,-1.62l4.843,-1.17c0.2571,-0.06 0.4792,-0.23 0.6175,-0.45z" fill="currentColor"/>
<path id="Polygone 7" d="M55.188,1.39c0.3903,-0.64 1.3146,-0.64 1.7048,0l2.6066,4.25c0.1383,0.22 0.3604,0.39 0.6175,0.45l4.843,1.17c0.7245,0.17 1.0098,1.05 0.5268,1.62l-3.2327,3.8c-0.1712,0.2 -0.2559,0.46 -0.2355,0.72l0.3855,4.98c0.0576,0.74 -0.6899,1.28 -1.3792,1l-4.6023,-1.91c-0.2447,-0.1 -0.5195,-0.1 -0.7642,0l-4.6023,1.91c-0.6893,0.28 -1.4368,-0.26 -1.3792,-1l0.3855,-4.98c0.0204,-0.26 -0.0643,-0.52 -0.2355,-0.72l-3.2326,-3.8c-0.483,-0.57 -0.1977,-1.45 0.5267,-1.62l4.843,-1.17c0.2571,-0.06 0.4792,-0.23 0.6175,-0.45z" fill="currentColor"/>
<path id="Polygone 8" d="M78.188,1.39c0.3903,-0.64 1.3145,-0.64 1.7048,0l2.6066,4.25c0.138,0.22 0.36,0.39 0.618,0.45l4.843,1.17c0.724,0.17 1.009,1.05 0.526,1.62l-3.232,3.8c-0.172,0.2 -0.256,0.46 -0.236,0.72l0.386,4.98c0.057,0.74 -0.69,1.28 -1.38,1l-4.6019,-1.91c-0.2447,-0.1 -0.5195,-0.1 -0.7642,0l-4.6023,1.91c-0.6893,0.28 -1.4368,-0.26 -1.3792,-1l0.3855,-4.98c0.0204,-0.26 -0.0643,-0.52 -0.2355,-0.72l-3.2326,-3.8c-0.4831,-0.57 -0.1978,-1.45 0.5267,-1.62l4.843,-1.17c0.2571,-0.06 0.4792,-0.23 0.6175,-0.45z" fill="currentColor"/>
<path id="Polygone 34" d="M101.6774,1.48c0.386,-0.66 1.34,-0.66 1.726,0l2.426,4.15c0.135,0.23 0.357,0.4 0.617,0.46l4.579,1.16c0.707,0.18 0.99,1.04 0.531,1.6l-3.103,3.83c-0.161,0.2 -0.239,0.45 -0.221,0.71l0.367,4.96c0.055,0.75 -0.706,1.29 -1.396,0.99l-4.265,-1.85c-0.254,-0.11 -0.542,-0.11 -0.796,0l-4.265,1.85c-0.69,0.3 -1.451,-0.24 -1.396,-0.99l0.367,-4.96c0.018,-0.26 -0.06,-0.51 -0.221,-0.71l-3.103,-3.83c-0.459,-0.56 -0.176,-1.42 0.531,-1.6l4.579,-1.16c0.26,-0.06 0.482,-0.23 0.617,-0.46z" fill="currentColor"/>
</g></svg>