<svg viewBox="0 0 40.1433 40.1433" fill="none" xmlns="http://www.w3.org/2000/svg" xmlns:xlink="http://www.w3.org/1999/xlink" x="0" y="0"><path id="icon.svg (36)" d="M37.2747,14.4137c0.01,0 0.01,0 0,-0.1c0,-7.9 -6.8,-14.3 -15.17,-14.3h-4.06c-8.37,0 -15.18,6.4 -15.18,14.3c0,0.1 0,0.1 0,0.1c-1.68,0.5 -2.86,2 -2.86,3.7v4.8c0,2.1 1.71,3.8 3.82,3.8h1.91c0,7.4 5.99,13.4 13.38,13.4h1.91c6.32,0 11.31,-4.3 12.37,-8.2c1.15,-0.5 2.15,-1.3 2.93,-2.3c0.67,-0.9 1.04,-1.9 1.05,-3c1.63,-0.5 2.75,-2 2.77,-3.7v-4.8c0,-1.7 -1.18,-3.2 -2.87,-3.7zM18.0447,1.9137h4.06c7.31,0 13.26,5.6 13.26,12.4h-1.13c-0.93,-5.5 -5.7,-9.5 -11.3,-9.5h-5.73c-5.59,0 -10.37,4 -11.3,9.5h-1.13c0,-6.8 5.95,-12.4 13.27,-12.4zM32.4947,16.2137h-12.33c-2.37,0 -4.41,-1.7 -4.87,-4c-0.05,-0.5 -0.53,-0.9 -1.05,-0.8c-0.53,0 -0.92,0.5 -0.86,1c0,1.1 -0.86,1.9 -1.92,1.9h-3.63c0.91,-4.4 4.83,-7.6 9.37,-7.6h5.73c5.28,0 9.56,4.3 9.56,9.5zM3.8247,24.8137c-1.06,0 -1.91,-0.8 -1.91,-1.9v-4.8c0,-1 0.85,-1.9 1.91,-1.9h1.91v8.6zM24.6647,31.5137c-0.4,-1.1 -1.47,-1.9 -2.68,-1.9h-3.82c-1.59,0 -2.87,1.3 -2.87,2.9c0,1.6 1.28,2.9 2.87,2.9h3.82c1.21,-0.1 2.29,-0.8 2.69,-2c2.14,0 4.28,-0.2 6.36,-0.7c-1.49,2.8 -5.3,5.5 -10.01,5.5h-1.91c-6.33,0 -11.47,-5.1 -11.47,-11.5v-10.5h3.82c1.1,0 2.15,-0.4 2.87,-1.3c1.27,2 3.47,3.2 5.83,3.2h12.33v7.7c0,0.5 0.43,0.9 0.96,0.9h1.99c-0.05,0.7 -0.28,1.3 -0.66,1.8c-1.02,1.3 -3.6,2.9 -10.12,3zM22.9347,32.5137c0,0.5 -0.42,0.9 -0.95,0.9h-3.82c-0.53,0 -0.96,-0.4 -0.96,-0.9c0,-0.5 0.43,-1 0.96,-1h3.82c0.53,0 0.95,0.5 0.95,1zM38.2347,22.9137c0,1.1 -0.86,1.9 -1.91,1.9h-1.92v-8.6h1.92c1.05,0 1.91,0.9 1.91,1.9z" fill="black"/></svg>