<svg viewBox="0 0 548.9475 64.4203" fill="none" xmlns="http://www.w3.org/2000/svg" xmlns:xlink="http://www.w3.org/1999/xlink" x="0" y="0"><g id="Groupe 8865">
<g id="Groupe 9001">
<path id="Shape" d="M67.512,22.67h26.198v5.04h-10.076v27.21h-6.046v-27.21h-10.076zM92.199,31.24h5.038v4.53c0,-0.5 0.504,-1.01 1.008,-2.01c0.503,-1.01 1.007,-1.01 1.511,-1.52c0.504,-0.5 1.512,-1 2.015,-1c0.504,-0.51 1.512,-0.51 2.519,-0.51c0.504,0 1.008,0 1.008,0h0.504v5.04c-0.504,0 -0.504,0 -1.008,0c-0.504,0 -0.504,0 -1.007,0c-1.008,0 -1.512,0 -2.519,0.5c-1.008,0.51 -1.512,1.01 -2.016,1.52c-0.504,0.5 -1.007,1.51 -1.511,2.52c-0.504,1 -0.504,2.01 -0.504,3.52v11.09h-5.038zM129.481,54.92h-5.038v-3.03c-0.504,1.01 -1.511,2.02 -3.023,3.03c-1.007,0.5 -2.519,1 -4.03,1c-3.023,0 -5.038,-0.5 -6.55,-2.52c-1.511,-2.01 -2.015,-4.03 -2.015,-7.05v-14.61h5.038v14.11c0,2.01 0.504,3.52 1.008,4.53c1.007,1.01 2.015,1.51 3.526,1.51c1.008,0 2.016,0 2.519,-0.5c0.504,-0.5 1.512,-1.01 1.512,-1.51c0.504,-0.51 1.008,-1.01 1.008,-2.02c0,-1 0.503,-1.51 0.503,-2.52v-13.6h5.039v23.18zM138.046,47.36c0,1.51 0.504,2.52 1.512,3.02c1.007,0.51 2.015,1.01 3.526,1.01c0.504,0 1.008,0 1.512,0c0.504,0 1.008,0 1.511,-0.5c0.504,0 1.008,-0.51 1.512,-1.01c0.504,-0.51 0.504,-1.01 0.504,-1.51c0,-0.51 -0.504,-1.01 -0.504,-1.51c-0.504,-0.51 -1.008,-0.51 -1.512,-1.01c-0.503,0 -1.511,-0.51 -2.519,-0.51c-1.007,0 -2.015,-0.5 -2.519,-0.5c-1.007,0 -2.015,-0.5 -2.519,-1.01c-0.504,-0.5 -1.511,-0.5 -2.519,-1.01c-0.504,-0.5 -1.511,-1 -1.511,-2.01c-0.504,-1.01 -0.504,-2.02 -0.504,-3.02c0,-1.52 0.504,-2.52 1.007,-3.03c0.504,-0.5 1.512,-1.51 2.52,-2.01c1.007,-0.51 2.015,-1.01 3.022,-1.01c1.008,0 2.519,-0.5 3.527,-0.5c1.008,0 2.519,0 3.527,0.5c1.008,0 2.015,0.5 3.023,1.01c1.007,0.5 1.511,1.51 2.015,2.01c0.504,1.01 1.008,2.02 1.008,3.53h-5.542c0,-1.01 -1.008,-2.02 -1.512,-2.52c-1.511,-0.5 -2.519,-1.01 -3.527,-1.01c-0.503,0 -1.007,0 -1.511,0c-0.504,0 -1.008,0 -1.511,0.51c-0.504,0 -1.008,0.5 -1.008,0.5c-0.504,0.5 -0.504,0.5 -0.504,1.01c0,0.5 0,1.01 0.504,1.51c0.504,0.5 1.008,0.5 1.511,1.01c0.504,0 1.512,0.5 2.519,0.5c1.008,0 2.016,0.51 3.023,0.51c1.008,0 2.016,0.5 2.52,1c1.007,0.51 1.511,0.51 2.519,1.01c1.007,0.5 1.511,1.01 1.511,2.02c0.504,1 0.504,1.51 0.504,3.02c0,1.51 -0.504,2.52 -1.008,3.53c-0.504,1 -1.511,1.51 -2.519,2.51c-0.504,1.01 -1.511,1.52 -2.519,1.52c-1.008,0 -2.519,0.5 -3.527,0.5c-1.511,0 -3.023,0 -4.03,-0.5c-1.008,-0.51 -2.519,-1.01 -3.023,-1.52c-1.008,-0.5 -1.512,-1.51 -2.015,-2.51c-1.008,-1.01 -1.512,-2.02 -1.512,-3.53zM155.176,31.24h4.031v-6.55h5.038v7.05h4.534v4.03h-4.534v12.6c0,0.5 0,1 0,1.51c0,0.5 0,0.5 0.504,1.01c0.504,0.5 0.504,0.5 0.504,0.5c0.503,0 1.007,0 1.511,0c0.504,0 0.504,0 1.008,0c0.503,0 0.503,0 1.007,0v3.53c-0.504,0 -1.007,0 -1.511,0c-0.504,0 -1.008,0 -1.512,0c-1.511,0 -2.519,0 -3.023,-0.51c-1.007,0 -1.511,-0.5 -2.015,-1.01c-0.504,-0.5 -1.007,-1 -1.007,-2.01c0,-0.5 -0.504,-1.51 -0.504,-2.52v-13.6h-4.031zM172.306,31.24h5.038v3.52c0.504,-1.51 1.512,-2.52 3.023,-3.02c1.512,-0.5 2.519,-1.01 4.031,-1.01c2.015,0 3.526,0.51 5.038,1.01c1.511,0.5 2.519,1.51 3.527,2.52c1.007,1.01 1.511,2.52 2.015,4.03c0.504,1.51 0.504,3.02 0.504,5.04c0,1.51 0,3.02 -0.504,4.53c-0.504,1.51 -1.008,2.52 -2.015,4.03c-1.008,1.01 -2.016,2.02 -3.023,2.52c-1.512,0.51 -2.519,1.01 -4.535,1.01c-0.504,0 -1.511,0 -2.015,0c-0.504,0 -1.511,-0.5 -2.015,-0.5c-0.504,-0.51 -1.512,-0.51 -2.016,-1.01c-0.503,-0.51 -1.007,-1.01 -1.511,-1.51v11.58h-5.038v-32.74zM190.443,43.33c0,-1.01 0,-2.02 -0.503,-3.02c-0.504,-1.01 -0.504,-2.02 -1.008,-2.52c-0.504,-0.51 -1.008,-1.52 -2.015,-2.02c-1.008,-0.5 -1.512,-0.5 -3.023,-0.5c-2.015,0 -4.031,0.5 -5.038,2.01c-1.008,1.51 -1.512,3.53 -1.512,6.05c0,1.01 0,2.52 0.504,3.02c0.504,1.01 0.504,2.02 1.511,2.52c0.504,0.5 1.008,1.51 2.016,1.51c1.007,0.51 1.511,0.51 2.519,0.51c1.007,0 2.015,0 3.023,-0.51c1.007,-0.5 1.511,-1.01 2.015,-2.01c0.504,-1.01 1.008,-1.51 1.008,-2.52c0,-0.51 0.503,-1.51 0.503,-2.52zM199.512,22.67h5.038v5.04h-5.038zM199.512,31.24h5.038v23.68h-5.038zM209.085,22.67h5.038v32.25h-5.038zM229.741,55.42c-2.015,0 -3.526,-0.5 -5.038,-1.01c-1.511,-0.5 -2.519,-1.51 -3.527,-2.52c-1.007,-1 -2.015,-2.52 -2.519,-4.03c-0.504,-1.51 -1.007,-3.02 -1.007,-5.04c0,-2.01 0.503,-3.52 1.007,-5.03c0.504,-1.52 1.512,-3.03 2.519,-4.03c1.008,-1.01 2.016,-2.02 3.527,-2.52c1.512,-0.51 3.023,-1.01 5.038,-1.01c2.016,0 3.527,0.5 5.039,1.01c1.511,0.5 2.519,1.51 3.526,2.52c1.008,1 2.016,2.51 2.519,4.03c0.504,1.51 1.008,3.02 1.008,5.03c0,2.02 -0.504,3.53 -1.008,5.04c-0.503,1.51 -1.511,3.03 -2.519,4.03c-1.007,1.01 -2.015,2.02 -3.526,2.52c-1.512,0.51 -3.023,1.01 -5.039,1.01zM229.741,51.39c1.008,0 2.016,0 3.023,-0.5c1.008,-0.51 1.512,-1.01 2.016,-2.02c0.503,-1.01 1.007,-1.51 1.007,-2.52c0,-1.01 0.504,-2.01 0.504,-3.02c0,-1.01 0,-2.02 -0.504,-3.02c0,-1.01 -0.504,-2.02 -1.007,-2.52c-0.504,-0.51 -1.008,-1.52 -2.016,-2.02c-1.007,-0.5 -2.015,-0.5 -3.023,-0.5c-1.007,0 -2.015,0 -3.023,0.5c-1.007,0.5 -1.511,1.01 -2.015,2.02c-0.504,1 -1.008,1.51 -1.008,2.52c0,1 -0.503,2.01 -0.503,3.02c0,1.01 0,2.01 0.503,3.02c0,1.01 0.504,2.02 1.008,2.52c0.504,1.01 1.008,1.51 2.015,2.02c1.008,0 2.016,0.5 3.023,0.5zM243.344,31.24h4.031v-6.55h5.038v7.05h4.535v4.03h-4.535v12.6c0,0.5 0,1 0,1.51c0,0.5 0,0.5 0.504,1.01c0.504,0.5 0.504,0.5 0.504,0.5c0.504,0 1.007,0 1.511,0c0.504,0 0.504,0 1.008,0c0.504,0 0.504,0 1.007,0v3.53c-0.503,0 -1.007,0 -1.511,0c-0.504,0 -1.008,0 -1.511,0c-1.512,0 -2.519,0 -3.023,-0.51c-1.008,0 -1.512,-0.5 -2.016,-1.01c-0.503,-0.5 -1.007,-1 -1.007,-2.01c0,-0.5 -0.504,-1.51 -0.504,-2.52v-13.6h-4.031z" fill="#0D0D0D"/>
<g id="Star">
<path id="Path" d="M61.466,22.67h-23.68l-7.053,-22.67l-7.557,22.67h-23.176l18.641,13.6l-7.053,22.68l19.145,-14.11l18.641,14.11l-7.053,-22.68z" fill="#00B67A"/>
<path id="Path_00000139974370896774244940000013599419466242447510_" d="M43.832,41.31l-1.511,-5.04l-11.588,8.57z" fill="#005128"/>
</g>
</g>
<g id="Groupe 8864">
<path id="Rectangle" d="M292,16.05h48.367v48.37h-48.367z" fill="#00B67A"/>
<path id="Rectangle_00000119823381696065812290000006309620969489227403_" d="M343.893,16.05h48.367v48.37h-48.367z" fill="#00B67A"/>
<path id="Rectangle_00000111193577153650357570000000971353195221845171_" d="M396.29,16.05h48.367v48.37h-48.367z" fill="#00B67A"/>
<path id="Rectangle_00000008833768892528033700000000322006702697863864_" d="M448.184,16.05h48.366v48.37h-48.366z" fill="#00B67A"/>
<path id="Rectangle_00000134962926880305233990000003318531366453452990_" d="M500.58,16.05h48.37v48.37h-48.37z" fill="#DCDCE6"/>
<path id="Rectangle_00000044876543712720924350000008132246518786235026_" d="M500.58,16.05h24.18v47.87h-24.18z" fill="#00B67A"/>
<path id="Shape_00000004503963772281965500000004689748023012954798_" d="M315.679,48.3l7.558,-2.02l3.023,9.58zM332.809,36.21h-13.099l-4.031,-12.1l-4.03,12.1h-12.596l10.581,7.55l-4.031,12.1l10.58,-7.56l6.55,-4.54z" fill="white"/>
<path id="Shape_00000062892359206520126170000006215398374882685355_" d="M368.077,48.3l7.557,-2.02l3.023,9.58zM384.703,36.21h-13.1l-4.03,-12.1l-4.031,12.1h-13.099l10.58,7.55l-4.03,12.1l10.58,-7.56l6.55,-4.54z" fill="white"/>
<path id="Shape_00000041986034659674372480000017210300048664811149_" d="M420.474,48.3l7.557,-2.02l3.023,9.58zM437.1,36.21h-13.1l-4.03,-12.1l-4.031,12.1h-13.099l10.58,7.55l-3.526,12.1l10.58,-7.56l6.549,-4.54z" fill="white"/>
<path id="Shape_00000155124147350657945740000004241176506388462744_" d="M472.37,48.3l7.55,-2.02l3.03,9.58zM489.5,36.21h-13.1l-4.03,-12.1l-4.03,12.1h-13.1l10.58,7.55l-4.03,12.1l10.58,-7.56l6.55,-4.54z" fill="white"/>
<path id="Shape_00000131362776327819300620000011855054010791946398_" d="M524.76,48.3l7.56,-2.02l3.02,9.58zM541.39,36.21h-13.1l-4.03,-12.1l-3.53,12.1h-13.1l10.58,7.55l-4.03,12.1l10.58,-7.56l6.55,-4.54z" fill="white"/>
</g>
</g></svg>