<svg viewBox="0 0 47.4967 47.7238" fill="none" xmlns="http://www.w3.org/2000/svg" xmlns:xlink="http://www.w3.org/1999/xlink" x="0" y="0"><path id="Tracé 10163" d="M40.58,6.9449c-4.47,-4.5 -10.41,-6.9 -16.73,-6.9c-13.04,0 -23.65,10.6 -23.65,23.6c0,4.2 1.09,8.2 3.16,11.8l-3.36,12.3l12.54,-3.3c3.45,1.9 7.34,2.9 11.3,2.9h0.01c13.03,0 23.64,-10.6 23.65,-23.7c0,-6.3 -2.46,-12.2 -6.92,-16.7zM23.85,43.3449h-0.01c-3.53,0 -6.99,-1 -10,-2.8l-0.72,-0.4l-7.44,2l1.99,-7.3l-0.47,-0.7c-1.97,-3.2 -3.01,-6.8 -3.01,-10.5c0.01,-10.8 8.83,-19.7 19.67,-19.7c5.25,0 10.18,2.1 13.89,5.8c3.72,3.7 5.76,8.7 5.76,13.9c-0.01,10.9 -8.83,19.7 -19.66,19.7zM34.63,28.6449c-0.59,-0.3 -3.5,-1.8 -4.04,-2c-0.54,-0.2 -0.93,-0.3 -1.33,0.3c-0.39,0.6 -1.52,1.9 -1.87,2.3c-0.34,0.4 -0.69,0.5 -1.28,0.2c-0.59,-0.3 -2.5,-0.9 -4.75,-2.9c-1.76,-1.6 -2.95,-3.5 -3.29,-4.1c-0.34,-0.6 -0.04,-0.9 0.26,-1.2c0.26,-0.3 0.59,-0.7 0.89,-1.1c0.29,-0.3 0.39,-0.6 0.59,-1c0.2,-0.4 0.1,-0.7 -0.05,-1c-0.15,-0.3 -1.33,-3.2 -1.82,-4.4c-0.48,-1.1 -0.97,-1 -1.33,-1c-0.35,0 -0.74,0 -1.14,0c-0.39,0 -1.03,0.1 -1.57,0.7c-0.54,0.6 -2.07,2 -2.07,5c0,2.9 2.12,5.7 2.41,6.1c0.3,0.4 4.17,6.3 10.1,8.9c1.41,0.6 2.51,1 3.37,1.2c1.41,0.5 2.7,0.4 3.72,0.3c1.13,-0.2 3.49,-1.5 3.99,-2.8c0.49,-1.4 0.49,-2.6 0.34,-2.9c-0.14,-0.2 -0.54,-0.4 -1.13,-0.6z" fill="currentColor"/></svg>